<?xml version="1.0" encoding="UTF-8" standalone="no"?>
<!-- Created with Inkscape (http://www.inkscape.org/) -->

<svg
   width="210mm"
   height="297mm"
   viewBox="0 0 210 297"
   version="1.1"
   id="svg5"
   inkscape:version="1.1.2 (0a00cf5339, 2022-02-04)"
   sodipodi:docname="price_tag.svg"
   xmlns:inkscape="http://www.inkscape.org/namespaces/inkscape"
   xmlns:sodipodi="http://sodipodi.sourceforge.net/DTD/sodipodi-0.dtd"
   xmlns="http://www.w3.org/2000/svg"
   xmlns:svg="http://www.w3.org/2000/svg">
  <sodipodi:namedview
     id="namedview7"
     pagecolor="#ffffff"
     bordercolor="#000000"
     borderopacity="0.25"
     inkscape:pageshadow="2"
     inkscape:pageopacity="0.0"
     inkscape:pagecheckerboard="0"
     inkscape:document-units="mm"
     showgrid="false"
     inkscape:zoom="1.5554293"
     inkscape:cx="327.24085"
     inkscape:cy="357.45759"
     inkscape:window-width="1850"
     inkscape:window-height="1043"
     inkscape:window-x="70"
     inkscape:window-y="199"
     inkscape:window-maximized="1"
     inkscape:current-layer="layer1" />
  <defs
     id="defs2" />
  <g
     inkscape:label="Layer 1"
     inkscape:groupmode="layer"
     id="layer1">
    <path
       style="fill:#004c8d;fill-opacity:1;stroke-width:1"
       d="m 121.71154,119.51989 c -1.76418,2.02781 -16.83039,14.77789 -18.75924,15.87538 -0.95272,0.54208 -1.89322,0.87649 -2.35971,0.83902 -1.559573,-0.12526 -3.823701,-2.46305 -15.186428,-15.6805 l -11.339318,-13.19022 0.472196,-4.91142 0.472197,-4.911434 5.07973,0.585525 5.079731,0.585514 1.356604,-1.059503 c 2.766938,-2.16099 3.075288,-4.722987 0.845166,-7.022318 -1.520845,-1.568049 -4.166593,-2.058699 -5.697586,-1.056611 -1.107598,0.724955 -1.846075,0.951902 -3.781035,1.161966 l -1.881742,0.204287 0.256154,-1.08025 c 0.140889,-0.594148 0.478935,-1.687906 0.751223,-2.430591 0.41303,-1.126559 0.616324,-1.367236 1.2268,-1.452386 0.402454,-0.05616 0.932473,-0.139044 1.177823,-0.184237 1.662198,-0.306149 7.447378,-0.322028 12.853785,-0.03528 l 6.362027,0.337436 8.945483,10.513889 c 14.29562,16.802053 15.62435,18.552593 15.47677,20.389973 -0.0679,0.84522 -0.3495,1.37103 -1.35062,2.52176 z m -13.65013,-0.62499 c -0.73826,-0.99076 -0.69703,-1.57688 0.21014,-2.9874 1.11048,-1.72663 0.36274,-5.09848 -1.46194,-6.59214 -1.60732,-1.31574 -3.28964,-1.49979 -6.43459,-0.70395 -3.488901,0.88288 -4.331667,0.99419 -4.87616,0.644 -1.161131,-0.74677 0.526541,-3.18106 3.127479,-4.51107 1.211945,-0.61974 1.294732,-0.72256 1.105442,-1.37305 -0.692503,-2.37976 -1.160785,-2.60137 -3.602953,-1.70503 -1.863105,0.68381 -1.941378,0.68982 -2.633647,0.20214 -0.971935,-0.68468 -1.357198,-0.67174 -2.234388,0.075 -0.935416,0.79634 -0.975454,1.20491 -0.200697,2.04792 0.707178,0.76946 0.710079,1.18651 0.02046,2.94029 -0.86429,2.19798 -0.201847,4.9354 1.567239,6.4763 1.007732,0.87777 4.202133,1.09651 6.113185,0.41866 1.84198,-0.65338 3.52305,-0.86369 4.58811,-0.57398 0.80163,0.21806 0.87649,0.32427 0.81022,1.14944 -0.089,1.1081 -1.5062,2.71532 -2.92035,3.3119 -0.52889,0.22311 -1.390458,0.71376 -1.914608,1.09034 -1.07612,0.77313 -1.098395,1.30104 -0.107956,2.55825 0.760952,0.96592 1.591764,1.00745 3.400304,0.16998 1.71341,-0.79341 2.39008,-0.79361 3.46864,-0.001 l 0.78939,0.58006 0.90221,-0.59616 c 1.11896,-0.73937 1.19107,-1.40371 0.2845,-2.62042 z"
       id="path854"
       sodipodi:nodetypes="sssscccccsssscssssscssssssssssssssssssssssssscsss"
       inkscape:export-filename="/home/marcell/projects/cppcon_2024/presentation/price_tag.png"
       inkscape:export-xdpi="300"
       inkscape:export-ydpi="300" />
    <path
       d="m 41.044561,143.94496 c -0.33285,-0.6509 -0.385256,-0.66204 -3.338791,-0.70961 -5.905369,-0.0951 -7.549431,-0.3557 -11.522881,-1.82655 -3.25975,-1.20667 -3.673888,-1.41893 -4.40536,-2.25812 -1.571053,-1.80238 -2.141353,-4.29665 -1.503389,-6.57526 0.537177,-1.91864 1.456961,-3.11596 3.122127,-4.06421 1.869353,-1.06453 2.437079,-1.17411 4.444519,-0.85781 1.446827,0.22797 2.182351,0.50825 4.637909,1.76767 4.214318,2.16089 4.634522,2.29646 5.398307,1.74164 0.590321,-0.42881 0.611799,-0.81318 0.471284,-1.22844 -1.122191,-3.31059 -5.343942,-4.617 -8.934442,-5.49086 -3.633161,-0.88425 -6.664933,-0.0146 -9.744031,2.79511 -2.107011,1.92264 -2.911685,4.03684 -2.927919,7.69293 -0.01399,3.14289 1.898722,6.22271 5.259282,8.46842 2.996957,2.00273 10.565603,3.55375 15.501725,3.17671 3.11215,-0.23771 4.310547,-1.12801 3.541845,-2.63121 z"
       style="fill:#000000;stroke-width:1;stroke-miterlimit:4;stroke-dasharray:none"
       id="path1318" />
    <path
       style="fill:#000000;fill-opacity:1;stroke:#000000;stroke-width:0;stroke-miterlimit:4;stroke-dasharray:none"
       id="path2372"
       d="m 84.110666,92.68951 c -0.979207,0.191993 -1.970559,0.375174 -2.967686,0.446606 -0.336947,0.02413 -0.675187,0.02432 -1.01278,0.03647 -2.872081,0.01423 -5.666914,-0.739371 -8.397047,-1.555806 -2.012794,-0.701114 -4.08433,-1.358059 -5.922922,-2.463202 -0.235448,-0.141523 -0.458283,-0.303038 -0.687425,-0.454557 -1.068168,-0.817303 -1.86083,-1.919129 -2.462932,-3.112436 -0.110038,-0.218088 -0.204036,-0.443908 -0.306057,-0.665859 -0.366694,-0.904531 -0.55205,-1.877732 -0.4583,-2.852602 0.04745,-0.306388 0.02191,-0.161343 0.07489,-0.43543 0,0 -3.841218,-0.341612 -3.841218,-0.341612 v 0 c -0.01561,0.499973 -0.01199,0.233913 -0.007,0.798222 0.09218,1.52542 0.353872,3.035157 1.048168,4.414477 0.149524,0.283885 0.289904,0.572781 0.448575,0.851657 0.727826,1.279207 1.649939,2.6196 2.75378,3.600802 0.29127,0.258908 0.617538,0.475538 0.926307,0.713309 0.327665,0.19033 0.645832,0.398049 0.982998,0.570992 0.650375,0.333597 1.559518,0.679071 2.236166,0.930663 1.420191,0.528056 2.858661,1.006494 4.300707,1.470753 0.530873,0.161981 1.058404,0.335338 1.592614,0.485942 2.512026,0.708189 5.089731,1.249071 7.694062,1.450117 0.417624,0.01762 0.834935,0.04594 1.252874,0.05283 1.051454,0.01733 2.102784,-0.09371 3.154047,-0.03851 0,0 -0.401862,-3.902829 -0.401862,-3.902829 z"
       inkscape:export-filename="/home/marcell/projects/cppcon_2024/presentation/price_tag.png"
       inkscape:export-xdpi="300"
       inkscape:export-ydpi="300" />
    <path
       style="fill:#000000;fill-opacity:1;stroke:#000000;stroke-width:0;stroke-miterlimit:4;stroke-dasharray:none"
       id="path2378"
       d="m 68.427083,66.21927 c 0.518173,-0.425474 1.167154,-0.686033 1.78502,-0.933164 0.901922,-0.394949 1.864619,-0.57531 2.834169,-0.703408 1.196945,-0.123936 2.403221,-0.208449 3.607556,-0.183192 0.691198,0.0145 1.222777,0.07413 1.909263,0.136001 1.724755,0.221795 3.413236,0.664059 5.071602,1.177917 0.951494,0.311512 1.896594,0.657183 2.795325,1.101648 0.500595,0.247568 0.629402,0.34118 1.094351,0.627677 0.987346,0.632433 1.678117,1.576429 2.3163,2.538534 0.642851,1.01491 1.160235,2.097124 1.624986,3.202347 0.330134,0.778523 0.573112,1.588397 0.728496,2.418749 0.162036,0.796105 0.259543,1.600333 0.32462,2.409291 0.04201,0.543097 0.03202,1.087787 0.0093,1.631386 -0.02008,0.326128 -0.0069,0.651828 -0.02146,0.978157 -0.0424,0.354743 -0.194656,0.687943 -0.338539,1.012603 -0.104905,0.08435 -0.274355,0.63247 -0.309264,0.64784 -0.01537,0.0068 0.01095,-0.03175 0.01643,-0.04762 -0.07455,0.159522 -0.130559,0.328083 -0.205835,0.487346 -0.0024,0.0053 -0.0026,-0.01204 -5.3e-4,-0.01746 0.01392,-0.03532 0.02943,-0.07019 0.0481,-0.103251 0.02511,-0.04448 0.05527,-0.08591 0.08291,-0.128868 0.158252,-0.188592 0.153868,-0.173088 -0.04564,0.01593 0,0 2.973732,2.658377 2.973732,2.658377 v 0 c -0.19797,0.180068 -0.168376,0.15984 0.06151,-0.08821 0.254857,-0.336666 0.465296,-0.692986 0.620186,-1.086516 0.144793,-0.311685 0.236236,-0.606193 0.371078,-0.926457 0.239855,-0.686666 0.505918,-1.375196 0.583716,-2.103462 0.05028,-0.438713 0.0867,-0.87926 0.05137,-1.320776 -0.03158,-0.651602 -0.06002,-1.303499 -0.107857,-1.954149 -0.09149,-0.92552 -0.28307,-1.836039 -0.426514,-2.754368 -0.08192,-0.437594 -0.115866,-0.667501 -0.231613,-1.095721 C 95.45511,73.09598 95.144528,72.414582 94.84143,71.734833 94.270102,70.427511 93.645447,69.146089 92.842092,67.962015 91.854689,66.510207 90.88344,65.231089 89.351423,64.304034 89.118373,64.174206 88.888628,64.03826 88.65227,63.914554 87.369628,63.24323 86.007585,62.738392 84.632649,62.29319 c -1.902894,-0.525923 -3.836165,-0.988541 -5.798413,-1.222094 -2.047444,-0.138568 -4.099631,-0.175302 -6.150988,-0.108 -0.651336,0.0499 -0.875152,0.05017 -1.507977,0.162147 -0.79243,0.140218 -1.562272,0.393078 -2.314511,0.673449 -0.86346,0.326946 -1.700684,0.714428 -2.54421,1.089096 0,0 2.110518,3.331472 2.110518,3.331472 z"
       inkscape:export-filename="/home/marcell/projects/cppcon_2024/presentation/price_tag.png"
       inkscape:export-xdpi="300"
       inkscape:export-ydpi="300" />
  </g>
</svg>
