%TF.GenerationSoftware,KiCad,Pcbnew,7.0.10-7.0.10~ubuntu22.04.1*%
%TF.CreationDate,2024-05-26T20:09:49+02:00*%
%TF.ProjectId,hardware,68617264-7761-4726-952e-6b696361645f,rev?*%
%TF.SameCoordinates,Original*%
%TF.FileFunction,Soldermask,Bot*%
%TF.FilePolarity,Negative*%
%FSLAX46Y46*%
G04 Gerber Fmt 4.6, Leading zero omitted, Abs format (unit mm)*
G04 Created by KiCad (PCBNEW 7.0.10-7.0.10~ubuntu22.04.1) date 2024-05-26 20:09:49*
%MOMM*%
%LPD*%
G01*
G04 APERTURE LIST*
G04 Aperture macros list*
%AMRoundRect*
0 Rectangle with rounded corners*
0 $1 Rounding radius*
0 $2 $3 $4 $5 $6 $7 $8 $9 X,Y pos of 4 corners*
0 Add a 4 corners polygon primitive as box body*
4,1,4,$2,$3,$4,$5,$6,$7,$8,$9,$2,$3,0*
0 Add four circle primitives for the rounded corners*
1,1,$1+$1,$2,$3*
1,1,$1+$1,$4,$5*
1,1,$1+$1,$6,$7*
1,1,$1+$1,$8,$9*
0 Add four rect primitives between the rounded corners*
20,1,$1+$1,$2,$3,$4,$5,0*
20,1,$1+$1,$4,$5,$6,$7,0*
20,1,$1+$1,$6,$7,$8,$9,0*
20,1,$1+$1,$8,$9,$2,$3,0*%
G04 Aperture macros list end*
%ADD10R,1.700000X1.700000*%
%ADD11O,1.700000X1.700000*%
%ADD12C,0.700000*%
%ADD13C,4.400000*%
%ADD14C,2.000000*%
%ADD15RoundRect,0.250000X0.450000X0.450000X-0.450000X0.450000X-0.450000X-0.450000X0.450000X-0.450000X0*%
%ADD16C,1.400000*%
G04 APERTURE END LIST*
D10*
%TO.C,J8*%
X124244000Y-100330000D03*
D11*
X124244000Y-102870000D03*
X124244000Y-105410000D03*
%TD*%
D10*
%TO.C,J2*%
X136944000Y-140970000D03*
D11*
X139484000Y-140970000D03*
X142024000Y-140970000D03*
%TD*%
D12*
%TO.C,H1*%
X153074000Y-80010000D03*
X153557274Y-78843274D03*
X153557274Y-81176726D03*
X154724000Y-78360000D03*
D13*
X154724000Y-80010000D03*
D12*
X154724000Y-81660000D03*
X155890726Y-78843274D03*
X155890726Y-81176726D03*
X156374000Y-80010000D03*
%TD*%
D10*
%TO.C,J3*%
X124244000Y-113030000D03*
D11*
X124244000Y-115570000D03*
X124244000Y-118110000D03*
X124244000Y-120650000D03*
X124244000Y-123190000D03*
X124244000Y-125730000D03*
X124244000Y-128270000D03*
X124244000Y-130810000D03*
X124244000Y-133350000D03*
X124244000Y-135890000D03*
%TD*%
D12*
%TO.C,H2*%
X122594000Y-80010000D03*
X123077274Y-78843274D03*
X123077274Y-81176726D03*
X124244000Y-78360000D03*
D13*
X124244000Y-80010000D03*
D12*
X124244000Y-81660000D03*
X125410726Y-78843274D03*
X125410726Y-81176726D03*
X125894000Y-80010000D03*
%TD*%
D10*
%TO.C,J4*%
X154724000Y-110490000D03*
D11*
X154724000Y-113030000D03*
X154724000Y-115570000D03*
X154724000Y-118110000D03*
X154724000Y-120650000D03*
%TD*%
D10*
%TO.C,J9*%
X154724000Y-85090000D03*
D11*
X154724000Y-87630000D03*
X154724000Y-90170000D03*
%TD*%
D14*
%TO.C,SW1*%
X129614000Y-136600000D03*
X129614000Y-130100000D03*
X134114000Y-136600000D03*
X134114000Y-130100000D03*
%TD*%
D10*
%TO.C,J1*%
X139484000Y-80010000D03*
D11*
X142024000Y-80010000D03*
X144564000Y-80010000D03*
X147104000Y-80010000D03*
X149644000Y-80010000D03*
%TD*%
D12*
%TO.C,H4*%
X122594000Y-140970000D03*
X123077274Y-139803274D03*
X123077274Y-142136726D03*
X124244000Y-139320000D03*
D13*
X124244000Y-140970000D03*
D12*
X124244000Y-142620000D03*
X125410726Y-139803274D03*
X125410726Y-142136726D03*
X125894000Y-140970000D03*
%TD*%
D15*
%TO.C,SW3*%
X134364000Y-81405000D03*
D16*
X131864000Y-81405000D03*
X129364000Y-81405000D03*
X129364000Y-78105000D03*
X131864000Y-78105000D03*
X134364000Y-78105000D03*
%TD*%
D10*
%TO.C,J7*%
X124244000Y-85090000D03*
D11*
X124244000Y-87630000D03*
X124244000Y-90170000D03*
X124244000Y-92710000D03*
X124244000Y-95250000D03*
%TD*%
D14*
%TO.C,SW2*%
X144854000Y-136600000D03*
X144854000Y-130100000D03*
X149354000Y-136600000D03*
X149354000Y-130100000D03*
%TD*%
D10*
%TO.C,J5*%
X154724000Y-95250000D03*
D11*
X154724000Y-97790000D03*
X154724000Y-100330000D03*
X154724000Y-102870000D03*
X154724000Y-105410000D03*
%TD*%
D10*
%TO.C,J6*%
X154724000Y-125730000D03*
D11*
X154724000Y-128270000D03*
X154724000Y-130810000D03*
X154724000Y-133350000D03*
X154724000Y-135890000D03*
%TD*%
D12*
%TO.C,H3*%
X153074000Y-140970000D03*
X153557274Y-139803274D03*
X153557274Y-142136726D03*
X154724000Y-139320000D03*
D13*
X154724000Y-140970000D03*
D12*
X154724000Y-142620000D03*
X155890726Y-139803274D03*
X155890726Y-142136726D03*
X156374000Y-140970000D03*
%TD*%
M02*
