M48
; DRILL file {KiCad 7.0.10-7.0.10~ubuntu22.04.1} date 2024. máj. 26., vasárnap, 20:09:44 CEST
; FORMAT={-:-/ absolute / inch / decimal}
; #@! TF.CreationDate,2024-05-26T20:09:44+02:00
; #@! TF.GenerationSoftware,Kicad,Pcbnew,7.0.10-7.0.10~ubuntu22.04.1
; #@! TF.FileFunction,Plated,1,4,PTH
FMAT,2
INCH
; #@! TA.AperFunction,Plated,PTH,ViaDrill
T1C0.0118
; #@! TA.AperFunction,Plated,PTH,ComponentDrill
T2C0.0157
; #@! TA.AperFunction,Plated,PTH,ComponentDrill
T3C0.0354
; #@! TA.AperFunction,Plated,PTH,ComponentDrill
T4C0.0394
; #@! TA.AperFunction,Plated,PTH,ComponentDrill
T5C0.0433
; #@! TA.AperFunction,Plated,PTH,ComponentDrill
T6C0.0866
%
G90
G05
T1
X4.9646Y-4.7224
X4.9665Y-5.0217
X4.9685Y-3.6122
X4.9744Y-3.4154
X4.9823Y-4.8031
X4.9843Y-5.1181
X4.99Y-4.265
X4.9921Y-3.7835
X5.002Y-4.6024
X5.005Y-4.335
X5.0453Y-4.8406
X5.061Y-3.6004
X5.085Y-4.46
X5.09Y-4.4
X5.115Y-5.0
X5.12Y-4.09
X5.122Y-3.7717
X5.135Y-4.17
X5.1417Y-3.9193
X5.1417Y-4.9409
X5.1457Y-4.8169
X5.1496Y-4.5925
X5.15Y-4.34
X5.1614Y-3.6024
X5.1634Y-3.813
X5.1713Y-3.5
X5.1713Y-4.1299
X5.1831Y-4.876
X5.1949Y-3.7343
X5.225Y-3.535
X5.24Y-4.07
X5.2657Y-4.6024
X5.2717Y-4.7461
X5.2717Y-4.9961
X5.2776Y-3.876
X5.2795Y-3.7165
X5.2815Y-3.5394
X5.2953Y-3.9508
X5.31Y-4.435
X5.313Y-4.1201
X5.3366Y-4.4862
X5.3406Y-4.6161
X5.3445Y-4.748
X5.355Y-4.53
X5.3642Y-3.5571
X5.3661Y-3.4173
X5.375Y-4.32
X5.38Y-4.17
X5.3917Y-5.3346
X5.41Y-3.655
X5.41Y-4.295
X5.42Y-4.175
X5.4232Y-3.815
X5.4409Y-3.5413
X5.4429Y-4.7874
X5.4429Y-5.4587
X5.4469Y-4.9685
X5.4646Y-3.2894
X5.47Y-3.795
X5.4843Y-4.2618
X5.4902Y-5.4094
X5.495Y-5.06
X5.5197Y-4.3701
X5.5217Y-3.874
X5.53Y-3.805
X5.5335Y-4.8937
X5.5413Y-3.3602
X5.5413Y-3.5404
X5.561Y-3.6122
X5.58Y-4.405
X5.59Y-3.87
X5.5925Y-3.4498
X5.6Y-4.195
X5.62Y-4.08
X5.62Y-4.49
X5.6201Y-4.6713
X5.6378Y-3.5354
X5.6516Y-4.5591
X5.6713Y-5.0295
X5.6969Y-4.0925
X5.6988Y-3.6614
X5.705Y-4.205
X5.71Y-4.44
X5.7402Y-4.5571
X5.7402Y-4.6102
X5.752Y-4.7244
X5.7539Y-3.5866
X5.765Y-4.13
X5.7677Y-4.6693
X5.7736Y-4.8248
X5.7815Y-3.9055
X5.7913Y-3.4075
X5.7913Y-3.498
X5.7953Y-4.498
X5.8307Y-3.5827
X5.8366Y-3.7933
X5.8425Y-3.4508
X5.8425Y-3.5413
X5.8484Y-4.1673
X5.865Y-4.995
X5.8681Y-3.2717
X5.872Y-4.6122
X5.8917Y-3.4409
X5.8937Y-4.3957
X5.9094Y-4.8898
X5.9134Y-4.0098
X5.9508Y-3.8012
X5.9547Y-3.6614
X5.9547Y-4.311
X5.9665Y-3.4567
X5.9665Y-3.9035
X5.9744Y-4.5807
X5.9764Y-4.7106
X5.9902Y-4.2008
X5.9921Y-5.2008
X6.0Y-4.9055
X6.002Y-4.5157
X6.0098Y-5.1181
X6.0177Y-4.8524
T2
X4.8265Y-3.15
X4.8265Y-5.55
X4.8456Y-3.1041
X4.8456Y-3.1959
X4.8456Y-5.5041
X4.8456Y-5.5959
X4.8915Y-3.085
X4.8915Y-3.215
X4.8915Y-5.485
X4.8915Y-5.615
X4.9374Y-3.1041
X4.9374Y-3.1959
X4.9374Y-5.5041
X4.9374Y-5.5959
X4.9565Y-3.15
X4.9565Y-5.55
X6.0265Y-3.15
X6.0265Y-5.55
X6.0456Y-3.1041
X6.0456Y-3.1959
X6.0456Y-5.5041
X6.0456Y-5.5959
X6.0915Y-3.085
X6.0915Y-3.215
X6.0915Y-5.485
X6.0915Y-5.615
X6.1374Y-3.1041
X6.1374Y-3.1959
X6.1374Y-5.5041
X6.1374Y-5.5959
X6.1565Y-3.15
X6.1565Y-5.55
T3
X5.0931Y-3.075
X5.0931Y-3.2049
X5.1915Y-3.075
X5.1915Y-3.2049
X5.2899Y-3.075
X5.2899Y-3.2049
T4
X4.8915Y-3.35
X4.8915Y-3.45
X4.8915Y-3.55
X4.8915Y-3.65
X4.8915Y-3.75
X4.8915Y-3.95
X4.8915Y-4.05
X4.8915Y-4.15
X4.8915Y-4.45
X4.8915Y-4.55
X4.8915Y-4.65
X4.8915Y-4.75
X4.8915Y-4.85
X4.8915Y-4.95
X4.8915Y-5.05
X4.8915Y-5.15
X4.8915Y-5.25
X4.8915Y-5.35
X5.3915Y-5.55
X5.4915Y-3.15
X5.4915Y-5.55
X5.5915Y-3.15
X5.5915Y-5.55
X5.6915Y-3.15
X5.7915Y-3.15
X5.8915Y-3.15
X6.0915Y-3.35
X6.0915Y-3.45
X6.0915Y-3.55
X6.0915Y-3.75
X6.0915Y-3.85
X6.0915Y-3.95
X6.0915Y-4.05
X6.0915Y-4.15
X6.0915Y-4.35
X6.0915Y-4.45
X6.0915Y-4.55
X6.0915Y-4.65
X6.0915Y-4.75
X6.0915Y-4.95
X6.0915Y-5.05
X6.0915Y-5.15
X6.0915Y-5.25
X6.0915Y-5.35
T5
X5.1029Y-5.122
X5.1029Y-5.378
X5.2801Y-5.122
X5.2801Y-5.378
X5.7029Y-5.122
X5.7029Y-5.378
X5.8801Y-5.122
X5.8801Y-5.378
T6
X4.8915Y-3.15
X4.8915Y-5.55
X6.0915Y-3.15
X6.0915Y-5.55
M30
