%TF.GenerationSoftware,KiCad,Pcbnew,7.0.10-7.0.10~ubuntu22.04.1*%
%TF.CreationDate,2024-05-26T20:09:48+02:00*%
%TF.ProjectId,hardware,68617264-7761-4726-952e-6b696361645f,rev?*%
%TF.SameCoordinates,Original*%
%TF.FileFunction,Copper,L2,Inr*%
%TF.FilePolarity,Positive*%
%FSLAX46Y46*%
G04 Gerber Fmt 4.6, Leading zero omitted, Abs format (unit mm)*
G04 Created by KiCad (PCBNEW 7.0.10-7.0.10~ubuntu22.04.1) date 2024-05-26 20:09:48*
%MOMM*%
%LPD*%
G01*
G04 APERTURE LIST*
G04 Aperture macros list*
%AMRoundRect*
0 Rectangle with rounded corners*
0 $1 Rounding radius*
0 $2 $3 $4 $5 $6 $7 $8 $9 X,Y pos of 4 corners*
0 Add a 4 corners polygon primitive as box body*
4,1,4,$2,$3,$4,$5,$6,$7,$8,$9,$2,$3,0*
0 Add four circle primitives for the rounded corners*
1,1,$1+$1,$2,$3*
1,1,$1+$1,$4,$5*
1,1,$1+$1,$6,$7*
1,1,$1+$1,$8,$9*
0 Add four rect primitives between the rounded corners*
20,1,$1+$1,$2,$3,$4,$5,0*
20,1,$1+$1,$4,$5,$6,$7,0*
20,1,$1+$1,$6,$7,$8,$9,0*
20,1,$1+$1,$8,$9,$2,$3,0*%
G04 Aperture macros list end*
%TA.AperFunction,ComponentPad*%
%ADD10R,1.700000X1.700000*%
%TD*%
%TA.AperFunction,ComponentPad*%
%ADD11O,1.700000X1.700000*%
%TD*%
%TA.AperFunction,ComponentPad*%
%ADD12C,0.700000*%
%TD*%
%TA.AperFunction,ComponentPad*%
%ADD13C,4.400000*%
%TD*%
%TA.AperFunction,ComponentPad*%
%ADD14C,2.000000*%
%TD*%
%TA.AperFunction,ComponentPad*%
%ADD15RoundRect,0.250000X0.450000X0.450000X-0.450000X0.450000X-0.450000X-0.450000X0.450000X-0.450000X0*%
%TD*%
%TA.AperFunction,ComponentPad*%
%ADD16C,1.400000*%
%TD*%
%TA.AperFunction,ViaPad*%
%ADD17C,0.500000*%
%TD*%
G04 APERTURE END LIST*
D10*
%TO.N,+5V*%
%TO.C,J8*%
X124244000Y-100330000D03*
D11*
%TO.N,+3V3*%
X124244000Y-102870000D03*
%TO.N,GND*%
X124244000Y-105410000D03*
%TD*%
D10*
%TO.N,USART1_TX*%
%TO.C,J2*%
X136944000Y-140970000D03*
D11*
%TO.N,GND*%
X139484000Y-140970000D03*
%TO.N,USART1_RX*%
X142024000Y-140970000D03*
%TD*%
D12*
%TO.N,unconnected-(H1-Pad1)*%
%TO.C,H1*%
X153074000Y-80010000D03*
X153557274Y-78843274D03*
X153557274Y-81176726D03*
X154724000Y-78360000D03*
D13*
X154724000Y-80010000D03*
D12*
X154724000Y-81660000D03*
X155890726Y-78843274D03*
X155890726Y-81176726D03*
X156374000Y-80010000D03*
%TD*%
D10*
%TO.N,+3V3*%
%TO.C,J3*%
X124244000Y-113030000D03*
D11*
%TO.N,PA0*%
X124244000Y-115570000D03*
%TO.N,PA1*%
X124244000Y-118110000D03*
%TO.N,PA4*%
X124244000Y-120650000D03*
%TO.N,PA5*%
X124244000Y-123190000D03*
%TO.N,PA6*%
X124244000Y-125730000D03*
%TO.N,PA7*%
X124244000Y-128270000D03*
%TO.N,PB0*%
X124244000Y-130810000D03*
%TO.N,PB1*%
X124244000Y-133350000D03*
%TO.N,GND*%
X124244000Y-135890000D03*
%TD*%
D12*
%TO.N,unconnected-(H2-Pad1)*%
%TO.C,H2*%
X122594000Y-80010000D03*
X123077274Y-78843274D03*
X123077274Y-81176726D03*
X124244000Y-78360000D03*
D13*
X124244000Y-80010000D03*
D12*
X124244000Y-81660000D03*
X125410726Y-78843274D03*
X125410726Y-81176726D03*
X125894000Y-80010000D03*
%TD*%
D10*
%TO.N,PA10*%
%TO.C,J4*%
X154724000Y-110490000D03*
D11*
%TO.N,PA9*%
X154724000Y-113030000D03*
%TO.N,PA8*%
X154724000Y-115570000D03*
%TO.N,PB15*%
X154724000Y-118110000D03*
%TO.N,PB14*%
X154724000Y-120650000D03*
%TD*%
D10*
%TO.N,+5V*%
%TO.C,J9*%
X154724000Y-85090000D03*
D11*
%TO.N,+3V3*%
X154724000Y-87630000D03*
%TO.N,GND*%
X154724000Y-90170000D03*
%TD*%
D14*
%TO.N,NRST*%
%TO.C,SW1*%
X129614000Y-136600000D03*
X129614000Y-130100000D03*
%TO.N,GND*%
X134114000Y-136600000D03*
X134114000Y-130100000D03*
%TD*%
D10*
%TO.N,GND*%
%TO.C,J1*%
X139484000Y-80010000D03*
D11*
%TO.N,Net-(J1-Pin_2)*%
X142024000Y-80010000D03*
%TO.N,Net-(J1-Pin_3)*%
X144564000Y-80010000D03*
%TO.N,Net-(J1-Pin_4)*%
X147104000Y-80010000D03*
%TO.N,+3V3*%
X149644000Y-80010000D03*
%TD*%
D12*
%TO.N,unconnected-(H4-Pad1)*%
%TO.C,H4*%
X122594000Y-140970000D03*
X123077274Y-139803274D03*
X123077274Y-142136726D03*
X124244000Y-139320000D03*
D13*
X124244000Y-140970000D03*
D12*
X124244000Y-142620000D03*
X125410726Y-139803274D03*
X125410726Y-142136726D03*
X125894000Y-140970000D03*
%TD*%
D15*
%TO.N,+3V3*%
%TO.C,SW3*%
X134364000Y-81405000D03*
D16*
%TO.N,Net-(D5-A)*%
X131864000Y-81405000D03*
%TO.N,GND*%
X129364000Y-81405000D03*
%TO.N,N/C*%
X129364000Y-78105000D03*
X131864000Y-78105000D03*
X134364000Y-78105000D03*
%TD*%
D10*
%TO.N,PB5*%
%TO.C,J7*%
X124244000Y-85090000D03*
D11*
%TO.N,PB6*%
X124244000Y-87630000D03*
%TO.N,PB7*%
X124244000Y-90170000D03*
%TO.N,PB8*%
X124244000Y-92710000D03*
%TO.N,PB9*%
X124244000Y-95250000D03*
%TD*%
D14*
%TO.N,USER_BTN*%
%TO.C,SW2*%
X144854000Y-136600000D03*
X144854000Y-130100000D03*
%TO.N,GND*%
X149354000Y-136600000D03*
X149354000Y-130100000D03*
%TD*%
D10*
%TO.N,PB4*%
%TO.C,J5*%
X154724000Y-95250000D03*
D11*
%TO.N,PB3*%
X154724000Y-97790000D03*
%TO.N,PA15*%
X154724000Y-100330000D03*
%TO.N,PA12*%
X154724000Y-102870000D03*
%TO.N,PA11*%
X154724000Y-105410000D03*
%TD*%
D10*
%TO.N,PB13*%
%TO.C,J6*%
X154724000Y-125730000D03*
D11*
%TO.N,PB12*%
X154724000Y-128270000D03*
%TO.N,PB11*%
X154724000Y-130810000D03*
%TO.N,PB10*%
X154724000Y-133350000D03*
%TO.N,PB2*%
X154724000Y-135890000D03*
%TD*%
D12*
%TO.N,unconnected-(H3-Pad1)*%
%TO.C,H3*%
X153074000Y-140970000D03*
X153557274Y-139803274D03*
X153557274Y-142136726D03*
X154724000Y-139320000D03*
D13*
X154724000Y-140970000D03*
D12*
X154724000Y-142620000D03*
X155890726Y-139803274D03*
X155890726Y-142136726D03*
X156374000Y-140970000D03*
%TD*%
D17*
%TO.N,GND*%
X133900000Y-126900000D03*
X134500000Y-100350000D03*
X135650000Y-117250000D03*
X133900000Y-120550000D03*
X135750000Y-120600000D03*
X138250000Y-121600000D03*
X150100000Y-124200000D03*
X146100000Y-120000000D03*
X146500000Y-118600000D03*
X152400000Y-124600000D03*
X147200000Y-114250000D03*
X152850000Y-123250000D03*
%TO.N,BOOT*%
X131150000Y-96850000D03*
%TO.N,USER_BTN*%
X140200000Y-111000000D03*
%TO.N,STATUS_LED*%
X139300000Y-108250000D03*
%TO.N,GND*%
X131350000Y-104900000D03*
%TO.N,+3V3*%
X134950000Y-104650000D03*
X144750000Y-93000000D03*
X140750000Y-89925000D03*
X142050000Y-87625000D03*
X140750000Y-85350000D03*
X136300000Y-86800000D03*
X147100000Y-86550000D03*
X148400000Y-87650000D03*
X144700000Y-103950000D03*
X140550000Y-124300000D03*
%TO.N,NRST*%
X137414000Y-109093000D03*
X138938000Y-96393000D03*
%TO.N,GND*%
X151550000Y-87800000D03*
X142750000Y-118650000D03*
X126746000Y-108331000D03*
X130100000Y-95800000D03*
X129286000Y-111760000D03*
X136950000Y-135500000D03*
X148250000Y-96350000D03*
X130429000Y-105918000D03*
X149150000Y-117150000D03*
X148400000Y-89950000D03*
X134050000Y-98450000D03*
X126550000Y-122000000D03*
X130810000Y-110236000D03*
X138350000Y-126200000D03*
X135550000Y-113950000D03*
X152200000Y-132100000D03*
X128550000Y-91450000D03*
X138200000Y-89950000D03*
X126350000Y-86750000D03*
X144050000Y-127750000D03*
X141732000Y-111887000D03*
X146431000Y-104902000D03*
X126100000Y-119950000D03*
X151150000Y-96550000D03*
X126200000Y-91750000D03*
X137414000Y-92837000D03*
X126800000Y-96100000D03*
X139450000Y-137400000D03*
X148100000Y-91000000D03*
X143200000Y-89800000D03*
X131650000Y-123850000D03*
X152650000Y-130000000D03*
X137750000Y-96900000D03*
X134150000Y-89900000D03*
X127127000Y-110109000D03*
X143550000Y-115800000D03*
X136525000Y-109728000D03*
X137668000Y-106045000D03*
X145800000Y-115750000D03*
X140250000Y-98400000D03*
X126150000Y-127550000D03*
X126600000Y-130000000D03*
X146850000Y-99200000D03*
X130700000Y-122350000D03*
X133750000Y-116900000D03*
X131100000Y-91500000D03*
X145800000Y-117100000D03*
X146150000Y-91100000D03*
X146650000Y-122550000D03*
X151750000Y-116350000D03*
X151250000Y-109500000D03*
X141250000Y-91750000D03*
X149050000Y-83100000D03*
X147100000Y-88850000D03*
X127050000Y-116900000D03*
X149650000Y-87400000D03*
X130048000Y-103886000D03*
X138250000Y-138650000D03*
X133096000Y-103378000D03*
X130800000Y-116650000D03*
X131950000Y-94850000D03*
X128150000Y-122950000D03*
X150200000Y-101850000D03*
X152150000Y-106700000D03*
X151250000Y-93000000D03*
X134100000Y-94400000D03*
X149700000Y-111650000D03*
X142240000Y-106553000D03*
X151800000Y-119650000D03*
X130600000Y-99550000D03*
X131350000Y-88900000D03*
X152450000Y-114700000D03*
X138800000Y-83550000D03*
X130600000Y-125500000D03*
X136250000Y-90350000D03*
X148550000Y-105850000D03*
X151550000Y-99150000D03*
%TO.N,+3V3*%
X129921000Y-127000000D03*
X145034000Y-112776000D03*
X142748000Y-114046000D03*
X148971000Y-126873000D03*
X136652000Y-105918000D03*
X129159000Y-113284000D03*
%TO.N,BOOT*%
X132715000Y-89789000D03*
%TO.N,STATUS_LED*%
X139573000Y-128524000D03*
%TO.N,USART1_TX*%
X134874000Y-112649000D03*
%TO.N,USART1_RX*%
X136017000Y-115062000D03*
%TO.N,SWCLK*%
X141986000Y-98298000D03*
X142748000Y-103632000D03*
%TO.N,SWDIO*%
X140462000Y-96647000D03*
X144907000Y-106807000D03*
%TD*%
%TA.AperFunction,Conductor*%
%TO.N,GND*%
G36*
X154727243Y-76835669D02*
G01*
X154857462Y-76842494D01*
X155056891Y-76853695D01*
X155069279Y-76855020D01*
X155224090Y-76879540D01*
X155225355Y-76879748D01*
X155397022Y-76908915D01*
X155408324Y-76911383D01*
X155564557Y-76953246D01*
X155566779Y-76953863D01*
X155729163Y-77000645D01*
X155739235Y-77004022D01*
X155892216Y-77062746D01*
X155895155Y-77063919D01*
X156049378Y-77127801D01*
X156058206Y-77131870D01*
X156205092Y-77206712D01*
X156208745Y-77208651D01*
X156353948Y-77288902D01*
X156361485Y-77293425D01*
X156500257Y-77383545D01*
X156504385Y-77386349D01*
X156639245Y-77482037D01*
X156645494Y-77486775D01*
X156702242Y-77532729D01*
X156774292Y-77591075D01*
X156778882Y-77594981D01*
X156901970Y-77704978D01*
X156907025Y-77709757D01*
X157024241Y-77826973D01*
X157029020Y-77832028D01*
X157139017Y-77955116D01*
X157142923Y-77959706D01*
X157223903Y-78059707D01*
X157239949Y-78079522D01*
X157247211Y-78088489D01*
X157251969Y-78094764D01*
X157347635Y-78229593D01*
X157350468Y-78233764D01*
X157390177Y-78294909D01*
X157440568Y-78372505D01*
X157445101Y-78380059D01*
X157525338Y-78525237D01*
X157527295Y-78528923D01*
X157602125Y-78675786D01*
X157606201Y-78684628D01*
X157670064Y-78838806D01*
X157671267Y-78841821D01*
X157729969Y-78994744D01*
X157733359Y-79004855D01*
X157780131Y-79167208D01*
X157780752Y-79169441D01*
X157822612Y-79325662D01*
X157825085Y-79336986D01*
X157854246Y-79508618D01*
X157854471Y-79509989D01*
X157878974Y-79664689D01*
X157880306Y-79677135D01*
X157891506Y-79876562D01*
X157891531Y-79877025D01*
X157898330Y-80006756D01*
X157898500Y-80013246D01*
X157898500Y-140966753D01*
X157898330Y-140973243D01*
X157891531Y-141102973D01*
X157891506Y-141103436D01*
X157880306Y-141302863D01*
X157878974Y-141315309D01*
X157854471Y-141470009D01*
X157854246Y-141471380D01*
X157825085Y-141643012D01*
X157822612Y-141654336D01*
X157780752Y-141810557D01*
X157780131Y-141812790D01*
X157733359Y-141975143D01*
X157729969Y-141985254D01*
X157671267Y-142138177D01*
X157670064Y-142141192D01*
X157606201Y-142295370D01*
X157602125Y-142304212D01*
X157527295Y-142451075D01*
X157525338Y-142454761D01*
X157445101Y-142599939D01*
X157440568Y-142607493D01*
X157350484Y-142746211D01*
X157347618Y-142750431D01*
X157251974Y-142885228D01*
X157247211Y-142891509D01*
X157142923Y-143020292D01*
X157139017Y-143024882D01*
X157029020Y-143147970D01*
X157024241Y-143153025D01*
X156907025Y-143270241D01*
X156901970Y-143275020D01*
X156778882Y-143385017D01*
X156774292Y-143388923D01*
X156645509Y-143493211D01*
X156639228Y-143497974D01*
X156504431Y-143593618D01*
X156500211Y-143596484D01*
X156361493Y-143686568D01*
X156353939Y-143691101D01*
X156208761Y-143771338D01*
X156205075Y-143773295D01*
X156058212Y-143848125D01*
X156049370Y-143852201D01*
X155895192Y-143916064D01*
X155892177Y-143917267D01*
X155739254Y-143975969D01*
X155729143Y-143979359D01*
X155566790Y-144026131D01*
X155564557Y-144026752D01*
X155408336Y-144068612D01*
X155397012Y-144071085D01*
X155225380Y-144100246D01*
X155224009Y-144100471D01*
X155069309Y-144124974D01*
X155056863Y-144126306D01*
X154857436Y-144137506D01*
X154856973Y-144137531D01*
X154727244Y-144144330D01*
X154720754Y-144144500D01*
X124247246Y-144144500D01*
X124240756Y-144144330D01*
X124111025Y-144137531D01*
X124110562Y-144137506D01*
X123911135Y-144126306D01*
X123898689Y-144124974D01*
X123743989Y-144100471D01*
X123742618Y-144100246D01*
X123570986Y-144071085D01*
X123559662Y-144068612D01*
X123403441Y-144026752D01*
X123401208Y-144026131D01*
X123238855Y-143979359D01*
X123228744Y-143975969D01*
X123075821Y-143917267D01*
X123072806Y-143916064D01*
X122918628Y-143852201D01*
X122909786Y-143848125D01*
X122762923Y-143773295D01*
X122759237Y-143771338D01*
X122614059Y-143691101D01*
X122606505Y-143686568D01*
X122560387Y-143656619D01*
X122467764Y-143596468D01*
X122463593Y-143593635D01*
X122328764Y-143497969D01*
X122322489Y-143493211D01*
X122193706Y-143388923D01*
X122189116Y-143385017D01*
X122066028Y-143275020D01*
X122060973Y-143270241D01*
X121943757Y-143153025D01*
X121938978Y-143147970D01*
X121828981Y-143024882D01*
X121825075Y-143020292D01*
X121766729Y-142948242D01*
X121720775Y-142891494D01*
X121716037Y-142885245D01*
X121620349Y-142750385D01*
X121617545Y-142746257D01*
X121527425Y-142607485D01*
X121522897Y-142599939D01*
X121442660Y-142454761D01*
X121440703Y-142451075D01*
X121421621Y-142413625D01*
X121365870Y-142304206D01*
X121361797Y-142295370D01*
X121340284Y-142243433D01*
X121297919Y-142141155D01*
X121296746Y-142138216D01*
X121238022Y-141985235D01*
X121234645Y-141975163D01*
X121187863Y-141812779D01*
X121187246Y-141810557D01*
X121170593Y-141748407D01*
X121145383Y-141654324D01*
X121142913Y-141643012D01*
X121142198Y-141638805D01*
X121113748Y-141471355D01*
X121113527Y-141470009D01*
X121113120Y-141467439D01*
X121089020Y-141315279D01*
X121087695Y-141302891D01*
X121076481Y-141103220D01*
X121069669Y-140973243D01*
X121069585Y-140970005D01*
X121738556Y-140970005D01*
X121758310Y-141284004D01*
X121758311Y-141284011D01*
X121779333Y-141394212D01*
X121793790Y-141470000D01*
X121817270Y-141593083D01*
X121914497Y-141892316D01*
X121914499Y-141892321D01*
X122048461Y-142177003D01*
X122048464Y-142177009D01*
X122217051Y-142442661D01*
X122217054Y-142442665D01*
X122417606Y-142685090D01*
X122417608Y-142685092D01*
X122417610Y-142685094D01*
X122630731Y-142885228D01*
X122646968Y-142900476D01*
X122646978Y-142900484D01*
X122901504Y-143085408D01*
X122901509Y-143085410D01*
X122901516Y-143085416D01*
X123177234Y-143236994D01*
X123177239Y-143236996D01*
X123177241Y-143236997D01*
X123177242Y-143236998D01*
X123469771Y-143352818D01*
X123469774Y-143352819D01*
X123774523Y-143431065D01*
X123774527Y-143431066D01*
X123840010Y-143439338D01*
X124086670Y-143470499D01*
X124086679Y-143470499D01*
X124086682Y-143470500D01*
X124086684Y-143470500D01*
X124401316Y-143470500D01*
X124401318Y-143470500D01*
X124401321Y-143470499D01*
X124401329Y-143470499D01*
X124587593Y-143446968D01*
X124713473Y-143431066D01*
X125018225Y-143352819D01*
X125078100Y-143329113D01*
X125310757Y-143236998D01*
X125310758Y-143236997D01*
X125310756Y-143236997D01*
X125310766Y-143236994D01*
X125586484Y-143085416D01*
X125841030Y-142900478D01*
X126070390Y-142685094D01*
X126270947Y-142442663D01*
X126439537Y-142177007D01*
X126573503Y-141892315D01*
X126582425Y-141864856D01*
X135793500Y-141864856D01*
X135793502Y-141864882D01*
X135796413Y-141889987D01*
X135796415Y-141889991D01*
X135841793Y-141992764D01*
X135841794Y-141992765D01*
X135921235Y-142072206D01*
X136024009Y-142117585D01*
X136049135Y-142120500D01*
X137838864Y-142120499D01*
X137838879Y-142120497D01*
X137838882Y-142120497D01*
X137863987Y-142117586D01*
X137863988Y-142117585D01*
X137863991Y-142117585D01*
X137966765Y-142072206D01*
X138046206Y-141992765D01*
X138091585Y-141889991D01*
X138094500Y-141864865D01*
X138094499Y-141732516D01*
X138114183Y-141665480D01*
X138166987Y-141619725D01*
X138236145Y-141609781D01*
X138299701Y-141638805D01*
X138320073Y-141661395D01*
X138445890Y-141841078D01*
X138612917Y-142008105D01*
X138806421Y-142143600D01*
X139020507Y-142243429D01*
X139020516Y-142243433D01*
X139234000Y-142300634D01*
X139234000Y-141405501D01*
X139341685Y-141454680D01*
X139448237Y-141470000D01*
X139519763Y-141470000D01*
X139626315Y-141454680D01*
X139734000Y-141405501D01*
X139734000Y-142300633D01*
X139947483Y-142243433D01*
X139947492Y-142243429D01*
X140161578Y-142143600D01*
X140355082Y-142008105D01*
X140522105Y-141841082D01*
X140657600Y-141647578D01*
X140751294Y-141446651D01*
X140797466Y-141394212D01*
X140864660Y-141375060D01*
X140931541Y-141395276D01*
X140974676Y-141443785D01*
X141041632Y-141578253D01*
X141170127Y-141748406D01*
X141170128Y-141748407D01*
X141327698Y-141892052D01*
X141508981Y-142004298D01*
X141707802Y-142081321D01*
X141917390Y-142120500D01*
X141917392Y-142120500D01*
X142130608Y-142120500D01*
X142130610Y-142120500D01*
X142340198Y-142081321D01*
X142539019Y-142004298D01*
X142720302Y-141892052D01*
X142877872Y-141748407D01*
X143006366Y-141578255D01*
X143059583Y-141471380D01*
X143101403Y-141387394D01*
X143101403Y-141387393D01*
X143101405Y-141387389D01*
X143159756Y-141182310D01*
X143179429Y-140970005D01*
X152218556Y-140970005D01*
X152238310Y-141284004D01*
X152238311Y-141284011D01*
X152259333Y-141394212D01*
X152273790Y-141470000D01*
X152297270Y-141593083D01*
X152394497Y-141892316D01*
X152394499Y-141892321D01*
X152528461Y-142177003D01*
X152528464Y-142177009D01*
X152697051Y-142442661D01*
X152697054Y-142442665D01*
X152897606Y-142685090D01*
X152897608Y-142685092D01*
X152897610Y-142685094D01*
X153110731Y-142885228D01*
X153126968Y-142900476D01*
X153126978Y-142900484D01*
X153381504Y-143085408D01*
X153381509Y-143085410D01*
X153381516Y-143085416D01*
X153657234Y-143236994D01*
X153657239Y-143236996D01*
X153657241Y-143236997D01*
X153657242Y-143236998D01*
X153949771Y-143352818D01*
X153949774Y-143352819D01*
X154254523Y-143431065D01*
X154254527Y-143431066D01*
X154320010Y-143439338D01*
X154566670Y-143470499D01*
X154566679Y-143470499D01*
X154566682Y-143470500D01*
X154566684Y-143470500D01*
X154881316Y-143470500D01*
X154881318Y-143470500D01*
X154881321Y-143470499D01*
X154881329Y-143470499D01*
X155067593Y-143446968D01*
X155193473Y-143431066D01*
X155498225Y-143352819D01*
X155558100Y-143329113D01*
X155790757Y-143236998D01*
X155790758Y-143236997D01*
X155790756Y-143236997D01*
X155790766Y-143236994D01*
X156066484Y-143085416D01*
X156321030Y-142900478D01*
X156550390Y-142685094D01*
X156750947Y-142442663D01*
X156919537Y-142177007D01*
X157053503Y-141892315D01*
X157150731Y-141593079D01*
X157209688Y-141284015D01*
X157229444Y-140970000D01*
X157224921Y-140898111D01*
X157209689Y-140655995D01*
X157209688Y-140655988D01*
X157209688Y-140655985D01*
X157150731Y-140346921D01*
X157053503Y-140047685D01*
X156919537Y-139762993D01*
X156750947Y-139497337D01*
X156750945Y-139497334D01*
X156550393Y-139254909D01*
X156550391Y-139254907D01*
X156321031Y-139039523D01*
X156321021Y-139039515D01*
X156066495Y-138854591D01*
X156066488Y-138854586D01*
X156066484Y-138854584D01*
X155790766Y-138703006D01*
X155790763Y-138703004D01*
X155790758Y-138703002D01*
X155790757Y-138703001D01*
X155498228Y-138587181D01*
X155498225Y-138587180D01*
X155193476Y-138508934D01*
X155193463Y-138508932D01*
X154881329Y-138469500D01*
X154881318Y-138469500D01*
X154566682Y-138469500D01*
X154566670Y-138469500D01*
X154254536Y-138508932D01*
X154254523Y-138508934D01*
X153949774Y-138587180D01*
X153949771Y-138587181D01*
X153657242Y-138703001D01*
X153657241Y-138703002D01*
X153381516Y-138854584D01*
X153381504Y-138854591D01*
X153126978Y-139039515D01*
X153126968Y-139039523D01*
X152897608Y-139254907D01*
X152897606Y-139254909D01*
X152697054Y-139497334D01*
X152697051Y-139497338D01*
X152528464Y-139762990D01*
X152528461Y-139762996D01*
X152394499Y-140047678D01*
X152394497Y-140047683D01*
X152297270Y-140346916D01*
X152238311Y-140655988D01*
X152238310Y-140655995D01*
X152218556Y-140969994D01*
X152218556Y-140970005D01*
X143179429Y-140970005D01*
X143179429Y-140970000D01*
X143179428Y-140969994D01*
X143177605Y-140950326D01*
X143159756Y-140757690D01*
X143101405Y-140552611D01*
X143101403Y-140552606D01*
X143101403Y-140552605D01*
X143006367Y-140361746D01*
X142877872Y-140191593D01*
X142720302Y-140047948D01*
X142539019Y-139935702D01*
X142539017Y-139935701D01*
X142439608Y-139897190D01*
X142340198Y-139858679D01*
X142130610Y-139819500D01*
X141917390Y-139819500D01*
X141707802Y-139858679D01*
X141707799Y-139858679D01*
X141707799Y-139858680D01*
X141508982Y-139935701D01*
X141508980Y-139935702D01*
X141327699Y-140047947D01*
X141170127Y-140191593D01*
X141041634Y-140361744D01*
X140974676Y-140496215D01*
X140927173Y-140547452D01*
X140859510Y-140564873D01*
X140793170Y-140542947D01*
X140751294Y-140493348D01*
X140657600Y-140292422D01*
X140657599Y-140292420D01*
X140522113Y-140098926D01*
X140522108Y-140098920D01*
X140355082Y-139931894D01*
X140161578Y-139796399D01*
X139947492Y-139696570D01*
X139947486Y-139696567D01*
X139734000Y-139639364D01*
X139734000Y-140534498D01*
X139626315Y-140485320D01*
X139519763Y-140470000D01*
X139448237Y-140470000D01*
X139341685Y-140485320D01*
X139234000Y-140534498D01*
X139234000Y-139639364D01*
X139233999Y-139639364D01*
X139020513Y-139696567D01*
X139020507Y-139696570D01*
X138806422Y-139796399D01*
X138806420Y-139796400D01*
X138612926Y-139931886D01*
X138612920Y-139931891D01*
X138445891Y-140098920D01*
X138445890Y-140098922D01*
X138320074Y-140278606D01*
X138265497Y-140322230D01*
X138195998Y-140329423D01*
X138133644Y-140297901D01*
X138098230Y-140237671D01*
X138094499Y-140207482D01*
X138094499Y-140075143D01*
X138094499Y-140075136D01*
X138094497Y-140075117D01*
X138091586Y-140050012D01*
X138091585Y-140050010D01*
X138091585Y-140050009D01*
X138046206Y-139947235D01*
X137966765Y-139867794D01*
X137946124Y-139858680D01*
X137863992Y-139822415D01*
X137838865Y-139819500D01*
X136049143Y-139819500D01*
X136049117Y-139819502D01*
X136024012Y-139822413D01*
X136024008Y-139822415D01*
X135921235Y-139867793D01*
X135841794Y-139947234D01*
X135796415Y-140050006D01*
X135796415Y-140050008D01*
X135793500Y-140075131D01*
X135793500Y-141864856D01*
X126582425Y-141864856D01*
X126670731Y-141593079D01*
X126729688Y-141284015D01*
X126749444Y-140970000D01*
X126744921Y-140898111D01*
X126729689Y-140655995D01*
X126729688Y-140655988D01*
X126729688Y-140655985D01*
X126670731Y-140346921D01*
X126573503Y-140047685D01*
X126439537Y-139762993D01*
X126270947Y-139497337D01*
X126270945Y-139497334D01*
X126070393Y-139254909D01*
X126070391Y-139254907D01*
X125841031Y-139039523D01*
X125841021Y-139039515D01*
X125586495Y-138854591D01*
X125586488Y-138854586D01*
X125586484Y-138854584D01*
X125310766Y-138703006D01*
X125310763Y-138703004D01*
X125310758Y-138703002D01*
X125310757Y-138703001D01*
X125018228Y-138587181D01*
X125018225Y-138587180D01*
X124713476Y-138508934D01*
X124713463Y-138508932D01*
X124401329Y-138469500D01*
X124401318Y-138469500D01*
X124086682Y-138469500D01*
X124086670Y-138469500D01*
X123774536Y-138508932D01*
X123774523Y-138508934D01*
X123469774Y-138587180D01*
X123469771Y-138587181D01*
X123177242Y-138703001D01*
X123177241Y-138703002D01*
X122901516Y-138854584D01*
X122901504Y-138854591D01*
X122646978Y-139039515D01*
X122646968Y-139039523D01*
X122417608Y-139254907D01*
X122417606Y-139254909D01*
X122217054Y-139497334D01*
X122217051Y-139497338D01*
X122048464Y-139762990D01*
X122048461Y-139762996D01*
X121914499Y-140047678D01*
X121914497Y-140047683D01*
X121817270Y-140346916D01*
X121758311Y-140655988D01*
X121758310Y-140655995D01*
X121738556Y-140969994D01*
X121738556Y-140970005D01*
X121069585Y-140970005D01*
X121069500Y-140966755D01*
X121069500Y-136140000D01*
X122913364Y-136140000D01*
X122970567Y-136353486D01*
X122970570Y-136353492D01*
X123070399Y-136567578D01*
X123205894Y-136761082D01*
X123372917Y-136928105D01*
X123566421Y-137063600D01*
X123780507Y-137163429D01*
X123780516Y-137163433D01*
X123994000Y-137220634D01*
X123994000Y-136325501D01*
X124101685Y-136374680D01*
X124208237Y-136390000D01*
X124279763Y-136390000D01*
X124386315Y-136374680D01*
X124494000Y-136325501D01*
X124494000Y-137220633D01*
X124707483Y-137163433D01*
X124707492Y-137163429D01*
X124921578Y-137063600D01*
X125115082Y-136928105D01*
X125282105Y-136761082D01*
X125394897Y-136600001D01*
X128308532Y-136600001D01*
X128328364Y-136826686D01*
X128328366Y-136826697D01*
X128387258Y-137046488D01*
X128387261Y-137046497D01*
X128483431Y-137252732D01*
X128483432Y-137252734D01*
X128613954Y-137439141D01*
X128774858Y-137600045D01*
X128774861Y-137600047D01*
X128961266Y-137730568D01*
X129167504Y-137826739D01*
X129387308Y-137885635D01*
X129549230Y-137899801D01*
X129613998Y-137905468D01*
X129614000Y-137905468D01*
X129614002Y-137905468D01*
X129670673Y-137900509D01*
X129840692Y-137885635D01*
X130060496Y-137826739D01*
X130266734Y-137730568D01*
X130453139Y-137600047D01*
X130614047Y-137439139D01*
X130744568Y-137252734D01*
X130840739Y-137046496D01*
X130899635Y-136826692D01*
X130919468Y-136600005D01*
X132608859Y-136600005D01*
X132629385Y-136847729D01*
X132629387Y-136847738D01*
X132690412Y-137088717D01*
X132790266Y-137316364D01*
X132890564Y-137469882D01*
X133588070Y-136772376D01*
X133590884Y-136785915D01*
X133660442Y-136920156D01*
X133763638Y-137030652D01*
X133892819Y-137109209D01*
X133944002Y-137123549D01*
X133243942Y-137823609D01*
X133290768Y-137860055D01*
X133290770Y-137860056D01*
X133509385Y-137978364D01*
X133509396Y-137978369D01*
X133744506Y-138059083D01*
X133989707Y-138100000D01*
X134238293Y-138100000D01*
X134483493Y-138059083D01*
X134718603Y-137978369D01*
X134718614Y-137978364D01*
X134937228Y-137860057D01*
X134937231Y-137860055D01*
X134984056Y-137823609D01*
X134285568Y-137125121D01*
X134402458Y-137074349D01*
X134519739Y-136978934D01*
X134606928Y-136855415D01*
X134637354Y-136769802D01*
X135337434Y-137469882D01*
X135437731Y-137316369D01*
X135537587Y-137088717D01*
X135598612Y-136847738D01*
X135598614Y-136847729D01*
X135619141Y-136600005D01*
X135619141Y-136600001D01*
X143548532Y-136600001D01*
X143568364Y-136826686D01*
X143568366Y-136826697D01*
X143627258Y-137046488D01*
X143627261Y-137046497D01*
X143723431Y-137252732D01*
X143723432Y-137252734D01*
X143853954Y-137439141D01*
X144014858Y-137600045D01*
X144014861Y-137600047D01*
X144201266Y-137730568D01*
X144407504Y-137826739D01*
X144627308Y-137885635D01*
X144789230Y-137899801D01*
X144853998Y-137905468D01*
X144854000Y-137905468D01*
X144854002Y-137905468D01*
X144910673Y-137900509D01*
X145080692Y-137885635D01*
X145300496Y-137826739D01*
X145506734Y-137730568D01*
X145693139Y-137600047D01*
X145854047Y-137439139D01*
X145984568Y-137252734D01*
X146080739Y-137046496D01*
X146139635Y-136826692D01*
X146159468Y-136600005D01*
X147848859Y-136600005D01*
X147869385Y-136847729D01*
X147869387Y-136847738D01*
X147930412Y-137088717D01*
X148030266Y-137316364D01*
X148130564Y-137469882D01*
X148828070Y-136772376D01*
X148830884Y-136785915D01*
X148900442Y-136920156D01*
X149003638Y-137030652D01*
X149132819Y-137109209D01*
X149184002Y-137123549D01*
X148483942Y-137823609D01*
X148530768Y-137860055D01*
X148530770Y-137860056D01*
X148749385Y-137978364D01*
X148749396Y-137978369D01*
X148984506Y-138059083D01*
X149229707Y-138100000D01*
X149478293Y-138100000D01*
X149723493Y-138059083D01*
X149958603Y-137978369D01*
X149958614Y-137978364D01*
X150177228Y-137860057D01*
X150177231Y-137860055D01*
X150224056Y-137823609D01*
X149525568Y-137125121D01*
X149642458Y-137074349D01*
X149759739Y-136978934D01*
X149846928Y-136855415D01*
X149877354Y-136769802D01*
X150577434Y-137469882D01*
X150677731Y-137316369D01*
X150777587Y-137088717D01*
X150838612Y-136847738D01*
X150838614Y-136847729D01*
X150859141Y-136600005D01*
X150859141Y-136599994D01*
X150838614Y-136352270D01*
X150838612Y-136352261D01*
X150777587Y-136111282D01*
X150680525Y-135890000D01*
X153568571Y-135890000D01*
X153588244Y-136102310D01*
X153646596Y-136307392D01*
X153646596Y-136307394D01*
X153741632Y-136498253D01*
X153847079Y-136637886D01*
X153870128Y-136668407D01*
X154027698Y-136812052D01*
X154208981Y-136924298D01*
X154407802Y-137001321D01*
X154617390Y-137040500D01*
X154617392Y-137040500D01*
X154830608Y-137040500D01*
X154830610Y-137040500D01*
X155040198Y-137001321D01*
X155239019Y-136924298D01*
X155420302Y-136812052D01*
X155577872Y-136668407D01*
X155706366Y-136498255D01*
X155760270Y-136390000D01*
X155801403Y-136307394D01*
X155801403Y-136307393D01*
X155801405Y-136307389D01*
X155859756Y-136102310D01*
X155879429Y-135890000D01*
X155859756Y-135677690D01*
X155801405Y-135472611D01*
X155801403Y-135472606D01*
X155801403Y-135472605D01*
X155706367Y-135281746D01*
X155577872Y-135111593D01*
X155565155Y-135100000D01*
X155420302Y-134967948D01*
X155239019Y-134855702D01*
X155239017Y-134855701D01*
X155139608Y-134817190D01*
X155040198Y-134778679D01*
X154843385Y-134741888D01*
X154781106Y-134710221D01*
X154745833Y-134649908D01*
X154748767Y-134580100D01*
X154788976Y-134522960D01*
X154843384Y-134498111D01*
X155040198Y-134461321D01*
X155239019Y-134384298D01*
X155420302Y-134272052D01*
X155577872Y-134128407D01*
X155706366Y-133958255D01*
X155801405Y-133767389D01*
X155859756Y-133562310D01*
X155879429Y-133350000D01*
X155859756Y-133137690D01*
X155801405Y-132932611D01*
X155801403Y-132932606D01*
X155801403Y-132932605D01*
X155706367Y-132741746D01*
X155577872Y-132571593D01*
X155420302Y-132427948D01*
X155239019Y-132315702D01*
X155239017Y-132315701D01*
X155139608Y-132277190D01*
X155040198Y-132238679D01*
X154843385Y-132201888D01*
X154781106Y-132170221D01*
X154745833Y-132109908D01*
X154748767Y-132040100D01*
X154788976Y-131982960D01*
X154843384Y-131958111D01*
X155040198Y-131921321D01*
X155239019Y-131844298D01*
X155420302Y-131732052D01*
X155577872Y-131588407D01*
X155706366Y-131418255D01*
X155735345Y-131360057D01*
X155801403Y-131227394D01*
X155801403Y-131227393D01*
X155801405Y-131227389D01*
X155859756Y-131022310D01*
X155879429Y-130810000D01*
X155859756Y-130597690D01*
X155801405Y-130392611D01*
X155801403Y-130392606D01*
X155801403Y-130392605D01*
X155706367Y-130201746D01*
X155577872Y-130031593D01*
X155420302Y-129887948D01*
X155239019Y-129775702D01*
X155239017Y-129775701D01*
X155097986Y-129721066D01*
X155040198Y-129698679D01*
X154843385Y-129661888D01*
X154781106Y-129630221D01*
X154745833Y-129569908D01*
X154748767Y-129500100D01*
X154788976Y-129442960D01*
X154843384Y-129418111D01*
X155040198Y-129381321D01*
X155239019Y-129304298D01*
X155420302Y-129192052D01*
X155577872Y-129048407D01*
X155706366Y-128878255D01*
X155744523Y-128801625D01*
X155801403Y-128687394D01*
X155801403Y-128687393D01*
X155801405Y-128687389D01*
X155859756Y-128482310D01*
X155879429Y-128270000D01*
X155859756Y-128057690D01*
X155801405Y-127852611D01*
X155801403Y-127852606D01*
X155801403Y-127852605D01*
X155706367Y-127661746D01*
X155577872Y-127491593D01*
X155566100Y-127480861D01*
X155420302Y-127347948D01*
X155239019Y-127235702D01*
X155239017Y-127235701D01*
X155139608Y-127197190D01*
X155040198Y-127158679D01*
X154867456Y-127126387D01*
X154805176Y-127094719D01*
X154769903Y-127034407D01*
X154772837Y-126964599D01*
X154813046Y-126907459D01*
X154877764Y-126881128D01*
X154890233Y-126880499D01*
X155618864Y-126880499D01*
X155618879Y-126880497D01*
X155618882Y-126880497D01*
X155643987Y-126877586D01*
X155643988Y-126877585D01*
X155643991Y-126877585D01*
X155746765Y-126832206D01*
X155826206Y-126752765D01*
X155871585Y-126649991D01*
X155874500Y-126624865D01*
X155874499Y-124835136D01*
X155874497Y-124835117D01*
X155871586Y-124810012D01*
X155871585Y-124810010D01*
X155871585Y-124810009D01*
X155826206Y-124707235D01*
X155746765Y-124627794D01*
X155726124Y-124618680D01*
X155643992Y-124582415D01*
X155618865Y-124579500D01*
X153829143Y-124579500D01*
X153829117Y-124579502D01*
X153804012Y-124582413D01*
X153804008Y-124582415D01*
X153701235Y-124627793D01*
X153621794Y-124707234D01*
X153576415Y-124810006D01*
X153576415Y-124810008D01*
X153573500Y-124835131D01*
X153573500Y-126624856D01*
X153573502Y-126624882D01*
X153576413Y-126649987D01*
X153576415Y-126649991D01*
X153621793Y-126752764D01*
X153621794Y-126752765D01*
X153701235Y-126832206D01*
X153804009Y-126877585D01*
X153829135Y-126880500D01*
X154557758Y-126880499D01*
X154624795Y-126900183D01*
X154670550Y-126952987D01*
X154680494Y-127022146D01*
X154651469Y-127085702D01*
X154592691Y-127123476D01*
X154580542Y-127126388D01*
X154524116Y-127136935D01*
X154407802Y-127158679D01*
X154407800Y-127158679D01*
X154407798Y-127158680D01*
X154208982Y-127235701D01*
X154208980Y-127235702D01*
X154027699Y-127347947D01*
X153870127Y-127491593D01*
X153741632Y-127661746D01*
X153646596Y-127852605D01*
X153646596Y-127852607D01*
X153592385Y-128043137D01*
X153588244Y-128057690D01*
X153568571Y-128270000D01*
X153588244Y-128482310D01*
X153640995Y-128667709D01*
X153646596Y-128687392D01*
X153646596Y-128687394D01*
X153741632Y-128878253D01*
X153810488Y-128969432D01*
X153870128Y-129048407D01*
X154027698Y-129192052D01*
X154208981Y-129304298D01*
X154407802Y-129381321D01*
X154604613Y-129418111D01*
X154666893Y-129449779D01*
X154702166Y-129510092D01*
X154699232Y-129579900D01*
X154659023Y-129637040D01*
X154604613Y-129661888D01*
X154407802Y-129698679D01*
X154407799Y-129698679D01*
X154407799Y-129698680D01*
X154208982Y-129775701D01*
X154208980Y-129775702D01*
X154027699Y-129887947D01*
X153870127Y-130031593D01*
X153741632Y-130201746D01*
X153646596Y-130392605D01*
X153646596Y-130392607D01*
X153588244Y-130597689D01*
X153573878Y-130752732D01*
X153568571Y-130810000D01*
X153588244Y-131022310D01*
X153610362Y-131100047D01*
X153646596Y-131227392D01*
X153646596Y-131227394D01*
X153741632Y-131418253D01*
X153787030Y-131478369D01*
X153870128Y-131588407D01*
X154027698Y-131732052D01*
X154208981Y-131844298D01*
X154407802Y-131921321D01*
X154604613Y-131958111D01*
X154666893Y-131989779D01*
X154702166Y-132050092D01*
X154699232Y-132119900D01*
X154659023Y-132177040D01*
X154604613Y-132201888D01*
X154407802Y-132238679D01*
X154407799Y-132238679D01*
X154407799Y-132238680D01*
X154208982Y-132315701D01*
X154208980Y-132315702D01*
X154027699Y-132427947D01*
X153870127Y-132571593D01*
X153741632Y-132741746D01*
X153646596Y-132932605D01*
X153646596Y-132932607D01*
X153588244Y-133137689D01*
X153568571Y-133349999D01*
X153568571Y-133350000D01*
X153588244Y-133562310D01*
X153646596Y-133767392D01*
X153646596Y-133767394D01*
X153741632Y-133958253D01*
X153741634Y-133958255D01*
X153870128Y-134128407D01*
X154027698Y-134272052D01*
X154208981Y-134384298D01*
X154407802Y-134461321D01*
X154604613Y-134498111D01*
X154666893Y-134529779D01*
X154702166Y-134590092D01*
X154699232Y-134659900D01*
X154659023Y-134717040D01*
X154604613Y-134741888D01*
X154407802Y-134778679D01*
X154407799Y-134778679D01*
X154407799Y-134778680D01*
X154208982Y-134855701D01*
X154208980Y-134855702D01*
X154027699Y-134967947D01*
X153870127Y-135111593D01*
X153741632Y-135281746D01*
X153646596Y-135472605D01*
X153646596Y-135472607D01*
X153588244Y-135677689D01*
X153568571Y-135889999D01*
X153568571Y-135890000D01*
X150680525Y-135890000D01*
X150677731Y-135883630D01*
X150577434Y-135730116D01*
X149879929Y-136427622D01*
X149877116Y-136414085D01*
X149807558Y-136279844D01*
X149704362Y-136169348D01*
X149575181Y-136090791D01*
X149523997Y-136076450D01*
X150224057Y-135376390D01*
X150224056Y-135376389D01*
X150177229Y-135339943D01*
X149958614Y-135221635D01*
X149958603Y-135221630D01*
X149723493Y-135140916D01*
X149478293Y-135100000D01*
X149229707Y-135100000D01*
X148984506Y-135140916D01*
X148749396Y-135221630D01*
X148749390Y-135221632D01*
X148530761Y-135339949D01*
X148483942Y-135376388D01*
X148483942Y-135376390D01*
X149182431Y-136074878D01*
X149065542Y-136125651D01*
X148948261Y-136221066D01*
X148861072Y-136344585D01*
X148830645Y-136430197D01*
X148130564Y-135730116D01*
X148030267Y-135883632D01*
X147930412Y-136111282D01*
X147869387Y-136352261D01*
X147869385Y-136352270D01*
X147848859Y-136599994D01*
X147848859Y-136600005D01*
X146159468Y-136600005D01*
X146159468Y-136600000D01*
X146159467Y-136599994D01*
X146149586Y-136487047D01*
X146139635Y-136373308D01*
X146080739Y-136153504D01*
X145984568Y-135947266D01*
X145854047Y-135760861D01*
X145854045Y-135760858D01*
X145693141Y-135599954D01*
X145506734Y-135469432D01*
X145506732Y-135469431D01*
X145300497Y-135373261D01*
X145300488Y-135373258D01*
X145080697Y-135314366D01*
X145080693Y-135314365D01*
X145080692Y-135314365D01*
X145080691Y-135314364D01*
X145080686Y-135314364D01*
X144854002Y-135294532D01*
X144853998Y-135294532D01*
X144627313Y-135314364D01*
X144627302Y-135314366D01*
X144407511Y-135373258D01*
X144407502Y-135373261D01*
X144201267Y-135469431D01*
X144201265Y-135469432D01*
X144014858Y-135599954D01*
X143853954Y-135760858D01*
X143723432Y-135947265D01*
X143723431Y-135947267D01*
X143627261Y-136153502D01*
X143627258Y-136153511D01*
X143568366Y-136373302D01*
X143568364Y-136373313D01*
X143548532Y-136599998D01*
X143548532Y-136600001D01*
X135619141Y-136600001D01*
X135619141Y-136599994D01*
X135598614Y-136352270D01*
X135598612Y-136352261D01*
X135537587Y-136111282D01*
X135437731Y-135883630D01*
X135337434Y-135730116D01*
X134639929Y-136427622D01*
X134637116Y-136414085D01*
X134567558Y-136279844D01*
X134464362Y-136169348D01*
X134335181Y-136090791D01*
X134283997Y-136076450D01*
X134984057Y-135376390D01*
X134984056Y-135376389D01*
X134937229Y-135339943D01*
X134718614Y-135221635D01*
X134718603Y-135221630D01*
X134483493Y-135140916D01*
X134238293Y-135100000D01*
X133989707Y-135100000D01*
X133744506Y-135140916D01*
X133509396Y-135221630D01*
X133509390Y-135221632D01*
X133290761Y-135339949D01*
X133243942Y-135376388D01*
X133243942Y-135376390D01*
X133942431Y-136074878D01*
X133825542Y-136125651D01*
X133708261Y-136221066D01*
X133621072Y-136344585D01*
X133590645Y-136430197D01*
X132890564Y-135730116D01*
X132790267Y-135883632D01*
X132690412Y-136111282D01*
X132629387Y-136352261D01*
X132629385Y-136352270D01*
X132608859Y-136599994D01*
X132608859Y-136600005D01*
X130919468Y-136600005D01*
X130919468Y-136600000D01*
X130919467Y-136599994D01*
X130909586Y-136487047D01*
X130899635Y-136373308D01*
X130840739Y-136153504D01*
X130744568Y-135947266D01*
X130614047Y-135760861D01*
X130614045Y-135760858D01*
X130453141Y-135599954D01*
X130266734Y-135469432D01*
X130266732Y-135469431D01*
X130060497Y-135373261D01*
X130060488Y-135373258D01*
X129840697Y-135314366D01*
X129840693Y-135314365D01*
X129840692Y-135314365D01*
X129840691Y-135314364D01*
X129840686Y-135314364D01*
X129614002Y-135294532D01*
X129613998Y-135294532D01*
X129387313Y-135314364D01*
X129387302Y-135314366D01*
X129167511Y-135373258D01*
X129167502Y-135373261D01*
X128961267Y-135469431D01*
X128961265Y-135469432D01*
X128774858Y-135599954D01*
X128613954Y-135760858D01*
X128483432Y-135947265D01*
X128483431Y-135947267D01*
X128387261Y-136153502D01*
X128387258Y-136153511D01*
X128328366Y-136373302D01*
X128328364Y-136373313D01*
X128308532Y-136599998D01*
X128308532Y-136600001D01*
X125394897Y-136600001D01*
X125417600Y-136567578D01*
X125517429Y-136353492D01*
X125517432Y-136353486D01*
X125574636Y-136140000D01*
X124677686Y-136140000D01*
X124703493Y-136099844D01*
X124744000Y-135961889D01*
X124744000Y-135818111D01*
X124703493Y-135680156D01*
X124677686Y-135640000D01*
X125574636Y-135640000D01*
X125574635Y-135639999D01*
X125517432Y-135426513D01*
X125517429Y-135426507D01*
X125417600Y-135212422D01*
X125417599Y-135212420D01*
X125282113Y-135018926D01*
X125282108Y-135018920D01*
X125115082Y-134851894D01*
X124921578Y-134716399D01*
X124722426Y-134623533D01*
X124669987Y-134577360D01*
X124650835Y-134510167D01*
X124671051Y-134443286D01*
X124724216Y-134397951D01*
X124730005Y-134395537D01*
X124759019Y-134384298D01*
X124940302Y-134272052D01*
X125097872Y-134128407D01*
X125226366Y-133958255D01*
X125321405Y-133767389D01*
X125379756Y-133562310D01*
X125399429Y-133350000D01*
X125379756Y-133137690D01*
X125321405Y-132932611D01*
X125321403Y-132932606D01*
X125321403Y-132932605D01*
X125226367Y-132741746D01*
X125097872Y-132571593D01*
X124940302Y-132427948D01*
X124759019Y-132315702D01*
X124759017Y-132315701D01*
X124659608Y-132277190D01*
X124560198Y-132238679D01*
X124363385Y-132201888D01*
X124301106Y-132170221D01*
X124265833Y-132109908D01*
X124268767Y-132040100D01*
X124308976Y-131982960D01*
X124363384Y-131958111D01*
X124560198Y-131921321D01*
X124759019Y-131844298D01*
X124940302Y-131732052D01*
X125097872Y-131588407D01*
X125226366Y-131418255D01*
X125255345Y-131360057D01*
X125321403Y-131227394D01*
X125321403Y-131227393D01*
X125321405Y-131227389D01*
X125379756Y-131022310D01*
X125399429Y-130810000D01*
X125379756Y-130597690D01*
X125321405Y-130392611D01*
X125321403Y-130392606D01*
X125321403Y-130392605D01*
X125226367Y-130201746D01*
X125149532Y-130100001D01*
X128308532Y-130100001D01*
X128328364Y-130326686D01*
X128328366Y-130326697D01*
X128387258Y-130546488D01*
X128387261Y-130546497D01*
X128483431Y-130752732D01*
X128483432Y-130752734D01*
X128613954Y-130939141D01*
X128774858Y-131100045D01*
X128774861Y-131100047D01*
X128961266Y-131230568D01*
X129167504Y-131326739D01*
X129387308Y-131385635D01*
X129549230Y-131399801D01*
X129613998Y-131405468D01*
X129614000Y-131405468D01*
X129614002Y-131405468D01*
X129670673Y-131400509D01*
X129840692Y-131385635D01*
X130060496Y-131326739D01*
X130266734Y-131230568D01*
X130453139Y-131100047D01*
X130614047Y-130939139D01*
X130744568Y-130752734D01*
X130840739Y-130546496D01*
X130899635Y-130326692D01*
X130919468Y-130100005D01*
X132608859Y-130100005D01*
X132629385Y-130347729D01*
X132629387Y-130347738D01*
X132690412Y-130588717D01*
X132790266Y-130816364D01*
X132890564Y-130969882D01*
X133588070Y-130272376D01*
X133590884Y-130285915D01*
X133660442Y-130420156D01*
X133763638Y-130530652D01*
X133892819Y-130609209D01*
X133944002Y-130623549D01*
X133243942Y-131323609D01*
X133290768Y-131360055D01*
X133290770Y-131360056D01*
X133509385Y-131478364D01*
X133509396Y-131478369D01*
X133744506Y-131559083D01*
X133989707Y-131600000D01*
X134238293Y-131600000D01*
X134483493Y-131559083D01*
X134718603Y-131478369D01*
X134718614Y-131478364D01*
X134937228Y-131360057D01*
X134937231Y-131360055D01*
X134984056Y-131323609D01*
X134285568Y-130625121D01*
X134402458Y-130574349D01*
X134519739Y-130478934D01*
X134606928Y-130355415D01*
X134637354Y-130269802D01*
X135337434Y-130969882D01*
X135437731Y-130816369D01*
X135537587Y-130588717D01*
X135598612Y-130347738D01*
X135598614Y-130347729D01*
X135619141Y-130100005D01*
X135619141Y-130100001D01*
X143548532Y-130100001D01*
X143568364Y-130326686D01*
X143568366Y-130326697D01*
X143627258Y-130546488D01*
X143627261Y-130546497D01*
X143723431Y-130752732D01*
X143723432Y-130752734D01*
X143853954Y-130939141D01*
X144014858Y-131100045D01*
X144014861Y-131100047D01*
X144201266Y-131230568D01*
X144407504Y-131326739D01*
X144627308Y-131385635D01*
X144789230Y-131399801D01*
X144853998Y-131405468D01*
X144854000Y-131405468D01*
X144854002Y-131405468D01*
X144910673Y-131400509D01*
X145080692Y-131385635D01*
X145300496Y-131326739D01*
X145506734Y-131230568D01*
X145693139Y-131100047D01*
X145854047Y-130939139D01*
X145984568Y-130752734D01*
X146080739Y-130546496D01*
X146139635Y-130326692D01*
X146159468Y-130100005D01*
X147848859Y-130100005D01*
X147869385Y-130347729D01*
X147869387Y-130347738D01*
X147930412Y-130588717D01*
X148030266Y-130816364D01*
X148130564Y-130969882D01*
X148828070Y-130272376D01*
X148830884Y-130285915D01*
X148900442Y-130420156D01*
X149003638Y-130530652D01*
X149132819Y-130609209D01*
X149184002Y-130623549D01*
X148483942Y-131323609D01*
X148530768Y-131360055D01*
X148530770Y-131360056D01*
X148749385Y-131478364D01*
X148749396Y-131478369D01*
X148984506Y-131559083D01*
X149229707Y-131600000D01*
X149478293Y-131600000D01*
X149723493Y-131559083D01*
X149958603Y-131478369D01*
X149958614Y-131478364D01*
X150177228Y-131360057D01*
X150177231Y-131360055D01*
X150224056Y-131323609D01*
X149525568Y-130625121D01*
X149642458Y-130574349D01*
X149759739Y-130478934D01*
X149846928Y-130355415D01*
X149877354Y-130269802D01*
X150577434Y-130969882D01*
X150677731Y-130816369D01*
X150777587Y-130588717D01*
X150838612Y-130347738D01*
X150838614Y-130347729D01*
X150859141Y-130100005D01*
X150859141Y-130099994D01*
X150838614Y-129852270D01*
X150838612Y-129852261D01*
X150777587Y-129611282D01*
X150677731Y-129383630D01*
X150577434Y-129230116D01*
X149879929Y-129927622D01*
X149877116Y-129914085D01*
X149807558Y-129779844D01*
X149704362Y-129669348D01*
X149575181Y-129590791D01*
X149523997Y-129576450D01*
X150224057Y-128876390D01*
X150224056Y-128876389D01*
X150177229Y-128839943D01*
X149958614Y-128721635D01*
X149958603Y-128721630D01*
X149723493Y-128640916D01*
X149478293Y-128600000D01*
X149229707Y-128600000D01*
X148984506Y-128640916D01*
X148749396Y-128721630D01*
X148749390Y-128721632D01*
X148530761Y-128839949D01*
X148483942Y-128876388D01*
X148483942Y-128876390D01*
X149182431Y-129574878D01*
X149065542Y-129625651D01*
X148948261Y-129721066D01*
X148861072Y-129844585D01*
X148830645Y-129930197D01*
X148130564Y-129230116D01*
X148030267Y-129383632D01*
X147930412Y-129611282D01*
X147869387Y-129852261D01*
X147869385Y-129852270D01*
X147848859Y-130099994D01*
X147848859Y-130100005D01*
X146159468Y-130100005D01*
X146159468Y-130100000D01*
X146159467Y-130099994D01*
X146149586Y-129987047D01*
X146139635Y-129873308D01*
X146080739Y-129653504D01*
X145984568Y-129447266D01*
X145854047Y-129260861D01*
X145854045Y-129260858D01*
X145693141Y-129099954D01*
X145506734Y-128969432D01*
X145506732Y-128969431D01*
X145300497Y-128873261D01*
X145300488Y-128873258D01*
X145080697Y-128814366D01*
X145080693Y-128814365D01*
X145080692Y-128814365D01*
X145080691Y-128814364D01*
X145080686Y-128814364D01*
X144854002Y-128794532D01*
X144853998Y-128794532D01*
X144627313Y-128814364D01*
X144627302Y-128814366D01*
X144407511Y-128873258D01*
X144407502Y-128873261D01*
X144201267Y-128969431D01*
X144201265Y-128969432D01*
X144014858Y-129099954D01*
X143853954Y-129260858D01*
X143723432Y-129447265D01*
X143723431Y-129447267D01*
X143627261Y-129653502D01*
X143627258Y-129653511D01*
X143568366Y-129873302D01*
X143568364Y-129873313D01*
X143548532Y-130099998D01*
X143548532Y-130100001D01*
X135619141Y-130100001D01*
X135619141Y-130099994D01*
X135598614Y-129852270D01*
X135598612Y-129852261D01*
X135537587Y-129611282D01*
X135437731Y-129383630D01*
X135337434Y-129230116D01*
X134639929Y-129927622D01*
X134637116Y-129914085D01*
X134567558Y-129779844D01*
X134464362Y-129669348D01*
X134335181Y-129590791D01*
X134283997Y-129576450D01*
X134984057Y-128876390D01*
X134984056Y-128876389D01*
X134937229Y-128839943D01*
X134718614Y-128721635D01*
X134718603Y-128721630D01*
X134483493Y-128640916D01*
X134238293Y-128600000D01*
X133989707Y-128600000D01*
X133744506Y-128640916D01*
X133509396Y-128721630D01*
X133509390Y-128721632D01*
X133290761Y-128839949D01*
X133243942Y-128876388D01*
X133243942Y-128876390D01*
X133942431Y-129574878D01*
X133825542Y-129625651D01*
X133708261Y-129721066D01*
X133621072Y-129844585D01*
X133590645Y-129930197D01*
X132890564Y-129230116D01*
X132790267Y-129383632D01*
X132690412Y-129611282D01*
X132629387Y-129852261D01*
X132629385Y-129852270D01*
X132608859Y-130099994D01*
X132608859Y-130100005D01*
X130919468Y-130100005D01*
X130919468Y-130100000D01*
X130919467Y-130099994D01*
X130909586Y-129987047D01*
X130899635Y-129873308D01*
X130840739Y-129653504D01*
X130744568Y-129447266D01*
X130614047Y-129260861D01*
X130614045Y-129260858D01*
X130453141Y-129099954D01*
X130266734Y-128969432D01*
X130266732Y-128969431D01*
X130060497Y-128873261D01*
X130060488Y-128873258D01*
X129840697Y-128814366D01*
X129840693Y-128814365D01*
X129840692Y-128814365D01*
X129840691Y-128814364D01*
X129840686Y-128814364D01*
X129614002Y-128794532D01*
X129613998Y-128794532D01*
X129387313Y-128814364D01*
X129387302Y-128814366D01*
X129167511Y-128873258D01*
X129167502Y-128873261D01*
X128961267Y-128969431D01*
X128961265Y-128969432D01*
X128774858Y-129099954D01*
X128613954Y-129260858D01*
X128483432Y-129447265D01*
X128483431Y-129447267D01*
X128387261Y-129653502D01*
X128387258Y-129653511D01*
X128328366Y-129873302D01*
X128328364Y-129873313D01*
X128308532Y-130099998D01*
X128308532Y-130100001D01*
X125149532Y-130100001D01*
X125097872Y-130031593D01*
X124940302Y-129887948D01*
X124759019Y-129775702D01*
X124759017Y-129775701D01*
X124617986Y-129721066D01*
X124560198Y-129698679D01*
X124363385Y-129661888D01*
X124301106Y-129630221D01*
X124265833Y-129569908D01*
X124268767Y-129500100D01*
X124308976Y-129442960D01*
X124363384Y-129418111D01*
X124560198Y-129381321D01*
X124759019Y-129304298D01*
X124940302Y-129192052D01*
X125097872Y-129048407D01*
X125226366Y-128878255D01*
X125264523Y-128801625D01*
X125321403Y-128687394D01*
X125321403Y-128687393D01*
X125321405Y-128687389D01*
X125367894Y-128524000D01*
X139017750Y-128524000D01*
X139036670Y-128667708D01*
X139036671Y-128667712D01*
X139092137Y-128801622D01*
X139092138Y-128801624D01*
X139092139Y-128801625D01*
X139180379Y-128916621D01*
X139295375Y-129004861D01*
X139429291Y-129060330D01*
X139556280Y-129077048D01*
X139572999Y-129079250D01*
X139573000Y-129079250D01*
X139573001Y-129079250D01*
X139587977Y-129077278D01*
X139716709Y-129060330D01*
X139850625Y-129004861D01*
X139965621Y-128916621D01*
X140053861Y-128801625D01*
X140109330Y-128667709D01*
X140128250Y-128524000D01*
X140109330Y-128380291D01*
X140053861Y-128246375D01*
X139965621Y-128131379D01*
X139850625Y-128043139D01*
X139850624Y-128043138D01*
X139850622Y-128043137D01*
X139716712Y-127987671D01*
X139716710Y-127987670D01*
X139716709Y-127987670D01*
X139644854Y-127978210D01*
X139573001Y-127968750D01*
X139572999Y-127968750D01*
X139429291Y-127987670D01*
X139429287Y-127987671D01*
X139295377Y-128043137D01*
X139180379Y-128131379D01*
X139092137Y-128246377D01*
X139036671Y-128380287D01*
X139036670Y-128380291D01*
X139017750Y-128523999D01*
X139017750Y-128524000D01*
X125367894Y-128524000D01*
X125379756Y-128482310D01*
X125399429Y-128270000D01*
X125379756Y-128057690D01*
X125321405Y-127852611D01*
X125321403Y-127852606D01*
X125321403Y-127852605D01*
X125226367Y-127661746D01*
X125097872Y-127491593D01*
X125086100Y-127480861D01*
X124940302Y-127347948D01*
X124759019Y-127235702D01*
X124759017Y-127235701D01*
X124659608Y-127197190D01*
X124560198Y-127158679D01*
X124363385Y-127121888D01*
X124301106Y-127090221D01*
X124265833Y-127029908D01*
X124267090Y-127000000D01*
X129365750Y-127000000D01*
X129384670Y-127143708D01*
X129384671Y-127143712D01*
X129440137Y-127277622D01*
X129440138Y-127277624D01*
X129440139Y-127277625D01*
X129528379Y-127392621D01*
X129643375Y-127480861D01*
X129777291Y-127536330D01*
X129904280Y-127553048D01*
X129920999Y-127555250D01*
X129921000Y-127555250D01*
X129921001Y-127555250D01*
X129935977Y-127553278D01*
X130064709Y-127536330D01*
X130198625Y-127480861D01*
X130313621Y-127392621D01*
X130401861Y-127277625D01*
X130457330Y-127143709D01*
X130476250Y-127000000D01*
X130459530Y-126873000D01*
X148415750Y-126873000D01*
X148427809Y-126964599D01*
X148434670Y-127016708D01*
X148434671Y-127016712D01*
X148490137Y-127150622D01*
X148490138Y-127150624D01*
X148490139Y-127150625D01*
X148578379Y-127265621D01*
X148693375Y-127353861D01*
X148827291Y-127409330D01*
X148954280Y-127426048D01*
X148970999Y-127428250D01*
X148971000Y-127428250D01*
X148971001Y-127428250D01*
X148985977Y-127426278D01*
X149114709Y-127409330D01*
X149248625Y-127353861D01*
X149363621Y-127265621D01*
X149451861Y-127150625D01*
X149507330Y-127016709D01*
X149526250Y-126873000D01*
X149507330Y-126729291D01*
X149451861Y-126595375D01*
X149363621Y-126480379D01*
X149248625Y-126392139D01*
X149248624Y-126392138D01*
X149248622Y-126392137D01*
X149114712Y-126336671D01*
X149114710Y-126336670D01*
X149114709Y-126336670D01*
X149042854Y-126327210D01*
X148971001Y-126317750D01*
X148970999Y-126317750D01*
X148827291Y-126336670D01*
X148827287Y-126336671D01*
X148693377Y-126392137D01*
X148578379Y-126480379D01*
X148490137Y-126595377D01*
X148434671Y-126729287D01*
X148434670Y-126729291D01*
X148415750Y-126873000D01*
X130459530Y-126873000D01*
X130457330Y-126856291D01*
X130401861Y-126722375D01*
X130313621Y-126607379D01*
X130198625Y-126519139D01*
X130198624Y-126519138D01*
X130198622Y-126519137D01*
X130064712Y-126463671D01*
X130064710Y-126463670D01*
X130064709Y-126463670D01*
X129992854Y-126454210D01*
X129921001Y-126444750D01*
X129920999Y-126444750D01*
X129777291Y-126463670D01*
X129777287Y-126463671D01*
X129643377Y-126519137D01*
X129528379Y-126607379D01*
X129440137Y-126722377D01*
X129384671Y-126856287D01*
X129384670Y-126856291D01*
X129365750Y-126999999D01*
X129365750Y-127000000D01*
X124267090Y-127000000D01*
X124268767Y-126960100D01*
X124308976Y-126902960D01*
X124363384Y-126878111D01*
X124560198Y-126841321D01*
X124759019Y-126764298D01*
X124940302Y-126652052D01*
X125097872Y-126508407D01*
X125226366Y-126338255D01*
X125321405Y-126147389D01*
X125379756Y-125942310D01*
X125399429Y-125730000D01*
X125379756Y-125517690D01*
X125321405Y-125312611D01*
X125321403Y-125312606D01*
X125321403Y-125312605D01*
X125226367Y-125121746D01*
X125097872Y-124951593D01*
X124971434Y-124836329D01*
X124940302Y-124807948D01*
X124759019Y-124695702D01*
X124759017Y-124695701D01*
X124659608Y-124657190D01*
X124560198Y-124618679D01*
X124363385Y-124581888D01*
X124301106Y-124550221D01*
X124265833Y-124489908D01*
X124268767Y-124420100D01*
X124308976Y-124362960D01*
X124363384Y-124338111D01*
X124560198Y-124301321D01*
X124563608Y-124300000D01*
X139994750Y-124300000D01*
X140013670Y-124443708D01*
X140013671Y-124443712D01*
X140069137Y-124577622D01*
X140069138Y-124577624D01*
X140069139Y-124577625D01*
X140157379Y-124692621D01*
X140272375Y-124780861D01*
X140406291Y-124836330D01*
X140533280Y-124853048D01*
X140549999Y-124855250D01*
X140550000Y-124855250D01*
X140550001Y-124855250D01*
X140564977Y-124853278D01*
X140693709Y-124836330D01*
X140827625Y-124780861D01*
X140942621Y-124692621D01*
X141030861Y-124577625D01*
X141086330Y-124443709D01*
X141105250Y-124300000D01*
X141086330Y-124156291D01*
X141030861Y-124022375D01*
X140942621Y-123907379D01*
X140827625Y-123819139D01*
X140827624Y-123819138D01*
X140827622Y-123819137D01*
X140693712Y-123763671D01*
X140693710Y-123763670D01*
X140693709Y-123763670D01*
X140621854Y-123754210D01*
X140550001Y-123744750D01*
X140549999Y-123744750D01*
X140406291Y-123763670D01*
X140406287Y-123763671D01*
X140272377Y-123819137D01*
X140157379Y-123907379D01*
X140069137Y-124022377D01*
X140013671Y-124156287D01*
X140013670Y-124156291D01*
X139994750Y-124299999D01*
X139994750Y-124300000D01*
X124563608Y-124300000D01*
X124759019Y-124224298D01*
X124940302Y-124112052D01*
X125097872Y-123968407D01*
X125226366Y-123798255D01*
X125321405Y-123607389D01*
X125379756Y-123402310D01*
X125399429Y-123190000D01*
X125379756Y-122977690D01*
X125321405Y-122772611D01*
X125321403Y-122772606D01*
X125321403Y-122772605D01*
X125226367Y-122581746D01*
X125097872Y-122411593D01*
X124940302Y-122267948D01*
X124759019Y-122155702D01*
X124759017Y-122155701D01*
X124659608Y-122117190D01*
X124560198Y-122078679D01*
X124363385Y-122041888D01*
X124301106Y-122010221D01*
X124265833Y-121949908D01*
X124268767Y-121880100D01*
X124308976Y-121822960D01*
X124363384Y-121798111D01*
X124560198Y-121761321D01*
X124759019Y-121684298D01*
X124940302Y-121572052D01*
X125097872Y-121428407D01*
X125226366Y-121258255D01*
X125321405Y-121067389D01*
X125379756Y-120862310D01*
X125399429Y-120650000D01*
X153568571Y-120650000D01*
X153588244Y-120862310D01*
X153646596Y-121067392D01*
X153646596Y-121067394D01*
X153741632Y-121258253D01*
X153741634Y-121258255D01*
X153870128Y-121428407D01*
X154027698Y-121572052D01*
X154208981Y-121684298D01*
X154407802Y-121761321D01*
X154617390Y-121800500D01*
X154617392Y-121800500D01*
X154830608Y-121800500D01*
X154830610Y-121800500D01*
X155040198Y-121761321D01*
X155239019Y-121684298D01*
X155420302Y-121572052D01*
X155577872Y-121428407D01*
X155706366Y-121258255D01*
X155801405Y-121067389D01*
X155859756Y-120862310D01*
X155879429Y-120650000D01*
X155859756Y-120437690D01*
X155801405Y-120232611D01*
X155801403Y-120232606D01*
X155801403Y-120232605D01*
X155706367Y-120041746D01*
X155577872Y-119871593D01*
X155420302Y-119727948D01*
X155239019Y-119615702D01*
X155239017Y-119615701D01*
X155139608Y-119577190D01*
X155040198Y-119538679D01*
X154843385Y-119501888D01*
X154781106Y-119470221D01*
X154745833Y-119409908D01*
X154748767Y-119340100D01*
X154788976Y-119282960D01*
X154843384Y-119258111D01*
X155040198Y-119221321D01*
X155239019Y-119144298D01*
X155420302Y-119032052D01*
X155577872Y-118888407D01*
X155706366Y-118718255D01*
X155801405Y-118527389D01*
X155859756Y-118322310D01*
X155879429Y-118110000D01*
X155859756Y-117897690D01*
X155801405Y-117692611D01*
X155801403Y-117692606D01*
X155801403Y-117692605D01*
X155706367Y-117501746D01*
X155577872Y-117331593D01*
X155420302Y-117187948D01*
X155239019Y-117075702D01*
X155239017Y-117075701D01*
X155139608Y-117037190D01*
X155040198Y-116998679D01*
X154843385Y-116961888D01*
X154781106Y-116930221D01*
X154745833Y-116869908D01*
X154748767Y-116800100D01*
X154788976Y-116742960D01*
X154843384Y-116718111D01*
X155040198Y-116681321D01*
X155239019Y-116604298D01*
X155420302Y-116492052D01*
X155577872Y-116348407D01*
X155706366Y-116178255D01*
X155801405Y-115987389D01*
X155859756Y-115782310D01*
X155879429Y-115570000D01*
X155859756Y-115357690D01*
X155801405Y-115152611D01*
X155801403Y-115152606D01*
X155801403Y-115152605D01*
X155706367Y-114961746D01*
X155577872Y-114791593D01*
X155569954Y-114784375D01*
X155420302Y-114647948D01*
X155239019Y-114535702D01*
X155239017Y-114535701D01*
X155139608Y-114497190D01*
X155040198Y-114458679D01*
X154843385Y-114421888D01*
X154781106Y-114390221D01*
X154745833Y-114329908D01*
X154748767Y-114260100D01*
X154788976Y-114202960D01*
X154843384Y-114178111D01*
X155040198Y-114141321D01*
X155239019Y-114064298D01*
X155420302Y-113952052D01*
X155577872Y-113808407D01*
X155706366Y-113638255D01*
X155744523Y-113561625D01*
X155801403Y-113447394D01*
X155801403Y-113447393D01*
X155801405Y-113447389D01*
X155859756Y-113242310D01*
X155879429Y-113030000D01*
X155859756Y-112817690D01*
X155801405Y-112612611D01*
X155801403Y-112612606D01*
X155801403Y-112612605D01*
X155706367Y-112421746D01*
X155577872Y-112251593D01*
X155544039Y-112220750D01*
X155420302Y-112107948D01*
X155239019Y-111995702D01*
X155239017Y-111995701D01*
X155139608Y-111957190D01*
X155040198Y-111918679D01*
X154867456Y-111886387D01*
X154805176Y-111854719D01*
X154769903Y-111794407D01*
X154772837Y-111724599D01*
X154813046Y-111667459D01*
X154877764Y-111641128D01*
X154890233Y-111640499D01*
X155618864Y-111640499D01*
X155618879Y-111640497D01*
X155618882Y-111640497D01*
X155643987Y-111637586D01*
X155643988Y-111637585D01*
X155643991Y-111637585D01*
X155746765Y-111592206D01*
X155826206Y-111512765D01*
X155871585Y-111409991D01*
X155874500Y-111384865D01*
X155874499Y-109595136D01*
X155872032Y-109573861D01*
X155871586Y-109570012D01*
X155871585Y-109570010D01*
X155871585Y-109570009D01*
X155826206Y-109467235D01*
X155746765Y-109387794D01*
X155707874Y-109370622D01*
X155643992Y-109342415D01*
X155618865Y-109339500D01*
X153829143Y-109339500D01*
X153829117Y-109339502D01*
X153804012Y-109342413D01*
X153804008Y-109342415D01*
X153701235Y-109387793D01*
X153621794Y-109467234D01*
X153576415Y-109570006D01*
X153576415Y-109570008D01*
X153573500Y-109595131D01*
X153573500Y-111384856D01*
X153573502Y-111384882D01*
X153576413Y-111409987D01*
X153576415Y-111409991D01*
X153621793Y-111512764D01*
X153621794Y-111512765D01*
X153701235Y-111592206D01*
X153804009Y-111637585D01*
X153829135Y-111640500D01*
X154557758Y-111640499D01*
X154624795Y-111660183D01*
X154670550Y-111712987D01*
X154680494Y-111782146D01*
X154651469Y-111845702D01*
X154592691Y-111883476D01*
X154580542Y-111886388D01*
X154524116Y-111896935D01*
X154407802Y-111918679D01*
X154407800Y-111918679D01*
X154407798Y-111918680D01*
X154208982Y-111995701D01*
X154208980Y-111995702D01*
X154027699Y-112107947D01*
X153870127Y-112251593D01*
X153741632Y-112421746D01*
X153646596Y-112612605D01*
X153646596Y-112612607D01*
X153592385Y-112803137D01*
X153588244Y-112817690D01*
X153568571Y-113030000D01*
X153588244Y-113242310D01*
X153640995Y-113427709D01*
X153646596Y-113447392D01*
X153646596Y-113447394D01*
X153741632Y-113638253D01*
X153837243Y-113764861D01*
X153870128Y-113808407D01*
X154027698Y-113952052D01*
X154208981Y-114064298D01*
X154407802Y-114141321D01*
X154604613Y-114178111D01*
X154666893Y-114209779D01*
X154702166Y-114270092D01*
X154699232Y-114339900D01*
X154659023Y-114397040D01*
X154604613Y-114421888D01*
X154407802Y-114458679D01*
X154407799Y-114458679D01*
X154407799Y-114458680D01*
X154208982Y-114535701D01*
X154208980Y-114535702D01*
X154027699Y-114647947D01*
X153870127Y-114791593D01*
X153741632Y-114961746D01*
X153646596Y-115152605D01*
X153646596Y-115152607D01*
X153588244Y-115357689D01*
X153568571Y-115569999D01*
X153568571Y-115570000D01*
X153588244Y-115782310D01*
X153646596Y-115987392D01*
X153646596Y-115987394D01*
X153741632Y-116178253D01*
X153741634Y-116178255D01*
X153870128Y-116348407D01*
X154027698Y-116492052D01*
X154208981Y-116604298D01*
X154407802Y-116681321D01*
X154604613Y-116718111D01*
X154666893Y-116749779D01*
X154702166Y-116810092D01*
X154699232Y-116879900D01*
X154659023Y-116937040D01*
X154604613Y-116961888D01*
X154407802Y-116998679D01*
X154407799Y-116998679D01*
X154407799Y-116998680D01*
X154208982Y-117075701D01*
X154208980Y-117075702D01*
X154027699Y-117187947D01*
X153870127Y-117331593D01*
X153741632Y-117501746D01*
X153646596Y-117692605D01*
X153646596Y-117692607D01*
X153588244Y-117897689D01*
X153568571Y-118109999D01*
X153568571Y-118110000D01*
X153588244Y-118322310D01*
X153646596Y-118527392D01*
X153646596Y-118527394D01*
X153741632Y-118718253D01*
X153741634Y-118718255D01*
X153870128Y-118888407D01*
X154027698Y-119032052D01*
X154208981Y-119144298D01*
X154407802Y-119221321D01*
X154604613Y-119258111D01*
X154666893Y-119289779D01*
X154702166Y-119350092D01*
X154699232Y-119419900D01*
X154659023Y-119477040D01*
X154604613Y-119501888D01*
X154407802Y-119538679D01*
X154407799Y-119538679D01*
X154407799Y-119538680D01*
X154208982Y-119615701D01*
X154208980Y-119615702D01*
X154027699Y-119727947D01*
X153870127Y-119871593D01*
X153741632Y-120041746D01*
X153646596Y-120232605D01*
X153646596Y-120232607D01*
X153588244Y-120437689D01*
X153568571Y-120649999D01*
X153568571Y-120650000D01*
X125399429Y-120650000D01*
X125379756Y-120437690D01*
X125321405Y-120232611D01*
X125321403Y-120232606D01*
X125321403Y-120232605D01*
X125226367Y-120041746D01*
X125097872Y-119871593D01*
X124940302Y-119727948D01*
X124759019Y-119615702D01*
X124759017Y-119615701D01*
X124659608Y-119577190D01*
X124560198Y-119538679D01*
X124363385Y-119501888D01*
X124301106Y-119470221D01*
X124265833Y-119409908D01*
X124268767Y-119340100D01*
X124308976Y-119282960D01*
X124363384Y-119258111D01*
X124560198Y-119221321D01*
X124759019Y-119144298D01*
X124940302Y-119032052D01*
X125097872Y-118888407D01*
X125226366Y-118718255D01*
X125321405Y-118527389D01*
X125379756Y-118322310D01*
X125399429Y-118110000D01*
X125379756Y-117897690D01*
X125321405Y-117692611D01*
X125321403Y-117692606D01*
X125321403Y-117692605D01*
X125226367Y-117501746D01*
X125097872Y-117331593D01*
X124940302Y-117187948D01*
X124759019Y-117075702D01*
X124759017Y-117075701D01*
X124659608Y-117037190D01*
X124560198Y-116998679D01*
X124363385Y-116961888D01*
X124301106Y-116930221D01*
X124265833Y-116869908D01*
X124268767Y-116800100D01*
X124308976Y-116742960D01*
X124363384Y-116718111D01*
X124560198Y-116681321D01*
X124759019Y-116604298D01*
X124940302Y-116492052D01*
X125097872Y-116348407D01*
X125226366Y-116178255D01*
X125321405Y-115987389D01*
X125379756Y-115782310D01*
X125399429Y-115570000D01*
X125379756Y-115357690D01*
X125321405Y-115152611D01*
X125321403Y-115152606D01*
X125321403Y-115152605D01*
X125276287Y-115062000D01*
X135461750Y-115062000D01*
X135480670Y-115205708D01*
X135480671Y-115205712D01*
X135536137Y-115339622D01*
X135536138Y-115339624D01*
X135536139Y-115339625D01*
X135624379Y-115454621D01*
X135739375Y-115542861D01*
X135873291Y-115598330D01*
X136000280Y-115615048D01*
X136016999Y-115617250D01*
X136017000Y-115617250D01*
X136017001Y-115617250D01*
X136031977Y-115615278D01*
X136160709Y-115598330D01*
X136294625Y-115542861D01*
X136409621Y-115454621D01*
X136497861Y-115339625D01*
X136553330Y-115205709D01*
X136572250Y-115062000D01*
X136553330Y-114918291D01*
X136497861Y-114784375D01*
X136409621Y-114669379D01*
X136294625Y-114581139D01*
X136294624Y-114581138D01*
X136294622Y-114581137D01*
X136160712Y-114525671D01*
X136160710Y-114525670D01*
X136160709Y-114525670D01*
X136088854Y-114516210D01*
X136017001Y-114506750D01*
X136016999Y-114506750D01*
X135873291Y-114525670D01*
X135873287Y-114525671D01*
X135739377Y-114581137D01*
X135624379Y-114669379D01*
X135536137Y-114784377D01*
X135480671Y-114918287D01*
X135480670Y-114918291D01*
X135461750Y-115061999D01*
X135461750Y-115062000D01*
X125276287Y-115062000D01*
X125226367Y-114961746D01*
X125097872Y-114791593D01*
X125089954Y-114784375D01*
X124940302Y-114647948D01*
X124759019Y-114535702D01*
X124759017Y-114535701D01*
X124659608Y-114497190D01*
X124560198Y-114458679D01*
X124387456Y-114426387D01*
X124325176Y-114394719D01*
X124289903Y-114334407D01*
X124292837Y-114264599D01*
X124333046Y-114207459D01*
X124397764Y-114181128D01*
X124410233Y-114180499D01*
X125138864Y-114180499D01*
X125138879Y-114180497D01*
X125138882Y-114180497D01*
X125163987Y-114177586D01*
X125163988Y-114177585D01*
X125163991Y-114177585D01*
X125266765Y-114132206D01*
X125346206Y-114052765D01*
X125349193Y-114046000D01*
X142192750Y-114046000D01*
X142210457Y-114180499D01*
X142211670Y-114189708D01*
X142211671Y-114189712D01*
X142267137Y-114323622D01*
X142267138Y-114323624D01*
X142267139Y-114323625D01*
X142355379Y-114438621D01*
X142470375Y-114526861D01*
X142604291Y-114582330D01*
X142731280Y-114599048D01*
X142747999Y-114601250D01*
X142748000Y-114601250D01*
X142748001Y-114601250D01*
X142762977Y-114599278D01*
X142891709Y-114582330D01*
X143025625Y-114526861D01*
X143140621Y-114438621D01*
X143228861Y-114323625D01*
X143284330Y-114189709D01*
X143303250Y-114046000D01*
X143284330Y-113902291D01*
X143228861Y-113768375D01*
X143140621Y-113653379D01*
X143025625Y-113565139D01*
X143025624Y-113565138D01*
X143025622Y-113565137D01*
X142891712Y-113509671D01*
X142891710Y-113509670D01*
X142891709Y-113509670D01*
X142819854Y-113500210D01*
X142748001Y-113490750D01*
X142747999Y-113490750D01*
X142604291Y-113509670D01*
X142604287Y-113509671D01*
X142470377Y-113565137D01*
X142355379Y-113653379D01*
X142267137Y-113768377D01*
X142211671Y-113902287D01*
X142211670Y-113902291D01*
X142192750Y-114046000D01*
X125349193Y-114046000D01*
X125391585Y-113949991D01*
X125394500Y-113924865D01*
X125394500Y-113284000D01*
X128603750Y-113284000D01*
X128622670Y-113427708D01*
X128622671Y-113427712D01*
X128678137Y-113561622D01*
X128678138Y-113561624D01*
X128678139Y-113561625D01*
X128766379Y-113676621D01*
X128881375Y-113764861D01*
X128881376Y-113764861D01*
X128881377Y-113764862D01*
X128926013Y-113783350D01*
X129015291Y-113820330D01*
X129142280Y-113837048D01*
X129158999Y-113839250D01*
X129159000Y-113839250D01*
X129159001Y-113839250D01*
X129173977Y-113837278D01*
X129302709Y-113820330D01*
X129436625Y-113764861D01*
X129551621Y-113676621D01*
X129639861Y-113561625D01*
X129695330Y-113427709D01*
X129714250Y-113284000D01*
X129695330Y-113140291D01*
X129639861Y-113006375D01*
X129551621Y-112891379D01*
X129436625Y-112803139D01*
X129436624Y-112803138D01*
X129436622Y-112803137D01*
X129302712Y-112747671D01*
X129302710Y-112747670D01*
X129302709Y-112747670D01*
X129230854Y-112738210D01*
X129159001Y-112728750D01*
X129158999Y-112728750D01*
X129015291Y-112747670D01*
X129015287Y-112747671D01*
X128881377Y-112803137D01*
X128766379Y-112891379D01*
X128678137Y-113006377D01*
X128622671Y-113140287D01*
X128622670Y-113140291D01*
X128603750Y-113283999D01*
X128603750Y-113284000D01*
X125394500Y-113284000D01*
X125394499Y-112649000D01*
X134318750Y-112649000D01*
X134329249Y-112728750D01*
X134337670Y-112792708D01*
X134337671Y-112792712D01*
X134393137Y-112926622D01*
X134393138Y-112926624D01*
X134393139Y-112926625D01*
X134481379Y-113041621D01*
X134596375Y-113129861D01*
X134596376Y-113129861D01*
X134596377Y-113129862D01*
X134641013Y-113148350D01*
X134730291Y-113185330D01*
X134857280Y-113202048D01*
X134873999Y-113204250D01*
X134874000Y-113204250D01*
X134874001Y-113204250D01*
X134888977Y-113202278D01*
X135017709Y-113185330D01*
X135151625Y-113129861D01*
X135266621Y-113041621D01*
X135354861Y-112926625D01*
X135410330Y-112792709D01*
X135412530Y-112776000D01*
X144478750Y-112776000D01*
X144497670Y-112919708D01*
X144497671Y-112919712D01*
X144553137Y-113053622D01*
X144553138Y-113053624D01*
X144553139Y-113053625D01*
X144641379Y-113168621D01*
X144756375Y-113256861D01*
X144890291Y-113312330D01*
X145017280Y-113329048D01*
X145033999Y-113331250D01*
X145034000Y-113331250D01*
X145034001Y-113331250D01*
X145048977Y-113329278D01*
X145177709Y-113312330D01*
X145311625Y-113256861D01*
X145426621Y-113168621D01*
X145514861Y-113053625D01*
X145570330Y-112919709D01*
X145589250Y-112776000D01*
X145570330Y-112632291D01*
X145514861Y-112498375D01*
X145426621Y-112383379D01*
X145311625Y-112295139D01*
X145311624Y-112295138D01*
X145311622Y-112295137D01*
X145177712Y-112239671D01*
X145177710Y-112239670D01*
X145177709Y-112239670D01*
X145105854Y-112230210D01*
X145034001Y-112220750D01*
X145033999Y-112220750D01*
X144890291Y-112239670D01*
X144890287Y-112239671D01*
X144756377Y-112295137D01*
X144641379Y-112383379D01*
X144553137Y-112498377D01*
X144497671Y-112632287D01*
X144497670Y-112632291D01*
X144478750Y-112775999D01*
X144478750Y-112776000D01*
X135412530Y-112776000D01*
X135429250Y-112649000D01*
X135410330Y-112505291D01*
X135354861Y-112371375D01*
X135266621Y-112256379D01*
X135151625Y-112168139D01*
X135151624Y-112168138D01*
X135151622Y-112168137D01*
X135017712Y-112112671D01*
X135017710Y-112112670D01*
X135017709Y-112112670D01*
X134945854Y-112103210D01*
X134874001Y-112093750D01*
X134873999Y-112093750D01*
X134730291Y-112112670D01*
X134730287Y-112112671D01*
X134596377Y-112168137D01*
X134481379Y-112256379D01*
X134393137Y-112371377D01*
X134337671Y-112505287D01*
X134337670Y-112505291D01*
X134323542Y-112612605D01*
X134318750Y-112649000D01*
X125394499Y-112649000D01*
X125394499Y-112135136D01*
X125391894Y-112112670D01*
X125391586Y-112110012D01*
X125391585Y-112110010D01*
X125391585Y-112110009D01*
X125346206Y-112007235D01*
X125266765Y-111927794D01*
X125246124Y-111918680D01*
X125163992Y-111882415D01*
X125138865Y-111879500D01*
X123349143Y-111879500D01*
X123349117Y-111879502D01*
X123324012Y-111882413D01*
X123324008Y-111882415D01*
X123221235Y-111927793D01*
X123141794Y-112007234D01*
X123096415Y-112110006D01*
X123096415Y-112110008D01*
X123093500Y-112135131D01*
X123093500Y-113924856D01*
X123093502Y-113924882D01*
X123096413Y-113949987D01*
X123096415Y-113949991D01*
X123141793Y-114052764D01*
X123141794Y-114052765D01*
X123221235Y-114132206D01*
X123324009Y-114177585D01*
X123349135Y-114180500D01*
X124077758Y-114180499D01*
X124144795Y-114200183D01*
X124190550Y-114252987D01*
X124200494Y-114322146D01*
X124171469Y-114385702D01*
X124112691Y-114423476D01*
X124100542Y-114426388D01*
X124044116Y-114436935D01*
X123927802Y-114458679D01*
X123927800Y-114458679D01*
X123927798Y-114458680D01*
X123728982Y-114535701D01*
X123728980Y-114535702D01*
X123547699Y-114647947D01*
X123390127Y-114791593D01*
X123261632Y-114961746D01*
X123166596Y-115152605D01*
X123166596Y-115152607D01*
X123108244Y-115357689D01*
X123088571Y-115569999D01*
X123088571Y-115570000D01*
X123108244Y-115782310D01*
X123166596Y-115987392D01*
X123166596Y-115987394D01*
X123261632Y-116178253D01*
X123261634Y-116178255D01*
X123390128Y-116348407D01*
X123547698Y-116492052D01*
X123728981Y-116604298D01*
X123927802Y-116681321D01*
X124124613Y-116718111D01*
X124186893Y-116749779D01*
X124222166Y-116810092D01*
X124219232Y-116879900D01*
X124179023Y-116937040D01*
X124124613Y-116961888D01*
X123927802Y-116998679D01*
X123927799Y-116998679D01*
X123927799Y-116998680D01*
X123728982Y-117075701D01*
X123728980Y-117075702D01*
X123547699Y-117187947D01*
X123390127Y-117331593D01*
X123261632Y-117501746D01*
X123166596Y-117692605D01*
X123166596Y-117692607D01*
X123108244Y-117897689D01*
X123088571Y-118109999D01*
X123088571Y-118110000D01*
X123108244Y-118322310D01*
X123166596Y-118527392D01*
X123166596Y-118527394D01*
X123261632Y-118718253D01*
X123261634Y-118718255D01*
X123390128Y-118888407D01*
X123547698Y-119032052D01*
X123728981Y-119144298D01*
X123927802Y-119221321D01*
X124124613Y-119258111D01*
X124186893Y-119289779D01*
X124222166Y-119350092D01*
X124219232Y-119419900D01*
X124179023Y-119477040D01*
X124124613Y-119501888D01*
X123927802Y-119538679D01*
X123927799Y-119538679D01*
X123927799Y-119538680D01*
X123728982Y-119615701D01*
X123728980Y-119615702D01*
X123547699Y-119727947D01*
X123390127Y-119871593D01*
X123261632Y-120041746D01*
X123166596Y-120232605D01*
X123166596Y-120232607D01*
X123108244Y-120437689D01*
X123088571Y-120649999D01*
X123088571Y-120650000D01*
X123108244Y-120862310D01*
X123166596Y-121067392D01*
X123166596Y-121067394D01*
X123261632Y-121258253D01*
X123261634Y-121258255D01*
X123390128Y-121428407D01*
X123547698Y-121572052D01*
X123728981Y-121684298D01*
X123927802Y-121761321D01*
X124124613Y-121798111D01*
X124186893Y-121829779D01*
X124222166Y-121890092D01*
X124219232Y-121959900D01*
X124179023Y-122017040D01*
X124124613Y-122041888D01*
X123927802Y-122078679D01*
X123927799Y-122078679D01*
X123927799Y-122078680D01*
X123728982Y-122155701D01*
X123728980Y-122155702D01*
X123547699Y-122267947D01*
X123390127Y-122411593D01*
X123261632Y-122581746D01*
X123166596Y-122772605D01*
X123166596Y-122772607D01*
X123108244Y-122977689D01*
X123088571Y-123189999D01*
X123088571Y-123190000D01*
X123108244Y-123402310D01*
X123166596Y-123607392D01*
X123166596Y-123607394D01*
X123261632Y-123798253D01*
X123261634Y-123798255D01*
X123390128Y-123968407D01*
X123547698Y-124112052D01*
X123728981Y-124224298D01*
X123927802Y-124301321D01*
X124124613Y-124338111D01*
X124186893Y-124369779D01*
X124222166Y-124430092D01*
X124219232Y-124499900D01*
X124179023Y-124557040D01*
X124124613Y-124581888D01*
X123927802Y-124618679D01*
X123927799Y-124618679D01*
X123927799Y-124618680D01*
X123728982Y-124695701D01*
X123728980Y-124695702D01*
X123547699Y-124807947D01*
X123390127Y-124951593D01*
X123261632Y-125121746D01*
X123166596Y-125312605D01*
X123166596Y-125312607D01*
X123108244Y-125517689D01*
X123088571Y-125729999D01*
X123088571Y-125730000D01*
X123108244Y-125942310D01*
X123166596Y-126147392D01*
X123166596Y-126147394D01*
X123261632Y-126338253D01*
X123368962Y-126480379D01*
X123390128Y-126508407D01*
X123547698Y-126652052D01*
X123728981Y-126764298D01*
X123927802Y-126841321D01*
X124124613Y-126878111D01*
X124186893Y-126909779D01*
X124222166Y-126970092D01*
X124219232Y-127039900D01*
X124179023Y-127097040D01*
X124124613Y-127121888D01*
X123927802Y-127158679D01*
X123927799Y-127158679D01*
X123927799Y-127158680D01*
X123728982Y-127235701D01*
X123728980Y-127235702D01*
X123547699Y-127347947D01*
X123390127Y-127491593D01*
X123261632Y-127661746D01*
X123166596Y-127852605D01*
X123166596Y-127852607D01*
X123112385Y-128043137D01*
X123108244Y-128057690D01*
X123088571Y-128270000D01*
X123108244Y-128482310D01*
X123160995Y-128667709D01*
X123166596Y-128687392D01*
X123166596Y-128687394D01*
X123261632Y-128878253D01*
X123330488Y-128969432D01*
X123390128Y-129048407D01*
X123547698Y-129192052D01*
X123728981Y-129304298D01*
X123927802Y-129381321D01*
X124124613Y-129418111D01*
X124186893Y-129449779D01*
X124222166Y-129510092D01*
X124219232Y-129579900D01*
X124179023Y-129637040D01*
X124124613Y-129661888D01*
X123927802Y-129698679D01*
X123927799Y-129698679D01*
X123927799Y-129698680D01*
X123728982Y-129775701D01*
X123728980Y-129775702D01*
X123547699Y-129887947D01*
X123390127Y-130031593D01*
X123261632Y-130201746D01*
X123166596Y-130392605D01*
X123166596Y-130392607D01*
X123108244Y-130597689D01*
X123093878Y-130752732D01*
X123088571Y-130810000D01*
X123108244Y-131022310D01*
X123130362Y-131100047D01*
X123166596Y-131227392D01*
X123166596Y-131227394D01*
X123261632Y-131418253D01*
X123307030Y-131478369D01*
X123390128Y-131588407D01*
X123547698Y-131732052D01*
X123728981Y-131844298D01*
X123927802Y-131921321D01*
X124124613Y-131958111D01*
X124186893Y-131989779D01*
X124222166Y-132050092D01*
X124219232Y-132119900D01*
X124179023Y-132177040D01*
X124124613Y-132201888D01*
X123927802Y-132238679D01*
X123927799Y-132238679D01*
X123927799Y-132238680D01*
X123728982Y-132315701D01*
X123728980Y-132315702D01*
X123547699Y-132427947D01*
X123390127Y-132571593D01*
X123261632Y-132741746D01*
X123166596Y-132932605D01*
X123166596Y-132932607D01*
X123108244Y-133137689D01*
X123088571Y-133349999D01*
X123088571Y-133350000D01*
X123108244Y-133562310D01*
X123166596Y-133767392D01*
X123166596Y-133767394D01*
X123261632Y-133958253D01*
X123261634Y-133958255D01*
X123390128Y-134128407D01*
X123547698Y-134272052D01*
X123728981Y-134384298D01*
X123757961Y-134395525D01*
X123813362Y-134438095D01*
X123836954Y-134503861D01*
X123821244Y-134571942D01*
X123771222Y-134620722D01*
X123765573Y-134623533D01*
X123566422Y-134716399D01*
X123566420Y-134716400D01*
X123372926Y-134851886D01*
X123372920Y-134851891D01*
X123205891Y-135018920D01*
X123205886Y-135018926D01*
X123070400Y-135212420D01*
X123070399Y-135212422D01*
X122970570Y-135426507D01*
X122970567Y-135426513D01*
X122913364Y-135639999D01*
X122913364Y-135640000D01*
X123810314Y-135640000D01*
X123784507Y-135680156D01*
X123744000Y-135818111D01*
X123744000Y-135961889D01*
X123784507Y-136099844D01*
X123810314Y-136140000D01*
X122913364Y-136140000D01*
X121069500Y-136140000D01*
X121069500Y-111000000D01*
X139644750Y-111000000D01*
X139663670Y-111143708D01*
X139663671Y-111143712D01*
X139719137Y-111277622D01*
X139719138Y-111277624D01*
X139719139Y-111277625D01*
X139807379Y-111392621D01*
X139922375Y-111480861D01*
X140056291Y-111536330D01*
X140183280Y-111553048D01*
X140199999Y-111555250D01*
X140200000Y-111555250D01*
X140200001Y-111555250D01*
X140214977Y-111553278D01*
X140343709Y-111536330D01*
X140477625Y-111480861D01*
X140592621Y-111392621D01*
X140680861Y-111277625D01*
X140736330Y-111143709D01*
X140755250Y-111000000D01*
X140736330Y-110856291D01*
X140680861Y-110722375D01*
X140592621Y-110607379D01*
X140477625Y-110519139D01*
X140477624Y-110519138D01*
X140477622Y-110519137D01*
X140343712Y-110463671D01*
X140343710Y-110463670D01*
X140343709Y-110463670D01*
X140271854Y-110454210D01*
X140200001Y-110444750D01*
X140199999Y-110444750D01*
X140056291Y-110463670D01*
X140056287Y-110463671D01*
X139922377Y-110519137D01*
X139807379Y-110607379D01*
X139719137Y-110722377D01*
X139663671Y-110856287D01*
X139663670Y-110856291D01*
X139644750Y-110999999D01*
X139644750Y-111000000D01*
X121069500Y-111000000D01*
X121069500Y-109093000D01*
X136858750Y-109093000D01*
X136877670Y-109236708D01*
X136877671Y-109236712D01*
X136933137Y-109370622D01*
X136933138Y-109370624D01*
X136933139Y-109370625D01*
X137021379Y-109485621D01*
X137136375Y-109573861D01*
X137270291Y-109629330D01*
X137397280Y-109646048D01*
X137413999Y-109648250D01*
X137414000Y-109648250D01*
X137414001Y-109648250D01*
X137428977Y-109646278D01*
X137557709Y-109629330D01*
X137691625Y-109573861D01*
X137806621Y-109485621D01*
X137894861Y-109370625D01*
X137950330Y-109236709D01*
X137969250Y-109093000D01*
X137950330Y-108949291D01*
X137894861Y-108815375D01*
X137806621Y-108700379D01*
X137691625Y-108612139D01*
X137691624Y-108612138D01*
X137691622Y-108612137D01*
X137557712Y-108556671D01*
X137557710Y-108556670D01*
X137557709Y-108556670D01*
X137485854Y-108547210D01*
X137414001Y-108537750D01*
X137413999Y-108537750D01*
X137270291Y-108556670D01*
X137270287Y-108556671D01*
X137136377Y-108612137D01*
X137021379Y-108700379D01*
X136933137Y-108815377D01*
X136877671Y-108949287D01*
X136877670Y-108949291D01*
X136858750Y-109092999D01*
X136858750Y-109093000D01*
X121069500Y-109093000D01*
X121069500Y-108250000D01*
X138744750Y-108250000D01*
X138763670Y-108393708D01*
X138763671Y-108393712D01*
X138819137Y-108527622D01*
X138819138Y-108527624D01*
X138819139Y-108527625D01*
X138907379Y-108642621D01*
X139022375Y-108730861D01*
X139156291Y-108786330D01*
X139283280Y-108803048D01*
X139299999Y-108805250D01*
X139300000Y-108805250D01*
X139300001Y-108805250D01*
X139314977Y-108803278D01*
X139443709Y-108786330D01*
X139577625Y-108730861D01*
X139692621Y-108642621D01*
X139780861Y-108527625D01*
X139836330Y-108393709D01*
X139855250Y-108250000D01*
X139836330Y-108106291D01*
X139780861Y-107972375D01*
X139692621Y-107857379D01*
X139577625Y-107769139D01*
X139577624Y-107769138D01*
X139577622Y-107769137D01*
X139443712Y-107713671D01*
X139443710Y-107713670D01*
X139443709Y-107713670D01*
X139371854Y-107704210D01*
X139300001Y-107694750D01*
X139299999Y-107694750D01*
X139156291Y-107713670D01*
X139156287Y-107713671D01*
X139022377Y-107769137D01*
X138907379Y-107857379D01*
X138819137Y-107972377D01*
X138763671Y-108106287D01*
X138763670Y-108106291D01*
X138744750Y-108249999D01*
X138744750Y-108250000D01*
X121069500Y-108250000D01*
X121069500Y-106807000D01*
X144351750Y-106807000D01*
X144370670Y-106950708D01*
X144370671Y-106950712D01*
X144426137Y-107084622D01*
X144426138Y-107084624D01*
X144426139Y-107084625D01*
X144514379Y-107199621D01*
X144629375Y-107287861D01*
X144763291Y-107343330D01*
X144890280Y-107360048D01*
X144906999Y-107362250D01*
X144907000Y-107362250D01*
X144907001Y-107362250D01*
X144921977Y-107360278D01*
X145050709Y-107343330D01*
X145184625Y-107287861D01*
X145299621Y-107199621D01*
X145387861Y-107084625D01*
X145443330Y-106950709D01*
X145462250Y-106807000D01*
X145443330Y-106663291D01*
X145387861Y-106529375D01*
X145299621Y-106414379D01*
X145184625Y-106326139D01*
X145184624Y-106326138D01*
X145184622Y-106326137D01*
X145050712Y-106270671D01*
X145050710Y-106270670D01*
X145050709Y-106270670D01*
X144978854Y-106261210D01*
X144907001Y-106251750D01*
X144906999Y-106251750D01*
X144763291Y-106270670D01*
X144763287Y-106270671D01*
X144629377Y-106326137D01*
X144514379Y-106414379D01*
X144426137Y-106529377D01*
X144370671Y-106663287D01*
X144370670Y-106663291D01*
X144351750Y-106806999D01*
X144351750Y-106807000D01*
X121069500Y-106807000D01*
X121069500Y-105660000D01*
X122913364Y-105660000D01*
X122970567Y-105873486D01*
X122970570Y-105873492D01*
X123070399Y-106087578D01*
X123205894Y-106281082D01*
X123372917Y-106448105D01*
X123566421Y-106583600D01*
X123780507Y-106683429D01*
X123780516Y-106683433D01*
X123994000Y-106740634D01*
X123994000Y-105845501D01*
X124101685Y-105894680D01*
X124208237Y-105910000D01*
X124279763Y-105910000D01*
X124386315Y-105894680D01*
X124494000Y-105845501D01*
X124494000Y-106740633D01*
X124707483Y-106683433D01*
X124707492Y-106683429D01*
X124921578Y-106583600D01*
X125115082Y-106448105D01*
X125282105Y-106281082D01*
X125417600Y-106087578D01*
X125496675Y-105918000D01*
X136096750Y-105918000D01*
X136115670Y-106061708D01*
X136115671Y-106061712D01*
X136171137Y-106195622D01*
X136171138Y-106195624D01*
X136171139Y-106195625D01*
X136259379Y-106310621D01*
X136374375Y-106398861D01*
X136508291Y-106454330D01*
X136635280Y-106471048D01*
X136651999Y-106473250D01*
X136652000Y-106473250D01*
X136652001Y-106473250D01*
X136666977Y-106471278D01*
X136795709Y-106454330D01*
X136929625Y-106398861D01*
X137044621Y-106310621D01*
X137132861Y-106195625D01*
X137188330Y-106061709D01*
X137207250Y-105918000D01*
X137188330Y-105774291D01*
X137132861Y-105640375D01*
X137044621Y-105525379D01*
X136929625Y-105437139D01*
X136929624Y-105437138D01*
X136929622Y-105437137D01*
X136864106Y-105410000D01*
X153568571Y-105410000D01*
X153588244Y-105622310D01*
X153646596Y-105827392D01*
X153646596Y-105827394D01*
X153741632Y-106018253D01*
X153870127Y-106188406D01*
X153870128Y-106188407D01*
X154027698Y-106332052D01*
X154208981Y-106444298D01*
X154407802Y-106521321D01*
X154617390Y-106560500D01*
X154617392Y-106560500D01*
X154830608Y-106560500D01*
X154830610Y-106560500D01*
X155040198Y-106521321D01*
X155239019Y-106444298D01*
X155420302Y-106332052D01*
X155577872Y-106188407D01*
X155706366Y-106018255D01*
X155760270Y-105910000D01*
X155801403Y-105827394D01*
X155801403Y-105827393D01*
X155801405Y-105827389D01*
X155859756Y-105622310D01*
X155879429Y-105410000D01*
X155859756Y-105197690D01*
X155801405Y-104992611D01*
X155801403Y-104992606D01*
X155801403Y-104992605D01*
X155706367Y-104801746D01*
X155577872Y-104631593D01*
X155420302Y-104487948D01*
X155239019Y-104375702D01*
X155239017Y-104375701D01*
X155139608Y-104337190D01*
X155040198Y-104298679D01*
X154843385Y-104261888D01*
X154781106Y-104230221D01*
X154745833Y-104169908D01*
X154748767Y-104100100D01*
X154788976Y-104042960D01*
X154843384Y-104018111D01*
X155040198Y-103981321D01*
X155239019Y-103904298D01*
X155420302Y-103792052D01*
X155577872Y-103648407D01*
X155706366Y-103478255D01*
X155747946Y-103394750D01*
X155801403Y-103287394D01*
X155801403Y-103287393D01*
X155801405Y-103287389D01*
X155859756Y-103082310D01*
X155879429Y-102870000D01*
X155859756Y-102657690D01*
X155801405Y-102452611D01*
X155801403Y-102452606D01*
X155801403Y-102452605D01*
X155706367Y-102261746D01*
X155577872Y-102091593D01*
X155420302Y-101947948D01*
X155239019Y-101835702D01*
X155239017Y-101835701D01*
X155139608Y-101797190D01*
X155040198Y-101758679D01*
X154843385Y-101721888D01*
X154781106Y-101690221D01*
X154745833Y-101629908D01*
X154748767Y-101560100D01*
X154788976Y-101502960D01*
X154843384Y-101478111D01*
X155040198Y-101441321D01*
X155239019Y-101364298D01*
X155420302Y-101252052D01*
X155577872Y-101108407D01*
X155706366Y-100938255D01*
X155801405Y-100747389D01*
X155859756Y-100542310D01*
X155879429Y-100330000D01*
X155859756Y-100117690D01*
X155801405Y-99912611D01*
X155801403Y-99912606D01*
X155801403Y-99912605D01*
X155706367Y-99721746D01*
X155577872Y-99551593D01*
X155450133Y-99435143D01*
X155420302Y-99407948D01*
X155239019Y-99295702D01*
X155239017Y-99295701D01*
X155139608Y-99257190D01*
X155040198Y-99218679D01*
X154843385Y-99181888D01*
X154781106Y-99150221D01*
X154745833Y-99089908D01*
X154748767Y-99020100D01*
X154788976Y-98962960D01*
X154843384Y-98938111D01*
X155040198Y-98901321D01*
X155239019Y-98824298D01*
X155420302Y-98712052D01*
X155577872Y-98568407D01*
X155706366Y-98398255D01*
X155801405Y-98207389D01*
X155859756Y-98002310D01*
X155879429Y-97790000D01*
X155859756Y-97577690D01*
X155801405Y-97372611D01*
X155801403Y-97372606D01*
X155801403Y-97372605D01*
X155706367Y-97181746D01*
X155577872Y-97011593D01*
X155420302Y-96867948D01*
X155239019Y-96755702D01*
X155239017Y-96755701D01*
X155111463Y-96706287D01*
X155040198Y-96678679D01*
X154867456Y-96646387D01*
X154805176Y-96614719D01*
X154769903Y-96554407D01*
X154772837Y-96484599D01*
X154813046Y-96427459D01*
X154877764Y-96401128D01*
X154890233Y-96400499D01*
X155618864Y-96400499D01*
X155618879Y-96400497D01*
X155618882Y-96400497D01*
X155643987Y-96397586D01*
X155643988Y-96397585D01*
X155643991Y-96397585D01*
X155746765Y-96352206D01*
X155826206Y-96272765D01*
X155871585Y-96169991D01*
X155874500Y-96144865D01*
X155874499Y-94355136D01*
X155874497Y-94355117D01*
X155871586Y-94330012D01*
X155871585Y-94330010D01*
X155871585Y-94330009D01*
X155826206Y-94227235D01*
X155746765Y-94147794D01*
X155726124Y-94138680D01*
X155643992Y-94102415D01*
X155618865Y-94099500D01*
X153829143Y-94099500D01*
X153829117Y-94099502D01*
X153804012Y-94102413D01*
X153804008Y-94102415D01*
X153701235Y-94147793D01*
X153621794Y-94227234D01*
X153576415Y-94330006D01*
X153576415Y-94330008D01*
X153573500Y-94355131D01*
X153573500Y-96144856D01*
X153573502Y-96144882D01*
X153576413Y-96169987D01*
X153576415Y-96169991D01*
X153621793Y-96272764D01*
X153621794Y-96272765D01*
X153701235Y-96352206D01*
X153804009Y-96397585D01*
X153829135Y-96400500D01*
X154557758Y-96400499D01*
X154624795Y-96420183D01*
X154670550Y-96472987D01*
X154680494Y-96542146D01*
X154651469Y-96605702D01*
X154592691Y-96643476D01*
X154580542Y-96646388D01*
X154524116Y-96656935D01*
X154407802Y-96678679D01*
X154407800Y-96678679D01*
X154407798Y-96678680D01*
X154208982Y-96755701D01*
X154208980Y-96755702D01*
X154027699Y-96867947D01*
X153870127Y-97011593D01*
X153741632Y-97181746D01*
X153646596Y-97372605D01*
X153646596Y-97372607D01*
X153588244Y-97577689D01*
X153568571Y-97789999D01*
X153568571Y-97790000D01*
X153588244Y-98002310D01*
X153646596Y-98207392D01*
X153646596Y-98207394D01*
X153741632Y-98398253D01*
X153870127Y-98568406D01*
X153870128Y-98568407D01*
X154027698Y-98712052D01*
X154208981Y-98824298D01*
X154407802Y-98901321D01*
X154604613Y-98938111D01*
X154666893Y-98969779D01*
X154702166Y-99030092D01*
X154699232Y-99099900D01*
X154659023Y-99157040D01*
X154604613Y-99181888D01*
X154407802Y-99218679D01*
X154407799Y-99218679D01*
X154407799Y-99218680D01*
X154208982Y-99295701D01*
X154208980Y-99295702D01*
X154027699Y-99407947D01*
X153870127Y-99551593D01*
X153741632Y-99721746D01*
X153646596Y-99912605D01*
X153646596Y-99912607D01*
X153588244Y-100117689D01*
X153568571Y-100329999D01*
X153568571Y-100330000D01*
X153588244Y-100542310D01*
X153646596Y-100747392D01*
X153646596Y-100747394D01*
X153741632Y-100938253D01*
X153741634Y-100938255D01*
X153870128Y-101108407D01*
X154027698Y-101252052D01*
X154208981Y-101364298D01*
X154407802Y-101441321D01*
X154604613Y-101478111D01*
X154666893Y-101509779D01*
X154702166Y-101570092D01*
X154699232Y-101639900D01*
X154659023Y-101697040D01*
X154604613Y-101721888D01*
X154407802Y-101758679D01*
X154407799Y-101758679D01*
X154407799Y-101758680D01*
X154208982Y-101835701D01*
X154208980Y-101835702D01*
X154027699Y-101947947D01*
X153870127Y-102091593D01*
X153741632Y-102261746D01*
X153646596Y-102452605D01*
X153646596Y-102452607D01*
X153588244Y-102657689D01*
X153568571Y-102869999D01*
X153568571Y-102870000D01*
X153588244Y-103082310D01*
X153646596Y-103287392D01*
X153646596Y-103287394D01*
X153741632Y-103478253D01*
X153801386Y-103557379D01*
X153870128Y-103648407D01*
X154027698Y-103792052D01*
X154208981Y-103904298D01*
X154407802Y-103981321D01*
X154604613Y-104018111D01*
X154666893Y-104049779D01*
X154702166Y-104110092D01*
X154699232Y-104179900D01*
X154659023Y-104237040D01*
X154604613Y-104261888D01*
X154407802Y-104298679D01*
X154407799Y-104298679D01*
X154407799Y-104298680D01*
X154208982Y-104375701D01*
X154208980Y-104375702D01*
X154027699Y-104487947D01*
X153870127Y-104631593D01*
X153741632Y-104801746D01*
X153646596Y-104992605D01*
X153646596Y-104992607D01*
X153588244Y-105197689D01*
X153568571Y-105409999D01*
X153568571Y-105410000D01*
X136864106Y-105410000D01*
X136795712Y-105381671D01*
X136795710Y-105381670D01*
X136795709Y-105381670D01*
X136723854Y-105372210D01*
X136652001Y-105362750D01*
X136651999Y-105362750D01*
X136508291Y-105381670D01*
X136508287Y-105381671D01*
X136374377Y-105437137D01*
X136259379Y-105525379D01*
X136171137Y-105640377D01*
X136115671Y-105774287D01*
X136115670Y-105774291D01*
X136096750Y-105917999D01*
X136096750Y-105918000D01*
X125496675Y-105918000D01*
X125517429Y-105873492D01*
X125517432Y-105873486D01*
X125574636Y-105660000D01*
X124677686Y-105660000D01*
X124703493Y-105619844D01*
X124744000Y-105481889D01*
X124744000Y-105338111D01*
X124703493Y-105200156D01*
X124677686Y-105160000D01*
X125574636Y-105160000D01*
X125574635Y-105159999D01*
X125517432Y-104946513D01*
X125517429Y-104946507D01*
X125417600Y-104732422D01*
X125417599Y-104732420D01*
X125359888Y-104650000D01*
X134394750Y-104650000D01*
X134413670Y-104793708D01*
X134413671Y-104793712D01*
X134469137Y-104927622D01*
X134469138Y-104927624D01*
X134469139Y-104927625D01*
X134557379Y-105042621D01*
X134672375Y-105130861D01*
X134806291Y-105186330D01*
X134933280Y-105203048D01*
X134949999Y-105205250D01*
X134950000Y-105205250D01*
X134950001Y-105205250D01*
X134964977Y-105203278D01*
X135093709Y-105186330D01*
X135227625Y-105130861D01*
X135342621Y-105042621D01*
X135430861Y-104927625D01*
X135486330Y-104793709D01*
X135505250Y-104650000D01*
X135486330Y-104506291D01*
X135430861Y-104372375D01*
X135342621Y-104257379D01*
X135227625Y-104169139D01*
X135227624Y-104169138D01*
X135227622Y-104169137D01*
X135093712Y-104113671D01*
X135093710Y-104113670D01*
X135093709Y-104113670D01*
X134969825Y-104097360D01*
X134950001Y-104094750D01*
X134949999Y-104094750D01*
X134806291Y-104113670D01*
X134806287Y-104113671D01*
X134672377Y-104169137D01*
X134557379Y-104257379D01*
X134469137Y-104372377D01*
X134413671Y-104506287D01*
X134413670Y-104506291D01*
X134394750Y-104649999D01*
X134394750Y-104650000D01*
X125359888Y-104650000D01*
X125282113Y-104538926D01*
X125282108Y-104538920D01*
X125115082Y-104371894D01*
X124921578Y-104236399D01*
X124722426Y-104143533D01*
X124669987Y-104097360D01*
X124650835Y-104030167D01*
X124671051Y-103963286D01*
X124724216Y-103917951D01*
X124730005Y-103915537D01*
X124759019Y-103904298D01*
X124940302Y-103792052D01*
X125097872Y-103648407D01*
X125110262Y-103632000D01*
X142192750Y-103632000D01*
X142211670Y-103775708D01*
X142211671Y-103775712D01*
X142267137Y-103909622D01*
X142267138Y-103909624D01*
X142267139Y-103909625D01*
X142355379Y-104024621D01*
X142470375Y-104112861D01*
X142470376Y-104112861D01*
X142470377Y-104112862D01*
X142515013Y-104131350D01*
X142604291Y-104168330D01*
X142731280Y-104185048D01*
X142747999Y-104187250D01*
X142748000Y-104187250D01*
X142748001Y-104187250D01*
X142762977Y-104185278D01*
X142891709Y-104168330D01*
X143025625Y-104112861D01*
X143140621Y-104024621D01*
X143197880Y-103950000D01*
X144144750Y-103950000D01*
X144163670Y-104093708D01*
X144163671Y-104093712D01*
X144219137Y-104227622D01*
X144219138Y-104227624D01*
X144219139Y-104227625D01*
X144307379Y-104342621D01*
X144422375Y-104430861D01*
X144556291Y-104486330D01*
X144683280Y-104503048D01*
X144699999Y-104505250D01*
X144700000Y-104505250D01*
X144700001Y-104505250D01*
X144714977Y-104503278D01*
X144843709Y-104486330D01*
X144977625Y-104430861D01*
X145092621Y-104342621D01*
X145180861Y-104227625D01*
X145236330Y-104093709D01*
X145255250Y-103950000D01*
X145236330Y-103806291D01*
X145180861Y-103672375D01*
X145092621Y-103557379D01*
X144977625Y-103469139D01*
X144977624Y-103469138D01*
X144977622Y-103469137D01*
X144843712Y-103413671D01*
X144843710Y-103413670D01*
X144843709Y-103413670D01*
X144771854Y-103404210D01*
X144700001Y-103394750D01*
X144699999Y-103394750D01*
X144556291Y-103413670D01*
X144556287Y-103413671D01*
X144422377Y-103469137D01*
X144307379Y-103557379D01*
X144219137Y-103672377D01*
X144163671Y-103806287D01*
X144163670Y-103806291D01*
X144144750Y-103949999D01*
X144144750Y-103950000D01*
X143197880Y-103950000D01*
X143228861Y-103909625D01*
X143284330Y-103775709D01*
X143303250Y-103632000D01*
X143284330Y-103488291D01*
X143228861Y-103354375D01*
X143140621Y-103239379D01*
X143025625Y-103151139D01*
X143025624Y-103151138D01*
X143025622Y-103151137D01*
X142891712Y-103095671D01*
X142891710Y-103095670D01*
X142891709Y-103095670D01*
X142790232Y-103082310D01*
X142748001Y-103076750D01*
X142747999Y-103076750D01*
X142604291Y-103095670D01*
X142604287Y-103095671D01*
X142470377Y-103151137D01*
X142355379Y-103239379D01*
X142267137Y-103354377D01*
X142211671Y-103488287D01*
X142211670Y-103488291D01*
X142192750Y-103631999D01*
X142192750Y-103632000D01*
X125110262Y-103632000D01*
X125226366Y-103478255D01*
X125267946Y-103394750D01*
X125321403Y-103287394D01*
X125321403Y-103287393D01*
X125321405Y-103287389D01*
X125379756Y-103082310D01*
X125399429Y-102870000D01*
X125379756Y-102657690D01*
X125321405Y-102452611D01*
X125321403Y-102452606D01*
X125321403Y-102452605D01*
X125226367Y-102261746D01*
X125097872Y-102091593D01*
X124940302Y-101947948D01*
X124759019Y-101835702D01*
X124759017Y-101835701D01*
X124659608Y-101797190D01*
X124560198Y-101758679D01*
X124387456Y-101726387D01*
X124325176Y-101694719D01*
X124289903Y-101634407D01*
X124292837Y-101564599D01*
X124333046Y-101507459D01*
X124397764Y-101481128D01*
X124410233Y-101480499D01*
X125138864Y-101480499D01*
X125138879Y-101480497D01*
X125138882Y-101480497D01*
X125163987Y-101477586D01*
X125163988Y-101477585D01*
X125163991Y-101477585D01*
X125266765Y-101432206D01*
X125346206Y-101352765D01*
X125391585Y-101249991D01*
X125394500Y-101224865D01*
X125394499Y-99435136D01*
X125394497Y-99435117D01*
X125391586Y-99410012D01*
X125391585Y-99410010D01*
X125391585Y-99410009D01*
X125346206Y-99307235D01*
X125266765Y-99227794D01*
X125246124Y-99218680D01*
X125163992Y-99182415D01*
X125138865Y-99179500D01*
X123349143Y-99179500D01*
X123349117Y-99179502D01*
X123324012Y-99182413D01*
X123324008Y-99182415D01*
X123221235Y-99227793D01*
X123141794Y-99307234D01*
X123096415Y-99410006D01*
X123096415Y-99410008D01*
X123093500Y-99435131D01*
X123093500Y-101224856D01*
X123093502Y-101224882D01*
X123096413Y-101249987D01*
X123096415Y-101249991D01*
X123141793Y-101352764D01*
X123141794Y-101352765D01*
X123221235Y-101432206D01*
X123324009Y-101477585D01*
X123349135Y-101480500D01*
X124077758Y-101480499D01*
X124144795Y-101500183D01*
X124190550Y-101552987D01*
X124200494Y-101622146D01*
X124171469Y-101685702D01*
X124112691Y-101723476D01*
X124100542Y-101726388D01*
X124044116Y-101736935D01*
X123927802Y-101758679D01*
X123927800Y-101758679D01*
X123927798Y-101758680D01*
X123728982Y-101835701D01*
X123728980Y-101835702D01*
X123547699Y-101947947D01*
X123390127Y-102091593D01*
X123261632Y-102261746D01*
X123166596Y-102452605D01*
X123166596Y-102452607D01*
X123108244Y-102657689D01*
X123088571Y-102869999D01*
X123088571Y-102870000D01*
X123108244Y-103082310D01*
X123166596Y-103287392D01*
X123166596Y-103287394D01*
X123261632Y-103478253D01*
X123321386Y-103557379D01*
X123390128Y-103648407D01*
X123547698Y-103792052D01*
X123728981Y-103904298D01*
X123757961Y-103915525D01*
X123813362Y-103958095D01*
X123836954Y-104023861D01*
X123821244Y-104091942D01*
X123771222Y-104140722D01*
X123765573Y-104143533D01*
X123566422Y-104236399D01*
X123566420Y-104236400D01*
X123372926Y-104371886D01*
X123372920Y-104371891D01*
X123205891Y-104538920D01*
X123205886Y-104538926D01*
X123070400Y-104732420D01*
X123070399Y-104732422D01*
X122970570Y-104946507D01*
X122970567Y-104946513D01*
X122913364Y-105159999D01*
X122913364Y-105160000D01*
X123810314Y-105160000D01*
X123784507Y-105200156D01*
X123744000Y-105338111D01*
X123744000Y-105481889D01*
X123784507Y-105619844D01*
X123810314Y-105660000D01*
X122913364Y-105660000D01*
X121069500Y-105660000D01*
X121069500Y-98298000D01*
X141430750Y-98298000D01*
X141449670Y-98441708D01*
X141449671Y-98441712D01*
X141505137Y-98575622D01*
X141505138Y-98575624D01*
X141505139Y-98575625D01*
X141593379Y-98690621D01*
X141708375Y-98778861D01*
X141842291Y-98834330D01*
X141969280Y-98851048D01*
X141985999Y-98853250D01*
X141986000Y-98853250D01*
X141986001Y-98853250D01*
X142000977Y-98851278D01*
X142129709Y-98834330D01*
X142263625Y-98778861D01*
X142378621Y-98690621D01*
X142466861Y-98575625D01*
X142522330Y-98441709D01*
X142541250Y-98298000D01*
X142522330Y-98154291D01*
X142466861Y-98020375D01*
X142378621Y-97905379D01*
X142263625Y-97817139D01*
X142263624Y-97817138D01*
X142263622Y-97817137D01*
X142129712Y-97761671D01*
X142129710Y-97761670D01*
X142129709Y-97761670D01*
X142057854Y-97752210D01*
X141986001Y-97742750D01*
X141985999Y-97742750D01*
X141842291Y-97761670D01*
X141842287Y-97761671D01*
X141708377Y-97817137D01*
X141593379Y-97905379D01*
X141505137Y-98020377D01*
X141449671Y-98154287D01*
X141449670Y-98154291D01*
X141430750Y-98297999D01*
X141430750Y-98298000D01*
X121069500Y-98298000D01*
X121069500Y-96850000D01*
X130594750Y-96850000D01*
X130613670Y-96993708D01*
X130613671Y-96993712D01*
X130669137Y-97127622D01*
X130669138Y-97127624D01*
X130669139Y-97127625D01*
X130757379Y-97242621D01*
X130872375Y-97330861D01*
X131006291Y-97386330D01*
X131133280Y-97403048D01*
X131149999Y-97405250D01*
X131150000Y-97405250D01*
X131150001Y-97405250D01*
X131164977Y-97403278D01*
X131293709Y-97386330D01*
X131427625Y-97330861D01*
X131542621Y-97242621D01*
X131630861Y-97127625D01*
X131686330Y-96993709D01*
X131705250Y-96850000D01*
X131686330Y-96706291D01*
X131630861Y-96572375D01*
X131542621Y-96457379D01*
X131458721Y-96393000D01*
X138382750Y-96393000D01*
X138394809Y-96484599D01*
X138401670Y-96536708D01*
X138401671Y-96536712D01*
X138457137Y-96670622D01*
X138457138Y-96670624D01*
X138457139Y-96670625D01*
X138545379Y-96785621D01*
X138660375Y-96873861D01*
X138794291Y-96929330D01*
X138921280Y-96946048D01*
X138937999Y-96948250D01*
X138938000Y-96948250D01*
X138938001Y-96948250D01*
X138952977Y-96946278D01*
X139081709Y-96929330D01*
X139215625Y-96873861D01*
X139330621Y-96785621D01*
X139418861Y-96670625D01*
X139428647Y-96647000D01*
X139906750Y-96647000D01*
X139925670Y-96790708D01*
X139925671Y-96790712D01*
X139981137Y-96924622D01*
X139981138Y-96924624D01*
X139981139Y-96924625D01*
X140069379Y-97039621D01*
X140184375Y-97127861D01*
X140318291Y-97183330D01*
X140445280Y-97200048D01*
X140461999Y-97202250D01*
X140462000Y-97202250D01*
X140462001Y-97202250D01*
X140476977Y-97200278D01*
X140605709Y-97183330D01*
X140739625Y-97127861D01*
X140854621Y-97039621D01*
X140942861Y-96924625D01*
X140998330Y-96790709D01*
X141017250Y-96647000D01*
X141017169Y-96646388D01*
X141011813Y-96605702D01*
X140998330Y-96503291D01*
X140942861Y-96369375D01*
X140854621Y-96254379D01*
X140739625Y-96166139D01*
X140739624Y-96166138D01*
X140739622Y-96166137D01*
X140605712Y-96110671D01*
X140605710Y-96110670D01*
X140605709Y-96110670D01*
X140533854Y-96101210D01*
X140462001Y-96091750D01*
X140461999Y-96091750D01*
X140318291Y-96110670D01*
X140318287Y-96110671D01*
X140184377Y-96166137D01*
X140069379Y-96254379D01*
X139981137Y-96369377D01*
X139925671Y-96503287D01*
X139925670Y-96503291D01*
X139906750Y-96646999D01*
X139906750Y-96647000D01*
X139428647Y-96647000D01*
X139474330Y-96536709D01*
X139493250Y-96393000D01*
X139474330Y-96249291D01*
X139418861Y-96115375D01*
X139330621Y-96000379D01*
X139215625Y-95912139D01*
X139215624Y-95912138D01*
X139215622Y-95912137D01*
X139081712Y-95856671D01*
X139081710Y-95856670D01*
X139081709Y-95856670D01*
X139009854Y-95847210D01*
X138938001Y-95837750D01*
X138937999Y-95837750D01*
X138794291Y-95856670D01*
X138794287Y-95856671D01*
X138660377Y-95912137D01*
X138545379Y-96000379D01*
X138457137Y-96115377D01*
X138401671Y-96249287D01*
X138401670Y-96249291D01*
X138382750Y-96393000D01*
X131458721Y-96393000D01*
X131427625Y-96369139D01*
X131427624Y-96369138D01*
X131427622Y-96369137D01*
X131293712Y-96313671D01*
X131293710Y-96313670D01*
X131293709Y-96313670D01*
X131221854Y-96304210D01*
X131150001Y-96294750D01*
X131149999Y-96294750D01*
X131006291Y-96313670D01*
X131006287Y-96313671D01*
X130872377Y-96369137D01*
X130757379Y-96457379D01*
X130669137Y-96572377D01*
X130613671Y-96706287D01*
X130613670Y-96706291D01*
X130594750Y-96849999D01*
X130594750Y-96850000D01*
X121069500Y-96850000D01*
X121069500Y-95250000D01*
X123088571Y-95250000D01*
X123108244Y-95462310D01*
X123166596Y-95667392D01*
X123166596Y-95667394D01*
X123261632Y-95858253D01*
X123368962Y-96000379D01*
X123390128Y-96028407D01*
X123547698Y-96172052D01*
X123728981Y-96284298D01*
X123927802Y-96361321D01*
X124137390Y-96400500D01*
X124137392Y-96400500D01*
X124350608Y-96400500D01*
X124350610Y-96400500D01*
X124560198Y-96361321D01*
X124759019Y-96284298D01*
X124940302Y-96172052D01*
X125097872Y-96028407D01*
X125226366Y-95858255D01*
X125321405Y-95667389D01*
X125379756Y-95462310D01*
X125399429Y-95250000D01*
X125379756Y-95037690D01*
X125321405Y-94832611D01*
X125321403Y-94832606D01*
X125321403Y-94832605D01*
X125226367Y-94641746D01*
X125097872Y-94471593D01*
X124970133Y-94355143D01*
X124940302Y-94327948D01*
X124759019Y-94215702D01*
X124759017Y-94215701D01*
X124659608Y-94177190D01*
X124560198Y-94138679D01*
X124363385Y-94101888D01*
X124301106Y-94070221D01*
X124265833Y-94009908D01*
X124268767Y-93940100D01*
X124308976Y-93882960D01*
X124363384Y-93858111D01*
X124560198Y-93821321D01*
X124759019Y-93744298D01*
X124940302Y-93632052D01*
X125097872Y-93488407D01*
X125226366Y-93318255D01*
X125246599Y-93277622D01*
X125321403Y-93127394D01*
X125321403Y-93127393D01*
X125321405Y-93127389D01*
X125357651Y-93000000D01*
X144194750Y-93000000D01*
X144211521Y-93127389D01*
X144213670Y-93143708D01*
X144213671Y-93143712D01*
X144269137Y-93277622D01*
X144269138Y-93277624D01*
X144269139Y-93277625D01*
X144357379Y-93392621D01*
X144472375Y-93480861D01*
X144472376Y-93480861D01*
X144472377Y-93480862D01*
X144490593Y-93488407D01*
X144606291Y-93536330D01*
X144733280Y-93553048D01*
X144749999Y-93555250D01*
X144750000Y-93555250D01*
X144750001Y-93555250D01*
X144764977Y-93553278D01*
X144893709Y-93536330D01*
X145027625Y-93480861D01*
X145142621Y-93392621D01*
X145230861Y-93277625D01*
X145286330Y-93143709D01*
X145305250Y-93000000D01*
X145286330Y-92856291D01*
X145230861Y-92722375D01*
X145142621Y-92607379D01*
X145027625Y-92519139D01*
X145027624Y-92519138D01*
X145027622Y-92519137D01*
X144893712Y-92463671D01*
X144893710Y-92463670D01*
X144893709Y-92463670D01*
X144821854Y-92454210D01*
X144750001Y-92444750D01*
X144749999Y-92444750D01*
X144606291Y-92463670D01*
X144606287Y-92463671D01*
X144472377Y-92519137D01*
X144357379Y-92607379D01*
X144269137Y-92722377D01*
X144213671Y-92856287D01*
X144213670Y-92856291D01*
X144194750Y-93000000D01*
X125357651Y-93000000D01*
X125379756Y-92922310D01*
X125399429Y-92710000D01*
X125379756Y-92497690D01*
X125321405Y-92292611D01*
X125321403Y-92292606D01*
X125321403Y-92292605D01*
X125226367Y-92101746D01*
X125097872Y-91931593D01*
X124940302Y-91787948D01*
X124759019Y-91675702D01*
X124759017Y-91675701D01*
X124659608Y-91637190D01*
X124560198Y-91598679D01*
X124363385Y-91561888D01*
X124301106Y-91530221D01*
X124265833Y-91469908D01*
X124268767Y-91400100D01*
X124308976Y-91342960D01*
X124363384Y-91318111D01*
X124560198Y-91281321D01*
X124759019Y-91204298D01*
X124940302Y-91092052D01*
X125097872Y-90948407D01*
X125226366Y-90778255D01*
X125280270Y-90670000D01*
X125321403Y-90587394D01*
X125321403Y-90587393D01*
X125321405Y-90587389D01*
X125379756Y-90382310D01*
X125399429Y-90170000D01*
X125379756Y-89957690D01*
X125331759Y-89789000D01*
X132159750Y-89789000D01*
X132178670Y-89932708D01*
X132178671Y-89932712D01*
X132234137Y-90066622D01*
X132234138Y-90066624D01*
X132234139Y-90066625D01*
X132322379Y-90181621D01*
X132437375Y-90269861D01*
X132571291Y-90325330D01*
X132698280Y-90342048D01*
X132714999Y-90344250D01*
X132715000Y-90344250D01*
X132715001Y-90344250D01*
X132729977Y-90342278D01*
X132858709Y-90325330D01*
X132992625Y-90269861D01*
X133107621Y-90181621D01*
X133195861Y-90066625D01*
X133251330Y-89932709D01*
X133252345Y-89925000D01*
X140194750Y-89925000D01*
X140213670Y-90068708D01*
X140213671Y-90068712D01*
X140269137Y-90202622D01*
X140269138Y-90202624D01*
X140269139Y-90202625D01*
X140357379Y-90317621D01*
X140472375Y-90405861D01*
X140606291Y-90461330D01*
X140733280Y-90478048D01*
X140749999Y-90480250D01*
X140750000Y-90480250D01*
X140750001Y-90480250D01*
X140764977Y-90478278D01*
X140893709Y-90461330D01*
X140993490Y-90420000D01*
X153393364Y-90420000D01*
X153450567Y-90633486D01*
X153450570Y-90633492D01*
X153550399Y-90847578D01*
X153685894Y-91041082D01*
X153852917Y-91208105D01*
X154046421Y-91343600D01*
X154260507Y-91443429D01*
X154260516Y-91443433D01*
X154474000Y-91500634D01*
X154474000Y-90605501D01*
X154581685Y-90654680D01*
X154688237Y-90670000D01*
X154759763Y-90670000D01*
X154866315Y-90654680D01*
X154974000Y-90605501D01*
X154974000Y-91500633D01*
X155187483Y-91443433D01*
X155187492Y-91443429D01*
X155401578Y-91343600D01*
X155595082Y-91208105D01*
X155762105Y-91041082D01*
X155897600Y-90847578D01*
X155997429Y-90633492D01*
X155997432Y-90633486D01*
X156054636Y-90420000D01*
X155157686Y-90420000D01*
X155183493Y-90379844D01*
X155224000Y-90241889D01*
X155224000Y-90098111D01*
X155183493Y-89960156D01*
X155157686Y-89920000D01*
X156054636Y-89920000D01*
X156054635Y-89919999D01*
X155997432Y-89706513D01*
X155997429Y-89706507D01*
X155897600Y-89492422D01*
X155897599Y-89492420D01*
X155762113Y-89298926D01*
X155762108Y-89298920D01*
X155595082Y-89131894D01*
X155401578Y-88996399D01*
X155202426Y-88903533D01*
X155149987Y-88857360D01*
X155130835Y-88790167D01*
X155151051Y-88723286D01*
X155204216Y-88677951D01*
X155210005Y-88675537D01*
X155239019Y-88664298D01*
X155420302Y-88552052D01*
X155577872Y-88408407D01*
X155706366Y-88238255D01*
X155759841Y-88130862D01*
X155801403Y-88047394D01*
X155801403Y-88047393D01*
X155801405Y-88047389D01*
X155859756Y-87842310D01*
X155879429Y-87630000D01*
X155859756Y-87417690D01*
X155801405Y-87212611D01*
X155801403Y-87212606D01*
X155801403Y-87212605D01*
X155706367Y-87021746D01*
X155577872Y-86851593D01*
X155420302Y-86707948D01*
X155239019Y-86595702D01*
X155239017Y-86595701D01*
X155139608Y-86557190D01*
X155040198Y-86518679D01*
X154867456Y-86486387D01*
X154805176Y-86454719D01*
X154769903Y-86394407D01*
X154772837Y-86324599D01*
X154813046Y-86267459D01*
X154877764Y-86241128D01*
X154890233Y-86240499D01*
X155618864Y-86240499D01*
X155618879Y-86240497D01*
X155618882Y-86240497D01*
X155643987Y-86237586D01*
X155643988Y-86237585D01*
X155643991Y-86237585D01*
X155746765Y-86192206D01*
X155826206Y-86112765D01*
X155871585Y-86009991D01*
X155874500Y-85984865D01*
X155874499Y-84195136D01*
X155874497Y-84195117D01*
X155871586Y-84170012D01*
X155871585Y-84170010D01*
X155871585Y-84170009D01*
X155826206Y-84067235D01*
X155746765Y-83987794D01*
X155746763Y-83987793D01*
X155643992Y-83942415D01*
X155618865Y-83939500D01*
X153829143Y-83939500D01*
X153829117Y-83939502D01*
X153804012Y-83942413D01*
X153804008Y-83942415D01*
X153701235Y-83987793D01*
X153621794Y-84067234D01*
X153576415Y-84170006D01*
X153576415Y-84170008D01*
X153573500Y-84195131D01*
X153573500Y-85984856D01*
X153573502Y-85984882D01*
X153576413Y-86009987D01*
X153576415Y-86009991D01*
X153621793Y-86112764D01*
X153621794Y-86112765D01*
X153701235Y-86192206D01*
X153804009Y-86237585D01*
X153829135Y-86240500D01*
X154557758Y-86240499D01*
X154624795Y-86260183D01*
X154670550Y-86312987D01*
X154680494Y-86382146D01*
X154651469Y-86445702D01*
X154592691Y-86483476D01*
X154580542Y-86486388D01*
X154524116Y-86496935D01*
X154407802Y-86518679D01*
X154407800Y-86518679D01*
X154407798Y-86518680D01*
X154208982Y-86595701D01*
X154208980Y-86595702D01*
X154027699Y-86707947D01*
X153870127Y-86851593D01*
X153741632Y-87021746D01*
X153646596Y-87212605D01*
X153646596Y-87212607D01*
X153608251Y-87347375D01*
X153588244Y-87417690D01*
X153568571Y-87630000D01*
X153588244Y-87842310D01*
X153645238Y-88042621D01*
X153646596Y-88047392D01*
X153646596Y-88047394D01*
X153741632Y-88238253D01*
X153741634Y-88238255D01*
X153870128Y-88408407D01*
X154027698Y-88552052D01*
X154208981Y-88664298D01*
X154237961Y-88675525D01*
X154293362Y-88718095D01*
X154316954Y-88783861D01*
X154301244Y-88851942D01*
X154251222Y-88900722D01*
X154245573Y-88903533D01*
X154046422Y-88996399D01*
X154046420Y-88996400D01*
X153852926Y-89131886D01*
X153852920Y-89131891D01*
X153685891Y-89298920D01*
X153685886Y-89298926D01*
X153550400Y-89492420D01*
X153550399Y-89492422D01*
X153450570Y-89706507D01*
X153450567Y-89706513D01*
X153393364Y-89919999D01*
X153393364Y-89920000D01*
X154290314Y-89920000D01*
X154264507Y-89960156D01*
X154224000Y-90098111D01*
X154224000Y-90241889D01*
X154264507Y-90379844D01*
X154290314Y-90420000D01*
X153393364Y-90420000D01*
X140993490Y-90420000D01*
X141027625Y-90405861D01*
X141142621Y-90317621D01*
X141230861Y-90202625D01*
X141286330Y-90068709D01*
X141305250Y-89925000D01*
X141286330Y-89781291D01*
X141246578Y-89685320D01*
X141230862Y-89647377D01*
X141230861Y-89647376D01*
X141230861Y-89647375D01*
X141142621Y-89532379D01*
X141027625Y-89444139D01*
X141027624Y-89444138D01*
X141027622Y-89444137D01*
X140893712Y-89388671D01*
X140893710Y-89388670D01*
X140893709Y-89388670D01*
X140821854Y-89379210D01*
X140750001Y-89369750D01*
X140749999Y-89369750D01*
X140606291Y-89388670D01*
X140606287Y-89388671D01*
X140472377Y-89444137D01*
X140357379Y-89532379D01*
X140269137Y-89647377D01*
X140213671Y-89781287D01*
X140213670Y-89781291D01*
X140194750Y-89924999D01*
X140194750Y-89925000D01*
X133252345Y-89925000D01*
X133270250Y-89789000D01*
X133251330Y-89645291D01*
X133195861Y-89511375D01*
X133107621Y-89396379D01*
X132992625Y-89308139D01*
X132992624Y-89308138D01*
X132992622Y-89308137D01*
X132858712Y-89252671D01*
X132858710Y-89252670D01*
X132858709Y-89252670D01*
X132786854Y-89243210D01*
X132715001Y-89233750D01*
X132714999Y-89233750D01*
X132571291Y-89252670D01*
X132571287Y-89252671D01*
X132437377Y-89308137D01*
X132322379Y-89396379D01*
X132234137Y-89511377D01*
X132178671Y-89645287D01*
X132178670Y-89645291D01*
X132159750Y-89788999D01*
X132159750Y-89789000D01*
X125331759Y-89789000D01*
X125321405Y-89752611D01*
X125321403Y-89752606D01*
X125321403Y-89752605D01*
X125226367Y-89561746D01*
X125097872Y-89391593D01*
X125094666Y-89388670D01*
X124940302Y-89247948D01*
X124759019Y-89135702D01*
X124759017Y-89135701D01*
X124659608Y-89097190D01*
X124560198Y-89058679D01*
X124363385Y-89021888D01*
X124301106Y-88990221D01*
X124265833Y-88929908D01*
X124268767Y-88860100D01*
X124308976Y-88802960D01*
X124363384Y-88778111D01*
X124560198Y-88741321D01*
X124759019Y-88664298D01*
X124940302Y-88552052D01*
X125097872Y-88408407D01*
X125226366Y-88238255D01*
X125279841Y-88130862D01*
X125321403Y-88047394D01*
X125321403Y-88047393D01*
X125321405Y-88047389D01*
X125379756Y-87842310D01*
X125399429Y-87630000D01*
X125398966Y-87625000D01*
X141494750Y-87625000D01*
X141513670Y-87768708D01*
X141513671Y-87768712D01*
X141569137Y-87902622D01*
X141569138Y-87902624D01*
X141569139Y-87902625D01*
X141657379Y-88017621D01*
X141772375Y-88105861D01*
X141906291Y-88161330D01*
X142033280Y-88178048D01*
X142049999Y-88180250D01*
X142050000Y-88180250D01*
X142050001Y-88180250D01*
X142064977Y-88178278D01*
X142193709Y-88161330D01*
X142327625Y-88105861D01*
X142442621Y-88017621D01*
X142530861Y-87902625D01*
X142586330Y-87768709D01*
X142601959Y-87650000D01*
X147844750Y-87650000D01*
X147860378Y-87768708D01*
X147863670Y-87793708D01*
X147863671Y-87793712D01*
X147919137Y-87927622D01*
X147919138Y-87927624D01*
X147919139Y-87927625D01*
X148007379Y-88042621D01*
X148122375Y-88130861D01*
X148256291Y-88186330D01*
X148383280Y-88203048D01*
X148399999Y-88205250D01*
X148400000Y-88205250D01*
X148400001Y-88205250D01*
X148414977Y-88203278D01*
X148543709Y-88186330D01*
X148677625Y-88130861D01*
X148792621Y-88042621D01*
X148880861Y-87927625D01*
X148936330Y-87793709D01*
X148955250Y-87650000D01*
X148936330Y-87506291D01*
X148880861Y-87372375D01*
X148792621Y-87257379D01*
X148677625Y-87169139D01*
X148677624Y-87169138D01*
X148677622Y-87169137D01*
X148543712Y-87113671D01*
X148543710Y-87113670D01*
X148543709Y-87113670D01*
X148471854Y-87104210D01*
X148400001Y-87094750D01*
X148399999Y-87094750D01*
X148256291Y-87113670D01*
X148256287Y-87113671D01*
X148122377Y-87169137D01*
X148007379Y-87257379D01*
X147919137Y-87372377D01*
X147863671Y-87506287D01*
X147863670Y-87506291D01*
X147848042Y-87624999D01*
X147844750Y-87650000D01*
X142601959Y-87650000D01*
X142605250Y-87625000D01*
X142586330Y-87481291D01*
X142530861Y-87347375D01*
X142442621Y-87232379D01*
X142327625Y-87144139D01*
X142327624Y-87144138D01*
X142327622Y-87144137D01*
X142193712Y-87088671D01*
X142193710Y-87088670D01*
X142193709Y-87088670D01*
X142121854Y-87079210D01*
X142050001Y-87069750D01*
X142049999Y-87069750D01*
X141906291Y-87088670D01*
X141906287Y-87088671D01*
X141772377Y-87144137D01*
X141657379Y-87232379D01*
X141569137Y-87347377D01*
X141513671Y-87481287D01*
X141513670Y-87481291D01*
X141494750Y-87624999D01*
X141494750Y-87625000D01*
X125398966Y-87625000D01*
X125379756Y-87417690D01*
X125321405Y-87212611D01*
X125321403Y-87212606D01*
X125321403Y-87212605D01*
X125226367Y-87021746D01*
X125097872Y-86851593D01*
X125041278Y-86800000D01*
X135744750Y-86800000D01*
X135751542Y-86851593D01*
X135763670Y-86943708D01*
X135763671Y-86943712D01*
X135819137Y-87077622D01*
X135819138Y-87077624D01*
X135819139Y-87077625D01*
X135907379Y-87192621D01*
X136022375Y-87280861D01*
X136156291Y-87336330D01*
X136283280Y-87353048D01*
X136299999Y-87355250D01*
X136300000Y-87355250D01*
X136300001Y-87355250D01*
X136314977Y-87353278D01*
X136443709Y-87336330D01*
X136577625Y-87280861D01*
X136692621Y-87192621D01*
X136780861Y-87077625D01*
X136836330Y-86943709D01*
X136855250Y-86800000D01*
X136836330Y-86656291D01*
X136799350Y-86567013D01*
X136792303Y-86550000D01*
X146544750Y-86550000D01*
X146563670Y-86693708D01*
X146563671Y-86693712D01*
X146619137Y-86827622D01*
X146619138Y-86827624D01*
X146619139Y-86827625D01*
X146707379Y-86942621D01*
X146822375Y-87030861D01*
X146956291Y-87086330D01*
X147083280Y-87103048D01*
X147099999Y-87105250D01*
X147100000Y-87105250D01*
X147100001Y-87105250D01*
X147114977Y-87103278D01*
X147243709Y-87086330D01*
X147377625Y-87030861D01*
X147492621Y-86942621D01*
X147580861Y-86827625D01*
X147636330Y-86693709D01*
X147655250Y-86550000D01*
X147636330Y-86406291D01*
X147580861Y-86272375D01*
X147492621Y-86157379D01*
X147377625Y-86069139D01*
X147377624Y-86069138D01*
X147377622Y-86069137D01*
X147243712Y-86013671D01*
X147243710Y-86013670D01*
X147243709Y-86013670D01*
X147171854Y-86004210D01*
X147100001Y-85994750D01*
X147099999Y-85994750D01*
X146956291Y-86013670D01*
X146956287Y-86013671D01*
X146822377Y-86069137D01*
X146707379Y-86157379D01*
X146619137Y-86272377D01*
X146563671Y-86406287D01*
X146563670Y-86406291D01*
X146544750Y-86549999D01*
X146544750Y-86550000D01*
X136792303Y-86550000D01*
X136780862Y-86522377D01*
X136780861Y-86522376D01*
X136780861Y-86522375D01*
X136692621Y-86407379D01*
X136577625Y-86319139D01*
X136577624Y-86319138D01*
X136577622Y-86319137D01*
X136443712Y-86263671D01*
X136443710Y-86263670D01*
X136443709Y-86263670D01*
X136371854Y-86254210D01*
X136300001Y-86244750D01*
X136299999Y-86244750D01*
X136156291Y-86263670D01*
X136156287Y-86263671D01*
X136022377Y-86319137D01*
X135907379Y-86407379D01*
X135819137Y-86522377D01*
X135763671Y-86656287D01*
X135763670Y-86656291D01*
X135744750Y-86800000D01*
X125041278Y-86800000D01*
X124940302Y-86707948D01*
X124759019Y-86595702D01*
X124759017Y-86595701D01*
X124659608Y-86557190D01*
X124560198Y-86518679D01*
X124387456Y-86486387D01*
X124325176Y-86454719D01*
X124289903Y-86394407D01*
X124292837Y-86324599D01*
X124333046Y-86267459D01*
X124397764Y-86241128D01*
X124410233Y-86240499D01*
X125138864Y-86240499D01*
X125138879Y-86240497D01*
X125138882Y-86240497D01*
X125163987Y-86237586D01*
X125163988Y-86237585D01*
X125163991Y-86237585D01*
X125266765Y-86192206D01*
X125346206Y-86112765D01*
X125391585Y-86009991D01*
X125394500Y-85984865D01*
X125394500Y-85350000D01*
X140194750Y-85350000D01*
X140213670Y-85493708D01*
X140213671Y-85493712D01*
X140269137Y-85627622D01*
X140269138Y-85627624D01*
X140269139Y-85627625D01*
X140357379Y-85742621D01*
X140472375Y-85830861D01*
X140606291Y-85886330D01*
X140733280Y-85903048D01*
X140749999Y-85905250D01*
X140750000Y-85905250D01*
X140750001Y-85905250D01*
X140764977Y-85903278D01*
X140893709Y-85886330D01*
X141027625Y-85830861D01*
X141142621Y-85742621D01*
X141230861Y-85627625D01*
X141286330Y-85493709D01*
X141305250Y-85350000D01*
X141286330Y-85206291D01*
X141230861Y-85072375D01*
X141142621Y-84957379D01*
X141027625Y-84869139D01*
X141027624Y-84869138D01*
X141027622Y-84869137D01*
X140893712Y-84813671D01*
X140893710Y-84813670D01*
X140893709Y-84813670D01*
X140821854Y-84804210D01*
X140750001Y-84794750D01*
X140749999Y-84794750D01*
X140606291Y-84813670D01*
X140606287Y-84813671D01*
X140472377Y-84869137D01*
X140357379Y-84957379D01*
X140269137Y-85072377D01*
X140213671Y-85206287D01*
X140213670Y-85206291D01*
X140194750Y-85349999D01*
X140194750Y-85350000D01*
X125394500Y-85350000D01*
X125394499Y-84195136D01*
X125394497Y-84195117D01*
X125391586Y-84170012D01*
X125391585Y-84170010D01*
X125391585Y-84170009D01*
X125346206Y-84067235D01*
X125266765Y-83987794D01*
X125266763Y-83987793D01*
X125163992Y-83942415D01*
X125138865Y-83939500D01*
X123349143Y-83939500D01*
X123349117Y-83939502D01*
X123324012Y-83942413D01*
X123324008Y-83942415D01*
X123221235Y-83987793D01*
X123141794Y-84067234D01*
X123096415Y-84170006D01*
X123096415Y-84170008D01*
X123093500Y-84195131D01*
X123093500Y-85984856D01*
X123093502Y-85984882D01*
X123096413Y-86009987D01*
X123096415Y-86009991D01*
X123141793Y-86112764D01*
X123141794Y-86112765D01*
X123221235Y-86192206D01*
X123324009Y-86237585D01*
X123349135Y-86240500D01*
X124077758Y-86240499D01*
X124144795Y-86260183D01*
X124190550Y-86312987D01*
X124200494Y-86382146D01*
X124171469Y-86445702D01*
X124112691Y-86483476D01*
X124100542Y-86486388D01*
X124044116Y-86496935D01*
X123927802Y-86518679D01*
X123927800Y-86518679D01*
X123927798Y-86518680D01*
X123728982Y-86595701D01*
X123728980Y-86595702D01*
X123547699Y-86707947D01*
X123390127Y-86851593D01*
X123261632Y-87021746D01*
X123166596Y-87212605D01*
X123166596Y-87212607D01*
X123128251Y-87347375D01*
X123108244Y-87417690D01*
X123088571Y-87630000D01*
X123108244Y-87842310D01*
X123165238Y-88042621D01*
X123166596Y-88047392D01*
X123166596Y-88047394D01*
X123261632Y-88238253D01*
X123261634Y-88238255D01*
X123390128Y-88408407D01*
X123547698Y-88552052D01*
X123728981Y-88664298D01*
X123927802Y-88741321D01*
X124124613Y-88778111D01*
X124186893Y-88809779D01*
X124222166Y-88870092D01*
X124219232Y-88939900D01*
X124179023Y-88997040D01*
X124124613Y-89021888D01*
X123927802Y-89058679D01*
X123927799Y-89058679D01*
X123927799Y-89058680D01*
X123728982Y-89135701D01*
X123728980Y-89135702D01*
X123547699Y-89247947D01*
X123390127Y-89391593D01*
X123261632Y-89561746D01*
X123166596Y-89752605D01*
X123166596Y-89752607D01*
X123108244Y-89957689D01*
X123088571Y-90169999D01*
X123088571Y-90170000D01*
X123108244Y-90382310D01*
X123166596Y-90587392D01*
X123166596Y-90587394D01*
X123261632Y-90778253D01*
X123390127Y-90948406D01*
X123390128Y-90948407D01*
X123547698Y-91092052D01*
X123728981Y-91204298D01*
X123927802Y-91281321D01*
X124124613Y-91318111D01*
X124186893Y-91349779D01*
X124222166Y-91410092D01*
X124219232Y-91479900D01*
X124179023Y-91537040D01*
X124124613Y-91561888D01*
X123927802Y-91598679D01*
X123927799Y-91598679D01*
X123927799Y-91598680D01*
X123728982Y-91675701D01*
X123728980Y-91675702D01*
X123547699Y-91787947D01*
X123390127Y-91931593D01*
X123261632Y-92101746D01*
X123166596Y-92292605D01*
X123166596Y-92292607D01*
X123108244Y-92497689D01*
X123088571Y-92709999D01*
X123088571Y-92710000D01*
X123108244Y-92922310D01*
X123166596Y-93127392D01*
X123166596Y-93127394D01*
X123261632Y-93318253D01*
X123261634Y-93318255D01*
X123390128Y-93488407D01*
X123547698Y-93632052D01*
X123728981Y-93744298D01*
X123927802Y-93821321D01*
X124124613Y-93858111D01*
X124186893Y-93889779D01*
X124222166Y-93950092D01*
X124219232Y-94019900D01*
X124179023Y-94077040D01*
X124124613Y-94101888D01*
X123927802Y-94138679D01*
X123927799Y-94138679D01*
X123927799Y-94138680D01*
X123728982Y-94215701D01*
X123728980Y-94215702D01*
X123547699Y-94327947D01*
X123390127Y-94471593D01*
X123261632Y-94641746D01*
X123166596Y-94832605D01*
X123166596Y-94832607D01*
X123108244Y-95037689D01*
X123088571Y-95249999D01*
X123088571Y-95250000D01*
X121069500Y-95250000D01*
X121069500Y-80013244D01*
X121069585Y-80010005D01*
X121738556Y-80010005D01*
X121758310Y-80324004D01*
X121758311Y-80324011D01*
X121779474Y-80434952D01*
X121809152Y-80590530D01*
X121817270Y-80633083D01*
X121914497Y-80932316D01*
X121914499Y-80932321D01*
X122048461Y-81217003D01*
X122048464Y-81217009D01*
X122217051Y-81482661D01*
X122217054Y-81482665D01*
X122417606Y-81725090D01*
X122417608Y-81725092D01*
X122417610Y-81725094D01*
X122555946Y-81855000D01*
X122646968Y-81940476D01*
X122646978Y-81940484D01*
X122901504Y-82125408D01*
X122901509Y-82125410D01*
X122901516Y-82125416D01*
X123177234Y-82276994D01*
X123177239Y-82276996D01*
X123177241Y-82276997D01*
X123177242Y-82276998D01*
X123469771Y-82392818D01*
X123469774Y-82392819D01*
X123774523Y-82471065D01*
X123774527Y-82471066D01*
X123840010Y-82479338D01*
X124086670Y-82510499D01*
X124086679Y-82510499D01*
X124086682Y-82510500D01*
X124086684Y-82510500D01*
X124401316Y-82510500D01*
X124401318Y-82510500D01*
X124401321Y-82510499D01*
X124401329Y-82510499D01*
X124612688Y-82483798D01*
X124713473Y-82471066D01*
X125018225Y-82392819D01*
X125153245Y-82339361D01*
X125310757Y-82276998D01*
X125310758Y-82276997D01*
X125310756Y-82276997D01*
X125310766Y-82276994D01*
X125586484Y-82125416D01*
X125841030Y-81940478D01*
X126070390Y-81725094D01*
X126270947Y-81482663D01*
X126320233Y-81405000D01*
X128158859Y-81405000D01*
X128179378Y-81626439D01*
X128240240Y-81840350D01*
X128339369Y-82039428D01*
X128355137Y-82060308D01*
X128355138Y-82060308D01*
X128919550Y-81495896D01*
X128920327Y-81506265D01*
X128969887Y-81632541D01*
X129054465Y-81738599D01*
X129166547Y-81815016D01*
X129274299Y-81848253D01*
X128710672Y-82411879D01*
X128710672Y-82411880D01*
X128826821Y-82483797D01*
X128826822Y-82483798D01*
X129034195Y-82564134D01*
X129252807Y-82605000D01*
X129475193Y-82605000D01*
X129693809Y-82564133D01*
X129901168Y-82483801D01*
X129901181Y-82483795D01*
X130017326Y-82411879D01*
X129452232Y-81846784D01*
X129498138Y-81839865D01*
X129620357Y-81781007D01*
X129719798Y-81688740D01*
X129787625Y-81571260D01*
X129805499Y-81492946D01*
X130372861Y-82060308D01*
X130388631Y-82039425D01*
X130388633Y-82039422D01*
X130487759Y-81840350D01*
X130548621Y-81626439D01*
X130569141Y-81405000D01*
X130858659Y-81405000D01*
X130877975Y-81601129D01*
X130877976Y-81601132D01*
X130925729Y-81758553D01*
X130935188Y-81789733D01*
X131028086Y-81963532D01*
X131028090Y-81963539D01*
X131153116Y-82115883D01*
X131305460Y-82240909D01*
X131305467Y-82240913D01*
X131479266Y-82333811D01*
X131479269Y-82333811D01*
X131479273Y-82333814D01*
X131667868Y-82391024D01*
X131864000Y-82410341D01*
X132060132Y-82391024D01*
X132248727Y-82333814D01*
X132422538Y-82240910D01*
X132574883Y-82115883D01*
X132699910Y-81963538D01*
X132734886Y-81898102D01*
X133363500Y-81898102D01*
X133369126Y-81944954D01*
X133374122Y-81986561D01*
X133429639Y-82127343D01*
X133521077Y-82247922D01*
X133641656Y-82339360D01*
X133641657Y-82339360D01*
X133641658Y-82339361D01*
X133782436Y-82394877D01*
X133870898Y-82405500D01*
X133870903Y-82405500D01*
X134857097Y-82405500D01*
X134857102Y-82405500D01*
X134945564Y-82394877D01*
X135086342Y-82339361D01*
X135206922Y-82247922D01*
X135298361Y-82127342D01*
X135353877Y-81986564D01*
X135364500Y-81898102D01*
X135364500Y-80911898D01*
X135364013Y-80907844D01*
X138134000Y-80907844D01*
X138140401Y-80967372D01*
X138140403Y-80967379D01*
X138190645Y-81102086D01*
X138190649Y-81102093D01*
X138276809Y-81217187D01*
X138276812Y-81217190D01*
X138391906Y-81303350D01*
X138391913Y-81303354D01*
X138526620Y-81353596D01*
X138526627Y-81353598D01*
X138586155Y-81359999D01*
X138586172Y-81360000D01*
X139234000Y-81360000D01*
X139234000Y-80445501D01*
X139341685Y-80494680D01*
X139448237Y-80510000D01*
X139519763Y-80510000D01*
X139626315Y-80494680D01*
X139734000Y-80445501D01*
X139734000Y-81360000D01*
X140381828Y-81360000D01*
X140381844Y-81359999D01*
X140441372Y-81353598D01*
X140441379Y-81353596D01*
X140576086Y-81303354D01*
X140576093Y-81303350D01*
X140691187Y-81217190D01*
X140691190Y-81217187D01*
X140777350Y-81102093D01*
X140777354Y-81102086D01*
X140827596Y-80967379D01*
X140827598Y-80967372D01*
X140833999Y-80907844D01*
X140834000Y-80907827D01*
X140834000Y-80713268D01*
X140853685Y-80646229D01*
X140906489Y-80600474D01*
X140975647Y-80590530D01*
X141039203Y-80619555D01*
X141056950Y-80638537D01*
X141098922Y-80694116D01*
X141156665Y-80770580D01*
X141170128Y-80788407D01*
X141327698Y-80932052D01*
X141508981Y-81044298D01*
X141707802Y-81121321D01*
X141917390Y-81160500D01*
X141917392Y-81160500D01*
X142130608Y-81160500D01*
X142130610Y-81160500D01*
X142340198Y-81121321D01*
X142539019Y-81044298D01*
X142720302Y-80932052D01*
X142877872Y-80788407D01*
X143006366Y-80618255D01*
X143060270Y-80510000D01*
X143101403Y-80427394D01*
X143101403Y-80427393D01*
X143101405Y-80427389D01*
X143159756Y-80222310D01*
X143170529Y-80106047D01*
X143196315Y-80041111D01*
X143238622Y-80010804D01*
X143347130Y-80010804D01*
X143383503Y-80031668D01*
X143415693Y-80093681D01*
X143417470Y-80106047D01*
X143428244Y-80222310D01*
X143480082Y-80404500D01*
X143486596Y-80427392D01*
X143486596Y-80427394D01*
X143581632Y-80618253D01*
X143710127Y-80788406D01*
X143710128Y-80788407D01*
X143867698Y-80932052D01*
X144048981Y-81044298D01*
X144247802Y-81121321D01*
X144457390Y-81160500D01*
X144457392Y-81160500D01*
X144670608Y-81160500D01*
X144670610Y-81160500D01*
X144880198Y-81121321D01*
X145079019Y-81044298D01*
X145260302Y-80932052D01*
X145417872Y-80788407D01*
X145546366Y-80618255D01*
X145600270Y-80510000D01*
X145641403Y-80427394D01*
X145641403Y-80427393D01*
X145641405Y-80427389D01*
X145699756Y-80222310D01*
X145710529Y-80106047D01*
X145736315Y-80041111D01*
X145778622Y-80010804D01*
X145887130Y-80010804D01*
X145923503Y-80031668D01*
X145955693Y-80093681D01*
X145957470Y-80106047D01*
X145968244Y-80222310D01*
X146020082Y-80404500D01*
X146026596Y-80427392D01*
X146026596Y-80427394D01*
X146121632Y-80618253D01*
X146250127Y-80788406D01*
X146250128Y-80788407D01*
X146407698Y-80932052D01*
X146588981Y-81044298D01*
X146787802Y-81121321D01*
X146997390Y-81160500D01*
X146997392Y-81160500D01*
X147210608Y-81160500D01*
X147210610Y-81160500D01*
X147420198Y-81121321D01*
X147619019Y-81044298D01*
X147800302Y-80932052D01*
X147957872Y-80788407D01*
X148086366Y-80618255D01*
X148140270Y-80510000D01*
X148181403Y-80427394D01*
X148181403Y-80427393D01*
X148181405Y-80427389D01*
X148239756Y-80222310D01*
X148250529Y-80106047D01*
X148276315Y-80041111D01*
X148318622Y-80010804D01*
X148427130Y-80010804D01*
X148463503Y-80031668D01*
X148495693Y-80093681D01*
X148497470Y-80106047D01*
X148508244Y-80222310D01*
X148560082Y-80404500D01*
X148566596Y-80427392D01*
X148566596Y-80427394D01*
X148661632Y-80618253D01*
X148790127Y-80788406D01*
X148790128Y-80788407D01*
X148947698Y-80932052D01*
X149128981Y-81044298D01*
X149327802Y-81121321D01*
X149537390Y-81160500D01*
X149537392Y-81160500D01*
X149750608Y-81160500D01*
X149750610Y-81160500D01*
X149960198Y-81121321D01*
X150159019Y-81044298D01*
X150340302Y-80932052D01*
X150497872Y-80788407D01*
X150626366Y-80618255D01*
X150680270Y-80510000D01*
X150721403Y-80427394D01*
X150721403Y-80427393D01*
X150721405Y-80427389D01*
X150779756Y-80222310D01*
X150799429Y-80010005D01*
X152218556Y-80010005D01*
X152238310Y-80324004D01*
X152238311Y-80324011D01*
X152259474Y-80434952D01*
X152289152Y-80590530D01*
X152297270Y-80633083D01*
X152394497Y-80932316D01*
X152394499Y-80932321D01*
X152528461Y-81217003D01*
X152528464Y-81217009D01*
X152697051Y-81482661D01*
X152697054Y-81482665D01*
X152897606Y-81725090D01*
X152897608Y-81725092D01*
X152897610Y-81725094D01*
X153035946Y-81855000D01*
X153126968Y-81940476D01*
X153126978Y-81940484D01*
X153381504Y-82125408D01*
X153381509Y-82125410D01*
X153381516Y-82125416D01*
X153657234Y-82276994D01*
X153657239Y-82276996D01*
X153657241Y-82276997D01*
X153657242Y-82276998D01*
X153949771Y-82392818D01*
X153949774Y-82392819D01*
X154254523Y-82471065D01*
X154254527Y-82471066D01*
X154320010Y-82479338D01*
X154566670Y-82510499D01*
X154566679Y-82510499D01*
X154566682Y-82510500D01*
X154566684Y-82510500D01*
X154881316Y-82510500D01*
X154881318Y-82510500D01*
X154881321Y-82510499D01*
X154881329Y-82510499D01*
X155092688Y-82483798D01*
X155193473Y-82471066D01*
X155498225Y-82392819D01*
X155633245Y-82339361D01*
X155790757Y-82276998D01*
X155790758Y-82276997D01*
X155790756Y-82276997D01*
X155790766Y-82276994D01*
X156066484Y-82125416D01*
X156321030Y-81940478D01*
X156550390Y-81725094D01*
X156750947Y-81482663D01*
X156919537Y-81217007D01*
X157053503Y-80932315D01*
X157150731Y-80633079D01*
X157209688Y-80324015D01*
X157209689Y-80324004D01*
X157229444Y-80010005D01*
X157229444Y-80009994D01*
X157209689Y-79695995D01*
X157209688Y-79695988D01*
X157209688Y-79695985D01*
X157150731Y-79386921D01*
X157053503Y-79087685D01*
X156919537Y-78802993D01*
X156864739Y-78716645D01*
X156750948Y-78537338D01*
X156750945Y-78537334D01*
X156550393Y-78294909D01*
X156550391Y-78294907D01*
X156321031Y-78079523D01*
X156321021Y-78079515D01*
X156066495Y-77894591D01*
X156066488Y-77894586D01*
X156066484Y-77894584D01*
X155790766Y-77743006D01*
X155790763Y-77743004D01*
X155790758Y-77743002D01*
X155790757Y-77743001D01*
X155498228Y-77627181D01*
X155498225Y-77627180D01*
X155193476Y-77548934D01*
X155193463Y-77548932D01*
X154881329Y-77509500D01*
X154881318Y-77509500D01*
X154566682Y-77509500D01*
X154566670Y-77509500D01*
X154254536Y-77548932D01*
X154254523Y-77548934D01*
X153949774Y-77627180D01*
X153949771Y-77627181D01*
X153657242Y-77743001D01*
X153657241Y-77743002D01*
X153381516Y-77894584D01*
X153381504Y-77894591D01*
X153126978Y-78079515D01*
X153126968Y-78079523D01*
X152897608Y-78294907D01*
X152897606Y-78294909D01*
X152697054Y-78537334D01*
X152697051Y-78537338D01*
X152528464Y-78802990D01*
X152528461Y-78802996D01*
X152394499Y-79087678D01*
X152394497Y-79087683D01*
X152297270Y-79386916D01*
X152238311Y-79695988D01*
X152238310Y-79695995D01*
X152218556Y-80009994D01*
X152218556Y-80010005D01*
X150799429Y-80010005D01*
X150799429Y-80010000D01*
X150799428Y-80009994D01*
X150796546Y-79978888D01*
X150779756Y-79797690D01*
X150721405Y-79592611D01*
X150721403Y-79592606D01*
X150721403Y-79592605D01*
X150626367Y-79401746D01*
X150497872Y-79231593D01*
X150366874Y-79112172D01*
X150340302Y-79087948D01*
X150159019Y-78975702D01*
X150159017Y-78975701D01*
X150009829Y-78917906D01*
X149960198Y-78898679D01*
X149750610Y-78859500D01*
X149537390Y-78859500D01*
X149327802Y-78898679D01*
X149327799Y-78898679D01*
X149327799Y-78898680D01*
X149128982Y-78975701D01*
X149128980Y-78975702D01*
X148947699Y-79087947D01*
X148790127Y-79231593D01*
X148661632Y-79401746D01*
X148566596Y-79592605D01*
X148566596Y-79592607D01*
X148508244Y-79797689D01*
X148497471Y-79913951D01*
X148471685Y-79978888D01*
X148427130Y-80010804D01*
X148318622Y-80010804D01*
X148320869Y-80009194D01*
X148284497Y-79988331D01*
X148252307Y-79926318D01*
X148250529Y-79913951D01*
X148249849Y-79906613D01*
X148239756Y-79797690D01*
X148181405Y-79592611D01*
X148181403Y-79592606D01*
X148181403Y-79592605D01*
X148086367Y-79401746D01*
X147957872Y-79231593D01*
X147826874Y-79112172D01*
X147800302Y-79087948D01*
X147619019Y-78975702D01*
X147619017Y-78975701D01*
X147469829Y-78917906D01*
X147420198Y-78898679D01*
X147210610Y-78859500D01*
X146997390Y-78859500D01*
X146787802Y-78898679D01*
X146787799Y-78898679D01*
X146787799Y-78898680D01*
X146588982Y-78975701D01*
X146588980Y-78975702D01*
X146407699Y-79087947D01*
X146250127Y-79231593D01*
X146121632Y-79401746D01*
X146026596Y-79592605D01*
X146026596Y-79592607D01*
X145968244Y-79797689D01*
X145957471Y-79913951D01*
X145931685Y-79978888D01*
X145887130Y-80010804D01*
X145778622Y-80010804D01*
X145780869Y-80009194D01*
X145744497Y-79988331D01*
X145712307Y-79926318D01*
X145710529Y-79913951D01*
X145709849Y-79906613D01*
X145699756Y-79797690D01*
X145641405Y-79592611D01*
X145641403Y-79592606D01*
X145641403Y-79592605D01*
X145546367Y-79401746D01*
X145417872Y-79231593D01*
X145286874Y-79112172D01*
X145260302Y-79087948D01*
X145079019Y-78975702D01*
X145079017Y-78975701D01*
X144929829Y-78917906D01*
X144880198Y-78898679D01*
X144670610Y-78859500D01*
X144457390Y-78859500D01*
X144247802Y-78898679D01*
X144247799Y-78898679D01*
X144247799Y-78898680D01*
X144048982Y-78975701D01*
X144048980Y-78975702D01*
X143867699Y-79087947D01*
X143710127Y-79231593D01*
X143581632Y-79401746D01*
X143486596Y-79592605D01*
X143486596Y-79592607D01*
X143428244Y-79797689D01*
X143417471Y-79913951D01*
X143391685Y-79978888D01*
X143347130Y-80010804D01*
X143238622Y-80010804D01*
X143240869Y-80009194D01*
X143204497Y-79988331D01*
X143172307Y-79926318D01*
X143170529Y-79913951D01*
X143169849Y-79906613D01*
X143159756Y-79797690D01*
X143101405Y-79592611D01*
X143101403Y-79592606D01*
X143101403Y-79592605D01*
X143006367Y-79401746D01*
X142877872Y-79231593D01*
X142746874Y-79112172D01*
X142720302Y-79087948D01*
X142539019Y-78975702D01*
X142539017Y-78975701D01*
X142389829Y-78917906D01*
X142340198Y-78898679D01*
X142130610Y-78859500D01*
X141917390Y-78859500D01*
X141707802Y-78898679D01*
X141707799Y-78898679D01*
X141707799Y-78898680D01*
X141508982Y-78975701D01*
X141508980Y-78975702D01*
X141327699Y-79087947D01*
X141170127Y-79231593D01*
X141056954Y-79381458D01*
X141000845Y-79423094D01*
X140931133Y-79427785D01*
X140869951Y-79394043D01*
X140836724Y-79332579D01*
X140834000Y-79306731D01*
X140834000Y-79112172D01*
X140833999Y-79112155D01*
X140827598Y-79052627D01*
X140827596Y-79052620D01*
X140777354Y-78917913D01*
X140777350Y-78917906D01*
X140691190Y-78802812D01*
X140691187Y-78802809D01*
X140576093Y-78716649D01*
X140576086Y-78716645D01*
X140441379Y-78666403D01*
X140441372Y-78666401D01*
X140381844Y-78660000D01*
X139734000Y-78660000D01*
X139734000Y-79574498D01*
X139626315Y-79525320D01*
X139519763Y-79510000D01*
X139448237Y-79510000D01*
X139341685Y-79525320D01*
X139234000Y-79574498D01*
X139234000Y-78660000D01*
X138586155Y-78660000D01*
X138526627Y-78666401D01*
X138526620Y-78666403D01*
X138391913Y-78716645D01*
X138391906Y-78716649D01*
X138276812Y-78802809D01*
X138276809Y-78802812D01*
X138190649Y-78917906D01*
X138190645Y-78917913D01*
X138140403Y-79052620D01*
X138140401Y-79052627D01*
X138134000Y-79112155D01*
X138134000Y-79760000D01*
X139050314Y-79760000D01*
X139024507Y-79800156D01*
X138984000Y-79938111D01*
X138984000Y-80081889D01*
X139024507Y-80219844D01*
X139050314Y-80260000D01*
X138134000Y-80260000D01*
X138134000Y-80907844D01*
X135364013Y-80907844D01*
X135353877Y-80823436D01*
X135298361Y-80682658D01*
X135298360Y-80682657D01*
X135298360Y-80682656D01*
X135206922Y-80562077D01*
X135086343Y-80470639D01*
X134945561Y-80415122D01*
X134899926Y-80409642D01*
X134857102Y-80404500D01*
X133870898Y-80404500D01*
X133831853Y-80409188D01*
X133782438Y-80415122D01*
X133641656Y-80470639D01*
X133521077Y-80562077D01*
X133429639Y-80682656D01*
X133374122Y-80823438D01*
X133371358Y-80846460D01*
X133363500Y-80911898D01*
X133363500Y-81898102D01*
X132734886Y-81898102D01*
X132757925Y-81855000D01*
X132792811Y-81789733D01*
X132792811Y-81789732D01*
X132792814Y-81789727D01*
X132850024Y-81601132D01*
X132869341Y-81405000D01*
X132850024Y-81208868D01*
X132792814Y-81020273D01*
X132792811Y-81020269D01*
X132792811Y-81020266D01*
X132699913Y-80846467D01*
X132699909Y-80846460D01*
X132574883Y-80694116D01*
X132422539Y-80569090D01*
X132422532Y-80569086D01*
X132248733Y-80476188D01*
X132248727Y-80476186D01*
X132060132Y-80418976D01*
X132060129Y-80418975D01*
X131864000Y-80399659D01*
X131667870Y-80418975D01*
X131479266Y-80476188D01*
X131305467Y-80569086D01*
X131305460Y-80569090D01*
X131153116Y-80694116D01*
X131028090Y-80846460D01*
X131028086Y-80846467D01*
X130935188Y-81020266D01*
X130877975Y-81208870D01*
X130858659Y-81405000D01*
X130569141Y-81405000D01*
X130569141Y-81404999D01*
X130548621Y-81183560D01*
X130487759Y-80969649D01*
X130388635Y-80770580D01*
X130388630Y-80770572D01*
X130372860Y-80749690D01*
X129808449Y-81314101D01*
X129807673Y-81303735D01*
X129758113Y-81177459D01*
X129673535Y-81071401D01*
X129561453Y-80994984D01*
X129453700Y-80961747D01*
X130017327Y-80398119D01*
X129901178Y-80326202D01*
X129901177Y-80326201D01*
X129693804Y-80245865D01*
X129475193Y-80205000D01*
X129252807Y-80205000D01*
X129034195Y-80245865D01*
X128826824Y-80326200D01*
X128826823Y-80326201D01*
X128710671Y-80398119D01*
X129275768Y-80963215D01*
X129229862Y-80970135D01*
X129107643Y-81028993D01*
X129008202Y-81121260D01*
X128940375Y-81238740D01*
X128922500Y-81317053D01*
X128355138Y-80749691D01*
X128355137Y-80749691D01*
X128339368Y-80770574D01*
X128240240Y-80969649D01*
X128179378Y-81183560D01*
X128158859Y-81404999D01*
X128158859Y-81405000D01*
X126320233Y-81405000D01*
X126439537Y-81217007D01*
X126573503Y-80932315D01*
X126670731Y-80633079D01*
X126729688Y-80324015D01*
X126729689Y-80324004D01*
X126749444Y-80010005D01*
X126749444Y-80009994D01*
X126729689Y-79695995D01*
X126729688Y-79695988D01*
X126729688Y-79695985D01*
X126670731Y-79386921D01*
X126573503Y-79087685D01*
X126439537Y-78802993D01*
X126384739Y-78716645D01*
X126270948Y-78537338D01*
X126270945Y-78537334D01*
X126070393Y-78294909D01*
X126070391Y-78294907D01*
X125868161Y-78105000D01*
X128358659Y-78105000D01*
X128377975Y-78301129D01*
X128435188Y-78489733D01*
X128528086Y-78663532D01*
X128528090Y-78663539D01*
X128653116Y-78815883D01*
X128805460Y-78940909D01*
X128805467Y-78940913D01*
X128979266Y-79033811D01*
X128979269Y-79033811D01*
X128979273Y-79033814D01*
X129167868Y-79091024D01*
X129364000Y-79110341D01*
X129560132Y-79091024D01*
X129748727Y-79033814D01*
X129802906Y-79004855D01*
X129922532Y-78940913D01*
X129922538Y-78940910D01*
X130074883Y-78815883D01*
X130199910Y-78663538D01*
X130273798Y-78525303D01*
X130292811Y-78489733D01*
X130292811Y-78489732D01*
X130292814Y-78489727D01*
X130350024Y-78301132D01*
X130369341Y-78105000D01*
X130858659Y-78105000D01*
X130877975Y-78301129D01*
X130935188Y-78489733D01*
X131028086Y-78663532D01*
X131028090Y-78663539D01*
X131153116Y-78815883D01*
X131305460Y-78940909D01*
X131305467Y-78940913D01*
X131479266Y-79033811D01*
X131479269Y-79033811D01*
X131479273Y-79033814D01*
X131667868Y-79091024D01*
X131864000Y-79110341D01*
X132060132Y-79091024D01*
X132248727Y-79033814D01*
X132302906Y-79004855D01*
X132422532Y-78940913D01*
X132422538Y-78940910D01*
X132574883Y-78815883D01*
X132699910Y-78663538D01*
X132773798Y-78525303D01*
X132792811Y-78489733D01*
X132792811Y-78489732D01*
X132792814Y-78489727D01*
X132850024Y-78301132D01*
X132869341Y-78105000D01*
X133358659Y-78105000D01*
X133377975Y-78301129D01*
X133435188Y-78489733D01*
X133528086Y-78663532D01*
X133528090Y-78663539D01*
X133653116Y-78815883D01*
X133805460Y-78940909D01*
X133805467Y-78940913D01*
X133979266Y-79033811D01*
X133979269Y-79033811D01*
X133979273Y-79033814D01*
X134167868Y-79091024D01*
X134364000Y-79110341D01*
X134560132Y-79091024D01*
X134748727Y-79033814D01*
X134802906Y-79004855D01*
X134922532Y-78940913D01*
X134922538Y-78940910D01*
X135074883Y-78815883D01*
X135199910Y-78663538D01*
X135273798Y-78525303D01*
X135292811Y-78489733D01*
X135292811Y-78489732D01*
X135292814Y-78489727D01*
X135350024Y-78301132D01*
X135369341Y-78105000D01*
X135350024Y-77908868D01*
X135292814Y-77720273D01*
X135292811Y-77720269D01*
X135292811Y-77720266D01*
X135199913Y-77546467D01*
X135199909Y-77546460D01*
X135074883Y-77394116D01*
X134922539Y-77269090D01*
X134922532Y-77269086D01*
X134748733Y-77176188D01*
X134748727Y-77176186D01*
X134622997Y-77138046D01*
X134560129Y-77118975D01*
X134364000Y-77099659D01*
X134167870Y-77118975D01*
X133979266Y-77176188D01*
X133805467Y-77269086D01*
X133805460Y-77269090D01*
X133653116Y-77394116D01*
X133528090Y-77546460D01*
X133528086Y-77546467D01*
X133435188Y-77720266D01*
X133377975Y-77908870D01*
X133358659Y-78105000D01*
X132869341Y-78105000D01*
X132850024Y-77908868D01*
X132792814Y-77720273D01*
X132792811Y-77720269D01*
X132792811Y-77720266D01*
X132699913Y-77546467D01*
X132699909Y-77546460D01*
X132574883Y-77394116D01*
X132422539Y-77269090D01*
X132422532Y-77269086D01*
X132248733Y-77176188D01*
X132248727Y-77176186D01*
X132122997Y-77138046D01*
X132060129Y-77118975D01*
X131864000Y-77099659D01*
X131667870Y-77118975D01*
X131479266Y-77176188D01*
X131305467Y-77269086D01*
X131305460Y-77269090D01*
X131153116Y-77394116D01*
X131028090Y-77546460D01*
X131028086Y-77546467D01*
X130935188Y-77720266D01*
X130877975Y-77908870D01*
X130858659Y-78105000D01*
X130369341Y-78105000D01*
X130350024Y-77908868D01*
X130292814Y-77720273D01*
X130292811Y-77720269D01*
X130292811Y-77720266D01*
X130199913Y-77546467D01*
X130199909Y-77546460D01*
X130074883Y-77394116D01*
X129922539Y-77269090D01*
X129922532Y-77269086D01*
X129748733Y-77176188D01*
X129748727Y-77176186D01*
X129622997Y-77138046D01*
X129560129Y-77118975D01*
X129364000Y-77099659D01*
X129167870Y-77118975D01*
X128979266Y-77176188D01*
X128805467Y-77269086D01*
X128805460Y-77269090D01*
X128653116Y-77394116D01*
X128528090Y-77546460D01*
X128528086Y-77546467D01*
X128435188Y-77720266D01*
X128377975Y-77908870D01*
X128358659Y-78105000D01*
X125868161Y-78105000D01*
X125841031Y-78079523D01*
X125841021Y-78079515D01*
X125586495Y-77894591D01*
X125586488Y-77894586D01*
X125586484Y-77894584D01*
X125310766Y-77743006D01*
X125310763Y-77743004D01*
X125310758Y-77743002D01*
X125310757Y-77743001D01*
X125018228Y-77627181D01*
X125018225Y-77627180D01*
X124713476Y-77548934D01*
X124713463Y-77548932D01*
X124401329Y-77509500D01*
X124401318Y-77509500D01*
X124086682Y-77509500D01*
X124086670Y-77509500D01*
X123774536Y-77548932D01*
X123774523Y-77548934D01*
X123469774Y-77627180D01*
X123469771Y-77627181D01*
X123177242Y-77743001D01*
X123177241Y-77743002D01*
X122901516Y-77894584D01*
X122901504Y-77894591D01*
X122646978Y-78079515D01*
X122646968Y-78079523D01*
X122417608Y-78294907D01*
X122417606Y-78294909D01*
X122217054Y-78537334D01*
X122217051Y-78537338D01*
X122048464Y-78802990D01*
X122048461Y-78802996D01*
X121914499Y-79087678D01*
X121914497Y-79087683D01*
X121817270Y-79386916D01*
X121758311Y-79695988D01*
X121758310Y-79695995D01*
X121738556Y-80009994D01*
X121738556Y-80010005D01*
X121069585Y-80010005D01*
X121069670Y-80006755D01*
X121076480Y-79876806D01*
X121087695Y-79677104D01*
X121089020Y-79664724D01*
X121113549Y-79509851D01*
X121113752Y-79508618D01*
X121142916Y-79336968D01*
X121145381Y-79325684D01*
X121187265Y-79169371D01*
X121187847Y-79167276D01*
X121234649Y-79004822D01*
X121238017Y-78994777D01*
X121296767Y-78841728D01*
X121297897Y-78838896D01*
X121361809Y-78684601D01*
X121365860Y-78675812D01*
X121440737Y-78528857D01*
X121442624Y-78525303D01*
X121522916Y-78380025D01*
X121527409Y-78372538D01*
X121617575Y-78233696D01*
X121620317Y-78229658D01*
X121716059Y-78094723D01*
X121720751Y-78088535D01*
X121825088Y-77959690D01*
X121828981Y-77955116D01*
X121883075Y-77894584D01*
X121938994Y-77832010D01*
X121943722Y-77827009D01*
X122061009Y-77709722D01*
X122066010Y-77704994D01*
X122189116Y-77594981D01*
X122193690Y-77591088D01*
X122322535Y-77486751D01*
X122328723Y-77482059D01*
X122463658Y-77386317D01*
X122467696Y-77383575D01*
X122606538Y-77293409D01*
X122614025Y-77288916D01*
X122759303Y-77208624D01*
X122762857Y-77206737D01*
X122909812Y-77131860D01*
X122918601Y-77127809D01*
X123072896Y-77063897D01*
X123075728Y-77062767D01*
X123228777Y-77004017D01*
X123238822Y-77000649D01*
X123401276Y-76953847D01*
X123403371Y-76953265D01*
X123559684Y-76911381D01*
X123570968Y-76908916D01*
X123742700Y-76879738D01*
X123743840Y-76879551D01*
X123898724Y-76855020D01*
X123911104Y-76853695D01*
X124110603Y-76842490D01*
X124240756Y-76835669D01*
X124247245Y-76835500D01*
X154720755Y-76835500D01*
X154727243Y-76835669D01*
G37*
%TD.AperFunction*%
%TD*%
M02*
