%TF.GenerationSoftware,KiCad,Pcbnew,7.0.10-7.0.10~ubuntu22.04.1*%
%TF.CreationDate,2024-05-26T20:09:48+02:00*%
%TF.ProjectId,hardware,68617264-7761-4726-952e-6b696361645f,rev?*%
%TF.SameCoordinates,Original*%
%TF.FileFunction,Copper,L3,Inr*%
%TF.FilePolarity,Positive*%
%FSLAX46Y46*%
G04 Gerber Fmt 4.6, Leading zero omitted, Abs format (unit mm)*
G04 Created by KiCad (PCBNEW 7.0.10-7.0.10~ubuntu22.04.1) date 2024-05-26 20:09:48*
%MOMM*%
%LPD*%
G01*
G04 APERTURE LIST*
G04 Aperture macros list*
%AMRoundRect*
0 Rectangle with rounded corners*
0 $1 Rounding radius*
0 $2 $3 $4 $5 $6 $7 $8 $9 X,Y pos of 4 corners*
0 Add a 4 corners polygon primitive as box body*
4,1,4,$2,$3,$4,$5,$6,$7,$8,$9,$2,$3,0*
0 Add four circle primitives for the rounded corners*
1,1,$1+$1,$2,$3*
1,1,$1+$1,$4,$5*
1,1,$1+$1,$6,$7*
1,1,$1+$1,$8,$9*
0 Add four rect primitives between the rounded corners*
20,1,$1+$1,$2,$3,$4,$5,0*
20,1,$1+$1,$4,$5,$6,$7,0*
20,1,$1+$1,$6,$7,$8,$9,0*
20,1,$1+$1,$8,$9,$2,$3,0*%
G04 Aperture macros list end*
%TA.AperFunction,ComponentPad*%
%ADD10R,1.700000X1.700000*%
%TD*%
%TA.AperFunction,ComponentPad*%
%ADD11O,1.700000X1.700000*%
%TD*%
%TA.AperFunction,ComponentPad*%
%ADD12C,0.700000*%
%TD*%
%TA.AperFunction,ComponentPad*%
%ADD13C,4.400000*%
%TD*%
%TA.AperFunction,ComponentPad*%
%ADD14C,2.000000*%
%TD*%
%TA.AperFunction,ComponentPad*%
%ADD15RoundRect,0.250000X0.450000X0.450000X-0.450000X0.450000X-0.450000X-0.450000X0.450000X-0.450000X0*%
%TD*%
%TA.AperFunction,ComponentPad*%
%ADD16C,1.400000*%
%TD*%
%TA.AperFunction,ViaPad*%
%ADD17C,0.500000*%
%TD*%
G04 APERTURE END LIST*
D10*
%TO.N,+5V*%
%TO.C,J8*%
X124244000Y-100330000D03*
D11*
%TO.N,+3V3*%
X124244000Y-102870000D03*
%TO.N,GND*%
X124244000Y-105410000D03*
%TD*%
D10*
%TO.N,USART1_TX*%
%TO.C,J2*%
X136944000Y-140970000D03*
D11*
%TO.N,GND*%
X139484000Y-140970000D03*
%TO.N,USART1_RX*%
X142024000Y-140970000D03*
%TD*%
D12*
%TO.N,unconnected-(H1-Pad1)*%
%TO.C,H1*%
X153074000Y-80010000D03*
X153557274Y-78843274D03*
X153557274Y-81176726D03*
X154724000Y-78360000D03*
D13*
X154724000Y-80010000D03*
D12*
X154724000Y-81660000D03*
X155890726Y-78843274D03*
X155890726Y-81176726D03*
X156374000Y-80010000D03*
%TD*%
D10*
%TO.N,+3V3*%
%TO.C,J3*%
X124244000Y-113030000D03*
D11*
%TO.N,PA0*%
X124244000Y-115570000D03*
%TO.N,PA1*%
X124244000Y-118110000D03*
%TO.N,PA4*%
X124244000Y-120650000D03*
%TO.N,PA5*%
X124244000Y-123190000D03*
%TO.N,PA6*%
X124244000Y-125730000D03*
%TO.N,PA7*%
X124244000Y-128270000D03*
%TO.N,PB0*%
X124244000Y-130810000D03*
%TO.N,PB1*%
X124244000Y-133350000D03*
%TO.N,GND*%
X124244000Y-135890000D03*
%TD*%
D12*
%TO.N,unconnected-(H2-Pad1)*%
%TO.C,H2*%
X122594000Y-80010000D03*
X123077274Y-78843274D03*
X123077274Y-81176726D03*
X124244000Y-78360000D03*
D13*
X124244000Y-80010000D03*
D12*
X124244000Y-81660000D03*
X125410726Y-78843274D03*
X125410726Y-81176726D03*
X125894000Y-80010000D03*
%TD*%
D10*
%TO.N,PA10*%
%TO.C,J4*%
X154724000Y-110490000D03*
D11*
%TO.N,PA9*%
X154724000Y-113030000D03*
%TO.N,PA8*%
X154724000Y-115570000D03*
%TO.N,PB15*%
X154724000Y-118110000D03*
%TO.N,PB14*%
X154724000Y-120650000D03*
%TD*%
D10*
%TO.N,+5V*%
%TO.C,J9*%
X154724000Y-85090000D03*
D11*
%TO.N,+3V3*%
X154724000Y-87630000D03*
%TO.N,GND*%
X154724000Y-90170000D03*
%TD*%
D14*
%TO.N,NRST*%
%TO.C,SW1*%
X129614000Y-136600000D03*
X129614000Y-130100000D03*
%TO.N,GND*%
X134114000Y-136600000D03*
X134114000Y-130100000D03*
%TD*%
D10*
%TO.N,GND*%
%TO.C,J1*%
X139484000Y-80010000D03*
D11*
%TO.N,Net-(J1-Pin_2)*%
X142024000Y-80010000D03*
%TO.N,Net-(J1-Pin_3)*%
X144564000Y-80010000D03*
%TO.N,Net-(J1-Pin_4)*%
X147104000Y-80010000D03*
%TO.N,+3V3*%
X149644000Y-80010000D03*
%TD*%
D12*
%TO.N,unconnected-(H4-Pad1)*%
%TO.C,H4*%
X122594000Y-140970000D03*
X123077274Y-139803274D03*
X123077274Y-142136726D03*
X124244000Y-139320000D03*
D13*
X124244000Y-140970000D03*
D12*
X124244000Y-142620000D03*
X125410726Y-139803274D03*
X125410726Y-142136726D03*
X125894000Y-140970000D03*
%TD*%
D15*
%TO.N,+3V3*%
%TO.C,SW3*%
X134364000Y-81405000D03*
D16*
%TO.N,Net-(D5-A)*%
X131864000Y-81405000D03*
%TO.N,GND*%
X129364000Y-81405000D03*
%TO.N,N/C*%
X129364000Y-78105000D03*
X131864000Y-78105000D03*
X134364000Y-78105000D03*
%TD*%
D10*
%TO.N,PB5*%
%TO.C,J7*%
X124244000Y-85090000D03*
D11*
%TO.N,PB6*%
X124244000Y-87630000D03*
%TO.N,PB7*%
X124244000Y-90170000D03*
%TO.N,PB8*%
X124244000Y-92710000D03*
%TO.N,PB9*%
X124244000Y-95250000D03*
%TD*%
D14*
%TO.N,USER_BTN*%
%TO.C,SW2*%
X144854000Y-136600000D03*
X144854000Y-130100000D03*
%TO.N,GND*%
X149354000Y-136600000D03*
X149354000Y-130100000D03*
%TD*%
D10*
%TO.N,PB4*%
%TO.C,J5*%
X154724000Y-95250000D03*
D11*
%TO.N,PB3*%
X154724000Y-97790000D03*
%TO.N,PA15*%
X154724000Y-100330000D03*
%TO.N,PA12*%
X154724000Y-102870000D03*
%TO.N,PA11*%
X154724000Y-105410000D03*
%TD*%
D10*
%TO.N,PB13*%
%TO.C,J6*%
X154724000Y-125730000D03*
D11*
%TO.N,PB12*%
X154724000Y-128270000D03*
%TO.N,PB11*%
X154724000Y-130810000D03*
%TO.N,PB10*%
X154724000Y-133350000D03*
%TO.N,PB2*%
X154724000Y-135890000D03*
%TD*%
D12*
%TO.N,unconnected-(H3-Pad1)*%
%TO.C,H3*%
X153074000Y-140970000D03*
X153557274Y-139803274D03*
X153557274Y-142136726D03*
X154724000Y-139320000D03*
D13*
X154724000Y-140970000D03*
D12*
X154724000Y-142620000D03*
X155890726Y-139803274D03*
X155890726Y-142136726D03*
X156374000Y-140970000D03*
%TD*%
D17*
%TO.N,GND*%
X133900000Y-126900000D03*
X134500000Y-100350000D03*
X135650000Y-117250000D03*
X133900000Y-120550000D03*
X135750000Y-120600000D03*
X138250000Y-121600000D03*
X150100000Y-124200000D03*
X146100000Y-120000000D03*
X146500000Y-118600000D03*
X152400000Y-124600000D03*
X147200000Y-114250000D03*
X152850000Y-123250000D03*
%TO.N,BOOT*%
X131150000Y-96850000D03*
%TO.N,USER_BTN*%
X140200000Y-111000000D03*
%TO.N,STATUS_LED*%
X139300000Y-108250000D03*
%TO.N,GND*%
X131350000Y-104900000D03*
%TO.N,+3V3*%
X134950000Y-104650000D03*
X144750000Y-93000000D03*
X140750000Y-89925000D03*
X142050000Y-87625000D03*
X140750000Y-85350000D03*
X136300000Y-86800000D03*
X147100000Y-86550000D03*
X148400000Y-87650000D03*
X144700000Y-103950000D03*
X140550000Y-124300000D03*
%TO.N,NRST*%
X137414000Y-109093000D03*
X138938000Y-96393000D03*
%TO.N,GND*%
X151550000Y-87800000D03*
X142750000Y-118650000D03*
X126746000Y-108331000D03*
X130100000Y-95800000D03*
X129286000Y-111760000D03*
X136950000Y-135500000D03*
X148250000Y-96350000D03*
X130429000Y-105918000D03*
X149150000Y-117150000D03*
X148400000Y-89950000D03*
X134050000Y-98450000D03*
X126550000Y-122000000D03*
X130810000Y-110236000D03*
X138350000Y-126200000D03*
X135550000Y-113950000D03*
X152200000Y-132100000D03*
X128550000Y-91450000D03*
X138200000Y-89950000D03*
X126350000Y-86750000D03*
X144050000Y-127750000D03*
X141732000Y-111887000D03*
X146431000Y-104902000D03*
X126100000Y-119950000D03*
X151150000Y-96550000D03*
X126200000Y-91750000D03*
X137414000Y-92837000D03*
X126800000Y-96100000D03*
X139450000Y-137400000D03*
X148100000Y-91000000D03*
X143200000Y-89800000D03*
X131650000Y-123850000D03*
X152650000Y-130000000D03*
X137750000Y-96900000D03*
X134150000Y-89900000D03*
X127127000Y-110109000D03*
X143550000Y-115800000D03*
X136525000Y-109728000D03*
X137668000Y-106045000D03*
X145800000Y-115750000D03*
X140250000Y-98400000D03*
X126150000Y-127550000D03*
X126600000Y-130000000D03*
X146850000Y-99200000D03*
X130700000Y-122350000D03*
X133750000Y-116900000D03*
X131100000Y-91500000D03*
X145800000Y-117100000D03*
X146150000Y-91100000D03*
X146650000Y-122550000D03*
X151750000Y-116350000D03*
X151250000Y-109500000D03*
X141250000Y-91750000D03*
X149050000Y-83100000D03*
X147100000Y-88850000D03*
X127050000Y-116900000D03*
X149650000Y-87400000D03*
X130048000Y-103886000D03*
X138250000Y-138650000D03*
X133096000Y-103378000D03*
X130800000Y-116650000D03*
X131950000Y-94850000D03*
X128150000Y-122950000D03*
X150200000Y-101850000D03*
X152150000Y-106700000D03*
X151250000Y-93000000D03*
X134100000Y-94400000D03*
X149700000Y-111650000D03*
X142240000Y-106553000D03*
X151800000Y-119650000D03*
X130600000Y-99550000D03*
X131350000Y-88900000D03*
X152450000Y-114700000D03*
X138800000Y-83550000D03*
X130600000Y-125500000D03*
X136250000Y-90350000D03*
X148550000Y-105850000D03*
X151550000Y-99150000D03*
%TO.N,+3V3*%
X129921000Y-127000000D03*
X145034000Y-112776000D03*
X142748000Y-114046000D03*
X148971000Y-126873000D03*
X136652000Y-105918000D03*
X129159000Y-113284000D03*
%TO.N,BOOT*%
X132715000Y-89789000D03*
%TO.N,STATUS_LED*%
X139573000Y-128524000D03*
%TO.N,USART1_TX*%
X134874000Y-112649000D03*
%TO.N,USART1_RX*%
X136017000Y-115062000D03*
%TO.N,SWCLK*%
X141986000Y-98298000D03*
X142748000Y-103632000D03*
%TO.N,SWDIO*%
X140462000Y-96647000D03*
X144907000Y-106807000D03*
%TD*%
%TA.AperFunction,Conductor*%
%TO.N,+5V*%
G36*
X154727243Y-76835669D02*
G01*
X154857462Y-76842494D01*
X155056891Y-76853695D01*
X155069279Y-76855020D01*
X155224090Y-76879540D01*
X155225355Y-76879748D01*
X155397022Y-76908915D01*
X155408324Y-76911383D01*
X155564557Y-76953246D01*
X155566779Y-76953863D01*
X155729163Y-77000645D01*
X155739235Y-77004022D01*
X155892216Y-77062746D01*
X155895155Y-77063919D01*
X156049378Y-77127801D01*
X156058206Y-77131870D01*
X156205092Y-77206712D01*
X156208745Y-77208651D01*
X156353948Y-77288902D01*
X156361485Y-77293425D01*
X156500257Y-77383545D01*
X156504385Y-77386349D01*
X156639245Y-77482037D01*
X156645494Y-77486775D01*
X156702242Y-77532729D01*
X156774292Y-77591075D01*
X156778882Y-77594981D01*
X156901970Y-77704978D01*
X156907025Y-77709757D01*
X157024241Y-77826973D01*
X157029020Y-77832028D01*
X157139017Y-77955116D01*
X157142923Y-77959706D01*
X157223903Y-78059707D01*
X157239949Y-78079522D01*
X157247211Y-78088489D01*
X157251969Y-78094764D01*
X157347635Y-78229593D01*
X157350468Y-78233764D01*
X157390177Y-78294909D01*
X157440568Y-78372505D01*
X157445101Y-78380059D01*
X157525338Y-78525237D01*
X157527295Y-78528923D01*
X157602125Y-78675786D01*
X157606201Y-78684628D01*
X157670064Y-78838806D01*
X157671267Y-78841821D01*
X157729969Y-78994744D01*
X157733359Y-79004855D01*
X157780131Y-79167208D01*
X157780752Y-79169441D01*
X157822612Y-79325663D01*
X157825085Y-79336986D01*
X157854246Y-79508614D01*
X157854471Y-79509983D01*
X157855732Y-79517947D01*
X157859473Y-79541567D01*
X157861000Y-79560960D01*
X157861000Y-86363000D01*
X157841315Y-86430039D01*
X157788511Y-86475794D01*
X157737000Y-86487000D01*
X156036819Y-86487000D01*
X155969780Y-86467315D01*
X155924025Y-86414511D01*
X155914081Y-86345353D01*
X155937552Y-86288689D01*
X156017353Y-86182088D01*
X156017354Y-86182086D01*
X156067596Y-86047379D01*
X156067598Y-86047372D01*
X156073999Y-85987844D01*
X156074000Y-85987827D01*
X156074000Y-85340000D01*
X155157686Y-85340000D01*
X155183493Y-85299844D01*
X155224000Y-85161889D01*
X155224000Y-85018111D01*
X155183493Y-84880156D01*
X155157686Y-84840000D01*
X156074000Y-84840000D01*
X156074000Y-84192172D01*
X156073999Y-84192155D01*
X156067598Y-84132627D01*
X156067596Y-84132620D01*
X156017354Y-83997913D01*
X156017350Y-83997906D01*
X155931190Y-83882812D01*
X155931187Y-83882809D01*
X155816093Y-83796649D01*
X155816086Y-83796645D01*
X155681379Y-83746403D01*
X155681372Y-83746401D01*
X155621844Y-83740000D01*
X154974000Y-83740000D01*
X154974000Y-84654498D01*
X154866315Y-84605320D01*
X154759763Y-84590000D01*
X154688237Y-84590000D01*
X154581685Y-84605320D01*
X154474000Y-84654498D01*
X154474000Y-83740000D01*
X153826155Y-83740000D01*
X153766627Y-83746401D01*
X153766620Y-83746403D01*
X153631913Y-83796645D01*
X153631906Y-83796649D01*
X153516812Y-83882809D01*
X153516809Y-83882812D01*
X153430649Y-83997906D01*
X153430645Y-83997913D01*
X153380403Y-84132620D01*
X153380401Y-84132627D01*
X153374000Y-84192155D01*
X153374000Y-84840000D01*
X154290314Y-84840000D01*
X154264507Y-84880156D01*
X154224000Y-85018111D01*
X154224000Y-85161889D01*
X154264507Y-85299844D01*
X154290314Y-85340000D01*
X153374000Y-85340000D01*
X153374000Y-85987844D01*
X153380401Y-86047372D01*
X153380403Y-86047379D01*
X153430645Y-86182086D01*
X153430646Y-86182088D01*
X153510448Y-86288689D01*
X153534865Y-86354153D01*
X153520014Y-86422426D01*
X153470609Y-86471832D01*
X153411181Y-86487000D01*
X147752615Y-86487000D01*
X147685576Y-86467315D01*
X147639821Y-86414511D01*
X147638054Y-86410452D01*
X147580862Y-86272377D01*
X147580861Y-86272376D01*
X147580861Y-86272375D01*
X147492621Y-86157379D01*
X147377625Y-86069139D01*
X147377624Y-86069138D01*
X147377622Y-86069137D01*
X147243712Y-86013671D01*
X147243710Y-86013670D01*
X147243709Y-86013670D01*
X147171854Y-86004210D01*
X147100001Y-85994750D01*
X147099999Y-85994750D01*
X146956291Y-86013670D01*
X146956287Y-86013671D01*
X146822377Y-86069137D01*
X146707379Y-86157379D01*
X146619137Y-86272377D01*
X146561946Y-86410452D01*
X146518105Y-86464856D01*
X146451811Y-86486921D01*
X146447385Y-86487000D01*
X136814867Y-86487000D01*
X136747828Y-86467315D01*
X136716492Y-86438487D01*
X136692624Y-86407382D01*
X136692622Y-86407380D01*
X136692621Y-86407379D01*
X136577625Y-86319139D01*
X136577624Y-86319138D01*
X136577622Y-86319137D01*
X136443712Y-86263671D01*
X136443710Y-86263670D01*
X136443709Y-86263670D01*
X136371854Y-86254210D01*
X136300001Y-86244750D01*
X136299999Y-86244750D01*
X136156291Y-86263670D01*
X136156287Y-86263671D01*
X136022377Y-86319137D01*
X135907375Y-86407382D01*
X135883508Y-86438487D01*
X135827080Y-86479689D01*
X135785133Y-86487000D01*
X130682999Y-86487000D01*
X127762000Y-89407999D01*
X127762000Y-101476000D01*
X127742315Y-101543039D01*
X127689511Y-101588794D01*
X127638000Y-101600000D01*
X125649198Y-101600000D01*
X125582159Y-101580315D01*
X125536404Y-101527511D01*
X125526460Y-101458353D01*
X125535595Y-101430899D01*
X125534254Y-101430399D01*
X125587596Y-101287379D01*
X125587598Y-101287372D01*
X125593999Y-101227844D01*
X125594000Y-101227827D01*
X125594000Y-100580000D01*
X124677686Y-100580000D01*
X124703493Y-100539844D01*
X124744000Y-100401889D01*
X124744000Y-100258111D01*
X124703493Y-100120156D01*
X124677686Y-100080000D01*
X125594000Y-100080000D01*
X125594000Y-99432172D01*
X125593999Y-99432155D01*
X125587598Y-99372627D01*
X125587596Y-99372620D01*
X125537354Y-99237913D01*
X125537350Y-99237906D01*
X125451190Y-99122812D01*
X125451187Y-99122809D01*
X125336093Y-99036649D01*
X125336086Y-99036645D01*
X125201379Y-98986403D01*
X125201372Y-98986401D01*
X125141844Y-98980000D01*
X124494000Y-98980000D01*
X124494000Y-99894498D01*
X124386315Y-99845320D01*
X124279763Y-99830000D01*
X124208237Y-99830000D01*
X124101685Y-99845320D01*
X123994000Y-99894498D01*
X123994000Y-98980000D01*
X123346155Y-98980000D01*
X123286627Y-98986401D01*
X123286620Y-98986403D01*
X123151913Y-99036645D01*
X123151906Y-99036649D01*
X123036812Y-99122809D01*
X123036809Y-99122812D01*
X122950649Y-99237906D01*
X122950645Y-99237913D01*
X122900403Y-99372620D01*
X122900401Y-99372627D01*
X122894000Y-99432155D01*
X122894000Y-100080000D01*
X123810314Y-100080000D01*
X123784507Y-100120156D01*
X123744000Y-100258111D01*
X123744000Y-100401889D01*
X123784507Y-100539844D01*
X123810314Y-100580000D01*
X122894000Y-100580000D01*
X122894000Y-101227844D01*
X122900401Y-101287372D01*
X122900403Y-101287379D01*
X122953746Y-101430399D01*
X122950877Y-101431468D01*
X122962485Y-101484864D01*
X122938058Y-101550325D01*
X122882119Y-101592188D01*
X122838802Y-101600000D01*
X121193500Y-101600000D01*
X121126461Y-101580315D01*
X121080706Y-101527511D01*
X121069500Y-101476000D01*
X121069500Y-95250000D01*
X123088571Y-95250000D01*
X123108244Y-95462310D01*
X123152866Y-95619139D01*
X123166596Y-95667392D01*
X123166596Y-95667394D01*
X123261632Y-95858253D01*
X123364711Y-95994750D01*
X123390128Y-96028407D01*
X123547698Y-96172052D01*
X123728981Y-96284298D01*
X123927802Y-96361321D01*
X124137390Y-96400500D01*
X124137392Y-96400500D01*
X124350608Y-96400500D01*
X124350610Y-96400500D01*
X124560198Y-96361321D01*
X124759019Y-96284298D01*
X124940302Y-96172052D01*
X125019339Y-96100000D01*
X126244750Y-96100000D01*
X126263670Y-96243708D01*
X126263671Y-96243712D01*
X126319137Y-96377622D01*
X126319138Y-96377624D01*
X126319139Y-96377625D01*
X126407379Y-96492621D01*
X126522375Y-96580861D01*
X126656291Y-96636330D01*
X126783280Y-96653048D01*
X126799999Y-96655250D01*
X126800000Y-96655250D01*
X126800001Y-96655250D01*
X126814977Y-96653278D01*
X126943709Y-96636330D01*
X127077625Y-96580861D01*
X127192621Y-96492621D01*
X127280861Y-96377625D01*
X127336330Y-96243709D01*
X127355250Y-96100000D01*
X127336330Y-95956291D01*
X127295066Y-95856670D01*
X127280862Y-95822377D01*
X127280861Y-95822376D01*
X127280861Y-95822375D01*
X127192621Y-95707379D01*
X127077625Y-95619139D01*
X127077624Y-95619138D01*
X127077622Y-95619137D01*
X126943712Y-95563671D01*
X126943710Y-95563670D01*
X126943709Y-95563670D01*
X126871854Y-95554210D01*
X126800001Y-95544750D01*
X126799999Y-95544750D01*
X126656291Y-95563670D01*
X126656287Y-95563671D01*
X126522377Y-95619137D01*
X126407379Y-95707379D01*
X126319137Y-95822377D01*
X126263671Y-95956287D01*
X126263670Y-95956291D01*
X126244750Y-96099999D01*
X126244750Y-96100000D01*
X125019339Y-96100000D01*
X125097872Y-96028407D01*
X125226366Y-95858255D01*
X125244232Y-95822375D01*
X125321403Y-95667394D01*
X125321403Y-95667393D01*
X125321405Y-95667389D01*
X125379756Y-95462310D01*
X125399429Y-95250000D01*
X125379756Y-95037690D01*
X125321405Y-94832611D01*
X125321403Y-94832606D01*
X125321403Y-94832605D01*
X125226367Y-94641746D01*
X125097872Y-94471593D01*
X125082280Y-94457379D01*
X124940302Y-94327948D01*
X124759019Y-94215702D01*
X124759017Y-94215701D01*
X124659608Y-94177190D01*
X124560198Y-94138679D01*
X124363385Y-94101888D01*
X124301106Y-94070221D01*
X124265833Y-94009908D01*
X124268767Y-93940100D01*
X124308976Y-93882960D01*
X124363384Y-93858111D01*
X124560198Y-93821321D01*
X124759019Y-93744298D01*
X124940302Y-93632052D01*
X125097872Y-93488407D01*
X125226366Y-93318255D01*
X125321405Y-93127389D01*
X125379756Y-92922310D01*
X125399429Y-92710000D01*
X125379756Y-92497690D01*
X125321405Y-92292611D01*
X125321403Y-92292606D01*
X125321403Y-92292605D01*
X125226367Y-92101746D01*
X125097872Y-91931593D01*
X125056319Y-91893712D01*
X124940302Y-91787948D01*
X124879014Y-91750000D01*
X125644750Y-91750000D01*
X125663670Y-91893708D01*
X125663671Y-91893712D01*
X125719137Y-92027622D01*
X125719138Y-92027624D01*
X125719139Y-92027625D01*
X125807379Y-92142621D01*
X125922375Y-92230861D01*
X126056291Y-92286330D01*
X126183280Y-92303048D01*
X126199999Y-92305250D01*
X126200000Y-92305250D01*
X126200001Y-92305250D01*
X126214977Y-92303278D01*
X126343709Y-92286330D01*
X126477625Y-92230861D01*
X126592621Y-92142621D01*
X126680861Y-92027625D01*
X126736330Y-91893709D01*
X126755250Y-91750000D01*
X126736330Y-91606291D01*
X126699350Y-91517013D01*
X126680862Y-91472377D01*
X126680861Y-91472376D01*
X126680861Y-91472375D01*
X126592621Y-91357379D01*
X126477625Y-91269139D01*
X126477624Y-91269138D01*
X126477622Y-91269137D01*
X126343712Y-91213671D01*
X126343710Y-91213670D01*
X126343709Y-91213670D01*
X126271854Y-91204210D01*
X126200001Y-91194750D01*
X126199999Y-91194750D01*
X126056291Y-91213670D01*
X126056287Y-91213671D01*
X125922377Y-91269137D01*
X125807379Y-91357379D01*
X125719137Y-91472377D01*
X125663671Y-91606287D01*
X125663670Y-91606291D01*
X125644750Y-91749999D01*
X125644750Y-91750000D01*
X124879014Y-91750000D01*
X124759019Y-91675702D01*
X124759017Y-91675701D01*
X124579847Y-91606291D01*
X124560198Y-91598679D01*
X124363385Y-91561888D01*
X124301106Y-91530221D01*
X124265833Y-91469908D01*
X124268767Y-91400100D01*
X124308976Y-91342960D01*
X124363384Y-91318111D01*
X124560198Y-91281321D01*
X124759019Y-91204298D01*
X124940302Y-91092052D01*
X125097872Y-90948407D01*
X125226366Y-90778255D01*
X125226367Y-90778253D01*
X125321403Y-90587394D01*
X125321403Y-90587393D01*
X125321405Y-90587389D01*
X125379756Y-90382310D01*
X125399429Y-90170000D01*
X125379756Y-89957690D01*
X125321405Y-89752611D01*
X125321403Y-89752606D01*
X125321403Y-89752605D01*
X125226367Y-89561746D01*
X125097872Y-89391593D01*
X125086100Y-89380861D01*
X124940302Y-89247948D01*
X124759019Y-89135702D01*
X124759017Y-89135701D01*
X124659608Y-89097190D01*
X124560198Y-89058679D01*
X124363385Y-89021888D01*
X124301106Y-88990221D01*
X124265833Y-88929908D01*
X124268767Y-88860100D01*
X124308976Y-88802960D01*
X124363384Y-88778111D01*
X124560198Y-88741321D01*
X124759019Y-88664298D01*
X124940302Y-88552052D01*
X125097872Y-88408407D01*
X125226366Y-88238255D01*
X125264670Y-88161330D01*
X125321403Y-88047394D01*
X125321403Y-88047393D01*
X125321405Y-88047389D01*
X125379756Y-87842310D01*
X125399429Y-87630000D01*
X125379756Y-87417690D01*
X125321405Y-87212611D01*
X125321403Y-87212606D01*
X125321403Y-87212605D01*
X125226367Y-87021746D01*
X125097872Y-86851593D01*
X125090366Y-86844750D01*
X124986431Y-86750000D01*
X125794750Y-86750000D01*
X125813670Y-86893708D01*
X125813671Y-86893712D01*
X125869137Y-87027622D01*
X125869138Y-87027624D01*
X125869139Y-87027625D01*
X125957379Y-87142621D01*
X126072375Y-87230861D01*
X126072376Y-87230861D01*
X126072377Y-87230862D01*
X126117013Y-87249350D01*
X126206291Y-87286330D01*
X126333280Y-87303048D01*
X126349999Y-87305250D01*
X126350000Y-87305250D01*
X126350001Y-87305250D01*
X126364977Y-87303278D01*
X126493709Y-87286330D01*
X126627625Y-87230861D01*
X126742621Y-87142621D01*
X126830861Y-87027625D01*
X126886330Y-86893709D01*
X126905250Y-86750000D01*
X126886330Y-86606291D01*
X126830861Y-86472375D01*
X126742621Y-86357379D01*
X126627625Y-86269139D01*
X126627624Y-86269138D01*
X126627622Y-86269137D01*
X126493712Y-86213671D01*
X126493710Y-86213670D01*
X126493709Y-86213670D01*
X126421854Y-86204210D01*
X126350001Y-86194750D01*
X126349999Y-86194750D01*
X126206291Y-86213670D01*
X126206287Y-86213671D01*
X126072377Y-86269137D01*
X125957379Y-86357379D01*
X125869137Y-86472377D01*
X125813671Y-86606287D01*
X125813670Y-86606291D01*
X125794750Y-86749999D01*
X125794750Y-86750000D01*
X124986431Y-86750000D01*
X124940302Y-86707948D01*
X124759019Y-86595702D01*
X124759017Y-86595701D01*
X124659608Y-86557190D01*
X124560198Y-86518679D01*
X124387456Y-86486387D01*
X124325176Y-86454719D01*
X124289903Y-86394407D01*
X124292837Y-86324599D01*
X124333046Y-86267459D01*
X124397764Y-86241128D01*
X124410233Y-86240499D01*
X125138864Y-86240499D01*
X125138879Y-86240497D01*
X125138882Y-86240497D01*
X125163987Y-86237586D01*
X125163988Y-86237585D01*
X125163991Y-86237585D01*
X125266765Y-86192206D01*
X125346206Y-86112765D01*
X125391585Y-86009991D01*
X125394500Y-85984865D01*
X125394500Y-85350000D01*
X140194750Y-85350000D01*
X140213670Y-85493708D01*
X140213671Y-85493712D01*
X140269137Y-85627622D01*
X140269138Y-85627624D01*
X140269139Y-85627625D01*
X140357379Y-85742621D01*
X140472375Y-85830861D01*
X140606291Y-85886330D01*
X140733280Y-85903048D01*
X140749999Y-85905250D01*
X140750000Y-85905250D01*
X140750001Y-85905250D01*
X140764977Y-85903278D01*
X140893709Y-85886330D01*
X141027625Y-85830861D01*
X141142621Y-85742621D01*
X141230861Y-85627625D01*
X141286330Y-85493709D01*
X141305250Y-85350000D01*
X141303933Y-85340000D01*
X141303048Y-85333280D01*
X141286330Y-85206291D01*
X141230861Y-85072375D01*
X141142621Y-84957379D01*
X141027625Y-84869139D01*
X141027624Y-84869138D01*
X141027622Y-84869137D01*
X140893712Y-84813671D01*
X140893710Y-84813670D01*
X140893709Y-84813670D01*
X140821854Y-84804210D01*
X140750001Y-84794750D01*
X140749999Y-84794750D01*
X140606291Y-84813670D01*
X140606287Y-84813671D01*
X140472377Y-84869137D01*
X140357379Y-84957379D01*
X140269137Y-85072377D01*
X140213671Y-85206287D01*
X140213670Y-85206291D01*
X140194750Y-85349999D01*
X140194750Y-85350000D01*
X125394500Y-85350000D01*
X125394499Y-84195136D01*
X125394497Y-84195117D01*
X125391586Y-84170012D01*
X125391585Y-84170010D01*
X125391585Y-84170009D01*
X125346206Y-84067235D01*
X125266765Y-83987794D01*
X125266763Y-83987793D01*
X125163992Y-83942415D01*
X125138865Y-83939500D01*
X123349143Y-83939500D01*
X123349117Y-83939502D01*
X123324012Y-83942413D01*
X123324008Y-83942415D01*
X123221235Y-83987793D01*
X123141794Y-84067234D01*
X123096415Y-84170006D01*
X123096415Y-84170008D01*
X123093500Y-84195131D01*
X123093500Y-85984856D01*
X123093502Y-85984882D01*
X123096413Y-86009987D01*
X123096415Y-86009991D01*
X123141793Y-86112764D01*
X123141794Y-86112765D01*
X123221235Y-86192206D01*
X123324009Y-86237585D01*
X123349135Y-86240500D01*
X124077758Y-86240499D01*
X124144795Y-86260183D01*
X124190550Y-86312987D01*
X124200494Y-86382146D01*
X124171469Y-86445702D01*
X124112691Y-86483476D01*
X124100542Y-86486388D01*
X124044116Y-86496935D01*
X123927802Y-86518679D01*
X123927800Y-86518679D01*
X123927798Y-86518680D01*
X123728982Y-86595701D01*
X123728980Y-86595702D01*
X123547699Y-86707947D01*
X123390127Y-86851593D01*
X123261632Y-87021746D01*
X123166596Y-87212605D01*
X123166596Y-87212607D01*
X123128251Y-87347375D01*
X123108244Y-87417690D01*
X123088571Y-87630000D01*
X123108244Y-87842310D01*
X123165238Y-88042621D01*
X123166596Y-88047392D01*
X123166596Y-88047394D01*
X123261632Y-88238253D01*
X123304297Y-88294750D01*
X123390128Y-88408407D01*
X123547698Y-88552052D01*
X123728981Y-88664298D01*
X123927802Y-88741321D01*
X124124613Y-88778111D01*
X124186893Y-88809779D01*
X124222166Y-88870092D01*
X124219232Y-88939900D01*
X124179023Y-88997040D01*
X124124613Y-89021888D01*
X123927802Y-89058679D01*
X123927799Y-89058679D01*
X123927799Y-89058680D01*
X123728982Y-89135701D01*
X123728980Y-89135702D01*
X123547699Y-89247947D01*
X123390127Y-89391593D01*
X123261632Y-89561746D01*
X123166596Y-89752605D01*
X123166596Y-89752607D01*
X123108244Y-89957689D01*
X123088571Y-90169999D01*
X123088571Y-90170000D01*
X123108244Y-90382310D01*
X123166596Y-90587392D01*
X123166596Y-90587394D01*
X123261632Y-90778253D01*
X123387366Y-90944750D01*
X123390128Y-90948407D01*
X123547698Y-91092052D01*
X123728981Y-91204298D01*
X123927802Y-91281321D01*
X124124613Y-91318111D01*
X124186893Y-91349779D01*
X124222166Y-91410092D01*
X124219232Y-91479900D01*
X124179023Y-91537040D01*
X124124613Y-91561888D01*
X123927802Y-91598679D01*
X123927799Y-91598679D01*
X123927799Y-91598680D01*
X123728982Y-91675701D01*
X123728980Y-91675702D01*
X123547699Y-91787947D01*
X123390127Y-91931593D01*
X123261632Y-92101746D01*
X123166596Y-92292605D01*
X123166596Y-92292607D01*
X123108244Y-92497689D01*
X123088571Y-92709999D01*
X123088571Y-92710000D01*
X123108244Y-92922310D01*
X123166596Y-93127392D01*
X123166596Y-93127394D01*
X123261632Y-93318253D01*
X123261634Y-93318255D01*
X123390128Y-93488407D01*
X123547698Y-93632052D01*
X123728981Y-93744298D01*
X123927802Y-93821321D01*
X124124613Y-93858111D01*
X124186893Y-93889779D01*
X124222166Y-93950092D01*
X124219232Y-94019900D01*
X124179023Y-94077040D01*
X124124613Y-94101888D01*
X123927802Y-94138679D01*
X123927799Y-94138679D01*
X123927799Y-94138680D01*
X123728982Y-94215701D01*
X123728980Y-94215702D01*
X123547699Y-94327947D01*
X123390127Y-94471593D01*
X123261632Y-94641746D01*
X123166596Y-94832605D01*
X123166596Y-94832607D01*
X123131701Y-94955250D01*
X123108244Y-95037690D01*
X123088571Y-95250000D01*
X121069500Y-95250000D01*
X121069500Y-83550000D01*
X138244750Y-83550000D01*
X138263670Y-83693708D01*
X138263671Y-83693712D01*
X138319137Y-83827622D01*
X138319138Y-83827624D01*
X138319139Y-83827625D01*
X138407379Y-83942621D01*
X138522375Y-84030861D01*
X138656291Y-84086330D01*
X138783280Y-84103048D01*
X138799999Y-84105250D01*
X138800000Y-84105250D01*
X138800001Y-84105250D01*
X138814977Y-84103278D01*
X138943709Y-84086330D01*
X139077625Y-84030861D01*
X139192621Y-83942621D01*
X139280861Y-83827625D01*
X139336330Y-83693709D01*
X139355250Y-83550000D01*
X139336330Y-83406291D01*
X139280861Y-83272375D01*
X139192621Y-83157379D01*
X139117844Y-83100000D01*
X148494750Y-83100000D01*
X148513670Y-83243708D01*
X148513671Y-83243712D01*
X148569137Y-83377622D01*
X148569138Y-83377624D01*
X148569139Y-83377625D01*
X148657379Y-83492621D01*
X148772375Y-83580861D01*
X148906291Y-83636330D01*
X149033280Y-83653048D01*
X149049999Y-83655250D01*
X149050000Y-83655250D01*
X149050001Y-83655250D01*
X149064977Y-83653278D01*
X149193709Y-83636330D01*
X149327625Y-83580861D01*
X149442621Y-83492621D01*
X149530861Y-83377625D01*
X149586330Y-83243709D01*
X149605250Y-83100000D01*
X149586330Y-82956291D01*
X149530861Y-82822375D01*
X149442621Y-82707379D01*
X149327625Y-82619139D01*
X149327624Y-82619138D01*
X149327622Y-82619137D01*
X149193712Y-82563671D01*
X149193710Y-82563670D01*
X149193709Y-82563670D01*
X149121854Y-82554210D01*
X149050001Y-82544750D01*
X149049999Y-82544750D01*
X148906291Y-82563670D01*
X148906287Y-82563671D01*
X148772377Y-82619137D01*
X148657379Y-82707379D01*
X148569137Y-82822377D01*
X148513671Y-82956287D01*
X148513670Y-82956291D01*
X148494750Y-83099999D01*
X148494750Y-83100000D01*
X139117844Y-83100000D01*
X139077625Y-83069139D01*
X139077624Y-83069138D01*
X139077622Y-83069137D01*
X138943712Y-83013671D01*
X138943710Y-83013670D01*
X138943709Y-83013670D01*
X138871854Y-83004210D01*
X138800001Y-82994750D01*
X138799999Y-82994750D01*
X138656291Y-83013670D01*
X138656287Y-83013671D01*
X138522377Y-83069137D01*
X138407379Y-83157379D01*
X138319137Y-83272377D01*
X138263671Y-83406287D01*
X138263670Y-83406291D01*
X138244750Y-83549999D01*
X138244750Y-83550000D01*
X121069500Y-83550000D01*
X121069500Y-80013244D01*
X121069585Y-80010005D01*
X121738556Y-80010005D01*
X121758310Y-80324004D01*
X121758311Y-80324011D01*
X121786282Y-80470639D01*
X121805062Y-80569090D01*
X121817270Y-80633083D01*
X121914497Y-80932316D01*
X121914499Y-80932321D01*
X122048461Y-81217003D01*
X122048464Y-81217009D01*
X122217051Y-81482661D01*
X122217054Y-81482665D01*
X122417606Y-81725090D01*
X122417608Y-81725092D01*
X122646968Y-81940476D01*
X122646978Y-81940484D01*
X122901504Y-82125408D01*
X122901509Y-82125410D01*
X122901516Y-82125416D01*
X123177234Y-82276994D01*
X123177239Y-82276996D01*
X123177241Y-82276997D01*
X123177242Y-82276998D01*
X123469771Y-82392818D01*
X123469774Y-82392819D01*
X123774523Y-82471065D01*
X123774527Y-82471066D01*
X123840010Y-82479338D01*
X124086670Y-82510499D01*
X124086679Y-82510499D01*
X124086682Y-82510500D01*
X124086684Y-82510500D01*
X124401316Y-82510500D01*
X124401318Y-82510500D01*
X124401321Y-82510499D01*
X124401329Y-82510499D01*
X124587593Y-82486968D01*
X124713473Y-82471066D01*
X125018225Y-82392819D01*
X125153245Y-82339361D01*
X125310757Y-82276998D01*
X125310758Y-82276997D01*
X125310756Y-82276997D01*
X125310766Y-82276994D01*
X125586484Y-82125416D01*
X125841030Y-81940478D01*
X126070390Y-81725094D01*
X126270947Y-81482663D01*
X126320233Y-81405000D01*
X128358659Y-81405000D01*
X128377975Y-81601129D01*
X128377976Y-81601132D01*
X128415578Y-81725090D01*
X128435188Y-81789733D01*
X128528086Y-81963532D01*
X128528090Y-81963539D01*
X128653116Y-82115883D01*
X128805460Y-82240909D01*
X128805467Y-82240913D01*
X128979266Y-82333811D01*
X128979269Y-82333811D01*
X128979273Y-82333814D01*
X129167868Y-82391024D01*
X129364000Y-82410341D01*
X129560132Y-82391024D01*
X129748727Y-82333814D01*
X129922538Y-82240910D01*
X130074883Y-82115883D01*
X130199910Y-81963538D01*
X130292814Y-81789727D01*
X130350024Y-81601132D01*
X130369341Y-81405000D01*
X130858659Y-81405000D01*
X130877975Y-81601129D01*
X130877976Y-81601132D01*
X130915578Y-81725090D01*
X130935188Y-81789733D01*
X131028086Y-81963532D01*
X131028090Y-81963539D01*
X131153116Y-82115883D01*
X131305460Y-82240909D01*
X131305467Y-82240913D01*
X131479266Y-82333811D01*
X131479269Y-82333811D01*
X131479273Y-82333814D01*
X131667868Y-82391024D01*
X131864000Y-82410341D01*
X132060132Y-82391024D01*
X132248727Y-82333814D01*
X132422538Y-82240910D01*
X132574883Y-82115883D01*
X132699910Y-81963538D01*
X132734886Y-81898102D01*
X133363500Y-81898102D01*
X133369126Y-81944954D01*
X133374122Y-81986561D01*
X133429639Y-82127343D01*
X133521077Y-82247922D01*
X133641656Y-82339360D01*
X133641657Y-82339360D01*
X133641658Y-82339361D01*
X133782436Y-82394877D01*
X133870898Y-82405500D01*
X133870903Y-82405500D01*
X134857097Y-82405500D01*
X134857102Y-82405500D01*
X134945564Y-82394877D01*
X135086342Y-82339361D01*
X135206922Y-82247922D01*
X135298361Y-82127342D01*
X135353877Y-81986564D01*
X135364500Y-81898102D01*
X135364500Y-80911898D01*
X135363654Y-80904856D01*
X138333500Y-80904856D01*
X138333502Y-80904882D01*
X138336413Y-80929987D01*
X138336415Y-80929991D01*
X138381793Y-81032764D01*
X138381794Y-81032765D01*
X138461235Y-81112206D01*
X138564009Y-81157585D01*
X138589135Y-81160500D01*
X140378864Y-81160499D01*
X140378879Y-81160497D01*
X140378882Y-81160497D01*
X140403987Y-81157586D01*
X140403988Y-81157585D01*
X140403991Y-81157585D01*
X140506765Y-81112206D01*
X140586206Y-81032765D01*
X140631585Y-80929991D01*
X140634500Y-80904865D01*
X140634499Y-80166046D01*
X140654183Y-80099009D01*
X140706987Y-80053254D01*
X140776146Y-80043310D01*
X140839702Y-80072335D01*
X140877476Y-80131113D01*
X140881970Y-80154606D01*
X140888244Y-80222310D01*
X140940082Y-80404500D01*
X140946596Y-80427392D01*
X140946596Y-80427394D01*
X141041632Y-80618253D01*
X141170127Y-80788406D01*
X141170128Y-80788407D01*
X141327698Y-80932052D01*
X141508981Y-81044298D01*
X141707802Y-81121321D01*
X141917390Y-81160500D01*
X141917392Y-81160500D01*
X142130608Y-81160500D01*
X142130610Y-81160500D01*
X142340198Y-81121321D01*
X142539019Y-81044298D01*
X142720302Y-80932052D01*
X142877872Y-80788407D01*
X143006366Y-80618255D01*
X143034339Y-80562077D01*
X143101403Y-80427394D01*
X143101403Y-80427393D01*
X143101405Y-80427389D01*
X143159756Y-80222310D01*
X143170529Y-80106047D01*
X143196315Y-80041111D01*
X143238622Y-80010804D01*
X143347130Y-80010804D01*
X143383503Y-80031668D01*
X143415693Y-80093681D01*
X143417470Y-80106047D01*
X143428244Y-80222310D01*
X143480082Y-80404500D01*
X143486596Y-80427392D01*
X143486596Y-80427394D01*
X143581632Y-80618253D01*
X143710127Y-80788406D01*
X143710128Y-80788407D01*
X143867698Y-80932052D01*
X144048981Y-81044298D01*
X144247802Y-81121321D01*
X144457390Y-81160500D01*
X144457392Y-81160500D01*
X144670608Y-81160500D01*
X144670610Y-81160500D01*
X144880198Y-81121321D01*
X145079019Y-81044298D01*
X145260302Y-80932052D01*
X145417872Y-80788407D01*
X145546366Y-80618255D01*
X145574339Y-80562077D01*
X145641403Y-80427394D01*
X145641403Y-80427393D01*
X145641405Y-80427389D01*
X145699756Y-80222310D01*
X145710529Y-80106047D01*
X145736315Y-80041111D01*
X145778622Y-80010804D01*
X145887130Y-80010804D01*
X145923503Y-80031668D01*
X145955693Y-80093681D01*
X145957470Y-80106047D01*
X145968244Y-80222310D01*
X146020082Y-80404500D01*
X146026596Y-80427392D01*
X146026596Y-80427394D01*
X146121632Y-80618253D01*
X146250127Y-80788406D01*
X146250128Y-80788407D01*
X146407698Y-80932052D01*
X146588981Y-81044298D01*
X146787802Y-81121321D01*
X146997390Y-81160500D01*
X146997392Y-81160500D01*
X147210608Y-81160500D01*
X147210610Y-81160500D01*
X147420198Y-81121321D01*
X147619019Y-81044298D01*
X147800302Y-80932052D01*
X147957872Y-80788407D01*
X148086366Y-80618255D01*
X148114339Y-80562077D01*
X148181403Y-80427394D01*
X148181403Y-80427393D01*
X148181405Y-80427389D01*
X148239756Y-80222310D01*
X148250529Y-80106047D01*
X148276315Y-80041111D01*
X148318622Y-80010804D01*
X148427130Y-80010804D01*
X148463503Y-80031668D01*
X148495693Y-80093681D01*
X148497470Y-80106047D01*
X148508244Y-80222310D01*
X148560082Y-80404500D01*
X148566596Y-80427392D01*
X148566596Y-80427394D01*
X148661632Y-80618253D01*
X148790127Y-80788406D01*
X148790128Y-80788407D01*
X148947698Y-80932052D01*
X149128981Y-81044298D01*
X149327802Y-81121321D01*
X149537390Y-81160500D01*
X149537392Y-81160500D01*
X149750608Y-81160500D01*
X149750610Y-81160500D01*
X149960198Y-81121321D01*
X150159019Y-81044298D01*
X150340302Y-80932052D01*
X150497872Y-80788407D01*
X150626366Y-80618255D01*
X150654339Y-80562077D01*
X150721403Y-80427394D01*
X150721403Y-80427393D01*
X150721405Y-80427389D01*
X150779756Y-80222310D01*
X150799429Y-80010005D01*
X152218556Y-80010005D01*
X152238310Y-80324004D01*
X152238311Y-80324011D01*
X152266282Y-80470639D01*
X152285062Y-80569090D01*
X152297270Y-80633083D01*
X152394497Y-80932316D01*
X152394499Y-80932321D01*
X152528461Y-81217003D01*
X152528464Y-81217009D01*
X152697051Y-81482661D01*
X152697054Y-81482665D01*
X152897606Y-81725090D01*
X152897608Y-81725092D01*
X153126968Y-81940476D01*
X153126978Y-81940484D01*
X153381504Y-82125408D01*
X153381509Y-82125410D01*
X153381516Y-82125416D01*
X153657234Y-82276994D01*
X153657239Y-82276996D01*
X153657241Y-82276997D01*
X153657242Y-82276998D01*
X153949771Y-82392818D01*
X153949774Y-82392819D01*
X154254523Y-82471065D01*
X154254527Y-82471066D01*
X154320010Y-82479338D01*
X154566670Y-82510499D01*
X154566679Y-82510499D01*
X154566682Y-82510500D01*
X154566684Y-82510500D01*
X154881316Y-82510500D01*
X154881318Y-82510500D01*
X154881321Y-82510499D01*
X154881329Y-82510499D01*
X155067593Y-82486968D01*
X155193473Y-82471066D01*
X155498225Y-82392819D01*
X155633245Y-82339361D01*
X155790757Y-82276998D01*
X155790758Y-82276997D01*
X155790756Y-82276997D01*
X155790766Y-82276994D01*
X156066484Y-82125416D01*
X156321030Y-81940478D01*
X156550390Y-81725094D01*
X156750947Y-81482663D01*
X156919537Y-81217007D01*
X157053503Y-80932315D01*
X157150731Y-80633079D01*
X157209688Y-80324015D01*
X157216087Y-80222310D01*
X157229444Y-80010005D01*
X157229444Y-80009994D01*
X157209689Y-79695995D01*
X157209688Y-79695988D01*
X157209688Y-79695985D01*
X157150731Y-79386921D01*
X157053503Y-79087685D01*
X156919537Y-78802993D01*
X156866116Y-78718815D01*
X156750948Y-78537338D01*
X156750945Y-78537334D01*
X156550393Y-78294909D01*
X156550391Y-78294907D01*
X156321031Y-78079523D01*
X156321021Y-78079515D01*
X156066495Y-77894591D01*
X156066488Y-77894586D01*
X156066484Y-77894584D01*
X155790766Y-77743006D01*
X155790763Y-77743004D01*
X155790758Y-77743002D01*
X155790757Y-77743001D01*
X155498228Y-77627181D01*
X155498225Y-77627180D01*
X155193476Y-77548934D01*
X155193463Y-77548932D01*
X154881329Y-77509500D01*
X154881318Y-77509500D01*
X154566682Y-77509500D01*
X154566670Y-77509500D01*
X154254536Y-77548932D01*
X154254523Y-77548934D01*
X153949774Y-77627180D01*
X153949771Y-77627181D01*
X153657242Y-77743001D01*
X153657241Y-77743002D01*
X153381516Y-77894584D01*
X153381504Y-77894591D01*
X153126978Y-78079515D01*
X153126968Y-78079523D01*
X152897608Y-78294907D01*
X152897606Y-78294909D01*
X152697054Y-78537334D01*
X152697051Y-78537338D01*
X152528464Y-78802990D01*
X152528461Y-78802996D01*
X152394499Y-79087678D01*
X152394497Y-79087683D01*
X152297270Y-79386916D01*
X152238311Y-79695988D01*
X152238310Y-79695995D01*
X152218556Y-80009994D01*
X152218556Y-80010005D01*
X150799429Y-80010005D01*
X150799429Y-80010000D01*
X150799428Y-80009994D01*
X150795817Y-79971018D01*
X150779756Y-79797690D01*
X150721405Y-79592611D01*
X150721403Y-79592606D01*
X150721403Y-79592605D01*
X150626367Y-79401746D01*
X150497872Y-79231593D01*
X150370133Y-79115143D01*
X150340302Y-79087948D01*
X150159019Y-78975702D01*
X150159017Y-78975701D01*
X150059608Y-78937190D01*
X149960198Y-78898679D01*
X149750610Y-78859500D01*
X149537390Y-78859500D01*
X149327802Y-78898679D01*
X149327799Y-78898679D01*
X149327799Y-78898680D01*
X149128982Y-78975701D01*
X149128980Y-78975702D01*
X148947699Y-79087947D01*
X148790127Y-79231593D01*
X148661632Y-79401746D01*
X148566596Y-79592605D01*
X148566596Y-79592607D01*
X148508244Y-79797689D01*
X148497471Y-79913951D01*
X148471685Y-79978888D01*
X148427130Y-80010804D01*
X148318622Y-80010804D01*
X148320869Y-80009194D01*
X148284497Y-79988331D01*
X148252307Y-79926318D01*
X148250529Y-79913951D01*
X148247175Y-79877759D01*
X148239756Y-79797690D01*
X148181405Y-79592611D01*
X148181403Y-79592606D01*
X148181403Y-79592605D01*
X148086367Y-79401746D01*
X147957872Y-79231593D01*
X147830133Y-79115143D01*
X147800302Y-79087948D01*
X147619019Y-78975702D01*
X147619017Y-78975701D01*
X147519608Y-78937190D01*
X147420198Y-78898679D01*
X147210610Y-78859500D01*
X146997390Y-78859500D01*
X146787802Y-78898679D01*
X146787799Y-78898679D01*
X146787799Y-78898680D01*
X146588982Y-78975701D01*
X146588980Y-78975702D01*
X146407699Y-79087947D01*
X146250127Y-79231593D01*
X146121632Y-79401746D01*
X146026596Y-79592605D01*
X146026596Y-79592607D01*
X145968244Y-79797689D01*
X145957471Y-79913951D01*
X145931685Y-79978888D01*
X145887130Y-80010804D01*
X145778622Y-80010804D01*
X145780869Y-80009194D01*
X145744497Y-79988331D01*
X145712307Y-79926318D01*
X145710529Y-79913951D01*
X145707175Y-79877759D01*
X145699756Y-79797690D01*
X145641405Y-79592611D01*
X145641403Y-79592606D01*
X145641403Y-79592605D01*
X145546367Y-79401746D01*
X145417872Y-79231593D01*
X145290133Y-79115143D01*
X145260302Y-79087948D01*
X145079019Y-78975702D01*
X145079017Y-78975701D01*
X144979608Y-78937190D01*
X144880198Y-78898679D01*
X144670610Y-78859500D01*
X144457390Y-78859500D01*
X144247802Y-78898679D01*
X144247799Y-78898679D01*
X144247799Y-78898680D01*
X144048982Y-78975701D01*
X144048980Y-78975702D01*
X143867699Y-79087947D01*
X143710127Y-79231593D01*
X143581632Y-79401746D01*
X143486596Y-79592605D01*
X143486596Y-79592607D01*
X143428244Y-79797689D01*
X143417471Y-79913951D01*
X143391685Y-79978888D01*
X143347130Y-80010804D01*
X143238622Y-80010804D01*
X143240869Y-80009194D01*
X143204497Y-79988331D01*
X143172307Y-79926318D01*
X143170529Y-79913951D01*
X143167175Y-79877759D01*
X143159756Y-79797690D01*
X143101405Y-79592611D01*
X143101403Y-79592606D01*
X143101403Y-79592605D01*
X143006367Y-79401746D01*
X142877872Y-79231593D01*
X142750133Y-79115143D01*
X142720302Y-79087948D01*
X142539019Y-78975702D01*
X142539017Y-78975701D01*
X142439608Y-78937190D01*
X142340198Y-78898679D01*
X142130610Y-78859500D01*
X141917390Y-78859500D01*
X141707802Y-78898679D01*
X141707799Y-78898679D01*
X141707799Y-78898680D01*
X141508982Y-78975701D01*
X141508980Y-78975702D01*
X141327699Y-79087947D01*
X141170127Y-79231593D01*
X141041632Y-79401746D01*
X140946596Y-79592605D01*
X140946596Y-79592607D01*
X140888244Y-79797689D01*
X140881970Y-79865394D01*
X140856183Y-79930331D01*
X140799383Y-79971018D01*
X140729602Y-79974538D01*
X140668995Y-79939772D01*
X140636806Y-79877759D01*
X140634499Y-79853952D01*
X140634499Y-79115143D01*
X140634499Y-79115136D01*
X140631703Y-79091024D01*
X140631586Y-79090012D01*
X140631585Y-79090010D01*
X140631585Y-79090009D01*
X140586206Y-78987235D01*
X140506765Y-78907794D01*
X140486124Y-78898680D01*
X140403992Y-78862415D01*
X140378865Y-78859500D01*
X138589143Y-78859500D01*
X138589117Y-78859502D01*
X138564012Y-78862413D01*
X138564008Y-78862415D01*
X138461235Y-78907793D01*
X138381794Y-78987234D01*
X138336415Y-79090006D01*
X138336415Y-79090008D01*
X138333500Y-79115131D01*
X138333500Y-80904856D01*
X135363654Y-80904856D01*
X135353877Y-80823436D01*
X135298361Y-80682658D01*
X135298360Y-80682657D01*
X135298360Y-80682656D01*
X135206922Y-80562077D01*
X135086343Y-80470639D01*
X134945561Y-80415122D01*
X134899926Y-80409642D01*
X134857102Y-80404500D01*
X133870898Y-80404500D01*
X133831853Y-80409188D01*
X133782438Y-80415122D01*
X133641656Y-80470639D01*
X133521077Y-80562077D01*
X133429639Y-80682656D01*
X133374122Y-80823438D01*
X133371358Y-80846460D01*
X133363500Y-80911898D01*
X133363500Y-81898102D01*
X132734886Y-81898102D01*
X132792814Y-81789727D01*
X132850024Y-81601132D01*
X132869341Y-81405000D01*
X132850024Y-81208868D01*
X132792814Y-81020273D01*
X132792811Y-81020269D01*
X132792811Y-81020266D01*
X132699913Y-80846467D01*
X132699909Y-80846460D01*
X132574883Y-80694116D01*
X132422539Y-80569090D01*
X132422532Y-80569086D01*
X132248733Y-80476188D01*
X132248727Y-80476186D01*
X132060132Y-80418976D01*
X132060129Y-80418975D01*
X131864000Y-80399659D01*
X131667870Y-80418975D01*
X131479266Y-80476188D01*
X131305467Y-80569086D01*
X131305460Y-80569090D01*
X131153116Y-80694116D01*
X131028090Y-80846460D01*
X131028086Y-80846467D01*
X130935188Y-81020266D01*
X130877975Y-81208870D01*
X130858659Y-81405000D01*
X130369341Y-81405000D01*
X130350024Y-81208868D01*
X130292814Y-81020273D01*
X130292811Y-81020269D01*
X130292811Y-81020266D01*
X130199913Y-80846467D01*
X130199909Y-80846460D01*
X130074883Y-80694116D01*
X129922539Y-80569090D01*
X129922532Y-80569086D01*
X129748733Y-80476188D01*
X129748727Y-80476186D01*
X129560132Y-80418976D01*
X129560129Y-80418975D01*
X129364000Y-80399659D01*
X129167870Y-80418975D01*
X128979266Y-80476188D01*
X128805467Y-80569086D01*
X128805460Y-80569090D01*
X128653116Y-80694116D01*
X128528090Y-80846460D01*
X128528086Y-80846467D01*
X128435188Y-81020266D01*
X128377975Y-81208870D01*
X128358659Y-81405000D01*
X126320233Y-81405000D01*
X126439537Y-81217007D01*
X126573503Y-80932315D01*
X126670731Y-80633079D01*
X126729688Y-80324015D01*
X126736087Y-80222310D01*
X126749444Y-80010005D01*
X126749444Y-80009994D01*
X126729689Y-79695995D01*
X126729688Y-79695988D01*
X126729688Y-79695985D01*
X126670731Y-79386921D01*
X126573503Y-79087685D01*
X126439537Y-78802993D01*
X126386116Y-78718815D01*
X126270948Y-78537338D01*
X126270945Y-78537334D01*
X126070393Y-78294909D01*
X126070391Y-78294907D01*
X125868161Y-78105000D01*
X128358659Y-78105000D01*
X128377975Y-78301129D01*
X128435188Y-78489733D01*
X128528086Y-78663532D01*
X128528090Y-78663539D01*
X128653116Y-78815883D01*
X128805460Y-78940909D01*
X128805467Y-78940913D01*
X128979266Y-79033811D01*
X128979269Y-79033811D01*
X128979273Y-79033814D01*
X129167868Y-79091024D01*
X129364000Y-79110341D01*
X129560132Y-79091024D01*
X129748727Y-79033814D01*
X129802906Y-79004855D01*
X129922532Y-78940913D01*
X129922538Y-78940910D01*
X130074883Y-78815883D01*
X130199910Y-78663538D01*
X130273798Y-78525303D01*
X130292811Y-78489733D01*
X130292811Y-78489732D01*
X130292814Y-78489727D01*
X130350024Y-78301132D01*
X130369341Y-78105000D01*
X130858659Y-78105000D01*
X130877975Y-78301129D01*
X130935188Y-78489733D01*
X131028086Y-78663532D01*
X131028090Y-78663539D01*
X131153116Y-78815883D01*
X131305460Y-78940909D01*
X131305467Y-78940913D01*
X131479266Y-79033811D01*
X131479269Y-79033811D01*
X131479273Y-79033814D01*
X131667868Y-79091024D01*
X131864000Y-79110341D01*
X132060132Y-79091024D01*
X132248727Y-79033814D01*
X132302906Y-79004855D01*
X132422532Y-78940913D01*
X132422538Y-78940910D01*
X132574883Y-78815883D01*
X132699910Y-78663538D01*
X132773798Y-78525303D01*
X132792811Y-78489733D01*
X132792811Y-78489732D01*
X132792814Y-78489727D01*
X132850024Y-78301132D01*
X132869341Y-78105000D01*
X133358659Y-78105000D01*
X133377975Y-78301129D01*
X133435188Y-78489733D01*
X133528086Y-78663532D01*
X133528090Y-78663539D01*
X133653116Y-78815883D01*
X133805460Y-78940909D01*
X133805467Y-78940913D01*
X133979266Y-79033811D01*
X133979269Y-79033811D01*
X133979273Y-79033814D01*
X134167868Y-79091024D01*
X134364000Y-79110341D01*
X134560132Y-79091024D01*
X134748727Y-79033814D01*
X134802906Y-79004855D01*
X134922532Y-78940913D01*
X134922538Y-78940910D01*
X135074883Y-78815883D01*
X135199910Y-78663538D01*
X135273798Y-78525303D01*
X135292811Y-78489733D01*
X135292811Y-78489732D01*
X135292814Y-78489727D01*
X135350024Y-78301132D01*
X135369341Y-78105000D01*
X135350024Y-77908868D01*
X135292814Y-77720273D01*
X135292811Y-77720269D01*
X135292811Y-77720266D01*
X135199913Y-77546467D01*
X135199909Y-77546460D01*
X135074883Y-77394116D01*
X134922539Y-77269090D01*
X134922532Y-77269086D01*
X134748733Y-77176188D01*
X134748727Y-77176186D01*
X134622997Y-77138046D01*
X134560129Y-77118975D01*
X134364000Y-77099659D01*
X134167870Y-77118975D01*
X133979266Y-77176188D01*
X133805467Y-77269086D01*
X133805460Y-77269090D01*
X133653116Y-77394116D01*
X133528090Y-77546460D01*
X133528086Y-77546467D01*
X133435188Y-77720266D01*
X133377975Y-77908870D01*
X133358659Y-78105000D01*
X132869341Y-78105000D01*
X132850024Y-77908868D01*
X132792814Y-77720273D01*
X132792811Y-77720269D01*
X132792811Y-77720266D01*
X132699913Y-77546467D01*
X132699909Y-77546460D01*
X132574883Y-77394116D01*
X132422539Y-77269090D01*
X132422532Y-77269086D01*
X132248733Y-77176188D01*
X132248727Y-77176186D01*
X132122997Y-77138046D01*
X132060129Y-77118975D01*
X131864000Y-77099659D01*
X131667870Y-77118975D01*
X131479266Y-77176188D01*
X131305467Y-77269086D01*
X131305460Y-77269090D01*
X131153116Y-77394116D01*
X131028090Y-77546460D01*
X131028086Y-77546467D01*
X130935188Y-77720266D01*
X130877975Y-77908870D01*
X130858659Y-78105000D01*
X130369341Y-78105000D01*
X130350024Y-77908868D01*
X130292814Y-77720273D01*
X130292811Y-77720269D01*
X130292811Y-77720266D01*
X130199913Y-77546467D01*
X130199909Y-77546460D01*
X130074883Y-77394116D01*
X129922539Y-77269090D01*
X129922532Y-77269086D01*
X129748733Y-77176188D01*
X129748727Y-77176186D01*
X129622997Y-77138046D01*
X129560129Y-77118975D01*
X129364000Y-77099659D01*
X129167870Y-77118975D01*
X128979266Y-77176188D01*
X128805467Y-77269086D01*
X128805460Y-77269090D01*
X128653116Y-77394116D01*
X128528090Y-77546460D01*
X128528086Y-77546467D01*
X128435188Y-77720266D01*
X128377975Y-77908870D01*
X128358659Y-78105000D01*
X125868161Y-78105000D01*
X125841031Y-78079523D01*
X125841021Y-78079515D01*
X125586495Y-77894591D01*
X125586488Y-77894586D01*
X125586484Y-77894584D01*
X125310766Y-77743006D01*
X125310763Y-77743004D01*
X125310758Y-77743002D01*
X125310757Y-77743001D01*
X125018228Y-77627181D01*
X125018225Y-77627180D01*
X124713476Y-77548934D01*
X124713463Y-77548932D01*
X124401329Y-77509500D01*
X124401318Y-77509500D01*
X124086682Y-77509500D01*
X124086670Y-77509500D01*
X123774536Y-77548932D01*
X123774523Y-77548934D01*
X123469774Y-77627180D01*
X123469771Y-77627181D01*
X123177242Y-77743001D01*
X123177241Y-77743002D01*
X122901516Y-77894584D01*
X122901504Y-77894591D01*
X122646978Y-78079515D01*
X122646968Y-78079523D01*
X122417608Y-78294907D01*
X122417606Y-78294909D01*
X122217054Y-78537334D01*
X122217051Y-78537338D01*
X122048464Y-78802990D01*
X122048461Y-78802996D01*
X121914499Y-79087678D01*
X121914497Y-79087683D01*
X121817270Y-79386916D01*
X121758311Y-79695988D01*
X121758310Y-79695995D01*
X121738556Y-80009994D01*
X121738556Y-80010005D01*
X121069585Y-80010005D01*
X121069670Y-80006755D01*
X121076483Y-79876749D01*
X121087695Y-79677104D01*
X121089020Y-79664724D01*
X121113549Y-79509851D01*
X121113752Y-79508618D01*
X121113753Y-79508614D01*
X121142916Y-79336968D01*
X121145381Y-79325684D01*
X121187265Y-79169371D01*
X121187847Y-79167276D01*
X121234649Y-79004822D01*
X121238017Y-78994777D01*
X121296767Y-78841728D01*
X121297897Y-78838896D01*
X121361809Y-78684601D01*
X121365860Y-78675812D01*
X121440737Y-78528857D01*
X121442624Y-78525303D01*
X121522916Y-78380025D01*
X121527409Y-78372538D01*
X121617575Y-78233696D01*
X121620317Y-78229658D01*
X121716059Y-78094723D01*
X121720751Y-78088535D01*
X121825088Y-77959690D01*
X121828981Y-77955116D01*
X121883075Y-77894584D01*
X121938994Y-77832010D01*
X121943722Y-77827009D01*
X122061009Y-77709722D01*
X122066010Y-77704994D01*
X122189116Y-77594981D01*
X122193690Y-77591088D01*
X122322535Y-77486751D01*
X122328723Y-77482059D01*
X122463658Y-77386317D01*
X122467696Y-77383575D01*
X122606538Y-77293409D01*
X122614025Y-77288916D01*
X122759303Y-77208624D01*
X122762857Y-77206737D01*
X122909812Y-77131860D01*
X122918601Y-77127809D01*
X123072896Y-77063897D01*
X123075728Y-77062767D01*
X123228777Y-77004017D01*
X123238822Y-77000649D01*
X123401276Y-76953847D01*
X123403371Y-76953265D01*
X123559684Y-76911381D01*
X123570968Y-76908916D01*
X123742700Y-76879738D01*
X123743840Y-76879551D01*
X123898724Y-76855020D01*
X123911104Y-76853695D01*
X124110603Y-76842490D01*
X124240756Y-76835669D01*
X124247245Y-76835500D01*
X154720755Y-76835500D01*
X154727243Y-76835669D01*
G37*
%TD.AperFunction*%
%TD*%
%TA.AperFunction,Conductor*%
%TO.N,GND*%
G36*
X135836317Y-87395005D02*
G01*
X135972310Y-87480456D01*
X136093621Y-87522904D01*
X136131943Y-87536314D01*
X136299997Y-87555249D01*
X136300000Y-87555249D01*
X136300003Y-87555249D01*
X136468056Y-87536314D01*
X136468059Y-87536313D01*
X136627690Y-87480456D01*
X136763682Y-87395005D01*
X136829654Y-87376000D01*
X141184050Y-87376000D01*
X141251089Y-87395685D01*
X141296844Y-87448489D01*
X141307270Y-87513883D01*
X141294751Y-87624996D01*
X141294751Y-87625002D01*
X141313685Y-87793056D01*
X141369545Y-87952694D01*
X141369547Y-87952697D01*
X141459518Y-88095884D01*
X141459523Y-88095890D01*
X141579109Y-88215476D01*
X141579115Y-88215481D01*
X141722302Y-88305452D01*
X141722305Y-88305454D01*
X141722309Y-88305455D01*
X141722310Y-88305456D01*
X141793745Y-88330452D01*
X141881943Y-88361314D01*
X142049997Y-88380249D01*
X142050000Y-88380249D01*
X142050003Y-88380249D01*
X142218056Y-88361314D01*
X142218059Y-88361313D01*
X142377690Y-88305456D01*
X142377692Y-88305454D01*
X142377694Y-88305454D01*
X142377697Y-88305452D01*
X142520884Y-88215481D01*
X142520885Y-88215480D01*
X142520890Y-88215477D01*
X142640477Y-88095890D01*
X142641876Y-88093664D01*
X142730452Y-87952697D01*
X142730454Y-87952694D01*
X142730454Y-87952692D01*
X142730456Y-87952690D01*
X142786313Y-87793059D01*
X142786313Y-87793058D01*
X142786314Y-87793056D01*
X142805249Y-87625002D01*
X142805249Y-87624996D01*
X142792730Y-87513883D01*
X142804785Y-87445061D01*
X142852134Y-87393682D01*
X142915950Y-87376000D01*
X147536867Y-87376000D01*
X147603906Y-87395685D01*
X147649661Y-87448489D01*
X147660087Y-87513883D01*
X147644751Y-87649996D01*
X147644751Y-87650002D01*
X147663685Y-87818056D01*
X147719545Y-87977694D01*
X147719547Y-87977697D01*
X147809518Y-88120884D01*
X147809523Y-88120890D01*
X147929109Y-88240476D01*
X147929115Y-88240481D01*
X148072302Y-88330452D01*
X148072305Y-88330454D01*
X148072309Y-88330455D01*
X148072310Y-88330456D01*
X148144913Y-88355860D01*
X148231943Y-88386314D01*
X148399997Y-88405249D01*
X148400000Y-88405249D01*
X148400003Y-88405249D01*
X148568056Y-88386314D01*
X148639502Y-88361314D01*
X148727690Y-88330456D01*
X148727692Y-88330454D01*
X148727694Y-88330454D01*
X148727697Y-88330452D01*
X148870884Y-88240481D01*
X148870885Y-88240480D01*
X148870890Y-88240477D01*
X148990477Y-88120890D01*
X149006186Y-88095890D01*
X149080452Y-87977697D01*
X149080454Y-87977694D01*
X149080454Y-87977692D01*
X149080456Y-87977690D01*
X149136313Y-87818059D01*
X149136313Y-87818058D01*
X149136314Y-87818056D01*
X149155249Y-87650002D01*
X149155249Y-87649996D01*
X149139913Y-87513883D01*
X149151968Y-87445061D01*
X149199317Y-87393682D01*
X149263133Y-87376000D01*
X153255241Y-87376000D01*
X153322280Y-87395685D01*
X153368035Y-87448489D01*
X153378769Y-87510807D01*
X153368341Y-87629998D01*
X153368341Y-87630000D01*
X153388936Y-87865403D01*
X153388938Y-87865413D01*
X153450094Y-88093655D01*
X153450096Y-88093659D01*
X153450097Y-88093663D01*
X153506900Y-88215477D01*
X153549965Y-88307830D01*
X153549967Y-88307834D01*
X153685501Y-88501395D01*
X153685506Y-88501402D01*
X153852597Y-88668493D01*
X153852603Y-88668498D01*
X154038594Y-88798730D01*
X154082219Y-88853307D01*
X154089413Y-88922805D01*
X154057890Y-88985160D01*
X154038595Y-89001880D01*
X153852922Y-89131890D01*
X153852920Y-89131891D01*
X153685891Y-89298920D01*
X153685886Y-89298926D01*
X153550400Y-89492420D01*
X153550399Y-89492422D01*
X153450570Y-89706507D01*
X153450567Y-89706513D01*
X153393364Y-89919999D01*
X153393364Y-89920000D01*
X154290314Y-89920000D01*
X154264507Y-89960156D01*
X154224000Y-90098111D01*
X154224000Y-90241889D01*
X154264507Y-90379844D01*
X154290314Y-90420000D01*
X153393364Y-90420000D01*
X153450567Y-90633486D01*
X153450570Y-90633492D01*
X153550399Y-90847578D01*
X153685894Y-91041082D01*
X153852917Y-91208105D01*
X154046421Y-91343600D01*
X154260507Y-91443429D01*
X154260516Y-91443433D01*
X154474000Y-91500634D01*
X154474000Y-90605501D01*
X154581685Y-90654680D01*
X154688237Y-90670000D01*
X154759763Y-90670000D01*
X154866315Y-90654680D01*
X154974000Y-90605501D01*
X154974000Y-91500633D01*
X155187483Y-91443433D01*
X155187492Y-91443429D01*
X155401578Y-91343600D01*
X155595082Y-91208105D01*
X155762105Y-91041082D01*
X155897600Y-90847578D01*
X155997429Y-90633492D01*
X155997432Y-90633486D01*
X156054636Y-90420000D01*
X155157686Y-90420000D01*
X155183493Y-90379844D01*
X155224000Y-90241889D01*
X155224000Y-90098111D01*
X155183493Y-89960156D01*
X155157686Y-89920000D01*
X156054636Y-89920000D01*
X156054635Y-89919999D01*
X155997432Y-89706513D01*
X155997429Y-89706507D01*
X155897600Y-89492422D01*
X155897599Y-89492420D01*
X155762113Y-89298926D01*
X155762108Y-89298920D01*
X155595078Y-89131890D01*
X155409405Y-89001879D01*
X155365780Y-88947302D01*
X155358588Y-88877804D01*
X155390110Y-88815449D01*
X155409406Y-88798730D01*
X155595401Y-88668495D01*
X155762495Y-88501401D01*
X155898035Y-88307830D01*
X155997903Y-88093663D01*
X156059063Y-87865408D01*
X156079659Y-87630000D01*
X156073119Y-87555249D01*
X156069231Y-87510807D01*
X156082998Y-87442307D01*
X156131613Y-87392124D01*
X156192759Y-87376000D01*
X157737000Y-87376000D01*
X157804039Y-87395685D01*
X157849794Y-87448489D01*
X157861000Y-87500000D01*
X157861000Y-141419039D01*
X157859473Y-141438433D01*
X157856900Y-141454680D01*
X157854473Y-141470003D01*
X157854248Y-141471372D01*
X157825085Y-141643013D01*
X157822612Y-141654336D01*
X157780752Y-141810557D01*
X157780131Y-141812790D01*
X157733359Y-141975143D01*
X157729969Y-141985254D01*
X157671267Y-142138177D01*
X157670064Y-142141192D01*
X157606201Y-142295370D01*
X157602125Y-142304212D01*
X157527295Y-142451075D01*
X157525338Y-142454761D01*
X157445101Y-142599939D01*
X157440568Y-142607493D01*
X157350484Y-142746211D01*
X157347618Y-142750431D01*
X157251974Y-142885228D01*
X157247211Y-142891509D01*
X157142923Y-143020292D01*
X157139017Y-143024882D01*
X157029020Y-143147970D01*
X157024241Y-143153025D01*
X156907025Y-143270241D01*
X156901970Y-143275020D01*
X156778882Y-143385017D01*
X156774292Y-143388923D01*
X156645509Y-143493211D01*
X156639228Y-143497974D01*
X156504431Y-143593618D01*
X156500211Y-143596484D01*
X156361493Y-143686568D01*
X156353939Y-143691101D01*
X156208761Y-143771338D01*
X156205075Y-143773295D01*
X156058212Y-143848125D01*
X156049370Y-143852201D01*
X155895192Y-143916064D01*
X155892177Y-143917267D01*
X155739254Y-143975969D01*
X155729143Y-143979359D01*
X155566790Y-144026131D01*
X155564557Y-144026752D01*
X155408336Y-144068612D01*
X155397012Y-144071085D01*
X155225380Y-144100246D01*
X155224009Y-144100471D01*
X155069309Y-144124974D01*
X155056863Y-144126306D01*
X154857436Y-144137506D01*
X154856973Y-144137531D01*
X154727244Y-144144330D01*
X154720754Y-144144500D01*
X124247246Y-144144500D01*
X124240756Y-144144330D01*
X124111025Y-144137531D01*
X124110562Y-144137506D01*
X123911135Y-144126306D01*
X123898689Y-144124974D01*
X123743989Y-144100471D01*
X123742618Y-144100246D01*
X123570986Y-144071085D01*
X123559662Y-144068612D01*
X123403441Y-144026752D01*
X123401208Y-144026131D01*
X123238855Y-143979359D01*
X123228744Y-143975969D01*
X123075821Y-143917267D01*
X123072806Y-143916064D01*
X122918628Y-143852201D01*
X122909786Y-143848125D01*
X122762923Y-143773295D01*
X122759237Y-143771338D01*
X122614059Y-143691101D01*
X122606505Y-143686568D01*
X122558988Y-143655710D01*
X122467764Y-143596468D01*
X122463593Y-143593635D01*
X122328764Y-143497969D01*
X122322489Y-143493211D01*
X122193706Y-143388923D01*
X122189116Y-143385017D01*
X122066028Y-143275020D01*
X122060973Y-143270241D01*
X121943757Y-143153025D01*
X121938978Y-143147970D01*
X121828981Y-143024882D01*
X121825075Y-143020292D01*
X121766729Y-142948242D01*
X121720775Y-142891494D01*
X121716037Y-142885245D01*
X121620349Y-142750385D01*
X121617545Y-142746257D01*
X121527425Y-142607485D01*
X121522897Y-142599939D01*
X121442660Y-142454761D01*
X121440703Y-142451075D01*
X121421621Y-142413625D01*
X121365870Y-142304206D01*
X121361797Y-142295370D01*
X121348719Y-142263797D01*
X121297919Y-142141155D01*
X121296746Y-142138216D01*
X121238022Y-141985235D01*
X121234645Y-141975163D01*
X121187863Y-141812779D01*
X121187246Y-141810557D01*
X121182544Y-141793008D01*
X121145383Y-141654324D01*
X121142915Y-141643022D01*
X121113748Y-141471355D01*
X121113527Y-141470009D01*
X121089020Y-141315279D01*
X121087695Y-141302891D01*
X121076481Y-141103220D01*
X121069669Y-140973243D01*
X121069585Y-140970000D01*
X121538564Y-140970000D01*
X121558289Y-141296099D01*
X121617178Y-141617452D01*
X121714366Y-141929342D01*
X121714370Y-141929354D01*
X121714373Y-141929361D01*
X121848455Y-142227279D01*
X121983745Y-142451075D01*
X122017473Y-142506868D01*
X122218954Y-142764039D01*
X122449960Y-142995045D01*
X122707131Y-143196526D01*
X122707134Y-143196528D01*
X122707137Y-143196530D01*
X122986721Y-143365545D01*
X123284639Y-143499627D01*
X123284652Y-143499631D01*
X123284657Y-143499633D01*
X123586268Y-143593618D01*
X123596547Y-143596821D01*
X123917896Y-143655710D01*
X124244000Y-143675436D01*
X124570104Y-143655710D01*
X124891453Y-143596821D01*
X125203361Y-143499627D01*
X125501279Y-143365545D01*
X125780863Y-143196530D01*
X126038036Y-142995048D01*
X126269048Y-142764036D01*
X126470530Y-142506863D01*
X126639545Y-142227279D01*
X126773627Y-141929361D01*
X126792788Y-141867870D01*
X135593500Y-141867870D01*
X135593501Y-141867876D01*
X135599908Y-141927483D01*
X135650202Y-142062328D01*
X135650206Y-142062335D01*
X135736452Y-142177544D01*
X135736455Y-142177547D01*
X135851664Y-142263793D01*
X135851671Y-142263797D01*
X135986517Y-142314091D01*
X135986516Y-142314091D01*
X135993444Y-142314835D01*
X136046127Y-142320500D01*
X137841872Y-142320499D01*
X137901483Y-142314091D01*
X138036331Y-142263796D01*
X138151546Y-142177546D01*
X138237796Y-142062331D01*
X138287002Y-141930401D01*
X138328872Y-141874468D01*
X138394337Y-141850050D01*
X138462610Y-141864901D01*
X138490865Y-141886053D01*
X138612917Y-142008105D01*
X138806421Y-142143600D01*
X139020507Y-142243429D01*
X139020516Y-142243433D01*
X139234000Y-142300634D01*
X139234000Y-141405501D01*
X139341685Y-141454680D01*
X139448237Y-141470000D01*
X139519763Y-141470000D01*
X139626315Y-141454680D01*
X139734000Y-141405501D01*
X139734000Y-142300633D01*
X139947483Y-142243433D01*
X139947492Y-142243429D01*
X140161578Y-142143600D01*
X140355082Y-142008105D01*
X140522105Y-141841082D01*
X140652119Y-141655405D01*
X140706696Y-141611781D01*
X140776195Y-141604588D01*
X140838549Y-141636110D01*
X140855269Y-141655405D01*
X140985505Y-141841401D01*
X141152599Y-142008495D01*
X141249384Y-142076265D01*
X141346165Y-142144032D01*
X141346167Y-142144033D01*
X141346170Y-142144035D01*
X141560337Y-142243903D01*
X141788592Y-142305063D01*
X141965034Y-142320500D01*
X142023999Y-142325659D01*
X142024000Y-142325659D01*
X142024001Y-142325659D01*
X142082966Y-142320500D01*
X142259408Y-142305063D01*
X142487663Y-142243903D01*
X142701830Y-142144035D01*
X142895401Y-142008495D01*
X143062495Y-141841401D01*
X143198035Y-141647830D01*
X143297903Y-141433663D01*
X143359063Y-141205408D01*
X143379659Y-140970000D01*
X152018564Y-140970000D01*
X152038289Y-141296099D01*
X152097178Y-141617452D01*
X152194366Y-141929342D01*
X152194370Y-141929354D01*
X152194373Y-141929361D01*
X152328455Y-142227279D01*
X152463745Y-142451075D01*
X152497473Y-142506868D01*
X152698954Y-142764039D01*
X152929960Y-142995045D01*
X153187131Y-143196526D01*
X153187134Y-143196528D01*
X153187137Y-143196530D01*
X153466721Y-143365545D01*
X153764639Y-143499627D01*
X153764652Y-143499631D01*
X153764657Y-143499633D01*
X154066268Y-143593618D01*
X154076547Y-143596821D01*
X154397896Y-143655710D01*
X154724000Y-143675436D01*
X155050104Y-143655710D01*
X155371453Y-143596821D01*
X155683361Y-143499627D01*
X155981279Y-143365545D01*
X156260863Y-143196530D01*
X156518036Y-142995048D01*
X156749048Y-142764036D01*
X156950530Y-142506863D01*
X157119545Y-142227279D01*
X157253627Y-141929361D01*
X157350821Y-141617453D01*
X157409710Y-141296104D01*
X157429436Y-140970000D01*
X157409710Y-140643896D01*
X157350821Y-140322547D01*
X157281138Y-140098926D01*
X157253633Y-140010657D01*
X157253631Y-140010652D01*
X157253627Y-140010639D01*
X157119545Y-139712721D01*
X156950530Y-139433137D01*
X156950528Y-139433134D01*
X156950526Y-139433131D01*
X156749045Y-139175960D01*
X156518039Y-138944954D01*
X156260868Y-138743473D01*
X156253306Y-138738901D01*
X155981279Y-138574455D01*
X155683361Y-138440373D01*
X155683354Y-138440370D01*
X155683342Y-138440366D01*
X155371452Y-138343178D01*
X155050099Y-138284289D01*
X154724000Y-138264564D01*
X154397900Y-138284289D01*
X154076547Y-138343178D01*
X153764657Y-138440366D01*
X153764641Y-138440372D01*
X153764639Y-138440373D01*
X153574933Y-138525752D01*
X153466725Y-138574453D01*
X153466723Y-138574454D01*
X153187131Y-138743473D01*
X152929960Y-138944954D01*
X152698954Y-139175960D01*
X152497473Y-139433131D01*
X152387928Y-139614341D01*
X152338221Y-139696567D01*
X152328454Y-139712723D01*
X152328453Y-139712725D01*
X152290990Y-139795964D01*
X152229989Y-139931505D01*
X152194372Y-140010642D01*
X152194366Y-140010657D01*
X152097178Y-140322547D01*
X152038289Y-140643900D01*
X152018564Y-140970000D01*
X143379659Y-140970000D01*
X143359063Y-140734592D01*
X143297903Y-140506337D01*
X143198035Y-140292171D01*
X143192731Y-140284595D01*
X143062494Y-140098597D01*
X142895402Y-139931506D01*
X142895395Y-139931501D01*
X142701834Y-139795967D01*
X142701830Y-139795965D01*
X142701828Y-139795964D01*
X142487663Y-139696097D01*
X142487659Y-139696096D01*
X142487655Y-139696094D01*
X142259413Y-139634938D01*
X142259403Y-139634936D01*
X142024001Y-139614341D01*
X142023999Y-139614341D01*
X141788596Y-139634936D01*
X141788586Y-139634938D01*
X141560344Y-139696094D01*
X141560335Y-139696098D01*
X141346171Y-139795964D01*
X141346169Y-139795965D01*
X141152597Y-139931505D01*
X140985508Y-140098594D01*
X140855269Y-140284595D01*
X140800692Y-140328219D01*
X140731193Y-140335412D01*
X140668839Y-140303890D01*
X140652119Y-140284594D01*
X140522113Y-140098926D01*
X140522108Y-140098920D01*
X140355082Y-139931894D01*
X140161578Y-139796399D01*
X139947492Y-139696570D01*
X139947486Y-139696567D01*
X139734000Y-139639364D01*
X139734000Y-140534498D01*
X139626315Y-140485320D01*
X139519763Y-140470000D01*
X139448237Y-140470000D01*
X139341685Y-140485320D01*
X139234000Y-140534498D01*
X139234000Y-139639364D01*
X139233999Y-139639364D01*
X139020513Y-139696567D01*
X139020507Y-139696570D01*
X138806422Y-139796399D01*
X138806420Y-139796400D01*
X138612926Y-139931886D01*
X138490865Y-140053947D01*
X138429542Y-140087431D01*
X138359850Y-140082447D01*
X138303917Y-140040575D01*
X138287002Y-140009598D01*
X138237797Y-139877671D01*
X138237793Y-139877664D01*
X138151547Y-139762455D01*
X138151544Y-139762452D01*
X138036335Y-139676206D01*
X138036328Y-139676202D01*
X137901482Y-139625908D01*
X137901483Y-139625908D01*
X137841883Y-139619501D01*
X137841881Y-139619500D01*
X137841873Y-139619500D01*
X137841864Y-139619500D01*
X136046129Y-139619500D01*
X136046123Y-139619501D01*
X135986516Y-139625908D01*
X135851671Y-139676202D01*
X135851664Y-139676206D01*
X135736455Y-139762452D01*
X135736452Y-139762455D01*
X135650206Y-139877664D01*
X135650202Y-139877671D01*
X135599908Y-140012517D01*
X135593501Y-140072116D01*
X135593500Y-140072135D01*
X135593500Y-141867870D01*
X126792788Y-141867870D01*
X126870821Y-141617453D01*
X126929710Y-141296104D01*
X126949436Y-140970000D01*
X126929710Y-140643896D01*
X126870821Y-140322547D01*
X126801138Y-140098926D01*
X126773633Y-140010657D01*
X126773631Y-140010652D01*
X126773627Y-140010639D01*
X126639545Y-139712721D01*
X126470530Y-139433137D01*
X126470528Y-139433134D01*
X126470526Y-139433131D01*
X126269045Y-139175960D01*
X126038039Y-138944954D01*
X125780868Y-138743473D01*
X125773306Y-138738901D01*
X125501279Y-138574455D01*
X125203361Y-138440373D01*
X125203354Y-138440370D01*
X125203342Y-138440366D01*
X124891452Y-138343178D01*
X124570099Y-138284289D01*
X124244000Y-138264564D01*
X123917900Y-138284289D01*
X123596547Y-138343178D01*
X123284657Y-138440366D01*
X123284641Y-138440372D01*
X123284639Y-138440373D01*
X123094933Y-138525752D01*
X122986725Y-138574453D01*
X122986723Y-138574454D01*
X122707131Y-138743473D01*
X122449960Y-138944954D01*
X122218954Y-139175960D01*
X122017473Y-139433131D01*
X121907928Y-139614341D01*
X121858221Y-139696567D01*
X121848454Y-139712723D01*
X121848453Y-139712725D01*
X121810990Y-139795964D01*
X121749989Y-139931505D01*
X121714372Y-140010642D01*
X121714366Y-140010657D01*
X121617178Y-140322547D01*
X121558289Y-140643900D01*
X121538564Y-140970000D01*
X121069585Y-140970000D01*
X121069500Y-140966755D01*
X121069500Y-133350000D01*
X122888341Y-133350000D01*
X122908936Y-133585403D01*
X122908938Y-133585413D01*
X122970094Y-133813655D01*
X122970096Y-133813659D01*
X122970097Y-133813663D01*
X123069965Y-134027830D01*
X123069967Y-134027834D01*
X123205501Y-134221395D01*
X123205506Y-134221402D01*
X123372597Y-134388493D01*
X123372603Y-134388498D01*
X123558594Y-134518730D01*
X123602219Y-134573307D01*
X123609413Y-134642805D01*
X123577890Y-134705160D01*
X123558595Y-134721880D01*
X123372922Y-134851890D01*
X123372920Y-134851891D01*
X123205891Y-135018920D01*
X123205886Y-135018926D01*
X123070400Y-135212420D01*
X123070399Y-135212422D01*
X122970570Y-135426507D01*
X122970567Y-135426513D01*
X122913364Y-135639999D01*
X122913364Y-135640000D01*
X123810314Y-135640000D01*
X123784507Y-135680156D01*
X123744000Y-135818111D01*
X123744000Y-135961889D01*
X123784507Y-136099844D01*
X123810314Y-136140000D01*
X122913364Y-136140000D01*
X122970567Y-136353486D01*
X122970570Y-136353492D01*
X123070399Y-136567578D01*
X123205894Y-136761082D01*
X123372917Y-136928105D01*
X123566421Y-137063600D01*
X123780507Y-137163429D01*
X123780516Y-137163433D01*
X123994000Y-137220634D01*
X123994000Y-136325501D01*
X124101685Y-136374680D01*
X124208237Y-136390000D01*
X124279763Y-136390000D01*
X124386315Y-136374680D01*
X124494000Y-136325501D01*
X124494000Y-137220633D01*
X124707483Y-137163433D01*
X124707492Y-137163429D01*
X124921578Y-137063600D01*
X125115082Y-136928105D01*
X125282105Y-136761082D01*
X125394894Y-136600005D01*
X128108357Y-136600005D01*
X128128890Y-136847812D01*
X128128892Y-136847824D01*
X128189936Y-137088881D01*
X128289826Y-137316606D01*
X128425833Y-137524782D01*
X128425836Y-137524785D01*
X128594256Y-137707738D01*
X128790491Y-137860474D01*
X128790493Y-137860475D01*
X129008332Y-137978364D01*
X129009190Y-137978828D01*
X129228141Y-138053994D01*
X129242964Y-138059083D01*
X129244386Y-138059571D01*
X129489665Y-138100500D01*
X129738335Y-138100500D01*
X129983614Y-138059571D01*
X130218810Y-137978828D01*
X130437509Y-137860474D01*
X130633744Y-137707738D01*
X130802164Y-137524785D01*
X130938173Y-137316607D01*
X131038063Y-137088881D01*
X131099108Y-136847821D01*
X131106269Y-136761401D01*
X131119643Y-136600005D01*
X132608859Y-136600005D01*
X132629385Y-136847729D01*
X132629387Y-136847738D01*
X132690412Y-137088717D01*
X132790266Y-137316364D01*
X132890564Y-137469882D01*
X133588070Y-136772376D01*
X133590884Y-136785915D01*
X133660442Y-136920156D01*
X133763638Y-137030652D01*
X133892819Y-137109209D01*
X133944002Y-137123549D01*
X133243942Y-137823609D01*
X133290768Y-137860055D01*
X133290770Y-137860056D01*
X133509385Y-137978364D01*
X133509396Y-137978369D01*
X133744506Y-138059083D01*
X133989707Y-138100000D01*
X134238293Y-138100000D01*
X134483493Y-138059083D01*
X134718603Y-137978369D01*
X134718614Y-137978364D01*
X134937228Y-137860057D01*
X134937231Y-137860055D01*
X134984056Y-137823609D01*
X134285568Y-137125121D01*
X134402458Y-137074349D01*
X134519739Y-136978934D01*
X134606928Y-136855415D01*
X134637354Y-136769802D01*
X135337434Y-137469882D01*
X135437731Y-137316369D01*
X135537587Y-137088717D01*
X135598612Y-136847738D01*
X135598614Y-136847729D01*
X135619141Y-136600005D01*
X143348357Y-136600005D01*
X143368890Y-136847812D01*
X143368892Y-136847824D01*
X143429936Y-137088881D01*
X143529826Y-137316606D01*
X143665833Y-137524782D01*
X143665836Y-137524785D01*
X143834256Y-137707738D01*
X144030491Y-137860474D01*
X144030493Y-137860475D01*
X144248332Y-137978364D01*
X144249190Y-137978828D01*
X144468141Y-138053994D01*
X144482964Y-138059083D01*
X144484386Y-138059571D01*
X144729665Y-138100500D01*
X144978335Y-138100500D01*
X145223614Y-138059571D01*
X145458810Y-137978828D01*
X145677509Y-137860474D01*
X145873744Y-137707738D01*
X146042164Y-137524785D01*
X146178173Y-137316607D01*
X146278063Y-137088881D01*
X146339108Y-136847821D01*
X146346269Y-136761401D01*
X146359643Y-136600005D01*
X147848859Y-136600005D01*
X147869385Y-136847729D01*
X147869387Y-136847738D01*
X147930412Y-137088717D01*
X148030266Y-137316364D01*
X148130564Y-137469882D01*
X148828070Y-136772376D01*
X148830884Y-136785915D01*
X148900442Y-136920156D01*
X149003638Y-137030652D01*
X149132819Y-137109209D01*
X149184002Y-137123549D01*
X148483942Y-137823609D01*
X148530768Y-137860055D01*
X148530770Y-137860056D01*
X148749385Y-137978364D01*
X148749396Y-137978369D01*
X148984506Y-138059083D01*
X149229707Y-138100000D01*
X149478293Y-138100000D01*
X149723493Y-138059083D01*
X149958603Y-137978369D01*
X149958614Y-137978364D01*
X150177228Y-137860057D01*
X150177231Y-137860055D01*
X150224056Y-137823609D01*
X149525568Y-137125121D01*
X149642458Y-137074349D01*
X149759739Y-136978934D01*
X149846928Y-136855415D01*
X149877354Y-136769802D01*
X150577434Y-137469882D01*
X150677731Y-137316369D01*
X150777587Y-137088717D01*
X150838612Y-136847738D01*
X150838614Y-136847729D01*
X150859141Y-136600005D01*
X150859141Y-136599994D01*
X150838614Y-136352270D01*
X150838612Y-136352261D01*
X150777587Y-136111282D01*
X150680525Y-135890000D01*
X153368341Y-135890000D01*
X153388936Y-136125403D01*
X153388938Y-136125413D01*
X153450094Y-136353655D01*
X153450096Y-136353659D01*
X153450097Y-136353663D01*
X153512295Y-136487047D01*
X153549965Y-136567830D01*
X153549967Y-136567834D01*
X153651581Y-136712953D01*
X153685505Y-136761401D01*
X153852599Y-136928495D01*
X153924633Y-136978934D01*
X154046165Y-137064032D01*
X154046167Y-137064033D01*
X154046170Y-137064035D01*
X154260337Y-137163903D01*
X154488592Y-137225063D01*
X154676918Y-137241539D01*
X154723999Y-137245659D01*
X154724000Y-137245659D01*
X154724001Y-137245659D01*
X154763234Y-137242226D01*
X154959408Y-137225063D01*
X155187663Y-137163903D01*
X155401830Y-137064035D01*
X155595401Y-136928495D01*
X155762495Y-136761401D01*
X155898035Y-136567830D01*
X155997903Y-136353663D01*
X156059063Y-136125408D01*
X156079659Y-135890000D01*
X156059063Y-135654592D01*
X155997903Y-135426337D01*
X155898035Y-135212171D01*
X155819493Y-135100000D01*
X155762494Y-135018597D01*
X155595402Y-134851506D01*
X155595396Y-134851501D01*
X155409842Y-134721575D01*
X155366217Y-134666998D01*
X155359023Y-134597500D01*
X155390546Y-134535145D01*
X155409842Y-134518425D01*
X155432026Y-134502891D01*
X155595401Y-134388495D01*
X155762495Y-134221401D01*
X155898035Y-134027830D01*
X155997903Y-133813663D01*
X156059063Y-133585408D01*
X156079659Y-133350000D01*
X156059063Y-133114592D01*
X155997903Y-132886337D01*
X155898035Y-132672171D01*
X155762495Y-132478599D01*
X155762494Y-132478597D01*
X155595402Y-132311506D01*
X155595396Y-132311501D01*
X155409842Y-132181575D01*
X155366217Y-132126998D01*
X155359023Y-132057500D01*
X155390546Y-131995145D01*
X155409842Y-131978425D01*
X155432026Y-131962891D01*
X155595401Y-131848495D01*
X155762495Y-131681401D01*
X155898035Y-131487830D01*
X155997903Y-131273663D01*
X156059063Y-131045408D01*
X156079659Y-130810000D01*
X156059063Y-130574592D01*
X156012626Y-130401285D01*
X155997905Y-130346344D01*
X155997904Y-130346343D01*
X155997903Y-130346337D01*
X155898035Y-130132171D01*
X155875513Y-130100005D01*
X155762494Y-129938597D01*
X155595402Y-129771506D01*
X155595396Y-129771501D01*
X155409842Y-129641575D01*
X155366217Y-129586998D01*
X155359023Y-129517500D01*
X155390546Y-129455145D01*
X155409842Y-129438425D01*
X155488097Y-129383630D01*
X155595401Y-129308495D01*
X155762495Y-129141401D01*
X155898035Y-128947830D01*
X155997903Y-128733663D01*
X156059063Y-128505408D01*
X156079659Y-128270000D01*
X156059063Y-128034592D01*
X156007873Y-127843545D01*
X155997905Y-127806344D01*
X155997904Y-127806343D01*
X155997903Y-127806337D01*
X155898035Y-127592171D01*
X155896848Y-127590476D01*
X155762496Y-127398600D01*
X155707780Y-127343884D01*
X155640567Y-127276671D01*
X155607084Y-127215351D01*
X155612068Y-127145659D01*
X155653939Y-127089725D01*
X155684915Y-127072810D01*
X155816331Y-127023796D01*
X155931546Y-126937546D01*
X156017796Y-126822331D01*
X156068091Y-126687483D01*
X156074500Y-126627873D01*
X156074499Y-124832128D01*
X156068091Y-124772517D01*
X156067484Y-124770890D01*
X156017797Y-124637671D01*
X156017793Y-124637664D01*
X155931547Y-124522455D01*
X155931544Y-124522452D01*
X155816335Y-124436206D01*
X155816328Y-124436202D01*
X155681482Y-124385908D01*
X155681483Y-124385908D01*
X155621883Y-124379501D01*
X155621881Y-124379500D01*
X155621873Y-124379500D01*
X155621864Y-124379500D01*
X153826129Y-124379500D01*
X153826123Y-124379501D01*
X153766516Y-124385908D01*
X153631671Y-124436202D01*
X153631664Y-124436206D01*
X153516455Y-124522452D01*
X153516452Y-124522455D01*
X153430206Y-124637664D01*
X153430202Y-124637671D01*
X153379908Y-124772517D01*
X153373501Y-124832116D01*
X153373501Y-124832123D01*
X153373500Y-124832135D01*
X153373500Y-126627870D01*
X153373501Y-126627876D01*
X153379908Y-126687483D01*
X153430202Y-126822328D01*
X153430206Y-126822335D01*
X153516452Y-126937544D01*
X153516455Y-126937547D01*
X153631664Y-127023793D01*
X153631671Y-127023797D01*
X153763081Y-127072810D01*
X153819015Y-127114681D01*
X153843432Y-127180145D01*
X153828580Y-127248418D01*
X153807430Y-127276673D01*
X153685503Y-127398600D01*
X153549965Y-127592169D01*
X153549964Y-127592171D01*
X153450098Y-127806335D01*
X153450094Y-127806344D01*
X153388938Y-128034586D01*
X153388936Y-128034596D01*
X153368341Y-128269999D01*
X153368341Y-128270000D01*
X153388936Y-128505403D01*
X153388938Y-128505413D01*
X153450094Y-128733655D01*
X153450096Y-128733659D01*
X153450097Y-128733663D01*
X153516652Y-128876390D01*
X153549965Y-128947830D01*
X153549967Y-128947834D01*
X153685501Y-129141395D01*
X153685506Y-129141402D01*
X153852597Y-129308493D01*
X153852603Y-129308498D01*
X154038158Y-129438425D01*
X154081783Y-129493002D01*
X154088977Y-129562500D01*
X154057454Y-129624855D01*
X154038158Y-129641575D01*
X153852597Y-129771505D01*
X153685505Y-129938597D01*
X153549965Y-130132169D01*
X153549964Y-130132171D01*
X153450098Y-130346335D01*
X153450094Y-130346344D01*
X153388938Y-130574586D01*
X153388936Y-130574596D01*
X153368341Y-130809999D01*
X153368341Y-130810000D01*
X153388936Y-131045403D01*
X153388938Y-131045413D01*
X153450094Y-131273655D01*
X153450096Y-131273659D01*
X153450097Y-131273663D01*
X153545551Y-131478364D01*
X153549965Y-131487830D01*
X153549967Y-131487834D01*
X153685501Y-131681395D01*
X153685506Y-131681402D01*
X153852597Y-131848493D01*
X153852603Y-131848498D01*
X154038158Y-131978425D01*
X154081783Y-132033002D01*
X154088977Y-132102500D01*
X154057454Y-132164855D01*
X154038158Y-132181575D01*
X153852597Y-132311505D01*
X153685505Y-132478597D01*
X153549965Y-132672169D01*
X153549964Y-132672171D01*
X153450098Y-132886335D01*
X153450094Y-132886344D01*
X153388938Y-133114586D01*
X153388936Y-133114596D01*
X153368341Y-133349999D01*
X153368341Y-133350000D01*
X153388936Y-133585403D01*
X153388938Y-133585413D01*
X153450094Y-133813655D01*
X153450096Y-133813659D01*
X153450097Y-133813663D01*
X153549965Y-134027830D01*
X153549967Y-134027834D01*
X153685501Y-134221395D01*
X153685506Y-134221402D01*
X153852597Y-134388493D01*
X153852603Y-134388498D01*
X154038158Y-134518425D01*
X154081783Y-134573002D01*
X154088977Y-134642500D01*
X154057454Y-134704855D01*
X154038158Y-134721575D01*
X153852597Y-134851505D01*
X153685505Y-135018597D01*
X153549965Y-135212169D01*
X153549964Y-135212171D01*
X153450098Y-135426335D01*
X153450094Y-135426344D01*
X153388938Y-135654586D01*
X153388936Y-135654596D01*
X153368341Y-135889999D01*
X153368341Y-135890000D01*
X150680525Y-135890000D01*
X150677731Y-135883630D01*
X150577434Y-135730116D01*
X149879929Y-136427622D01*
X149877116Y-136414085D01*
X149807558Y-136279844D01*
X149704362Y-136169348D01*
X149575181Y-136090791D01*
X149523997Y-136076450D01*
X150224057Y-135376390D01*
X150224056Y-135376389D01*
X150177229Y-135339943D01*
X149958614Y-135221635D01*
X149958603Y-135221630D01*
X149723493Y-135140916D01*
X149478293Y-135100000D01*
X149229707Y-135100000D01*
X148984506Y-135140916D01*
X148749396Y-135221630D01*
X148749390Y-135221632D01*
X148530761Y-135339949D01*
X148483942Y-135376388D01*
X148483942Y-135376390D01*
X149182431Y-136074878D01*
X149065542Y-136125651D01*
X148948261Y-136221066D01*
X148861072Y-136344585D01*
X148830645Y-136430197D01*
X148130564Y-135730116D01*
X148030267Y-135883632D01*
X147930412Y-136111282D01*
X147869387Y-136352261D01*
X147869385Y-136352270D01*
X147848859Y-136599994D01*
X147848859Y-136600005D01*
X146359643Y-136600005D01*
X146359643Y-136599994D01*
X146339109Y-136352187D01*
X146339107Y-136352175D01*
X146278063Y-136111118D01*
X146178173Y-135883393D01*
X146042166Y-135675217D01*
X146009745Y-135639999D01*
X145873744Y-135492262D01*
X145677509Y-135339526D01*
X145677507Y-135339525D01*
X145677506Y-135339524D01*
X145458811Y-135221172D01*
X145458802Y-135221169D01*
X145223616Y-135140429D01*
X144978335Y-135099500D01*
X144729665Y-135099500D01*
X144484383Y-135140429D01*
X144249197Y-135221169D01*
X144249188Y-135221172D01*
X144030493Y-135339524D01*
X143834257Y-135492261D01*
X143665833Y-135675217D01*
X143529826Y-135883393D01*
X143429936Y-136111118D01*
X143368892Y-136352175D01*
X143368890Y-136352187D01*
X143348357Y-136599994D01*
X143348357Y-136600005D01*
X135619141Y-136600005D01*
X135619141Y-136599994D01*
X135598614Y-136352270D01*
X135598612Y-136352261D01*
X135537587Y-136111282D01*
X135437731Y-135883630D01*
X135337434Y-135730116D01*
X134639929Y-136427622D01*
X134637116Y-136414085D01*
X134567558Y-136279844D01*
X134464362Y-136169348D01*
X134335181Y-136090791D01*
X134283997Y-136076450D01*
X134984057Y-135376390D01*
X134984056Y-135376389D01*
X134937229Y-135339943D01*
X134718614Y-135221635D01*
X134718603Y-135221630D01*
X134483493Y-135140916D01*
X134238293Y-135100000D01*
X133989707Y-135100000D01*
X133744506Y-135140916D01*
X133509396Y-135221630D01*
X133509390Y-135221632D01*
X133290761Y-135339949D01*
X133243942Y-135376388D01*
X133243942Y-135376390D01*
X133942431Y-136074878D01*
X133825542Y-136125651D01*
X133708261Y-136221066D01*
X133621072Y-136344585D01*
X133590645Y-136430197D01*
X132890564Y-135730116D01*
X132790267Y-135883632D01*
X132690412Y-136111282D01*
X132629387Y-136352261D01*
X132629385Y-136352270D01*
X132608859Y-136599994D01*
X132608859Y-136600005D01*
X131119643Y-136600005D01*
X131119643Y-136599994D01*
X131099109Y-136352187D01*
X131099107Y-136352175D01*
X131038063Y-136111118D01*
X130938173Y-135883393D01*
X130802166Y-135675217D01*
X130769745Y-135639999D01*
X130633744Y-135492262D01*
X130437509Y-135339526D01*
X130437507Y-135339525D01*
X130437506Y-135339524D01*
X130218811Y-135221172D01*
X130218802Y-135221169D01*
X129983616Y-135140429D01*
X129738335Y-135099500D01*
X129489665Y-135099500D01*
X129244383Y-135140429D01*
X129009197Y-135221169D01*
X129009188Y-135221172D01*
X128790493Y-135339524D01*
X128594257Y-135492261D01*
X128425833Y-135675217D01*
X128289826Y-135883393D01*
X128189936Y-136111118D01*
X128128892Y-136352175D01*
X128128890Y-136352187D01*
X128108357Y-136599994D01*
X128108357Y-136600005D01*
X125394894Y-136600005D01*
X125417600Y-136567578D01*
X125517429Y-136353492D01*
X125517432Y-136353486D01*
X125574636Y-136140000D01*
X124677686Y-136140000D01*
X124703493Y-136099844D01*
X124744000Y-135961889D01*
X124744000Y-135818111D01*
X124703493Y-135680156D01*
X124677686Y-135640000D01*
X125574636Y-135640000D01*
X125574635Y-135639999D01*
X125517432Y-135426513D01*
X125517429Y-135426507D01*
X125417600Y-135212422D01*
X125417599Y-135212420D01*
X125282113Y-135018926D01*
X125282108Y-135018920D01*
X125115078Y-134851890D01*
X124929405Y-134721879D01*
X124885780Y-134667302D01*
X124878588Y-134597804D01*
X124910110Y-134535449D01*
X124929406Y-134518730D01*
X124929842Y-134518425D01*
X125115401Y-134388495D01*
X125282495Y-134221401D01*
X125418035Y-134027830D01*
X125517903Y-133813663D01*
X125579063Y-133585408D01*
X125599659Y-133350000D01*
X125579063Y-133114592D01*
X125517903Y-132886337D01*
X125418035Y-132672171D01*
X125282495Y-132478599D01*
X125282494Y-132478597D01*
X125115402Y-132311506D01*
X125115396Y-132311501D01*
X124929842Y-132181575D01*
X124886217Y-132126998D01*
X124879023Y-132057500D01*
X124910546Y-131995145D01*
X124929842Y-131978425D01*
X124952026Y-131962891D01*
X125115401Y-131848495D01*
X125282495Y-131681401D01*
X125418035Y-131487830D01*
X125517903Y-131273663D01*
X125579063Y-131045408D01*
X125599659Y-130810000D01*
X125579063Y-130574592D01*
X125532626Y-130401285D01*
X125517905Y-130346344D01*
X125517904Y-130346343D01*
X125517903Y-130346337D01*
X125418035Y-130132171D01*
X125395513Y-130100005D01*
X128108357Y-130100005D01*
X128128890Y-130347812D01*
X128128892Y-130347824D01*
X128189936Y-130588881D01*
X128289826Y-130816606D01*
X128425833Y-131024782D01*
X128425836Y-131024785D01*
X128594256Y-131207738D01*
X128790491Y-131360474D01*
X128790493Y-131360475D01*
X129008332Y-131478364D01*
X129009190Y-131478828D01*
X129228141Y-131553994D01*
X129242964Y-131559083D01*
X129244386Y-131559571D01*
X129489665Y-131600500D01*
X129738335Y-131600500D01*
X129983614Y-131559571D01*
X130218810Y-131478828D01*
X130437509Y-131360474D01*
X130633744Y-131207738D01*
X130802164Y-131024785D01*
X130938173Y-130816607D01*
X131038063Y-130588881D01*
X131099108Y-130347821D01*
X131099116Y-130347729D01*
X131119643Y-130100005D01*
X132608859Y-130100005D01*
X132629385Y-130347729D01*
X132629387Y-130347738D01*
X132690412Y-130588717D01*
X132790266Y-130816364D01*
X132890564Y-130969882D01*
X133588070Y-130272376D01*
X133590884Y-130285915D01*
X133660442Y-130420156D01*
X133763638Y-130530652D01*
X133892819Y-130609209D01*
X133944002Y-130623549D01*
X133243942Y-131323609D01*
X133290768Y-131360055D01*
X133290770Y-131360056D01*
X133509385Y-131478364D01*
X133509396Y-131478369D01*
X133744506Y-131559083D01*
X133989707Y-131600000D01*
X134238293Y-131600000D01*
X134483493Y-131559083D01*
X134718603Y-131478369D01*
X134718614Y-131478364D01*
X134937228Y-131360057D01*
X134937231Y-131360055D01*
X134984056Y-131323609D01*
X134285568Y-130625121D01*
X134402458Y-130574349D01*
X134519739Y-130478934D01*
X134606928Y-130355415D01*
X134637354Y-130269802D01*
X135337434Y-130969882D01*
X135437731Y-130816369D01*
X135537587Y-130588717D01*
X135598612Y-130347738D01*
X135598614Y-130347729D01*
X135619141Y-130100005D01*
X143348357Y-130100005D01*
X143368890Y-130347812D01*
X143368892Y-130347824D01*
X143429936Y-130588881D01*
X143529826Y-130816606D01*
X143665833Y-131024782D01*
X143665836Y-131024785D01*
X143834256Y-131207738D01*
X144030491Y-131360474D01*
X144030493Y-131360475D01*
X144248332Y-131478364D01*
X144249190Y-131478828D01*
X144468141Y-131553994D01*
X144482964Y-131559083D01*
X144484386Y-131559571D01*
X144729665Y-131600500D01*
X144978335Y-131600500D01*
X145223614Y-131559571D01*
X145458810Y-131478828D01*
X145677509Y-131360474D01*
X145873744Y-131207738D01*
X146042164Y-131024785D01*
X146178173Y-130816607D01*
X146278063Y-130588881D01*
X146339108Y-130347821D01*
X146339116Y-130347729D01*
X146359643Y-130100005D01*
X147848859Y-130100005D01*
X147869385Y-130347729D01*
X147869387Y-130347738D01*
X147930412Y-130588717D01*
X148030266Y-130816364D01*
X148130564Y-130969882D01*
X148828070Y-130272376D01*
X148830884Y-130285915D01*
X148900442Y-130420156D01*
X149003638Y-130530652D01*
X149132819Y-130609209D01*
X149184002Y-130623549D01*
X148483942Y-131323609D01*
X148530768Y-131360055D01*
X148530770Y-131360056D01*
X148749385Y-131478364D01*
X148749396Y-131478369D01*
X148984506Y-131559083D01*
X149229707Y-131600000D01*
X149478293Y-131600000D01*
X149723493Y-131559083D01*
X149958603Y-131478369D01*
X149958614Y-131478364D01*
X150177228Y-131360057D01*
X150177231Y-131360055D01*
X150224056Y-131323609D01*
X149525568Y-130625121D01*
X149642458Y-130574349D01*
X149759739Y-130478934D01*
X149846928Y-130355415D01*
X149877354Y-130269802D01*
X150577434Y-130969882D01*
X150677731Y-130816369D01*
X150777587Y-130588717D01*
X150838612Y-130347738D01*
X150838614Y-130347729D01*
X150859141Y-130100005D01*
X150859141Y-130099994D01*
X150838614Y-129852270D01*
X150838612Y-129852261D01*
X150777587Y-129611282D01*
X150677731Y-129383630D01*
X150577434Y-129230116D01*
X149879929Y-129927622D01*
X149877116Y-129914085D01*
X149807558Y-129779844D01*
X149704362Y-129669348D01*
X149575181Y-129590791D01*
X149523997Y-129576450D01*
X150224057Y-128876390D01*
X150224056Y-128876389D01*
X150177229Y-128839943D01*
X149958614Y-128721635D01*
X149958603Y-128721630D01*
X149723493Y-128640916D01*
X149478293Y-128600000D01*
X149229707Y-128600000D01*
X148984506Y-128640916D01*
X148749396Y-128721630D01*
X148749390Y-128721632D01*
X148530761Y-128839949D01*
X148483942Y-128876388D01*
X148483942Y-128876390D01*
X149182431Y-129574878D01*
X149065542Y-129625651D01*
X148948261Y-129721066D01*
X148861072Y-129844585D01*
X148830645Y-129930197D01*
X148130564Y-129230116D01*
X148030267Y-129383632D01*
X147930412Y-129611282D01*
X147869387Y-129852261D01*
X147869385Y-129852270D01*
X147848859Y-130099994D01*
X147848859Y-130100005D01*
X146359643Y-130100005D01*
X146359643Y-130099994D01*
X146339109Y-129852187D01*
X146339107Y-129852175D01*
X146278063Y-129611118D01*
X146178173Y-129383393D01*
X146042166Y-129175217D01*
X146011036Y-129141401D01*
X145873744Y-128992262D01*
X145677509Y-128839526D01*
X145677507Y-128839525D01*
X145677506Y-128839524D01*
X145458811Y-128721172D01*
X145458802Y-128721169D01*
X145223616Y-128640429D01*
X144978335Y-128599500D01*
X144729665Y-128599500D01*
X144484383Y-128640429D01*
X144249197Y-128721169D01*
X144249188Y-128721172D01*
X144030493Y-128839524D01*
X143834257Y-128992261D01*
X143665833Y-129175217D01*
X143529826Y-129383393D01*
X143429936Y-129611118D01*
X143368892Y-129852175D01*
X143368890Y-129852187D01*
X143348357Y-130099994D01*
X143348357Y-130100005D01*
X135619141Y-130100005D01*
X135619141Y-130099994D01*
X135598614Y-129852270D01*
X135598612Y-129852261D01*
X135537587Y-129611282D01*
X135437731Y-129383630D01*
X135337434Y-129230116D01*
X134639929Y-129927622D01*
X134637116Y-129914085D01*
X134567558Y-129779844D01*
X134464362Y-129669348D01*
X134335181Y-129590791D01*
X134283997Y-129576450D01*
X134984057Y-128876390D01*
X134984056Y-128876389D01*
X134937229Y-128839943D01*
X134718614Y-128721635D01*
X134718603Y-128721630D01*
X134483493Y-128640916D01*
X134238293Y-128600000D01*
X133989707Y-128600000D01*
X133744506Y-128640916D01*
X133509396Y-128721630D01*
X133509390Y-128721632D01*
X133290761Y-128839949D01*
X133243942Y-128876388D01*
X133243942Y-128876390D01*
X133942431Y-129574878D01*
X133825542Y-129625651D01*
X133708261Y-129721066D01*
X133621072Y-129844585D01*
X133590645Y-129930197D01*
X132890564Y-129230116D01*
X132790267Y-129383632D01*
X132690412Y-129611282D01*
X132629387Y-129852261D01*
X132629385Y-129852270D01*
X132608859Y-130099994D01*
X132608859Y-130100005D01*
X131119643Y-130100005D01*
X131119643Y-130099994D01*
X131099109Y-129852187D01*
X131099107Y-129852175D01*
X131038063Y-129611118D01*
X130938173Y-129383393D01*
X130802166Y-129175217D01*
X130771036Y-129141401D01*
X130633744Y-128992262D01*
X130437509Y-128839526D01*
X130437507Y-128839525D01*
X130437506Y-128839524D01*
X130218811Y-128721172D01*
X130218802Y-128721169D01*
X129983616Y-128640429D01*
X129738335Y-128599500D01*
X129489665Y-128599500D01*
X129244383Y-128640429D01*
X129009197Y-128721169D01*
X129009188Y-128721172D01*
X128790493Y-128839524D01*
X128594257Y-128992261D01*
X128425833Y-129175217D01*
X128289826Y-129383393D01*
X128189936Y-129611118D01*
X128128892Y-129852175D01*
X128128890Y-129852187D01*
X128108357Y-130099994D01*
X128108357Y-130100005D01*
X125395513Y-130100005D01*
X125282494Y-129938597D01*
X125115402Y-129771506D01*
X125115396Y-129771501D01*
X124929842Y-129641575D01*
X124886217Y-129586998D01*
X124879023Y-129517500D01*
X124910546Y-129455145D01*
X124929842Y-129438425D01*
X125008097Y-129383630D01*
X125115401Y-129308495D01*
X125282495Y-129141401D01*
X125418035Y-128947830D01*
X125517903Y-128733663D01*
X125574081Y-128524002D01*
X138817751Y-128524002D01*
X138836685Y-128692056D01*
X138892545Y-128851694D01*
X138892547Y-128851697D01*
X138982518Y-128994884D01*
X138982523Y-128994890D01*
X139102109Y-129114476D01*
X139102115Y-129114481D01*
X139245302Y-129204452D01*
X139245305Y-129204454D01*
X139245309Y-129204455D01*
X139245310Y-129204456D01*
X139317913Y-129229860D01*
X139404943Y-129260314D01*
X139572997Y-129279249D01*
X139573000Y-129279249D01*
X139573003Y-129279249D01*
X139741056Y-129260314D01*
X139741059Y-129260313D01*
X139900690Y-129204456D01*
X139900692Y-129204454D01*
X139900694Y-129204454D01*
X139900697Y-129204452D01*
X140043884Y-129114481D01*
X140043885Y-129114480D01*
X140043890Y-129114477D01*
X140163477Y-128994890D01*
X140163481Y-128994884D01*
X140253452Y-128851697D01*
X140253454Y-128851694D01*
X140253454Y-128851692D01*
X140253456Y-128851690D01*
X140309313Y-128692059D01*
X140309313Y-128692058D01*
X140309314Y-128692056D01*
X140328249Y-128524002D01*
X140328249Y-128523997D01*
X140309314Y-128355943D01*
X140253454Y-128196305D01*
X140253452Y-128196302D01*
X140163481Y-128053115D01*
X140163476Y-128053109D01*
X140043890Y-127933523D01*
X140043884Y-127933518D01*
X139900697Y-127843547D01*
X139900694Y-127843545D01*
X139741056Y-127787685D01*
X139573003Y-127768751D01*
X139572997Y-127768751D01*
X139404943Y-127787685D01*
X139245305Y-127843545D01*
X139245302Y-127843547D01*
X139102115Y-127933518D01*
X139102109Y-127933523D01*
X138982523Y-128053109D01*
X138982518Y-128053115D01*
X138892547Y-128196302D01*
X138892545Y-128196305D01*
X138836685Y-128355943D01*
X138817751Y-128523997D01*
X138817751Y-128524002D01*
X125574081Y-128524002D01*
X125579063Y-128505408D01*
X125599659Y-128270000D01*
X125579063Y-128034592D01*
X125527873Y-127843545D01*
X125517905Y-127806344D01*
X125517904Y-127806343D01*
X125517903Y-127806337D01*
X125418035Y-127592171D01*
X125416849Y-127590476D01*
X125282494Y-127398597D01*
X125115402Y-127231506D01*
X125115396Y-127231501D01*
X124929842Y-127101575D01*
X124886217Y-127046998D01*
X124881352Y-127000002D01*
X129165751Y-127000002D01*
X129184685Y-127168056D01*
X129240545Y-127327694D01*
X129240547Y-127327697D01*
X129330518Y-127470884D01*
X129330523Y-127470890D01*
X129450109Y-127590476D01*
X129450115Y-127590481D01*
X129593302Y-127680452D01*
X129593305Y-127680454D01*
X129593309Y-127680455D01*
X129593310Y-127680456D01*
X129665913Y-127705860D01*
X129752943Y-127736314D01*
X129920997Y-127755249D01*
X129921000Y-127755249D01*
X129921003Y-127755249D01*
X130089056Y-127736314D01*
X130089059Y-127736313D01*
X130248690Y-127680456D01*
X130248692Y-127680454D01*
X130248694Y-127680454D01*
X130248697Y-127680452D01*
X130391884Y-127590481D01*
X130391885Y-127590480D01*
X130391890Y-127590477D01*
X130511477Y-127470890D01*
X130511481Y-127470884D01*
X130601452Y-127327697D01*
X130601454Y-127327694D01*
X130601454Y-127327692D01*
X130601456Y-127327690D01*
X130657313Y-127168059D01*
X130657313Y-127168058D01*
X130657314Y-127168056D01*
X130676249Y-127000002D01*
X130676249Y-126999997D01*
X130661940Y-126873002D01*
X148215751Y-126873002D01*
X148234685Y-127041056D01*
X148290545Y-127200694D01*
X148290547Y-127200697D01*
X148380518Y-127343884D01*
X148380523Y-127343890D01*
X148500109Y-127463476D01*
X148500115Y-127463481D01*
X148643302Y-127553452D01*
X148643305Y-127553454D01*
X148643309Y-127553455D01*
X148643310Y-127553456D01*
X148715913Y-127578860D01*
X148802943Y-127609314D01*
X148970997Y-127628249D01*
X148971000Y-127628249D01*
X148971003Y-127628249D01*
X149139056Y-127609314D01*
X149188048Y-127592171D01*
X149298690Y-127553456D01*
X149298692Y-127553454D01*
X149298694Y-127553454D01*
X149298697Y-127553452D01*
X149441884Y-127463481D01*
X149441885Y-127463480D01*
X149441890Y-127463477D01*
X149561477Y-127343890D01*
X149603712Y-127276674D01*
X149651452Y-127200697D01*
X149651454Y-127200694D01*
X149651454Y-127200692D01*
X149651456Y-127200690D01*
X149707313Y-127041059D01*
X149707313Y-127041058D01*
X149707314Y-127041056D01*
X149726249Y-126873002D01*
X149726249Y-126872997D01*
X149707314Y-126704943D01*
X149651454Y-126545305D01*
X149651452Y-126545302D01*
X149561481Y-126402115D01*
X149561476Y-126402109D01*
X149441890Y-126282523D01*
X149441884Y-126282518D01*
X149298697Y-126192547D01*
X149298694Y-126192545D01*
X149139056Y-126136685D01*
X148971003Y-126117751D01*
X148970997Y-126117751D01*
X148802943Y-126136685D01*
X148643305Y-126192545D01*
X148643302Y-126192547D01*
X148500115Y-126282518D01*
X148500109Y-126282523D01*
X148380523Y-126402109D01*
X148380518Y-126402115D01*
X148290547Y-126545302D01*
X148290545Y-126545305D01*
X148234685Y-126704943D01*
X148215751Y-126872997D01*
X148215751Y-126873002D01*
X130661940Y-126873002D01*
X130657314Y-126831943D01*
X130601454Y-126672305D01*
X130601452Y-126672302D01*
X130511481Y-126529115D01*
X130511476Y-126529109D01*
X130391890Y-126409523D01*
X130391884Y-126409518D01*
X130248697Y-126319547D01*
X130248694Y-126319545D01*
X130089056Y-126263685D01*
X129921003Y-126244751D01*
X129920997Y-126244751D01*
X129752943Y-126263685D01*
X129593305Y-126319545D01*
X129593302Y-126319547D01*
X129450115Y-126409518D01*
X129450109Y-126409523D01*
X129330523Y-126529109D01*
X129330518Y-126529115D01*
X129240547Y-126672302D01*
X129240545Y-126672305D01*
X129184685Y-126831943D01*
X129165751Y-126999997D01*
X129165751Y-127000002D01*
X124881352Y-127000002D01*
X124879023Y-126977500D01*
X124910546Y-126915145D01*
X124929842Y-126898425D01*
X124966150Y-126873002D01*
X125115401Y-126768495D01*
X125282495Y-126601401D01*
X125418035Y-126407830D01*
X125517903Y-126193663D01*
X125579063Y-125965408D01*
X125599659Y-125730000D01*
X125579063Y-125494592D01*
X125517903Y-125266337D01*
X125418035Y-125052171D01*
X125406932Y-125036313D01*
X125282494Y-124858597D01*
X125115402Y-124691506D01*
X125115396Y-124691501D01*
X124929842Y-124561575D01*
X124886217Y-124506998D01*
X124879023Y-124437500D01*
X124910546Y-124375145D01*
X124929842Y-124358425D01*
X124952026Y-124342891D01*
X125013278Y-124300002D01*
X139794751Y-124300002D01*
X139813685Y-124468056D01*
X139869545Y-124627694D01*
X139869547Y-124627697D01*
X139959518Y-124770884D01*
X139959523Y-124770890D01*
X140079109Y-124890476D01*
X140079115Y-124890481D01*
X140222302Y-124980452D01*
X140222305Y-124980454D01*
X140222309Y-124980455D01*
X140222310Y-124980456D01*
X140294913Y-125005860D01*
X140381943Y-125036314D01*
X140549997Y-125055249D01*
X140550000Y-125055249D01*
X140550003Y-125055249D01*
X140718056Y-125036314D01*
X140718059Y-125036313D01*
X140877690Y-124980456D01*
X140877692Y-124980454D01*
X140877694Y-124980454D01*
X140877697Y-124980452D01*
X141020884Y-124890481D01*
X141020885Y-124890480D01*
X141020890Y-124890477D01*
X141140477Y-124770890D01*
X141190361Y-124691501D01*
X141230452Y-124627697D01*
X141230454Y-124627694D01*
X141230454Y-124627692D01*
X141230456Y-124627690D01*
X141286313Y-124468059D01*
X141286313Y-124468058D01*
X141286314Y-124468056D01*
X141305249Y-124300002D01*
X141305249Y-124299997D01*
X141286314Y-124131943D01*
X141230454Y-123972305D01*
X141230452Y-123972302D01*
X141140481Y-123829115D01*
X141140476Y-123829109D01*
X141020890Y-123709523D01*
X141020884Y-123709518D01*
X140877697Y-123619547D01*
X140877694Y-123619545D01*
X140718056Y-123563685D01*
X140550003Y-123544751D01*
X140549997Y-123544751D01*
X140381943Y-123563685D01*
X140222305Y-123619545D01*
X140222302Y-123619547D01*
X140079115Y-123709518D01*
X140079109Y-123709523D01*
X139959523Y-123829109D01*
X139959518Y-123829115D01*
X139869547Y-123972302D01*
X139869545Y-123972305D01*
X139813685Y-124131943D01*
X139794751Y-124299997D01*
X139794751Y-124300002D01*
X125013278Y-124300002D01*
X125115401Y-124228495D01*
X125282495Y-124061401D01*
X125418035Y-123867830D01*
X125517903Y-123653663D01*
X125579063Y-123425408D01*
X125599659Y-123190000D01*
X125579063Y-122954592D01*
X125517903Y-122726337D01*
X125418035Y-122512171D01*
X125282495Y-122318599D01*
X125282494Y-122318597D01*
X125115402Y-122151506D01*
X125115396Y-122151501D01*
X124929842Y-122021575D01*
X124886217Y-121966998D01*
X124879023Y-121897500D01*
X124910546Y-121835145D01*
X124929842Y-121818425D01*
X124952026Y-121802891D01*
X125115401Y-121688495D01*
X125282495Y-121521401D01*
X125418035Y-121327830D01*
X125517903Y-121113663D01*
X125579063Y-120885408D01*
X125599659Y-120650000D01*
X153368341Y-120650000D01*
X153388936Y-120885403D01*
X153388938Y-120885413D01*
X153450094Y-121113655D01*
X153450096Y-121113659D01*
X153450097Y-121113663D01*
X153549965Y-121327830D01*
X153549967Y-121327834D01*
X153658281Y-121482521D01*
X153685505Y-121521401D01*
X153852599Y-121688495D01*
X153949384Y-121756265D01*
X154046165Y-121824032D01*
X154046167Y-121824033D01*
X154046170Y-121824035D01*
X154260337Y-121923903D01*
X154488592Y-121985063D01*
X154676918Y-122001539D01*
X154723999Y-122005659D01*
X154724000Y-122005659D01*
X154724001Y-122005659D01*
X154763234Y-122002226D01*
X154959408Y-121985063D01*
X155187663Y-121923903D01*
X155401830Y-121824035D01*
X155595401Y-121688495D01*
X155762495Y-121521401D01*
X155898035Y-121327830D01*
X155997903Y-121113663D01*
X156059063Y-120885408D01*
X156079659Y-120650000D01*
X156059063Y-120414592D01*
X155997903Y-120186337D01*
X155898035Y-119972171D01*
X155762495Y-119778599D01*
X155762494Y-119778597D01*
X155595402Y-119611506D01*
X155595396Y-119611501D01*
X155409842Y-119481575D01*
X155366217Y-119426998D01*
X155359023Y-119357500D01*
X155390546Y-119295145D01*
X155409842Y-119278425D01*
X155432026Y-119262891D01*
X155595401Y-119148495D01*
X155762495Y-118981401D01*
X155898035Y-118787830D01*
X155997903Y-118573663D01*
X156059063Y-118345408D01*
X156079659Y-118110000D01*
X156059063Y-117874592D01*
X155997903Y-117646337D01*
X155898035Y-117432171D01*
X155762495Y-117238599D01*
X155762494Y-117238597D01*
X155595402Y-117071506D01*
X155595396Y-117071501D01*
X155409842Y-116941575D01*
X155366217Y-116886998D01*
X155359023Y-116817500D01*
X155390546Y-116755145D01*
X155409842Y-116738425D01*
X155432026Y-116722891D01*
X155595401Y-116608495D01*
X155762495Y-116441401D01*
X155898035Y-116247830D01*
X155997903Y-116033663D01*
X156059063Y-115805408D01*
X156079659Y-115570000D01*
X156059063Y-115334592D01*
X155997903Y-115106337D01*
X155898035Y-114892171D01*
X155787495Y-114734302D01*
X155762494Y-114698597D01*
X155595402Y-114531506D01*
X155595396Y-114531501D01*
X155409842Y-114401575D01*
X155366217Y-114346998D01*
X155359023Y-114277500D01*
X155390546Y-114215145D01*
X155409842Y-114198425D01*
X155432026Y-114182891D01*
X155595401Y-114068495D01*
X155762495Y-113901401D01*
X155898035Y-113707830D01*
X155997903Y-113493663D01*
X156059063Y-113265408D01*
X156079659Y-113030000D01*
X156059063Y-112794592D01*
X156007873Y-112603545D01*
X155997905Y-112566344D01*
X155997904Y-112566343D01*
X155997903Y-112566337D01*
X155898035Y-112352171D01*
X155876422Y-112321305D01*
X155762496Y-112158600D01*
X155736012Y-112132116D01*
X155640567Y-112036671D01*
X155607084Y-111975351D01*
X155612068Y-111905659D01*
X155653939Y-111849725D01*
X155684915Y-111832810D01*
X155816331Y-111783796D01*
X155931546Y-111697546D01*
X156017796Y-111582331D01*
X156068091Y-111447483D01*
X156074500Y-111387873D01*
X156074499Y-109592128D01*
X156068091Y-109532517D01*
X156026382Y-109420690D01*
X156017797Y-109397671D01*
X156017793Y-109397664D01*
X155931547Y-109282455D01*
X155931544Y-109282452D01*
X155816335Y-109196206D01*
X155816328Y-109196202D01*
X155681482Y-109145908D01*
X155681483Y-109145908D01*
X155621883Y-109139501D01*
X155621881Y-109139500D01*
X155621873Y-109139500D01*
X155621864Y-109139500D01*
X153826129Y-109139500D01*
X153826123Y-109139501D01*
X153766516Y-109145908D01*
X153631671Y-109196202D01*
X153631664Y-109196206D01*
X153516455Y-109282452D01*
X153516452Y-109282455D01*
X153430206Y-109397664D01*
X153430202Y-109397671D01*
X153379908Y-109532517D01*
X153373501Y-109592116D01*
X153373501Y-109592123D01*
X153373500Y-109592135D01*
X153373500Y-111387870D01*
X153373501Y-111387876D01*
X153379908Y-111447483D01*
X153430202Y-111582328D01*
X153430206Y-111582335D01*
X153516452Y-111697544D01*
X153516455Y-111697547D01*
X153631664Y-111783793D01*
X153631671Y-111783797D01*
X153763081Y-111832810D01*
X153819015Y-111874681D01*
X153843432Y-111940145D01*
X153828580Y-112008418D01*
X153807430Y-112036673D01*
X153685503Y-112158600D01*
X153549965Y-112352169D01*
X153549964Y-112352171D01*
X153450098Y-112566335D01*
X153450094Y-112566344D01*
X153388938Y-112794586D01*
X153388936Y-112794596D01*
X153368341Y-113029999D01*
X153368341Y-113030000D01*
X153388936Y-113265403D01*
X153388938Y-113265413D01*
X153450094Y-113493655D01*
X153450096Y-113493659D01*
X153450097Y-113493663D01*
X153549965Y-113707830D01*
X153549967Y-113707834D01*
X153685501Y-113901395D01*
X153685506Y-113901402D01*
X153852597Y-114068493D01*
X153852603Y-114068498D01*
X154038158Y-114198425D01*
X154081783Y-114253002D01*
X154088977Y-114322500D01*
X154057454Y-114384855D01*
X154038158Y-114401575D01*
X153852597Y-114531505D01*
X153685505Y-114698597D01*
X153549965Y-114892169D01*
X153549964Y-114892171D01*
X153450098Y-115106335D01*
X153450094Y-115106344D01*
X153388938Y-115334586D01*
X153388936Y-115334596D01*
X153368341Y-115569999D01*
X153368341Y-115570000D01*
X153388936Y-115805403D01*
X153388938Y-115805413D01*
X153450094Y-116033655D01*
X153450096Y-116033659D01*
X153450097Y-116033663D01*
X153549965Y-116247830D01*
X153549967Y-116247834D01*
X153685501Y-116441395D01*
X153685506Y-116441402D01*
X153852597Y-116608493D01*
X153852603Y-116608498D01*
X154038158Y-116738425D01*
X154081783Y-116793002D01*
X154088977Y-116862500D01*
X154057454Y-116924855D01*
X154038158Y-116941575D01*
X153852597Y-117071505D01*
X153685505Y-117238597D01*
X153549965Y-117432169D01*
X153549964Y-117432171D01*
X153450098Y-117646335D01*
X153450094Y-117646344D01*
X153388938Y-117874586D01*
X153388936Y-117874596D01*
X153368341Y-118109999D01*
X153368341Y-118110000D01*
X153388936Y-118345403D01*
X153388938Y-118345413D01*
X153450094Y-118573655D01*
X153450096Y-118573659D01*
X153450097Y-118573663D01*
X153549965Y-118787830D01*
X153549967Y-118787834D01*
X153685501Y-118981395D01*
X153685506Y-118981402D01*
X153852597Y-119148493D01*
X153852603Y-119148498D01*
X154038158Y-119278425D01*
X154081783Y-119333002D01*
X154088977Y-119402500D01*
X154057454Y-119464855D01*
X154038158Y-119481575D01*
X153852597Y-119611505D01*
X153685505Y-119778597D01*
X153549965Y-119972169D01*
X153549964Y-119972171D01*
X153450098Y-120186335D01*
X153450094Y-120186344D01*
X153388938Y-120414586D01*
X153388936Y-120414596D01*
X153368341Y-120649999D01*
X153368341Y-120650000D01*
X125599659Y-120650000D01*
X125579063Y-120414592D01*
X125517903Y-120186337D01*
X125418035Y-119972171D01*
X125282495Y-119778599D01*
X125282494Y-119778597D01*
X125115402Y-119611506D01*
X125115396Y-119611501D01*
X124929842Y-119481575D01*
X124886217Y-119426998D01*
X124879023Y-119357500D01*
X124910546Y-119295145D01*
X124929842Y-119278425D01*
X124952026Y-119262891D01*
X125115401Y-119148495D01*
X125282495Y-118981401D01*
X125418035Y-118787830D01*
X125517903Y-118573663D01*
X125579063Y-118345408D01*
X125599659Y-118110000D01*
X125579063Y-117874592D01*
X125517903Y-117646337D01*
X125418035Y-117432171D01*
X125282495Y-117238599D01*
X125282494Y-117238597D01*
X125115402Y-117071506D01*
X125115396Y-117071501D01*
X124929842Y-116941575D01*
X124886217Y-116886998D01*
X124879023Y-116817500D01*
X124910546Y-116755145D01*
X124929842Y-116738425D01*
X124952026Y-116722891D01*
X125115401Y-116608495D01*
X125282495Y-116441401D01*
X125418035Y-116247830D01*
X125517903Y-116033663D01*
X125579063Y-115805408D01*
X125599659Y-115570000D01*
X125579063Y-115334592D01*
X125517903Y-115106337D01*
X125497229Y-115062002D01*
X135261751Y-115062002D01*
X135280685Y-115230056D01*
X135336545Y-115389694D01*
X135336547Y-115389697D01*
X135426518Y-115532884D01*
X135426523Y-115532890D01*
X135546109Y-115652476D01*
X135546115Y-115652481D01*
X135689302Y-115742452D01*
X135689305Y-115742454D01*
X135689309Y-115742455D01*
X135689310Y-115742456D01*
X135761913Y-115767860D01*
X135848943Y-115798314D01*
X136016997Y-115817249D01*
X136017000Y-115817249D01*
X136017003Y-115817249D01*
X136185056Y-115798314D01*
X136185059Y-115798313D01*
X136344690Y-115742456D01*
X136344692Y-115742454D01*
X136344694Y-115742454D01*
X136344697Y-115742452D01*
X136487884Y-115652481D01*
X136487885Y-115652480D01*
X136487890Y-115652477D01*
X136607477Y-115532890D01*
X136697452Y-115389697D01*
X136697454Y-115389694D01*
X136697454Y-115389692D01*
X136697456Y-115389690D01*
X136753313Y-115230059D01*
X136753313Y-115230058D01*
X136753314Y-115230056D01*
X136772249Y-115062002D01*
X136772249Y-115061997D01*
X136753314Y-114893943D01*
X136697454Y-114734305D01*
X136697452Y-114734302D01*
X136607481Y-114591115D01*
X136607476Y-114591109D01*
X136487890Y-114471523D01*
X136487884Y-114471518D01*
X136344697Y-114381547D01*
X136344694Y-114381545D01*
X136185056Y-114325685D01*
X136017003Y-114306751D01*
X136016997Y-114306751D01*
X135848943Y-114325685D01*
X135689305Y-114381545D01*
X135689302Y-114381547D01*
X135546115Y-114471518D01*
X135546109Y-114471523D01*
X135426523Y-114591109D01*
X135426518Y-114591115D01*
X135336547Y-114734302D01*
X135336545Y-114734305D01*
X135280685Y-114893943D01*
X135261751Y-115061997D01*
X135261751Y-115062002D01*
X125497229Y-115062002D01*
X125418035Y-114892171D01*
X125307494Y-114734302D01*
X125282496Y-114698600D01*
X125282493Y-114698597D01*
X125160567Y-114576671D01*
X125127084Y-114515351D01*
X125132068Y-114445659D01*
X125173939Y-114389725D01*
X125204915Y-114372810D01*
X125336331Y-114323796D01*
X125451546Y-114237546D01*
X125537796Y-114122331D01*
X125566265Y-114046002D01*
X141992751Y-114046002D01*
X142011685Y-114214056D01*
X142067545Y-114373694D01*
X142067547Y-114373697D01*
X142157518Y-114516884D01*
X142157523Y-114516890D01*
X142277109Y-114636476D01*
X142277115Y-114636481D01*
X142420302Y-114726452D01*
X142420305Y-114726454D01*
X142420309Y-114726455D01*
X142420310Y-114726456D01*
X142442756Y-114734310D01*
X142579943Y-114782314D01*
X142747997Y-114801249D01*
X142748000Y-114801249D01*
X142748003Y-114801249D01*
X142916056Y-114782314D01*
X142916059Y-114782313D01*
X143075690Y-114726456D01*
X143075692Y-114726454D01*
X143075694Y-114726454D01*
X143075697Y-114726452D01*
X143218884Y-114636481D01*
X143218885Y-114636480D01*
X143218890Y-114636477D01*
X143338477Y-114516890D01*
X143366983Y-114471523D01*
X143428452Y-114373697D01*
X143428454Y-114373694D01*
X143428454Y-114373692D01*
X143428456Y-114373690D01*
X143484313Y-114214059D01*
X143484313Y-114214058D01*
X143484314Y-114214056D01*
X143503249Y-114046002D01*
X143503249Y-114045997D01*
X143484314Y-113877943D01*
X143428454Y-113718305D01*
X143428452Y-113718302D01*
X143338481Y-113575115D01*
X143338476Y-113575109D01*
X143218890Y-113455523D01*
X143218884Y-113455518D01*
X143075697Y-113365547D01*
X143075694Y-113365545D01*
X142916056Y-113309685D01*
X142748003Y-113290751D01*
X142747997Y-113290751D01*
X142579943Y-113309685D01*
X142420305Y-113365545D01*
X142420302Y-113365547D01*
X142277115Y-113455518D01*
X142277109Y-113455523D01*
X142157523Y-113575109D01*
X142157518Y-113575115D01*
X142067547Y-113718302D01*
X142067545Y-113718305D01*
X142011685Y-113877943D01*
X141992751Y-114045997D01*
X141992751Y-114046002D01*
X125566265Y-114046002D01*
X125588091Y-113987483D01*
X125594500Y-113927873D01*
X125594500Y-113284002D01*
X128403751Y-113284002D01*
X128422685Y-113452056D01*
X128478545Y-113611694D01*
X128478547Y-113611697D01*
X128568518Y-113754884D01*
X128568523Y-113754890D01*
X128688109Y-113874476D01*
X128688115Y-113874481D01*
X128831302Y-113964452D01*
X128831305Y-113964454D01*
X128831309Y-113964455D01*
X128831310Y-113964456D01*
X128897115Y-113987482D01*
X128990943Y-114020314D01*
X129158997Y-114039249D01*
X129159000Y-114039249D01*
X129159003Y-114039249D01*
X129327056Y-114020314D01*
X129327059Y-114020313D01*
X129486690Y-113964456D01*
X129486692Y-113964454D01*
X129486694Y-113964454D01*
X129486697Y-113964452D01*
X129629884Y-113874481D01*
X129629885Y-113874480D01*
X129629890Y-113874477D01*
X129749477Y-113754890D01*
X129772467Y-113718302D01*
X129839452Y-113611697D01*
X129839454Y-113611694D01*
X129839454Y-113611692D01*
X129839456Y-113611690D01*
X129895313Y-113452059D01*
X129895313Y-113452058D01*
X129895314Y-113452056D01*
X129914249Y-113284002D01*
X129914249Y-113283997D01*
X129895314Y-113115943D01*
X129846590Y-112976697D01*
X129839456Y-112956310D01*
X129839455Y-112956309D01*
X129839454Y-112956305D01*
X129839452Y-112956302D01*
X129749481Y-112813115D01*
X129749476Y-112813109D01*
X129629890Y-112693523D01*
X129629884Y-112693518D01*
X129559038Y-112649002D01*
X134118751Y-112649002D01*
X134137685Y-112817056D01*
X134193545Y-112976694D01*
X134193547Y-112976697D01*
X134283518Y-113119884D01*
X134283523Y-113119890D01*
X134403109Y-113239476D01*
X134403115Y-113239481D01*
X134546302Y-113329452D01*
X134546305Y-113329454D01*
X134546309Y-113329455D01*
X134546310Y-113329456D01*
X134618913Y-113354860D01*
X134705943Y-113385314D01*
X134873997Y-113404249D01*
X134874000Y-113404249D01*
X134874003Y-113404249D01*
X135042056Y-113385314D01*
X135042059Y-113385313D01*
X135201690Y-113329456D01*
X135201692Y-113329454D01*
X135201694Y-113329454D01*
X135201697Y-113329452D01*
X135344884Y-113239481D01*
X135344885Y-113239480D01*
X135344890Y-113239477D01*
X135464477Y-113119890D01*
X135466957Y-113115943D01*
X135554452Y-112976697D01*
X135554454Y-112976694D01*
X135554454Y-112976692D01*
X135554456Y-112976690D01*
X135610313Y-112817059D01*
X135610313Y-112817058D01*
X135610314Y-112817056D01*
X135614940Y-112776002D01*
X144278751Y-112776002D01*
X144297685Y-112944056D01*
X144353545Y-113103694D01*
X144353547Y-113103697D01*
X144443518Y-113246884D01*
X144443523Y-113246890D01*
X144563109Y-113366476D01*
X144563115Y-113366481D01*
X144706302Y-113456452D01*
X144706305Y-113456454D01*
X144706309Y-113456455D01*
X144706310Y-113456456D01*
X144778913Y-113481860D01*
X144865943Y-113512314D01*
X145033997Y-113531249D01*
X145034000Y-113531249D01*
X145034003Y-113531249D01*
X145202056Y-113512314D01*
X145202059Y-113512313D01*
X145361690Y-113456456D01*
X145361692Y-113456454D01*
X145361694Y-113456454D01*
X145361697Y-113456452D01*
X145504884Y-113366481D01*
X145504885Y-113366480D01*
X145504890Y-113366477D01*
X145624477Y-113246890D01*
X145624481Y-113246884D01*
X145714452Y-113103697D01*
X145714454Y-113103694D01*
X145714454Y-113103692D01*
X145714456Y-113103690D01*
X145770313Y-112944059D01*
X145770313Y-112944058D01*
X145770314Y-112944056D01*
X145789249Y-112776002D01*
X145789249Y-112775997D01*
X145770314Y-112607943D01*
X145714454Y-112448305D01*
X145714452Y-112448302D01*
X145624481Y-112305115D01*
X145624476Y-112305109D01*
X145504890Y-112185523D01*
X145504884Y-112185518D01*
X145361697Y-112095547D01*
X145361694Y-112095545D01*
X145202056Y-112039685D01*
X145034003Y-112020751D01*
X145033997Y-112020751D01*
X144865943Y-112039685D01*
X144706305Y-112095545D01*
X144706302Y-112095547D01*
X144563115Y-112185518D01*
X144563109Y-112185523D01*
X144443523Y-112305109D01*
X144443518Y-112305115D01*
X144353547Y-112448302D01*
X144353545Y-112448305D01*
X144297685Y-112607943D01*
X144278751Y-112775997D01*
X144278751Y-112776002D01*
X135614940Y-112776002D01*
X135629249Y-112649002D01*
X135629249Y-112648997D01*
X135610314Y-112480943D01*
X135554454Y-112321305D01*
X135554452Y-112321302D01*
X135464481Y-112178115D01*
X135464476Y-112178109D01*
X135344890Y-112058523D01*
X135344884Y-112058518D01*
X135201697Y-111968547D01*
X135201694Y-111968545D01*
X135042056Y-111912685D01*
X134874003Y-111893751D01*
X134873997Y-111893751D01*
X134705943Y-111912685D01*
X134546305Y-111968545D01*
X134546302Y-111968547D01*
X134403115Y-112058518D01*
X134403109Y-112058523D01*
X134283523Y-112178109D01*
X134283518Y-112178115D01*
X134193547Y-112321302D01*
X134193545Y-112321305D01*
X134137685Y-112480943D01*
X134118751Y-112648997D01*
X134118751Y-112649002D01*
X129559038Y-112649002D01*
X129486697Y-112603547D01*
X129486694Y-112603545D01*
X129327056Y-112547685D01*
X129159003Y-112528751D01*
X129158997Y-112528751D01*
X128990943Y-112547685D01*
X128831305Y-112603545D01*
X128831302Y-112603547D01*
X128688115Y-112693518D01*
X128688109Y-112693523D01*
X128568523Y-112813109D01*
X128568518Y-112813115D01*
X128478547Y-112956302D01*
X128478545Y-112956305D01*
X128422685Y-113115943D01*
X128403751Y-113283997D01*
X128403751Y-113284002D01*
X125594500Y-113284002D01*
X125594499Y-112132128D01*
X125588091Y-112072517D01*
X125575846Y-112039687D01*
X125537797Y-111937671D01*
X125537793Y-111937664D01*
X125451547Y-111822455D01*
X125451544Y-111822452D01*
X125336335Y-111736206D01*
X125336328Y-111736202D01*
X125201482Y-111685908D01*
X125201483Y-111685908D01*
X125141883Y-111679501D01*
X125141881Y-111679500D01*
X125141873Y-111679500D01*
X125141864Y-111679500D01*
X123346129Y-111679500D01*
X123346123Y-111679501D01*
X123286516Y-111685908D01*
X123151671Y-111736202D01*
X123151664Y-111736206D01*
X123036455Y-111822452D01*
X123036452Y-111822455D01*
X122950206Y-111937664D01*
X122950202Y-111937671D01*
X122899908Y-112072517D01*
X122893501Y-112132116D01*
X122893501Y-112132123D01*
X122893500Y-112132135D01*
X122893500Y-113927870D01*
X122893501Y-113927876D01*
X122899908Y-113987483D01*
X122950202Y-114122328D01*
X122950206Y-114122335D01*
X123036452Y-114237544D01*
X123036455Y-114237547D01*
X123151664Y-114323793D01*
X123151671Y-114323797D01*
X123283081Y-114372810D01*
X123339015Y-114414681D01*
X123363432Y-114480145D01*
X123348580Y-114548418D01*
X123327430Y-114576673D01*
X123205503Y-114698600D01*
X123069965Y-114892169D01*
X123069964Y-114892171D01*
X122970098Y-115106335D01*
X122970094Y-115106344D01*
X122908938Y-115334586D01*
X122908936Y-115334596D01*
X122888341Y-115569999D01*
X122888341Y-115570000D01*
X122908936Y-115805403D01*
X122908938Y-115805413D01*
X122970094Y-116033655D01*
X122970096Y-116033659D01*
X122970097Y-116033663D01*
X123069965Y-116247830D01*
X123069967Y-116247834D01*
X123205501Y-116441395D01*
X123205506Y-116441402D01*
X123372597Y-116608493D01*
X123372603Y-116608498D01*
X123558158Y-116738425D01*
X123601783Y-116793002D01*
X123608977Y-116862500D01*
X123577454Y-116924855D01*
X123558158Y-116941575D01*
X123372597Y-117071505D01*
X123205505Y-117238597D01*
X123069965Y-117432169D01*
X123069964Y-117432171D01*
X122970098Y-117646335D01*
X122970094Y-117646344D01*
X122908938Y-117874586D01*
X122908936Y-117874596D01*
X122888341Y-118109999D01*
X122888341Y-118110000D01*
X122908936Y-118345403D01*
X122908938Y-118345413D01*
X122970094Y-118573655D01*
X122970096Y-118573659D01*
X122970097Y-118573663D01*
X123069965Y-118787830D01*
X123069967Y-118787834D01*
X123205501Y-118981395D01*
X123205506Y-118981402D01*
X123372597Y-119148493D01*
X123372603Y-119148498D01*
X123558158Y-119278425D01*
X123601783Y-119333002D01*
X123608977Y-119402500D01*
X123577454Y-119464855D01*
X123558158Y-119481575D01*
X123372597Y-119611505D01*
X123205505Y-119778597D01*
X123069965Y-119972169D01*
X123069964Y-119972171D01*
X122970098Y-120186335D01*
X122970094Y-120186344D01*
X122908938Y-120414586D01*
X122908936Y-120414596D01*
X122888341Y-120649999D01*
X122888341Y-120650000D01*
X122908936Y-120885403D01*
X122908938Y-120885413D01*
X122970094Y-121113655D01*
X122970096Y-121113659D01*
X122970097Y-121113663D01*
X123069965Y-121327830D01*
X123069967Y-121327834D01*
X123205501Y-121521395D01*
X123205506Y-121521402D01*
X123372597Y-121688493D01*
X123372603Y-121688498D01*
X123558158Y-121818425D01*
X123601783Y-121873002D01*
X123608977Y-121942500D01*
X123577454Y-122004855D01*
X123558158Y-122021575D01*
X123372597Y-122151505D01*
X123205505Y-122318597D01*
X123069965Y-122512169D01*
X123069964Y-122512171D01*
X122970098Y-122726335D01*
X122970094Y-122726344D01*
X122908938Y-122954586D01*
X122908936Y-122954596D01*
X122888341Y-123189999D01*
X122888341Y-123190000D01*
X122908936Y-123425403D01*
X122908938Y-123425413D01*
X122970094Y-123653655D01*
X122970096Y-123653659D01*
X122970097Y-123653663D01*
X122996143Y-123709518D01*
X123069965Y-123867830D01*
X123069967Y-123867834D01*
X123205501Y-124061395D01*
X123205506Y-124061402D01*
X123372597Y-124228493D01*
X123372603Y-124228498D01*
X123558158Y-124358425D01*
X123601783Y-124413002D01*
X123608977Y-124482500D01*
X123577454Y-124544855D01*
X123558158Y-124561575D01*
X123372597Y-124691505D01*
X123205505Y-124858597D01*
X123069965Y-125052169D01*
X123069964Y-125052171D01*
X122970098Y-125266335D01*
X122970094Y-125266344D01*
X122908938Y-125494586D01*
X122908936Y-125494596D01*
X122888341Y-125729999D01*
X122888341Y-125730000D01*
X122908936Y-125965403D01*
X122908938Y-125965413D01*
X122970094Y-126193655D01*
X122970096Y-126193659D01*
X122970097Y-126193663D01*
X123028797Y-126319545D01*
X123069965Y-126407830D01*
X123069967Y-126407834D01*
X123205501Y-126601395D01*
X123205506Y-126601402D01*
X123372597Y-126768493D01*
X123372603Y-126768498D01*
X123558158Y-126898425D01*
X123601783Y-126953002D01*
X123608977Y-127022500D01*
X123577454Y-127084855D01*
X123558158Y-127101575D01*
X123372597Y-127231505D01*
X123205505Y-127398597D01*
X123069965Y-127592169D01*
X123069964Y-127592171D01*
X122970098Y-127806335D01*
X122970094Y-127806344D01*
X122908938Y-128034586D01*
X122908936Y-128034596D01*
X122888341Y-128269999D01*
X122888341Y-128270000D01*
X122908936Y-128505403D01*
X122908938Y-128505413D01*
X122970094Y-128733655D01*
X122970096Y-128733659D01*
X122970097Y-128733663D01*
X123036652Y-128876390D01*
X123069965Y-128947830D01*
X123069967Y-128947834D01*
X123205501Y-129141395D01*
X123205506Y-129141402D01*
X123372597Y-129308493D01*
X123372603Y-129308498D01*
X123558158Y-129438425D01*
X123601783Y-129493002D01*
X123608977Y-129562500D01*
X123577454Y-129624855D01*
X123558158Y-129641575D01*
X123372597Y-129771505D01*
X123205505Y-129938597D01*
X123069965Y-130132169D01*
X123069964Y-130132171D01*
X122970098Y-130346335D01*
X122970094Y-130346344D01*
X122908938Y-130574586D01*
X122908936Y-130574596D01*
X122888341Y-130809999D01*
X122888341Y-130810000D01*
X122908936Y-131045403D01*
X122908938Y-131045413D01*
X122970094Y-131273655D01*
X122970096Y-131273659D01*
X122970097Y-131273663D01*
X123065551Y-131478364D01*
X123069965Y-131487830D01*
X123069967Y-131487834D01*
X123205501Y-131681395D01*
X123205506Y-131681402D01*
X123372597Y-131848493D01*
X123372603Y-131848498D01*
X123558158Y-131978425D01*
X123601783Y-132033002D01*
X123608977Y-132102500D01*
X123577454Y-132164855D01*
X123558158Y-132181575D01*
X123372597Y-132311505D01*
X123205505Y-132478597D01*
X123069965Y-132672169D01*
X123069964Y-132672171D01*
X122970098Y-132886335D01*
X122970094Y-132886344D01*
X122908938Y-133114586D01*
X122908936Y-133114596D01*
X122888341Y-133349999D01*
X122888341Y-133350000D01*
X121069500Y-133350000D01*
X121069500Y-111000002D01*
X139444751Y-111000002D01*
X139463685Y-111168056D01*
X139519545Y-111327694D01*
X139519547Y-111327697D01*
X139609518Y-111470884D01*
X139609523Y-111470890D01*
X139729109Y-111590476D01*
X139729115Y-111590481D01*
X139872302Y-111680452D01*
X139872305Y-111680454D01*
X139872309Y-111680455D01*
X139872310Y-111680456D01*
X139887894Y-111685909D01*
X140031943Y-111736314D01*
X140199997Y-111755249D01*
X140200000Y-111755249D01*
X140200003Y-111755249D01*
X140368056Y-111736314D01*
X140368365Y-111736206D01*
X140527690Y-111680456D01*
X140527692Y-111680454D01*
X140527694Y-111680454D01*
X140527697Y-111680452D01*
X140670884Y-111590481D01*
X140670885Y-111590480D01*
X140670890Y-111590477D01*
X140790477Y-111470890D01*
X140805185Y-111447483D01*
X140880452Y-111327697D01*
X140880454Y-111327694D01*
X140880454Y-111327692D01*
X140880456Y-111327690D01*
X140936313Y-111168059D01*
X140936313Y-111168058D01*
X140936314Y-111168056D01*
X140955249Y-111000002D01*
X140955249Y-110999997D01*
X140936314Y-110831943D01*
X140880454Y-110672305D01*
X140880452Y-110672302D01*
X140790481Y-110529115D01*
X140790476Y-110529109D01*
X140670890Y-110409523D01*
X140670884Y-110409518D01*
X140527697Y-110319547D01*
X140527694Y-110319545D01*
X140368056Y-110263685D01*
X140200003Y-110244751D01*
X140199997Y-110244751D01*
X140031943Y-110263685D01*
X139872305Y-110319545D01*
X139872302Y-110319547D01*
X139729115Y-110409518D01*
X139729109Y-110409523D01*
X139609523Y-110529109D01*
X139609518Y-110529115D01*
X139519547Y-110672302D01*
X139519545Y-110672305D01*
X139463685Y-110831943D01*
X139444751Y-110999997D01*
X139444751Y-111000002D01*
X121069500Y-111000002D01*
X121069500Y-109093002D01*
X136658751Y-109093002D01*
X136677685Y-109261056D01*
X136733545Y-109420694D01*
X136733547Y-109420697D01*
X136823518Y-109563884D01*
X136823523Y-109563890D01*
X136943109Y-109683476D01*
X136943115Y-109683481D01*
X137086302Y-109773452D01*
X137086305Y-109773454D01*
X137086309Y-109773455D01*
X137086310Y-109773456D01*
X137158913Y-109798860D01*
X137245943Y-109829314D01*
X137413997Y-109848249D01*
X137414000Y-109848249D01*
X137414003Y-109848249D01*
X137582056Y-109829314D01*
X137582059Y-109829313D01*
X137741690Y-109773456D01*
X137741692Y-109773454D01*
X137741694Y-109773454D01*
X137741697Y-109773452D01*
X137884884Y-109683481D01*
X137884885Y-109683480D01*
X137884890Y-109683477D01*
X138004477Y-109563890D01*
X138094452Y-109420697D01*
X138094454Y-109420694D01*
X138094454Y-109420692D01*
X138094456Y-109420690D01*
X138150313Y-109261059D01*
X138150313Y-109261058D01*
X138150314Y-109261056D01*
X138169249Y-109093002D01*
X138169249Y-109092997D01*
X138150314Y-108924943D01*
X138094454Y-108765305D01*
X138094452Y-108765302D01*
X138004481Y-108622115D01*
X138004476Y-108622109D01*
X137884890Y-108502523D01*
X137884884Y-108502518D01*
X137741697Y-108412547D01*
X137741694Y-108412545D01*
X137582056Y-108356685D01*
X137414003Y-108337751D01*
X137413997Y-108337751D01*
X137245943Y-108356685D01*
X137086305Y-108412545D01*
X137086302Y-108412547D01*
X136943115Y-108502518D01*
X136943109Y-108502523D01*
X136823523Y-108622109D01*
X136823518Y-108622115D01*
X136733547Y-108765302D01*
X136733545Y-108765305D01*
X136677685Y-108924943D01*
X136658751Y-109092997D01*
X136658751Y-109093002D01*
X121069500Y-109093002D01*
X121069500Y-108250002D01*
X138544751Y-108250002D01*
X138563685Y-108418056D01*
X138619545Y-108577694D01*
X138619547Y-108577697D01*
X138709518Y-108720884D01*
X138709523Y-108720890D01*
X138829109Y-108840476D01*
X138829115Y-108840481D01*
X138972302Y-108930452D01*
X138972305Y-108930454D01*
X138972309Y-108930455D01*
X138972310Y-108930456D01*
X139044913Y-108955860D01*
X139131943Y-108986314D01*
X139299997Y-109005249D01*
X139300000Y-109005249D01*
X139300003Y-109005249D01*
X139468056Y-108986314D01*
X139468059Y-108986313D01*
X139627690Y-108930456D01*
X139627692Y-108930454D01*
X139627694Y-108930454D01*
X139627697Y-108930452D01*
X139770884Y-108840481D01*
X139770885Y-108840480D01*
X139770890Y-108840477D01*
X139890477Y-108720890D01*
X139980452Y-108577697D01*
X139980454Y-108577694D01*
X139980454Y-108577692D01*
X139980456Y-108577690D01*
X140036313Y-108418059D01*
X140036313Y-108418058D01*
X140036314Y-108418056D01*
X140055249Y-108250002D01*
X140055249Y-108249997D01*
X140036314Y-108081943D01*
X139980454Y-107922305D01*
X139980452Y-107922302D01*
X139890481Y-107779115D01*
X139890476Y-107779109D01*
X139770890Y-107659523D01*
X139770884Y-107659518D01*
X139627697Y-107569547D01*
X139627694Y-107569545D01*
X139468056Y-107513685D01*
X139300003Y-107494751D01*
X139299997Y-107494751D01*
X139131943Y-107513685D01*
X138972305Y-107569545D01*
X138972302Y-107569547D01*
X138829115Y-107659518D01*
X138829109Y-107659523D01*
X138709523Y-107779109D01*
X138709518Y-107779115D01*
X138619547Y-107922302D01*
X138619545Y-107922305D01*
X138563685Y-108081943D01*
X138544751Y-108249997D01*
X138544751Y-108250002D01*
X121069500Y-108250002D01*
X121069500Y-106807002D01*
X144151751Y-106807002D01*
X144170685Y-106975056D01*
X144226545Y-107134694D01*
X144226547Y-107134697D01*
X144316518Y-107277884D01*
X144316523Y-107277890D01*
X144436109Y-107397476D01*
X144436115Y-107397481D01*
X144579302Y-107487452D01*
X144579305Y-107487454D01*
X144579309Y-107487455D01*
X144579310Y-107487456D01*
X144651913Y-107512860D01*
X144738943Y-107543314D01*
X144906997Y-107562249D01*
X144907000Y-107562249D01*
X144907003Y-107562249D01*
X145075056Y-107543314D01*
X145075059Y-107543313D01*
X145234690Y-107487456D01*
X145234692Y-107487454D01*
X145234694Y-107487454D01*
X145234697Y-107487452D01*
X145377884Y-107397481D01*
X145377885Y-107397480D01*
X145377890Y-107397477D01*
X145497477Y-107277890D01*
X145587452Y-107134697D01*
X145587454Y-107134694D01*
X145587454Y-107134692D01*
X145587456Y-107134690D01*
X145643313Y-106975059D01*
X145643313Y-106975058D01*
X145643314Y-106975056D01*
X145662249Y-106807002D01*
X145662249Y-106806997D01*
X145643314Y-106638943D01*
X145597662Y-106508477D01*
X145587456Y-106479310D01*
X145587455Y-106479309D01*
X145587454Y-106479305D01*
X145587452Y-106479302D01*
X145497481Y-106336115D01*
X145497476Y-106336109D01*
X145377890Y-106216523D01*
X145377884Y-106216518D01*
X145234697Y-106126547D01*
X145234694Y-106126545D01*
X145075056Y-106070685D01*
X144907003Y-106051751D01*
X144906997Y-106051751D01*
X144738943Y-106070685D01*
X144579305Y-106126545D01*
X144579302Y-106126547D01*
X144436115Y-106216518D01*
X144436109Y-106216523D01*
X144316523Y-106336109D01*
X144316518Y-106336115D01*
X144226547Y-106479302D01*
X144226545Y-106479305D01*
X144170685Y-106638943D01*
X144151751Y-106806997D01*
X144151751Y-106807002D01*
X121069500Y-106807002D01*
X121069500Y-102613000D01*
X121089185Y-102545961D01*
X121141989Y-102500206D01*
X121193500Y-102489000D01*
X122786831Y-102489000D01*
X122853870Y-102508685D01*
X122899625Y-102561489D01*
X122909360Y-102629194D01*
X122909409Y-102629199D01*
X122909390Y-102629407D01*
X122909569Y-102630647D01*
X122908949Y-102634520D01*
X122908937Y-102634582D01*
X122888341Y-102869999D01*
X122888341Y-102870000D01*
X122908936Y-103105403D01*
X122908938Y-103105413D01*
X122970094Y-103333655D01*
X122970096Y-103333659D01*
X122970097Y-103333663D01*
X122982156Y-103359523D01*
X123069965Y-103547830D01*
X123069967Y-103547834D01*
X123205501Y-103741395D01*
X123205506Y-103741402D01*
X123372597Y-103908493D01*
X123372603Y-103908498D01*
X123558594Y-104038730D01*
X123602219Y-104093307D01*
X123609413Y-104162805D01*
X123577890Y-104225160D01*
X123558595Y-104241880D01*
X123372922Y-104371890D01*
X123372920Y-104371891D01*
X123205891Y-104538920D01*
X123205886Y-104538926D01*
X123070400Y-104732420D01*
X123070399Y-104732422D01*
X122970570Y-104946507D01*
X122970567Y-104946513D01*
X122913364Y-105159999D01*
X122913364Y-105160000D01*
X123810314Y-105160000D01*
X123784507Y-105200156D01*
X123744000Y-105338111D01*
X123744000Y-105481889D01*
X123784507Y-105619844D01*
X123810314Y-105660000D01*
X122913364Y-105660000D01*
X122970567Y-105873486D01*
X122970570Y-105873492D01*
X123070399Y-106087578D01*
X123205894Y-106281082D01*
X123372917Y-106448105D01*
X123566421Y-106583600D01*
X123780507Y-106683429D01*
X123780516Y-106683433D01*
X123994000Y-106740634D01*
X123994000Y-105845501D01*
X124101685Y-105894680D01*
X124208237Y-105910000D01*
X124279763Y-105910000D01*
X124386315Y-105894680D01*
X124494000Y-105845501D01*
X124494000Y-106740633D01*
X124707483Y-106683433D01*
X124707492Y-106683429D01*
X124921578Y-106583600D01*
X125115082Y-106448105D01*
X125282105Y-106281082D01*
X125417600Y-106087578D01*
X125496674Y-105918002D01*
X135896751Y-105918002D01*
X135915685Y-106086056D01*
X135971545Y-106245694D01*
X135971547Y-106245697D01*
X136061518Y-106388884D01*
X136061523Y-106388890D01*
X136181109Y-106508476D01*
X136181115Y-106508481D01*
X136324302Y-106598452D01*
X136324305Y-106598454D01*
X136324309Y-106598455D01*
X136324310Y-106598456D01*
X136396913Y-106623860D01*
X136483943Y-106654314D01*
X136651997Y-106673249D01*
X136652000Y-106673249D01*
X136652003Y-106673249D01*
X136820056Y-106654314D01*
X136863984Y-106638943D01*
X136979690Y-106598456D01*
X136979692Y-106598454D01*
X136979694Y-106598454D01*
X136979697Y-106598452D01*
X137122884Y-106508481D01*
X137122885Y-106508480D01*
X137122890Y-106508477D01*
X137242477Y-106388890D01*
X137310017Y-106281402D01*
X137332452Y-106245697D01*
X137332454Y-106245694D01*
X137332454Y-106245692D01*
X137332456Y-106245690D01*
X137388313Y-106086059D01*
X137388313Y-106086058D01*
X137388314Y-106086056D01*
X137407249Y-105918002D01*
X137407249Y-105917997D01*
X137388314Y-105749943D01*
X137351737Y-105645413D01*
X137332456Y-105590310D01*
X137332455Y-105590309D01*
X137332454Y-105590305D01*
X137332452Y-105590302D01*
X137242481Y-105447115D01*
X137242476Y-105447109D01*
X137205367Y-105410000D01*
X153368341Y-105410000D01*
X153388936Y-105645403D01*
X153388938Y-105645413D01*
X153450094Y-105873655D01*
X153450096Y-105873659D01*
X153450097Y-105873663D01*
X153470772Y-105918000D01*
X153549965Y-106087830D01*
X153549967Y-106087834D01*
X153640073Y-106216518D01*
X153685505Y-106281401D01*
X153852599Y-106448495D01*
X153938261Y-106508476D01*
X154046165Y-106584032D01*
X154046167Y-106584033D01*
X154046170Y-106584035D01*
X154260337Y-106683903D01*
X154488592Y-106745063D01*
X154676918Y-106761539D01*
X154723999Y-106765659D01*
X154724000Y-106765659D01*
X154724001Y-106765659D01*
X154763234Y-106762226D01*
X154959408Y-106745063D01*
X155187663Y-106683903D01*
X155401830Y-106584035D01*
X155595401Y-106448495D01*
X155762495Y-106281401D01*
X155898035Y-106087830D01*
X155997903Y-105873663D01*
X156059063Y-105645408D01*
X156079659Y-105410000D01*
X156059063Y-105174592D01*
X155997903Y-104946337D01*
X155898035Y-104732171D01*
X155840499Y-104650000D01*
X155762494Y-104538597D01*
X155595402Y-104371506D01*
X155595396Y-104371501D01*
X155409842Y-104241575D01*
X155366217Y-104186998D01*
X155359023Y-104117500D01*
X155390546Y-104055145D01*
X155409842Y-104038425D01*
X155432026Y-104022891D01*
X155595401Y-103908495D01*
X155762495Y-103741401D01*
X155898035Y-103547830D01*
X155997903Y-103333663D01*
X156059063Y-103105408D01*
X156079659Y-102870000D01*
X156059063Y-102634592D01*
X155997903Y-102406337D01*
X155898035Y-102192171D01*
X155762495Y-101998599D01*
X155762494Y-101998597D01*
X155595402Y-101831506D01*
X155595396Y-101831501D01*
X155409842Y-101701575D01*
X155366217Y-101646998D01*
X155359023Y-101577500D01*
X155390546Y-101515145D01*
X155409842Y-101498425D01*
X155518515Y-101422331D01*
X155595401Y-101368495D01*
X155762495Y-101201401D01*
X155898035Y-101007830D01*
X155997903Y-100793663D01*
X156059063Y-100565408D01*
X156079659Y-100330000D01*
X156059063Y-100094592D01*
X155997903Y-99866337D01*
X155898035Y-99652171D01*
X155762495Y-99458599D01*
X155762494Y-99458597D01*
X155595402Y-99291506D01*
X155595396Y-99291501D01*
X155409842Y-99161575D01*
X155366217Y-99106998D01*
X155359023Y-99037500D01*
X155390546Y-98975145D01*
X155409842Y-98958425D01*
X155509739Y-98888476D01*
X155595401Y-98828495D01*
X155762495Y-98661401D01*
X155898035Y-98467830D01*
X155997903Y-98253663D01*
X156059063Y-98025408D01*
X156079659Y-97790000D01*
X156059063Y-97554592D01*
X155997903Y-97326337D01*
X155898035Y-97112171D01*
X155870925Y-97073454D01*
X155762496Y-96918600D01*
X155702340Y-96858444D01*
X155640567Y-96796671D01*
X155607084Y-96735351D01*
X155612068Y-96665659D01*
X155653939Y-96609725D01*
X155684915Y-96592810D01*
X155816331Y-96543796D01*
X155931546Y-96457546D01*
X156017796Y-96342331D01*
X156068091Y-96207483D01*
X156074500Y-96147873D01*
X156074499Y-94352128D01*
X156068091Y-94292517D01*
X156017796Y-94157669D01*
X156017795Y-94157668D01*
X156017793Y-94157664D01*
X155931547Y-94042455D01*
X155931544Y-94042452D01*
X155816335Y-93956206D01*
X155816328Y-93956202D01*
X155681482Y-93905908D01*
X155681483Y-93905908D01*
X155621883Y-93899501D01*
X155621881Y-93899500D01*
X155621873Y-93899500D01*
X155621864Y-93899500D01*
X153826129Y-93899500D01*
X153826123Y-93899501D01*
X153766516Y-93905908D01*
X153631671Y-93956202D01*
X153631664Y-93956206D01*
X153516455Y-94042452D01*
X153516452Y-94042455D01*
X153430206Y-94157664D01*
X153430202Y-94157671D01*
X153379908Y-94292517D01*
X153373501Y-94352116D01*
X153373501Y-94352123D01*
X153373500Y-94352135D01*
X153373500Y-96147870D01*
X153373501Y-96147876D01*
X153379908Y-96207483D01*
X153430202Y-96342328D01*
X153430206Y-96342335D01*
X153516452Y-96457544D01*
X153516455Y-96457547D01*
X153631664Y-96543793D01*
X153631671Y-96543797D01*
X153763081Y-96592810D01*
X153819015Y-96634681D01*
X153843432Y-96700145D01*
X153828580Y-96768418D01*
X153807430Y-96796673D01*
X153685503Y-96918600D01*
X153549965Y-97112169D01*
X153549964Y-97112171D01*
X153450099Y-97326333D01*
X153450094Y-97326344D01*
X153388938Y-97554586D01*
X153388936Y-97554596D01*
X153368341Y-97789999D01*
X153368341Y-97790000D01*
X153388936Y-98025403D01*
X153388938Y-98025413D01*
X153450094Y-98253655D01*
X153450096Y-98253659D01*
X153450097Y-98253663D01*
X153470772Y-98298000D01*
X153549965Y-98467830D01*
X153549967Y-98467834D01*
X153685501Y-98661395D01*
X153685506Y-98661402D01*
X153852597Y-98828493D01*
X153852603Y-98828498D01*
X154038158Y-98958425D01*
X154081783Y-99013002D01*
X154088977Y-99082500D01*
X154057454Y-99144855D01*
X154038158Y-99161575D01*
X153852597Y-99291505D01*
X153685505Y-99458597D01*
X153549965Y-99652169D01*
X153549964Y-99652171D01*
X153450098Y-99866335D01*
X153450094Y-99866344D01*
X153388938Y-100094586D01*
X153388936Y-100094596D01*
X153368341Y-100329999D01*
X153368341Y-100330000D01*
X153388936Y-100565403D01*
X153388938Y-100565413D01*
X153450094Y-100793655D01*
X153450096Y-100793659D01*
X153450097Y-100793663D01*
X153549965Y-101007830D01*
X153549967Y-101007834D01*
X153685501Y-101201395D01*
X153685506Y-101201402D01*
X153852597Y-101368493D01*
X153852603Y-101368498D01*
X154038158Y-101498425D01*
X154081783Y-101553002D01*
X154088977Y-101622500D01*
X154057454Y-101684855D01*
X154038158Y-101701575D01*
X153852597Y-101831505D01*
X153685505Y-101998597D01*
X153549965Y-102192169D01*
X153549964Y-102192171D01*
X153450098Y-102406335D01*
X153450094Y-102406344D01*
X153388938Y-102634586D01*
X153388936Y-102634596D01*
X153368341Y-102869999D01*
X153368341Y-102870000D01*
X153388936Y-103105403D01*
X153388938Y-103105413D01*
X153450094Y-103333655D01*
X153450096Y-103333659D01*
X153450097Y-103333663D01*
X153462156Y-103359523D01*
X153549965Y-103547830D01*
X153549967Y-103547834D01*
X153685501Y-103741395D01*
X153685506Y-103741402D01*
X153852597Y-103908493D01*
X153852603Y-103908498D01*
X154038158Y-104038425D01*
X154081783Y-104093002D01*
X154088977Y-104162500D01*
X154057454Y-104224855D01*
X154038158Y-104241575D01*
X153852597Y-104371505D01*
X153685505Y-104538597D01*
X153549965Y-104732169D01*
X153549964Y-104732171D01*
X153450098Y-104946335D01*
X153450094Y-104946344D01*
X153388938Y-105174586D01*
X153388936Y-105174596D01*
X153368341Y-105409999D01*
X153368341Y-105410000D01*
X137205367Y-105410000D01*
X137122890Y-105327523D01*
X137122884Y-105327518D01*
X136979697Y-105237547D01*
X136979694Y-105237545D01*
X136820056Y-105181685D01*
X136652003Y-105162751D01*
X136651997Y-105162751D01*
X136483943Y-105181685D01*
X136324305Y-105237545D01*
X136324302Y-105237547D01*
X136181115Y-105327518D01*
X136181109Y-105327523D01*
X136061523Y-105447109D01*
X136061518Y-105447115D01*
X135971547Y-105590302D01*
X135971545Y-105590305D01*
X135915685Y-105749943D01*
X135896751Y-105917997D01*
X135896751Y-105918002D01*
X125496674Y-105918002D01*
X125517429Y-105873492D01*
X125517432Y-105873486D01*
X125574636Y-105660000D01*
X124677686Y-105660000D01*
X124703493Y-105619844D01*
X124744000Y-105481889D01*
X124744000Y-105338111D01*
X124703493Y-105200156D01*
X124677686Y-105160000D01*
X125574636Y-105160000D01*
X125574635Y-105159999D01*
X125517432Y-104946513D01*
X125517429Y-104946507D01*
X125417600Y-104732422D01*
X125417599Y-104732420D01*
X125359889Y-104650002D01*
X134194751Y-104650002D01*
X134213685Y-104818056D01*
X134269545Y-104977694D01*
X134269547Y-104977697D01*
X134359518Y-105120884D01*
X134359523Y-105120890D01*
X134479109Y-105240476D01*
X134479115Y-105240481D01*
X134622302Y-105330452D01*
X134622305Y-105330454D01*
X134622309Y-105330455D01*
X134622310Y-105330456D01*
X134644187Y-105338111D01*
X134781943Y-105386314D01*
X134949997Y-105405249D01*
X134950000Y-105405249D01*
X134950003Y-105405249D01*
X135118056Y-105386314D01*
X135118059Y-105386313D01*
X135277690Y-105330456D01*
X135277692Y-105330454D01*
X135277694Y-105330454D01*
X135277697Y-105330452D01*
X135420884Y-105240481D01*
X135420885Y-105240480D01*
X135420890Y-105240477D01*
X135540477Y-105120890D01*
X135540481Y-105120884D01*
X135630452Y-104977697D01*
X135630454Y-104977694D01*
X135630454Y-104977692D01*
X135630456Y-104977690D01*
X135686313Y-104818059D01*
X135686313Y-104818058D01*
X135686314Y-104818056D01*
X135705249Y-104650002D01*
X135705249Y-104649997D01*
X135686314Y-104481943D01*
X135630454Y-104322305D01*
X135630452Y-104322302D01*
X135540481Y-104179115D01*
X135540476Y-104179109D01*
X135420890Y-104059523D01*
X135420884Y-104059518D01*
X135277697Y-103969547D01*
X135277694Y-103969545D01*
X135118056Y-103913685D01*
X134950003Y-103894751D01*
X134949997Y-103894751D01*
X134781943Y-103913685D01*
X134622305Y-103969545D01*
X134622302Y-103969547D01*
X134479115Y-104059518D01*
X134479109Y-104059523D01*
X134359523Y-104179109D01*
X134359518Y-104179115D01*
X134269547Y-104322302D01*
X134269545Y-104322305D01*
X134213685Y-104481943D01*
X134194751Y-104649997D01*
X134194751Y-104650002D01*
X125359889Y-104650002D01*
X125282113Y-104538926D01*
X125282108Y-104538920D01*
X125115078Y-104371890D01*
X124929405Y-104241879D01*
X124885780Y-104187302D01*
X124878588Y-104117804D01*
X124910110Y-104055449D01*
X124929406Y-104038730D01*
X124929842Y-104038425D01*
X125115401Y-103908495D01*
X125282495Y-103741401D01*
X125359097Y-103632002D01*
X141992751Y-103632002D01*
X142011685Y-103800056D01*
X142067545Y-103959694D01*
X142067547Y-103959697D01*
X142157518Y-104102884D01*
X142157523Y-104102890D01*
X142277109Y-104222476D01*
X142277115Y-104222481D01*
X142420302Y-104312452D01*
X142420305Y-104312454D01*
X142420309Y-104312455D01*
X142420310Y-104312456D01*
X142492913Y-104337860D01*
X142579943Y-104368314D01*
X142747997Y-104387249D01*
X142748000Y-104387249D01*
X142748003Y-104387249D01*
X142916056Y-104368314D01*
X142916059Y-104368313D01*
X143075690Y-104312456D01*
X143075692Y-104312454D01*
X143075694Y-104312454D01*
X143075697Y-104312452D01*
X143218884Y-104222481D01*
X143218885Y-104222480D01*
X143218890Y-104222477D01*
X143338477Y-104102890D01*
X143338481Y-104102884D01*
X143428452Y-103959697D01*
X143428454Y-103959694D01*
X143428454Y-103959692D01*
X143428456Y-103959690D01*
X143431846Y-103950002D01*
X143944751Y-103950002D01*
X143963685Y-104118056D01*
X144019545Y-104277694D01*
X144019547Y-104277697D01*
X144109518Y-104420884D01*
X144109523Y-104420890D01*
X144229109Y-104540476D01*
X144229115Y-104540481D01*
X144372302Y-104630452D01*
X144372305Y-104630454D01*
X144372309Y-104630455D01*
X144372310Y-104630456D01*
X144428155Y-104649997D01*
X144531943Y-104686314D01*
X144699997Y-104705249D01*
X144700000Y-104705249D01*
X144700003Y-104705249D01*
X144868056Y-104686314D01*
X144868059Y-104686313D01*
X145027690Y-104630456D01*
X145027692Y-104630454D01*
X145027694Y-104630454D01*
X145027697Y-104630452D01*
X145170884Y-104540481D01*
X145170885Y-104540480D01*
X145170890Y-104540477D01*
X145290477Y-104420890D01*
X145311615Y-104387249D01*
X145380452Y-104277697D01*
X145380454Y-104277694D01*
X145380454Y-104277692D01*
X145380456Y-104277690D01*
X145436313Y-104118059D01*
X145436313Y-104118058D01*
X145436314Y-104118056D01*
X145455249Y-103950002D01*
X145455249Y-103949997D01*
X145436314Y-103781943D01*
X145383847Y-103632002D01*
X145380456Y-103622310D01*
X145380455Y-103622309D01*
X145380454Y-103622305D01*
X145380452Y-103622302D01*
X145290481Y-103479115D01*
X145290476Y-103479109D01*
X145170890Y-103359523D01*
X145170884Y-103359518D01*
X145027697Y-103269547D01*
X145027694Y-103269545D01*
X144868056Y-103213685D01*
X144700003Y-103194751D01*
X144699997Y-103194751D01*
X144531943Y-103213685D01*
X144372305Y-103269545D01*
X144372302Y-103269547D01*
X144229115Y-103359518D01*
X144229109Y-103359523D01*
X144109523Y-103479109D01*
X144109518Y-103479115D01*
X144019547Y-103622302D01*
X144019545Y-103622305D01*
X143963685Y-103781943D01*
X143944751Y-103949997D01*
X143944751Y-103950002D01*
X143431846Y-103950002D01*
X143484313Y-103800059D01*
X143484313Y-103800058D01*
X143484314Y-103800056D01*
X143503249Y-103632002D01*
X143503249Y-103631997D01*
X143484314Y-103463943D01*
X143428454Y-103304305D01*
X143428452Y-103304302D01*
X143338481Y-103161115D01*
X143338476Y-103161109D01*
X143218890Y-103041523D01*
X143218884Y-103041518D01*
X143075697Y-102951547D01*
X143075694Y-102951545D01*
X142916056Y-102895685D01*
X142748003Y-102876751D01*
X142747997Y-102876751D01*
X142579943Y-102895685D01*
X142420305Y-102951545D01*
X142420302Y-102951547D01*
X142277115Y-103041518D01*
X142277109Y-103041523D01*
X142157523Y-103161109D01*
X142157518Y-103161115D01*
X142067547Y-103304302D01*
X142067545Y-103304305D01*
X142011685Y-103463943D01*
X141992751Y-103631997D01*
X141992751Y-103632002D01*
X125359097Y-103632002D01*
X125418035Y-103547830D01*
X125517903Y-103333663D01*
X125579063Y-103105408D01*
X125599659Y-102870000D01*
X125579063Y-102634592D01*
X125579062Y-102634591D01*
X125579062Y-102634582D01*
X125579051Y-102634520D01*
X125579054Y-102634492D01*
X125578591Y-102629199D01*
X125579655Y-102629105D01*
X125586802Y-102565081D01*
X125630864Y-102510857D01*
X125697248Y-102489062D01*
X125701169Y-102489000D01*
X128651000Y-102489000D01*
X128651000Y-98298002D01*
X141230751Y-98298002D01*
X141249685Y-98466056D01*
X141305545Y-98625694D01*
X141305547Y-98625697D01*
X141395518Y-98768884D01*
X141395523Y-98768890D01*
X141515109Y-98888476D01*
X141515115Y-98888481D01*
X141658302Y-98978452D01*
X141658305Y-98978454D01*
X141658309Y-98978455D01*
X141658310Y-98978456D01*
X141679610Y-98985909D01*
X141817943Y-99034314D01*
X141985997Y-99053249D01*
X141986000Y-99053249D01*
X141986003Y-99053249D01*
X142154056Y-99034314D01*
X142154059Y-99034313D01*
X142313690Y-98978456D01*
X142313692Y-98978454D01*
X142313694Y-98978454D01*
X142313697Y-98978452D01*
X142456884Y-98888481D01*
X142456885Y-98888480D01*
X142456890Y-98888477D01*
X142576477Y-98768890D01*
X142644017Y-98661402D01*
X142666452Y-98625697D01*
X142666454Y-98625694D01*
X142666454Y-98625692D01*
X142666456Y-98625690D01*
X142722313Y-98466059D01*
X142722313Y-98466058D01*
X142722314Y-98466056D01*
X142741249Y-98298002D01*
X142741249Y-98297997D01*
X142722314Y-98129943D01*
X142685737Y-98025413D01*
X142666456Y-97970310D01*
X142666455Y-97970309D01*
X142666454Y-97970305D01*
X142666452Y-97970302D01*
X142576481Y-97827115D01*
X142576476Y-97827109D01*
X142456890Y-97707523D01*
X142456884Y-97707518D01*
X142313697Y-97617547D01*
X142313694Y-97617545D01*
X142154056Y-97561685D01*
X141986003Y-97542751D01*
X141985997Y-97542751D01*
X141817943Y-97561685D01*
X141658305Y-97617545D01*
X141658302Y-97617547D01*
X141515115Y-97707518D01*
X141515109Y-97707523D01*
X141395523Y-97827109D01*
X141395518Y-97827115D01*
X141305547Y-97970302D01*
X141305545Y-97970305D01*
X141249685Y-98129943D01*
X141230751Y-98297997D01*
X141230751Y-98298002D01*
X128651000Y-98298002D01*
X128651000Y-96850002D01*
X130394751Y-96850002D01*
X130413685Y-97018056D01*
X130469545Y-97177694D01*
X130469547Y-97177697D01*
X130559518Y-97320884D01*
X130559523Y-97320890D01*
X130679109Y-97440476D01*
X130679115Y-97440481D01*
X130822302Y-97530452D01*
X130822305Y-97530454D01*
X130822309Y-97530455D01*
X130822310Y-97530456D01*
X130891270Y-97554586D01*
X130981943Y-97586314D01*
X131149997Y-97605249D01*
X131150000Y-97605249D01*
X131150003Y-97605249D01*
X131318056Y-97586314D01*
X131388436Y-97561687D01*
X131477690Y-97530456D01*
X131477692Y-97530454D01*
X131477694Y-97530454D01*
X131477697Y-97530452D01*
X131620884Y-97440481D01*
X131620885Y-97440480D01*
X131620890Y-97440477D01*
X131740477Y-97320890D01*
X131830452Y-97177697D01*
X131830454Y-97177694D01*
X131830454Y-97177692D01*
X131830456Y-97177690D01*
X131886313Y-97018059D01*
X131886313Y-97018058D01*
X131886314Y-97018056D01*
X131905249Y-96850002D01*
X131905249Y-96849997D01*
X131886314Y-96681943D01*
X131844014Y-96561056D01*
X131830456Y-96522310D01*
X131830455Y-96522309D01*
X131830454Y-96522305D01*
X131830452Y-96522302D01*
X131749207Y-96393002D01*
X138182751Y-96393002D01*
X138201685Y-96561056D01*
X138257545Y-96720694D01*
X138257547Y-96720697D01*
X138347518Y-96863884D01*
X138347523Y-96863890D01*
X138467109Y-96983476D01*
X138467115Y-96983481D01*
X138610302Y-97073452D01*
X138610305Y-97073454D01*
X138610309Y-97073455D01*
X138610310Y-97073456D01*
X138682913Y-97098860D01*
X138769943Y-97129314D01*
X138937997Y-97148249D01*
X138938000Y-97148249D01*
X138938003Y-97148249D01*
X139106056Y-97129314D01*
X139155048Y-97112171D01*
X139265690Y-97073456D01*
X139265692Y-97073454D01*
X139265694Y-97073454D01*
X139265697Y-97073452D01*
X139408884Y-96983481D01*
X139408885Y-96983480D01*
X139408890Y-96983477D01*
X139528477Y-96863890D01*
X139529124Y-96862860D01*
X139529715Y-96862337D01*
X139532820Y-96858444D01*
X139533501Y-96858987D01*
X139581452Y-96816566D01*
X139650505Y-96805911D01*
X139714356Y-96834280D01*
X139751163Y-96887869D01*
X139781542Y-96974686D01*
X139781547Y-96974697D01*
X139871518Y-97117884D01*
X139871523Y-97117890D01*
X139991109Y-97237476D01*
X139991115Y-97237481D01*
X140134302Y-97327452D01*
X140134305Y-97327454D01*
X140134309Y-97327455D01*
X140134310Y-97327456D01*
X140206913Y-97352860D01*
X140293943Y-97383314D01*
X140461997Y-97402249D01*
X140462000Y-97402249D01*
X140462003Y-97402249D01*
X140630056Y-97383314D01*
X140630059Y-97383313D01*
X140789690Y-97327456D01*
X140789692Y-97327454D01*
X140789694Y-97327454D01*
X140789697Y-97327452D01*
X140932884Y-97237481D01*
X140932885Y-97237480D01*
X140932890Y-97237477D01*
X141052477Y-97117890D01*
X141080398Y-97073454D01*
X141142452Y-96974697D01*
X141142454Y-96974694D01*
X141142454Y-96974692D01*
X141142456Y-96974690D01*
X141198313Y-96815059D01*
X141198313Y-96815058D01*
X141198314Y-96815056D01*
X141217249Y-96647002D01*
X141217249Y-96646997D01*
X141198314Y-96478943D01*
X141142454Y-96319305D01*
X141142452Y-96319302D01*
X141052481Y-96176115D01*
X141052476Y-96176109D01*
X140932890Y-96056523D01*
X140932884Y-96056518D01*
X140789697Y-95966547D01*
X140789694Y-95966545D01*
X140630056Y-95910685D01*
X140462003Y-95891751D01*
X140461997Y-95891751D01*
X140293943Y-95910685D01*
X140134305Y-95966545D01*
X140134302Y-95966547D01*
X139991115Y-96056518D01*
X139991109Y-96056523D01*
X139871520Y-96176112D01*
X139870866Y-96177155D01*
X139870268Y-96177683D01*
X139867180Y-96181556D01*
X139866501Y-96181014D01*
X139818528Y-96223442D01*
X139749474Y-96234085D01*
X139685627Y-96205705D01*
X139648835Y-96152129D01*
X139647346Y-96147873D01*
X139618456Y-96065310D01*
X139618453Y-96065305D01*
X139618452Y-96065302D01*
X139528481Y-95922115D01*
X139528476Y-95922109D01*
X139408890Y-95802523D01*
X139408884Y-95802518D01*
X139265697Y-95712547D01*
X139265694Y-95712545D01*
X139106056Y-95656685D01*
X138938003Y-95637751D01*
X138937997Y-95637751D01*
X138769943Y-95656685D01*
X138610305Y-95712545D01*
X138610302Y-95712547D01*
X138467115Y-95802518D01*
X138467109Y-95802523D01*
X138347523Y-95922109D01*
X138347518Y-95922115D01*
X138257547Y-96065302D01*
X138257545Y-96065305D01*
X138201685Y-96224943D01*
X138182751Y-96392997D01*
X138182751Y-96393002D01*
X131749207Y-96393002D01*
X131740481Y-96379115D01*
X131740476Y-96379109D01*
X131620890Y-96259523D01*
X131620884Y-96259518D01*
X131477697Y-96169547D01*
X131477694Y-96169545D01*
X131318056Y-96113685D01*
X131150003Y-96094751D01*
X131149997Y-96094751D01*
X130981943Y-96113685D01*
X130822305Y-96169545D01*
X130822302Y-96169547D01*
X130679115Y-96259518D01*
X130679109Y-96259523D01*
X130559523Y-96379109D01*
X130559518Y-96379115D01*
X130469547Y-96522302D01*
X130469545Y-96522305D01*
X130413685Y-96681943D01*
X130394751Y-96849997D01*
X130394751Y-96850002D01*
X128651000Y-96850002D01*
X128651000Y-93000002D01*
X143994751Y-93000002D01*
X144013685Y-93168056D01*
X144069545Y-93327694D01*
X144069547Y-93327697D01*
X144159518Y-93470884D01*
X144159523Y-93470890D01*
X144279109Y-93590476D01*
X144279115Y-93590481D01*
X144422302Y-93680452D01*
X144422305Y-93680454D01*
X144422309Y-93680455D01*
X144422310Y-93680456D01*
X144494913Y-93705860D01*
X144581943Y-93736314D01*
X144749997Y-93755249D01*
X144750000Y-93755249D01*
X144750003Y-93755249D01*
X144918056Y-93736314D01*
X144918059Y-93736313D01*
X145077690Y-93680456D01*
X145077692Y-93680454D01*
X145077694Y-93680454D01*
X145077697Y-93680452D01*
X145220884Y-93590481D01*
X145220885Y-93590480D01*
X145220890Y-93590477D01*
X145340477Y-93470890D01*
X145340481Y-93470884D01*
X145430452Y-93327697D01*
X145430454Y-93327694D01*
X145430454Y-93327692D01*
X145430456Y-93327690D01*
X145486313Y-93168059D01*
X145486313Y-93168058D01*
X145486314Y-93168056D01*
X145505249Y-93000002D01*
X145505249Y-92999997D01*
X145486314Y-92831943D01*
X145430454Y-92672305D01*
X145430452Y-92672302D01*
X145340481Y-92529115D01*
X145340476Y-92529109D01*
X145220890Y-92409523D01*
X145220884Y-92409518D01*
X145077697Y-92319547D01*
X145077694Y-92319545D01*
X144918056Y-92263685D01*
X144750003Y-92244751D01*
X144749997Y-92244751D01*
X144581943Y-92263685D01*
X144422305Y-92319545D01*
X144422302Y-92319547D01*
X144279115Y-92409518D01*
X144279109Y-92409523D01*
X144159523Y-92529109D01*
X144159518Y-92529115D01*
X144069547Y-92672302D01*
X144069545Y-92672305D01*
X144013685Y-92831943D01*
X143994751Y-92999997D01*
X143994751Y-93000002D01*
X128651000Y-93000002D01*
X128651000Y-89840362D01*
X128666081Y-89789002D01*
X131959751Y-89789002D01*
X131978685Y-89957056D01*
X132034545Y-90116694D01*
X132034547Y-90116697D01*
X132124518Y-90259884D01*
X132124523Y-90259890D01*
X132244109Y-90379476D01*
X132244115Y-90379481D01*
X132387302Y-90469452D01*
X132387305Y-90469454D01*
X132387309Y-90469455D01*
X132387310Y-90469456D01*
X132459913Y-90494860D01*
X132546943Y-90525314D01*
X132714997Y-90544249D01*
X132715000Y-90544249D01*
X132715003Y-90544249D01*
X132883056Y-90525314D01*
X132911157Y-90515481D01*
X133042690Y-90469456D01*
X133042692Y-90469454D01*
X133042694Y-90469454D01*
X133042697Y-90469452D01*
X133185884Y-90379481D01*
X133185885Y-90379480D01*
X133185890Y-90379477D01*
X133305477Y-90259890D01*
X133395452Y-90116697D01*
X133395454Y-90116694D01*
X133395454Y-90116692D01*
X133395456Y-90116690D01*
X133451313Y-89957059D01*
X133451313Y-89957058D01*
X133451314Y-89957056D01*
X133454926Y-89925002D01*
X139994751Y-89925002D01*
X140013685Y-90093056D01*
X140069545Y-90252694D01*
X140069547Y-90252697D01*
X140159518Y-90395884D01*
X140159523Y-90395890D01*
X140279109Y-90515476D01*
X140279115Y-90515481D01*
X140422302Y-90605452D01*
X140422305Y-90605454D01*
X140422309Y-90605455D01*
X140422310Y-90605456D01*
X140494913Y-90630860D01*
X140581943Y-90661314D01*
X140749997Y-90680249D01*
X140750000Y-90680249D01*
X140750003Y-90680249D01*
X140918056Y-90661314D01*
X140937015Y-90654680D01*
X141077690Y-90605456D01*
X141077692Y-90605454D01*
X141077694Y-90605454D01*
X141077697Y-90605452D01*
X141220884Y-90515481D01*
X141220885Y-90515480D01*
X141220890Y-90515477D01*
X141340477Y-90395890D01*
X141340481Y-90395884D01*
X141430452Y-90252697D01*
X141430454Y-90252694D01*
X141430454Y-90252692D01*
X141430456Y-90252690D01*
X141486313Y-90093059D01*
X141486313Y-90093058D01*
X141486314Y-90093056D01*
X141505249Y-89925002D01*
X141505249Y-89924997D01*
X141486314Y-89756943D01*
X141430454Y-89597305D01*
X141430452Y-89597302D01*
X141340481Y-89454115D01*
X141340476Y-89454109D01*
X141220890Y-89334523D01*
X141220884Y-89334518D01*
X141077697Y-89244547D01*
X141077694Y-89244545D01*
X140918056Y-89188685D01*
X140750003Y-89169751D01*
X140749997Y-89169751D01*
X140581943Y-89188685D01*
X140422305Y-89244545D01*
X140422302Y-89244547D01*
X140279115Y-89334518D01*
X140279109Y-89334523D01*
X140159523Y-89454109D01*
X140159518Y-89454115D01*
X140069547Y-89597302D01*
X140069545Y-89597305D01*
X140013685Y-89756943D01*
X139994751Y-89924997D01*
X139994751Y-89925002D01*
X133454926Y-89925002D01*
X133470249Y-89789002D01*
X133470249Y-89788997D01*
X133451314Y-89620943D01*
X133420860Y-89533913D01*
X133395456Y-89461310D01*
X133395455Y-89461309D01*
X133395454Y-89461305D01*
X133395452Y-89461302D01*
X133305481Y-89318115D01*
X133305476Y-89318109D01*
X133185890Y-89198523D01*
X133185884Y-89198518D01*
X133042697Y-89108547D01*
X133042694Y-89108545D01*
X132883056Y-89052685D01*
X132715003Y-89033751D01*
X132714997Y-89033751D01*
X132546943Y-89052685D01*
X132387305Y-89108545D01*
X132387302Y-89108547D01*
X132244115Y-89198518D01*
X132244109Y-89198523D01*
X132124523Y-89318109D01*
X132124518Y-89318115D01*
X132034547Y-89461302D01*
X132034545Y-89461305D01*
X131978685Y-89620943D01*
X131959751Y-89788997D01*
X131959751Y-89789002D01*
X128666081Y-89789002D01*
X128670685Y-89773323D01*
X128687319Y-89752681D01*
X131027681Y-87412319D01*
X131089004Y-87378834D01*
X131115362Y-87376000D01*
X135770346Y-87376000D01*
X135836317Y-87395005D01*
G37*
%TD.AperFunction*%
%TD*%
M02*
