%TF.GenerationSoftware,KiCad,Pcbnew,7.0.10-7.0.10~ubuntu22.04.1*%
%TF.CreationDate,2024-07-06T10:43:03+02:00*%
%TF.ProjectId,hardware,68617264-7761-4726-952e-6b696361645f,rev?*%
%TF.SameCoordinates,Original*%
%TF.FileFunction,Legend,Bot*%
%TF.FilePolarity,Positive*%
%FSLAX46Y46*%
G04 Gerber Fmt 4.6, Leading zero omitted, Abs format (unit mm)*
G04 Created by KiCad (PCBNEW 7.0.10-7.0.10~ubuntu22.04.1) date 2024-07-06 10:43:03*
%MOMM*%
%LPD*%
G01*
G04 APERTURE LIST*
%ADD10C,0.150000*%
G04 APERTURE END LIST*
D10*
X151752506Y-142619819D02*
X151752506Y-143334104D01*
X151752506Y-143334104D02*
X151800125Y-143476961D01*
X151800125Y-143476961D02*
X151895363Y-143572200D01*
X151895363Y-143572200D02*
X152038220Y-143619819D01*
X152038220Y-143619819D02*
X152133458Y-143619819D01*
X150800125Y-143619819D02*
X151276315Y-143619819D01*
X151276315Y-143619819D02*
X151276315Y-142619819D01*
X149895363Y-143524580D02*
X149942982Y-143572200D01*
X149942982Y-143572200D02*
X150085839Y-143619819D01*
X150085839Y-143619819D02*
X150181077Y-143619819D01*
X150181077Y-143619819D02*
X150323934Y-143572200D01*
X150323934Y-143572200D02*
X150419172Y-143476961D01*
X150419172Y-143476961D02*
X150466791Y-143381723D01*
X150466791Y-143381723D02*
X150514410Y-143191247D01*
X150514410Y-143191247D02*
X150514410Y-143048390D01*
X150514410Y-143048390D02*
X150466791Y-142857914D01*
X150466791Y-142857914D02*
X150419172Y-142762676D01*
X150419172Y-142762676D02*
X150323934Y-142667438D01*
X150323934Y-142667438D02*
X150181077Y-142619819D01*
X150181077Y-142619819D02*
X150085839Y-142619819D01*
X150085839Y-142619819D02*
X149942982Y-142667438D01*
X149942982Y-142667438D02*
X149895363Y-142715057D01*
X149181077Y-142619819D02*
X149181077Y-143334104D01*
X149181077Y-143334104D02*
X149228696Y-143476961D01*
X149228696Y-143476961D02*
X149323934Y-143572200D01*
X149323934Y-143572200D02*
X149466791Y-143619819D01*
X149466791Y-143619819D02*
X149562029Y-143619819D01*
X148228696Y-143619819D02*
X148704886Y-143619819D01*
X148704886Y-143619819D02*
X148704886Y-142619819D01*
X147323934Y-143524580D02*
X147371553Y-143572200D01*
X147371553Y-143572200D02*
X147514410Y-143619819D01*
X147514410Y-143619819D02*
X147609648Y-143619819D01*
X147609648Y-143619819D02*
X147752505Y-143572200D01*
X147752505Y-143572200D02*
X147847743Y-143476961D01*
X147847743Y-143476961D02*
X147895362Y-143381723D01*
X147895362Y-143381723D02*
X147942981Y-143191247D01*
X147942981Y-143191247D02*
X147942981Y-143048390D01*
X147942981Y-143048390D02*
X147895362Y-142857914D01*
X147895362Y-142857914D02*
X147847743Y-142762676D01*
X147847743Y-142762676D02*
X147752505Y-142667438D01*
X147752505Y-142667438D02*
X147609648Y-142619819D01*
X147609648Y-142619819D02*
X147514410Y-142619819D01*
X147514410Y-142619819D02*
X147371553Y-142667438D01*
X147371553Y-142667438D02*
X147323934Y-142715057D01*
X146609648Y-142619819D02*
X146609648Y-143334104D01*
X146609648Y-143334104D02*
X146657267Y-143476961D01*
X146657267Y-143476961D02*
X146752505Y-143572200D01*
X146752505Y-143572200D02*
X146895362Y-143619819D01*
X146895362Y-143619819D02*
X146990600Y-143619819D01*
X145657267Y-143619819D02*
X146133457Y-143619819D01*
X146133457Y-143619819D02*
X146133457Y-142619819D01*
X144752505Y-143524580D02*
X144800124Y-143572200D01*
X144800124Y-143572200D02*
X144942981Y-143619819D01*
X144942981Y-143619819D02*
X145038219Y-143619819D01*
X145038219Y-143619819D02*
X145181076Y-143572200D01*
X145181076Y-143572200D02*
X145276314Y-143476961D01*
X145276314Y-143476961D02*
X145323933Y-143381723D01*
X145323933Y-143381723D02*
X145371552Y-143191247D01*
X145371552Y-143191247D02*
X145371552Y-143048390D01*
X145371552Y-143048390D02*
X145323933Y-142857914D01*
X145323933Y-142857914D02*
X145276314Y-142762676D01*
X145276314Y-142762676D02*
X145181076Y-142667438D01*
X145181076Y-142667438D02*
X145038219Y-142619819D01*
X145038219Y-142619819D02*
X144942981Y-142619819D01*
X144942981Y-142619819D02*
X144800124Y-142667438D01*
X144800124Y-142667438D02*
X144752505Y-142715057D01*
X144038219Y-142619819D02*
X144038219Y-143334104D01*
X144038219Y-143334104D02*
X144085838Y-143476961D01*
X144085838Y-143476961D02*
X144181076Y-143572200D01*
X144181076Y-143572200D02*
X144323933Y-143619819D01*
X144323933Y-143619819D02*
X144419171Y-143619819D01*
X143085838Y-143619819D02*
X143562028Y-143619819D01*
X143562028Y-143619819D02*
X143562028Y-142619819D01*
X142181076Y-143524580D02*
X142228695Y-143572200D01*
X142228695Y-143572200D02*
X142371552Y-143619819D01*
X142371552Y-143619819D02*
X142466790Y-143619819D01*
X142466790Y-143619819D02*
X142609647Y-143572200D01*
X142609647Y-143572200D02*
X142704885Y-143476961D01*
X142704885Y-143476961D02*
X142752504Y-143381723D01*
X142752504Y-143381723D02*
X142800123Y-143191247D01*
X142800123Y-143191247D02*
X142800123Y-143048390D01*
X142800123Y-143048390D02*
X142752504Y-142857914D01*
X142752504Y-142857914D02*
X142704885Y-142762676D01*
X142704885Y-142762676D02*
X142609647Y-142667438D01*
X142609647Y-142667438D02*
X142466790Y-142619819D01*
X142466790Y-142619819D02*
X142371552Y-142619819D01*
X142371552Y-142619819D02*
X142228695Y-142667438D01*
X142228695Y-142667438D02*
X142181076Y-142715057D01*
M02*
