%TF.GenerationSoftware,KiCad,Pcbnew,7.0.10-7.0.10~ubuntu22.04.1*%
%TF.CreationDate,2024-05-26T20:09:49+02:00*%
%TF.ProjectId,hardware,68617264-7761-4726-952e-6b696361645f,rev?*%
%TF.SameCoordinates,Original*%
%TF.FileFunction,Legend,Top*%
%TF.FilePolarity,Positive*%
%FSLAX46Y46*%
G04 Gerber Fmt 4.6, Leading zero omitted, Abs format (unit mm)*
G04 Created by KiCad (PCBNEW 7.0.10-7.0.10~ubuntu22.04.1) date 2024-05-26 20:09:49*
%MOMM*%
%LPD*%
G01*
G04 APERTURE LIST*
%ADD10C,0.450000*%
%ADD11C,0.100000*%
%ADD12C,0.150000*%
%ADD13C,0.120000*%
G04 APERTURE END LIST*
D10*
X138267480Y-102652314D02*
X138124623Y-102652314D01*
X138124623Y-102652314D02*
X137838909Y-102509457D01*
X137838909Y-102509457D02*
X137696052Y-102223742D01*
X137696052Y-102223742D02*
X137696052Y-100795171D01*
X137696052Y-100795171D02*
X137553194Y-100509457D01*
X137553194Y-100509457D02*
X137267480Y-100366600D01*
X137267480Y-100366600D02*
X137553194Y-100223742D01*
X137553194Y-100223742D02*
X137696052Y-99938028D01*
X137696052Y-99938028D02*
X137696052Y-98509457D01*
X137696052Y-98509457D02*
X137838909Y-98223742D01*
X137838909Y-98223742D02*
X138124623Y-98080885D01*
X138124623Y-98080885D02*
X138267480Y-98080885D01*
D11*
X126690788Y-133370157D02*
X126797931Y-133405871D01*
X126797931Y-133405871D02*
X126833645Y-133441585D01*
X126833645Y-133441585D02*
X126869359Y-133513014D01*
X126869359Y-133513014D02*
X126869359Y-133620157D01*
X126869359Y-133620157D02*
X126833645Y-133691585D01*
X126833645Y-133691585D02*
X126797931Y-133727300D01*
X126797931Y-133727300D02*
X126726502Y-133763014D01*
X126726502Y-133763014D02*
X126440788Y-133763014D01*
X126440788Y-133763014D02*
X126440788Y-133013014D01*
X126440788Y-133013014D02*
X126690788Y-133013014D01*
X126690788Y-133013014D02*
X126762217Y-133048728D01*
X126762217Y-133048728D02*
X126797931Y-133084442D01*
X126797931Y-133084442D02*
X126833645Y-133155871D01*
X126833645Y-133155871D02*
X126833645Y-133227300D01*
X126833645Y-133227300D02*
X126797931Y-133298728D01*
X126797931Y-133298728D02*
X126762217Y-133334442D01*
X126762217Y-133334442D02*
X126690788Y-133370157D01*
X126690788Y-133370157D02*
X126440788Y-133370157D01*
X127583645Y-133763014D02*
X127155074Y-133763014D01*
X127369359Y-133763014D02*
X127369359Y-133013014D01*
X127369359Y-133013014D02*
X127297931Y-133120157D01*
X127297931Y-133120157D02*
X127226502Y-133191585D01*
X127226502Y-133191585D02*
X127155074Y-133227300D01*
X126458646Y-128473728D02*
X126815789Y-128473728D01*
X126387217Y-128688014D02*
X126637217Y-127938014D01*
X126637217Y-127938014D02*
X126887217Y-128688014D01*
X127065788Y-127938014D02*
X127565788Y-127938014D01*
X127565788Y-127938014D02*
X127244360Y-128688014D01*
X126690788Y-130832657D02*
X126797931Y-130868371D01*
X126797931Y-130868371D02*
X126833645Y-130904085D01*
X126833645Y-130904085D02*
X126869359Y-130975514D01*
X126869359Y-130975514D02*
X126869359Y-131082657D01*
X126869359Y-131082657D02*
X126833645Y-131154085D01*
X126833645Y-131154085D02*
X126797931Y-131189800D01*
X126797931Y-131189800D02*
X126726502Y-131225514D01*
X126726502Y-131225514D02*
X126440788Y-131225514D01*
X126440788Y-131225514D02*
X126440788Y-130475514D01*
X126440788Y-130475514D02*
X126690788Y-130475514D01*
X126690788Y-130475514D02*
X126762217Y-130511228D01*
X126762217Y-130511228D02*
X126797931Y-130546942D01*
X126797931Y-130546942D02*
X126833645Y-130618371D01*
X126833645Y-130618371D02*
X126833645Y-130689800D01*
X126833645Y-130689800D02*
X126797931Y-130761228D01*
X126797931Y-130761228D02*
X126762217Y-130796942D01*
X126762217Y-130796942D02*
X126690788Y-130832657D01*
X126690788Y-130832657D02*
X126440788Y-130832657D01*
X127333645Y-130475514D02*
X127405074Y-130475514D01*
X127405074Y-130475514D02*
X127476502Y-130511228D01*
X127476502Y-130511228D02*
X127512217Y-130546942D01*
X127512217Y-130546942D02*
X127547931Y-130618371D01*
X127547931Y-130618371D02*
X127583645Y-130761228D01*
X127583645Y-130761228D02*
X127583645Y-130939800D01*
X127583645Y-130939800D02*
X127547931Y-131082657D01*
X127547931Y-131082657D02*
X127512217Y-131154085D01*
X127512217Y-131154085D02*
X127476502Y-131189800D01*
X127476502Y-131189800D02*
X127405074Y-131225514D01*
X127405074Y-131225514D02*
X127333645Y-131225514D01*
X127333645Y-131225514D02*
X127262217Y-131189800D01*
X127262217Y-131189800D02*
X127226502Y-131154085D01*
X127226502Y-131154085D02*
X127190788Y-131082657D01*
X127190788Y-131082657D02*
X127155074Y-130939800D01*
X127155074Y-130939800D02*
X127155074Y-130761228D01*
X127155074Y-130761228D02*
X127190788Y-130618371D01*
X127190788Y-130618371D02*
X127226502Y-130546942D01*
X127226502Y-130546942D02*
X127262217Y-130511228D01*
X127262217Y-130511228D02*
X127333645Y-130475514D01*
X126458646Y-125938728D02*
X126815789Y-125938728D01*
X126387217Y-126153014D02*
X126637217Y-125403014D01*
X126637217Y-125403014D02*
X126887217Y-126153014D01*
X127458646Y-125403014D02*
X127315788Y-125403014D01*
X127315788Y-125403014D02*
X127244360Y-125438728D01*
X127244360Y-125438728D02*
X127208646Y-125474442D01*
X127208646Y-125474442D02*
X127137217Y-125581585D01*
X127137217Y-125581585D02*
X127101503Y-125724442D01*
X127101503Y-125724442D02*
X127101503Y-126010157D01*
X127101503Y-126010157D02*
X127137217Y-126081585D01*
X127137217Y-126081585D02*
X127172931Y-126117300D01*
X127172931Y-126117300D02*
X127244360Y-126153014D01*
X127244360Y-126153014D02*
X127387217Y-126153014D01*
X127387217Y-126153014D02*
X127458646Y-126117300D01*
X127458646Y-126117300D02*
X127494360Y-126081585D01*
X127494360Y-126081585D02*
X127530074Y-126010157D01*
X127530074Y-126010157D02*
X127530074Y-125831585D01*
X127530074Y-125831585D02*
X127494360Y-125760157D01*
X127494360Y-125760157D02*
X127458646Y-125724442D01*
X127458646Y-125724442D02*
X127387217Y-125688728D01*
X127387217Y-125688728D02*
X127244360Y-125688728D01*
X127244360Y-125688728D02*
X127172931Y-125724442D01*
X127172931Y-125724442D02*
X127137217Y-125760157D01*
X127137217Y-125760157D02*
X127101503Y-125831585D01*
X126458646Y-120863728D02*
X126815789Y-120863728D01*
X126387217Y-121078014D02*
X126637217Y-120328014D01*
X126637217Y-120328014D02*
X126887217Y-121078014D01*
X127458646Y-120578014D02*
X127458646Y-121078014D01*
X127280074Y-120292300D02*
X127101503Y-120828014D01*
X127101503Y-120828014D02*
X127565788Y-120828014D01*
X126458646Y-118326228D02*
X126815789Y-118326228D01*
X126387217Y-118540514D02*
X126637217Y-117790514D01*
X126637217Y-117790514D02*
X126887217Y-118540514D01*
X127530074Y-118540514D02*
X127101503Y-118540514D01*
X127315788Y-118540514D02*
X127315788Y-117790514D01*
X127315788Y-117790514D02*
X127244360Y-117897657D01*
X127244360Y-117897657D02*
X127172931Y-117969085D01*
X127172931Y-117969085D02*
X127101503Y-118004800D01*
X126458646Y-115788728D02*
X126815789Y-115788728D01*
X126387217Y-116003014D02*
X126637217Y-115253014D01*
X126637217Y-115253014D02*
X126887217Y-116003014D01*
X127280074Y-115253014D02*
X127351503Y-115253014D01*
X127351503Y-115253014D02*
X127422931Y-115288728D01*
X127422931Y-115288728D02*
X127458646Y-115324442D01*
X127458646Y-115324442D02*
X127494360Y-115395871D01*
X127494360Y-115395871D02*
X127530074Y-115538728D01*
X127530074Y-115538728D02*
X127530074Y-115717300D01*
X127530074Y-115717300D02*
X127494360Y-115860157D01*
X127494360Y-115860157D02*
X127458646Y-115931585D01*
X127458646Y-115931585D02*
X127422931Y-115967300D01*
X127422931Y-115967300D02*
X127351503Y-116003014D01*
X127351503Y-116003014D02*
X127280074Y-116003014D01*
X127280074Y-116003014D02*
X127208646Y-115967300D01*
X127208646Y-115967300D02*
X127172931Y-115931585D01*
X127172931Y-115931585D02*
X127137217Y-115860157D01*
X127137217Y-115860157D02*
X127101503Y-115717300D01*
X127101503Y-115717300D02*
X127101503Y-115538728D01*
X127101503Y-115538728D02*
X127137217Y-115395871D01*
X127137217Y-115395871D02*
X127172931Y-115324442D01*
X127172931Y-115324442D02*
X127208646Y-115288728D01*
X127208646Y-115288728D02*
X127280074Y-115253014D01*
X126458646Y-123401228D02*
X126815789Y-123401228D01*
X126387217Y-123615514D02*
X126637217Y-122865514D01*
X126637217Y-122865514D02*
X126887217Y-123615514D01*
X127494360Y-122865514D02*
X127137217Y-122865514D01*
X127137217Y-122865514D02*
X127101503Y-123222657D01*
X127101503Y-123222657D02*
X127137217Y-123186942D01*
X127137217Y-123186942D02*
X127208646Y-123151228D01*
X127208646Y-123151228D02*
X127387217Y-123151228D01*
X127387217Y-123151228D02*
X127458646Y-123186942D01*
X127458646Y-123186942D02*
X127494360Y-123222657D01*
X127494360Y-123222657D02*
X127530074Y-123294085D01*
X127530074Y-123294085D02*
X127530074Y-123472657D01*
X127530074Y-123472657D02*
X127494360Y-123544085D01*
X127494360Y-123544085D02*
X127458646Y-123579800D01*
X127458646Y-123579800D02*
X127387217Y-123615514D01*
X127387217Y-123615514D02*
X127208646Y-123615514D01*
X127208646Y-123615514D02*
X127137217Y-123579800D01*
X127137217Y-123579800D02*
X127101503Y-123544085D01*
X126544360Y-95260157D02*
X126651503Y-95295871D01*
X126651503Y-95295871D02*
X126687217Y-95331585D01*
X126687217Y-95331585D02*
X126722931Y-95403014D01*
X126722931Y-95403014D02*
X126722931Y-95510157D01*
X126722931Y-95510157D02*
X126687217Y-95581585D01*
X126687217Y-95581585D02*
X126651503Y-95617300D01*
X126651503Y-95617300D02*
X126580074Y-95653014D01*
X126580074Y-95653014D02*
X126294360Y-95653014D01*
X126294360Y-95653014D02*
X126294360Y-94903014D01*
X126294360Y-94903014D02*
X126544360Y-94903014D01*
X126544360Y-94903014D02*
X126615789Y-94938728D01*
X126615789Y-94938728D02*
X126651503Y-94974442D01*
X126651503Y-94974442D02*
X126687217Y-95045871D01*
X126687217Y-95045871D02*
X126687217Y-95117300D01*
X126687217Y-95117300D02*
X126651503Y-95188728D01*
X126651503Y-95188728D02*
X126615789Y-95224442D01*
X126615789Y-95224442D02*
X126544360Y-95260157D01*
X126544360Y-95260157D02*
X126294360Y-95260157D01*
X127080074Y-95653014D02*
X127222931Y-95653014D01*
X127222931Y-95653014D02*
X127294360Y-95617300D01*
X127294360Y-95617300D02*
X127330074Y-95581585D01*
X127330074Y-95581585D02*
X127401503Y-95474442D01*
X127401503Y-95474442D02*
X127437217Y-95331585D01*
X127437217Y-95331585D02*
X127437217Y-95045871D01*
X127437217Y-95045871D02*
X127401503Y-94974442D01*
X127401503Y-94974442D02*
X127365789Y-94938728D01*
X127365789Y-94938728D02*
X127294360Y-94903014D01*
X127294360Y-94903014D02*
X127151503Y-94903014D01*
X127151503Y-94903014D02*
X127080074Y-94938728D01*
X127080074Y-94938728D02*
X127044360Y-94974442D01*
X127044360Y-94974442D02*
X127008646Y-95045871D01*
X127008646Y-95045871D02*
X127008646Y-95224442D01*
X127008646Y-95224442D02*
X127044360Y-95295871D01*
X127044360Y-95295871D02*
X127080074Y-95331585D01*
X127080074Y-95331585D02*
X127151503Y-95367300D01*
X127151503Y-95367300D02*
X127294360Y-95367300D01*
X127294360Y-95367300D02*
X127365789Y-95331585D01*
X127365789Y-95331585D02*
X127401503Y-95295871D01*
X127401503Y-95295871D02*
X127437217Y-95224442D01*
X126544360Y-90185157D02*
X126651503Y-90220871D01*
X126651503Y-90220871D02*
X126687217Y-90256585D01*
X126687217Y-90256585D02*
X126722931Y-90328014D01*
X126722931Y-90328014D02*
X126722931Y-90435157D01*
X126722931Y-90435157D02*
X126687217Y-90506585D01*
X126687217Y-90506585D02*
X126651503Y-90542300D01*
X126651503Y-90542300D02*
X126580074Y-90578014D01*
X126580074Y-90578014D02*
X126294360Y-90578014D01*
X126294360Y-90578014D02*
X126294360Y-89828014D01*
X126294360Y-89828014D02*
X126544360Y-89828014D01*
X126544360Y-89828014D02*
X126615789Y-89863728D01*
X126615789Y-89863728D02*
X126651503Y-89899442D01*
X126651503Y-89899442D02*
X126687217Y-89970871D01*
X126687217Y-89970871D02*
X126687217Y-90042300D01*
X126687217Y-90042300D02*
X126651503Y-90113728D01*
X126651503Y-90113728D02*
X126615789Y-90149442D01*
X126615789Y-90149442D02*
X126544360Y-90185157D01*
X126544360Y-90185157D02*
X126294360Y-90185157D01*
X126972931Y-89828014D02*
X127472931Y-89828014D01*
X127472931Y-89828014D02*
X127151503Y-90578014D01*
X126544360Y-87647657D02*
X126651503Y-87683371D01*
X126651503Y-87683371D02*
X126687217Y-87719085D01*
X126687217Y-87719085D02*
X126722931Y-87790514D01*
X126722931Y-87790514D02*
X126722931Y-87897657D01*
X126722931Y-87897657D02*
X126687217Y-87969085D01*
X126687217Y-87969085D02*
X126651503Y-88004800D01*
X126651503Y-88004800D02*
X126580074Y-88040514D01*
X126580074Y-88040514D02*
X126294360Y-88040514D01*
X126294360Y-88040514D02*
X126294360Y-87290514D01*
X126294360Y-87290514D02*
X126544360Y-87290514D01*
X126544360Y-87290514D02*
X126615789Y-87326228D01*
X126615789Y-87326228D02*
X126651503Y-87361942D01*
X126651503Y-87361942D02*
X126687217Y-87433371D01*
X126687217Y-87433371D02*
X126687217Y-87504800D01*
X126687217Y-87504800D02*
X126651503Y-87576228D01*
X126651503Y-87576228D02*
X126615789Y-87611942D01*
X126615789Y-87611942D02*
X126544360Y-87647657D01*
X126544360Y-87647657D02*
X126294360Y-87647657D01*
X127365789Y-87290514D02*
X127222931Y-87290514D01*
X127222931Y-87290514D02*
X127151503Y-87326228D01*
X127151503Y-87326228D02*
X127115789Y-87361942D01*
X127115789Y-87361942D02*
X127044360Y-87469085D01*
X127044360Y-87469085D02*
X127008646Y-87611942D01*
X127008646Y-87611942D02*
X127008646Y-87897657D01*
X127008646Y-87897657D02*
X127044360Y-87969085D01*
X127044360Y-87969085D02*
X127080074Y-88004800D01*
X127080074Y-88004800D02*
X127151503Y-88040514D01*
X127151503Y-88040514D02*
X127294360Y-88040514D01*
X127294360Y-88040514D02*
X127365789Y-88004800D01*
X127365789Y-88004800D02*
X127401503Y-87969085D01*
X127401503Y-87969085D02*
X127437217Y-87897657D01*
X127437217Y-87897657D02*
X127437217Y-87719085D01*
X127437217Y-87719085D02*
X127401503Y-87647657D01*
X127401503Y-87647657D02*
X127365789Y-87611942D01*
X127365789Y-87611942D02*
X127294360Y-87576228D01*
X127294360Y-87576228D02*
X127151503Y-87576228D01*
X127151503Y-87576228D02*
X127080074Y-87611942D01*
X127080074Y-87611942D02*
X127044360Y-87647657D01*
X127044360Y-87647657D02*
X127008646Y-87719085D01*
X126544360Y-85110157D02*
X126651503Y-85145871D01*
X126651503Y-85145871D02*
X126687217Y-85181585D01*
X126687217Y-85181585D02*
X126722931Y-85253014D01*
X126722931Y-85253014D02*
X126722931Y-85360157D01*
X126722931Y-85360157D02*
X126687217Y-85431585D01*
X126687217Y-85431585D02*
X126651503Y-85467300D01*
X126651503Y-85467300D02*
X126580074Y-85503014D01*
X126580074Y-85503014D02*
X126294360Y-85503014D01*
X126294360Y-85503014D02*
X126294360Y-84753014D01*
X126294360Y-84753014D02*
X126544360Y-84753014D01*
X126544360Y-84753014D02*
X126615789Y-84788728D01*
X126615789Y-84788728D02*
X126651503Y-84824442D01*
X126651503Y-84824442D02*
X126687217Y-84895871D01*
X126687217Y-84895871D02*
X126687217Y-84967300D01*
X126687217Y-84967300D02*
X126651503Y-85038728D01*
X126651503Y-85038728D02*
X126615789Y-85074442D01*
X126615789Y-85074442D02*
X126544360Y-85110157D01*
X126544360Y-85110157D02*
X126294360Y-85110157D01*
X127401503Y-84753014D02*
X127044360Y-84753014D01*
X127044360Y-84753014D02*
X127008646Y-85110157D01*
X127008646Y-85110157D02*
X127044360Y-85074442D01*
X127044360Y-85074442D02*
X127115789Y-85038728D01*
X127115789Y-85038728D02*
X127294360Y-85038728D01*
X127294360Y-85038728D02*
X127365789Y-85074442D01*
X127365789Y-85074442D02*
X127401503Y-85110157D01*
X127401503Y-85110157D02*
X127437217Y-85181585D01*
X127437217Y-85181585D02*
X127437217Y-85360157D01*
X127437217Y-85360157D02*
X127401503Y-85431585D01*
X127401503Y-85431585D02*
X127365789Y-85467300D01*
X127365789Y-85467300D02*
X127294360Y-85503014D01*
X127294360Y-85503014D02*
X127115789Y-85503014D01*
X127115789Y-85503014D02*
X127044360Y-85467300D01*
X127044360Y-85467300D02*
X127008646Y-85431585D01*
X126544360Y-92722657D02*
X126651503Y-92758371D01*
X126651503Y-92758371D02*
X126687217Y-92794085D01*
X126687217Y-92794085D02*
X126722931Y-92865514D01*
X126722931Y-92865514D02*
X126722931Y-92972657D01*
X126722931Y-92972657D02*
X126687217Y-93044085D01*
X126687217Y-93044085D02*
X126651503Y-93079800D01*
X126651503Y-93079800D02*
X126580074Y-93115514D01*
X126580074Y-93115514D02*
X126294360Y-93115514D01*
X126294360Y-93115514D02*
X126294360Y-92365514D01*
X126294360Y-92365514D02*
X126544360Y-92365514D01*
X126544360Y-92365514D02*
X126615789Y-92401228D01*
X126615789Y-92401228D02*
X126651503Y-92436942D01*
X126651503Y-92436942D02*
X126687217Y-92508371D01*
X126687217Y-92508371D02*
X126687217Y-92579800D01*
X126687217Y-92579800D02*
X126651503Y-92651228D01*
X126651503Y-92651228D02*
X126615789Y-92686942D01*
X126615789Y-92686942D02*
X126544360Y-92722657D01*
X126544360Y-92722657D02*
X126294360Y-92722657D01*
X127151503Y-92686942D02*
X127080074Y-92651228D01*
X127080074Y-92651228D02*
X127044360Y-92615514D01*
X127044360Y-92615514D02*
X127008646Y-92544085D01*
X127008646Y-92544085D02*
X127008646Y-92508371D01*
X127008646Y-92508371D02*
X127044360Y-92436942D01*
X127044360Y-92436942D02*
X127080074Y-92401228D01*
X127080074Y-92401228D02*
X127151503Y-92365514D01*
X127151503Y-92365514D02*
X127294360Y-92365514D01*
X127294360Y-92365514D02*
X127365789Y-92401228D01*
X127365789Y-92401228D02*
X127401503Y-92436942D01*
X127401503Y-92436942D02*
X127437217Y-92508371D01*
X127437217Y-92508371D02*
X127437217Y-92544085D01*
X127437217Y-92544085D02*
X127401503Y-92615514D01*
X127401503Y-92615514D02*
X127365789Y-92651228D01*
X127365789Y-92651228D02*
X127294360Y-92686942D01*
X127294360Y-92686942D02*
X127151503Y-92686942D01*
X127151503Y-92686942D02*
X127080074Y-92722657D01*
X127080074Y-92722657D02*
X127044360Y-92758371D01*
X127044360Y-92758371D02*
X127008646Y-92829800D01*
X127008646Y-92829800D02*
X127008646Y-92972657D01*
X127008646Y-92972657D02*
X127044360Y-93044085D01*
X127044360Y-93044085D02*
X127080074Y-93079800D01*
X127080074Y-93079800D02*
X127151503Y-93115514D01*
X127151503Y-93115514D02*
X127294360Y-93115514D01*
X127294360Y-93115514D02*
X127365789Y-93079800D01*
X127365789Y-93079800D02*
X127401503Y-93044085D01*
X127401503Y-93044085D02*
X127437217Y-92972657D01*
X127437217Y-92972657D02*
X127437217Y-92829800D01*
X127437217Y-92829800D02*
X127401503Y-92758371D01*
X127401503Y-92758371D02*
X127365789Y-92722657D01*
X127365789Y-92722657D02*
X127294360Y-92686942D01*
X151897931Y-95210157D02*
X152005074Y-95245871D01*
X152005074Y-95245871D02*
X152040788Y-95281585D01*
X152040788Y-95281585D02*
X152076502Y-95353014D01*
X152076502Y-95353014D02*
X152076502Y-95460157D01*
X152076502Y-95460157D02*
X152040788Y-95531585D01*
X152040788Y-95531585D02*
X152005074Y-95567300D01*
X152005074Y-95567300D02*
X151933645Y-95603014D01*
X151933645Y-95603014D02*
X151647931Y-95603014D01*
X151647931Y-95603014D02*
X151647931Y-94853014D01*
X151647931Y-94853014D02*
X151897931Y-94853014D01*
X151897931Y-94853014D02*
X151969360Y-94888728D01*
X151969360Y-94888728D02*
X152005074Y-94924442D01*
X152005074Y-94924442D02*
X152040788Y-94995871D01*
X152040788Y-94995871D02*
X152040788Y-95067300D01*
X152040788Y-95067300D02*
X152005074Y-95138728D01*
X152005074Y-95138728D02*
X151969360Y-95174442D01*
X151969360Y-95174442D02*
X151897931Y-95210157D01*
X151897931Y-95210157D02*
X151647931Y-95210157D01*
X152719360Y-95103014D02*
X152719360Y-95603014D01*
X152540788Y-94817300D02*
X152362217Y-95353014D01*
X152362217Y-95353014D02*
X152826502Y-95353014D01*
X151308646Y-105538728D02*
X151665789Y-105538728D01*
X151237217Y-105753014D02*
X151487217Y-105003014D01*
X151487217Y-105003014D02*
X151737217Y-105753014D01*
X152380074Y-105753014D02*
X151951503Y-105753014D01*
X152165788Y-105753014D02*
X152165788Y-105003014D01*
X152165788Y-105003014D02*
X152094360Y-105110157D01*
X152094360Y-105110157D02*
X152022931Y-105181585D01*
X152022931Y-105181585D02*
X151951503Y-105217300D01*
X153094360Y-105753014D02*
X152665789Y-105753014D01*
X152880074Y-105753014D02*
X152880074Y-105003014D01*
X152880074Y-105003014D02*
X152808646Y-105110157D01*
X152808646Y-105110157D02*
X152737217Y-105181585D01*
X152737217Y-105181585D02*
X152665789Y-105217300D01*
X151308646Y-100463728D02*
X151665789Y-100463728D01*
X151237217Y-100678014D02*
X151487217Y-99928014D01*
X151487217Y-99928014D02*
X151737217Y-100678014D01*
X152380074Y-100678014D02*
X151951503Y-100678014D01*
X152165788Y-100678014D02*
X152165788Y-99928014D01*
X152165788Y-99928014D02*
X152094360Y-100035157D01*
X152094360Y-100035157D02*
X152022931Y-100106585D01*
X152022931Y-100106585D02*
X151951503Y-100142300D01*
X153058646Y-99928014D02*
X152701503Y-99928014D01*
X152701503Y-99928014D02*
X152665789Y-100285157D01*
X152665789Y-100285157D02*
X152701503Y-100249442D01*
X152701503Y-100249442D02*
X152772932Y-100213728D01*
X152772932Y-100213728D02*
X152951503Y-100213728D01*
X152951503Y-100213728D02*
X153022932Y-100249442D01*
X153022932Y-100249442D02*
X153058646Y-100285157D01*
X153058646Y-100285157D02*
X153094360Y-100356585D01*
X153094360Y-100356585D02*
X153094360Y-100535157D01*
X153094360Y-100535157D02*
X153058646Y-100606585D01*
X153058646Y-100606585D02*
X153022932Y-100642300D01*
X153022932Y-100642300D02*
X152951503Y-100678014D01*
X152951503Y-100678014D02*
X152772932Y-100678014D01*
X152772932Y-100678014D02*
X152701503Y-100642300D01*
X152701503Y-100642300D02*
X152665789Y-100606585D01*
X151897931Y-97747657D02*
X152005074Y-97783371D01*
X152005074Y-97783371D02*
X152040788Y-97819085D01*
X152040788Y-97819085D02*
X152076502Y-97890514D01*
X152076502Y-97890514D02*
X152076502Y-97997657D01*
X152076502Y-97997657D02*
X152040788Y-98069085D01*
X152040788Y-98069085D02*
X152005074Y-98104800D01*
X152005074Y-98104800D02*
X151933645Y-98140514D01*
X151933645Y-98140514D02*
X151647931Y-98140514D01*
X151647931Y-98140514D02*
X151647931Y-97390514D01*
X151647931Y-97390514D02*
X151897931Y-97390514D01*
X151897931Y-97390514D02*
X151969360Y-97426228D01*
X151969360Y-97426228D02*
X152005074Y-97461942D01*
X152005074Y-97461942D02*
X152040788Y-97533371D01*
X152040788Y-97533371D02*
X152040788Y-97604800D01*
X152040788Y-97604800D02*
X152005074Y-97676228D01*
X152005074Y-97676228D02*
X151969360Y-97711942D01*
X151969360Y-97711942D02*
X151897931Y-97747657D01*
X151897931Y-97747657D02*
X151647931Y-97747657D01*
X152326502Y-97390514D02*
X152790788Y-97390514D01*
X152790788Y-97390514D02*
X152540788Y-97676228D01*
X152540788Y-97676228D02*
X152647931Y-97676228D01*
X152647931Y-97676228D02*
X152719360Y-97711942D01*
X152719360Y-97711942D02*
X152755074Y-97747657D01*
X152755074Y-97747657D02*
X152790788Y-97819085D01*
X152790788Y-97819085D02*
X152790788Y-97997657D01*
X152790788Y-97997657D02*
X152755074Y-98069085D01*
X152755074Y-98069085D02*
X152719360Y-98104800D01*
X152719360Y-98104800D02*
X152647931Y-98140514D01*
X152647931Y-98140514D02*
X152433645Y-98140514D01*
X152433645Y-98140514D02*
X152362217Y-98104800D01*
X152362217Y-98104800D02*
X152326502Y-98069085D01*
X151308646Y-103001228D02*
X151665789Y-103001228D01*
X151237217Y-103215514D02*
X151487217Y-102465514D01*
X151487217Y-102465514D02*
X151737217Y-103215514D01*
X152380074Y-103215514D02*
X151951503Y-103215514D01*
X152165788Y-103215514D02*
X152165788Y-102465514D01*
X152165788Y-102465514D02*
X152094360Y-102572657D01*
X152094360Y-102572657D02*
X152022931Y-102644085D01*
X152022931Y-102644085D02*
X151951503Y-102679800D01*
X152665789Y-102536942D02*
X152701503Y-102501228D01*
X152701503Y-102501228D02*
X152772932Y-102465514D01*
X152772932Y-102465514D02*
X152951503Y-102465514D01*
X152951503Y-102465514D02*
X153022932Y-102501228D01*
X153022932Y-102501228D02*
X153058646Y-102536942D01*
X153058646Y-102536942D02*
X153094360Y-102608371D01*
X153094360Y-102608371D02*
X153094360Y-102679800D01*
X153094360Y-102679800D02*
X153058646Y-102786942D01*
X153058646Y-102786942D02*
X152630074Y-103215514D01*
X152630074Y-103215514D02*
X153094360Y-103215514D01*
X151490788Y-120660157D02*
X151597931Y-120695871D01*
X151597931Y-120695871D02*
X151633645Y-120731585D01*
X151633645Y-120731585D02*
X151669359Y-120803014D01*
X151669359Y-120803014D02*
X151669359Y-120910157D01*
X151669359Y-120910157D02*
X151633645Y-120981585D01*
X151633645Y-120981585D02*
X151597931Y-121017300D01*
X151597931Y-121017300D02*
X151526502Y-121053014D01*
X151526502Y-121053014D02*
X151240788Y-121053014D01*
X151240788Y-121053014D02*
X151240788Y-120303014D01*
X151240788Y-120303014D02*
X151490788Y-120303014D01*
X151490788Y-120303014D02*
X151562217Y-120338728D01*
X151562217Y-120338728D02*
X151597931Y-120374442D01*
X151597931Y-120374442D02*
X151633645Y-120445871D01*
X151633645Y-120445871D02*
X151633645Y-120517300D01*
X151633645Y-120517300D02*
X151597931Y-120588728D01*
X151597931Y-120588728D02*
X151562217Y-120624442D01*
X151562217Y-120624442D02*
X151490788Y-120660157D01*
X151490788Y-120660157D02*
X151240788Y-120660157D01*
X152383645Y-121053014D02*
X151955074Y-121053014D01*
X152169359Y-121053014D02*
X152169359Y-120303014D01*
X152169359Y-120303014D02*
X152097931Y-120410157D01*
X152097931Y-120410157D02*
X152026502Y-120481585D01*
X152026502Y-120481585D02*
X151955074Y-120517300D01*
X153026503Y-120553014D02*
X153026503Y-121053014D01*
X152847931Y-120267300D02*
X152669360Y-120803014D01*
X152669360Y-120803014D02*
X153133645Y-120803014D01*
X151615789Y-115763728D02*
X151972932Y-115763728D01*
X151544360Y-115978014D02*
X151794360Y-115228014D01*
X151794360Y-115228014D02*
X152044360Y-115978014D01*
X152401503Y-115549442D02*
X152330074Y-115513728D01*
X152330074Y-115513728D02*
X152294360Y-115478014D01*
X152294360Y-115478014D02*
X152258646Y-115406585D01*
X152258646Y-115406585D02*
X152258646Y-115370871D01*
X152258646Y-115370871D02*
X152294360Y-115299442D01*
X152294360Y-115299442D02*
X152330074Y-115263728D01*
X152330074Y-115263728D02*
X152401503Y-115228014D01*
X152401503Y-115228014D02*
X152544360Y-115228014D01*
X152544360Y-115228014D02*
X152615789Y-115263728D01*
X152615789Y-115263728D02*
X152651503Y-115299442D01*
X152651503Y-115299442D02*
X152687217Y-115370871D01*
X152687217Y-115370871D02*
X152687217Y-115406585D01*
X152687217Y-115406585D02*
X152651503Y-115478014D01*
X152651503Y-115478014D02*
X152615789Y-115513728D01*
X152615789Y-115513728D02*
X152544360Y-115549442D01*
X152544360Y-115549442D02*
X152401503Y-115549442D01*
X152401503Y-115549442D02*
X152330074Y-115585157D01*
X152330074Y-115585157D02*
X152294360Y-115620871D01*
X152294360Y-115620871D02*
X152258646Y-115692300D01*
X152258646Y-115692300D02*
X152258646Y-115835157D01*
X152258646Y-115835157D02*
X152294360Y-115906585D01*
X152294360Y-115906585D02*
X152330074Y-115942300D01*
X152330074Y-115942300D02*
X152401503Y-115978014D01*
X152401503Y-115978014D02*
X152544360Y-115978014D01*
X152544360Y-115978014D02*
X152615789Y-115942300D01*
X152615789Y-115942300D02*
X152651503Y-115906585D01*
X152651503Y-115906585D02*
X152687217Y-115835157D01*
X152687217Y-115835157D02*
X152687217Y-115692300D01*
X152687217Y-115692300D02*
X152651503Y-115620871D01*
X152651503Y-115620871D02*
X152615789Y-115585157D01*
X152615789Y-115585157D02*
X152544360Y-115549442D01*
X151615789Y-113226228D02*
X151972932Y-113226228D01*
X151544360Y-113440514D02*
X151794360Y-112690514D01*
X151794360Y-112690514D02*
X152044360Y-113440514D01*
X152330074Y-113440514D02*
X152472931Y-113440514D01*
X152472931Y-113440514D02*
X152544360Y-113404800D01*
X152544360Y-113404800D02*
X152580074Y-113369085D01*
X152580074Y-113369085D02*
X152651503Y-113261942D01*
X152651503Y-113261942D02*
X152687217Y-113119085D01*
X152687217Y-113119085D02*
X152687217Y-112833371D01*
X152687217Y-112833371D02*
X152651503Y-112761942D01*
X152651503Y-112761942D02*
X152615789Y-112726228D01*
X152615789Y-112726228D02*
X152544360Y-112690514D01*
X152544360Y-112690514D02*
X152401503Y-112690514D01*
X152401503Y-112690514D02*
X152330074Y-112726228D01*
X152330074Y-112726228D02*
X152294360Y-112761942D01*
X152294360Y-112761942D02*
X152258646Y-112833371D01*
X152258646Y-112833371D02*
X152258646Y-113011942D01*
X152258646Y-113011942D02*
X152294360Y-113083371D01*
X152294360Y-113083371D02*
X152330074Y-113119085D01*
X152330074Y-113119085D02*
X152401503Y-113154800D01*
X152401503Y-113154800D02*
X152544360Y-113154800D01*
X152544360Y-113154800D02*
X152615789Y-113119085D01*
X152615789Y-113119085D02*
X152651503Y-113083371D01*
X152651503Y-113083371D02*
X152687217Y-113011942D01*
X151258646Y-110688728D02*
X151615789Y-110688728D01*
X151187217Y-110903014D02*
X151437217Y-110153014D01*
X151437217Y-110153014D02*
X151687217Y-110903014D01*
X152330074Y-110903014D02*
X151901503Y-110903014D01*
X152115788Y-110903014D02*
X152115788Y-110153014D01*
X152115788Y-110153014D02*
X152044360Y-110260157D01*
X152044360Y-110260157D02*
X151972931Y-110331585D01*
X151972931Y-110331585D02*
X151901503Y-110367300D01*
X152794360Y-110153014D02*
X152865789Y-110153014D01*
X152865789Y-110153014D02*
X152937217Y-110188728D01*
X152937217Y-110188728D02*
X152972932Y-110224442D01*
X152972932Y-110224442D02*
X153008646Y-110295871D01*
X153008646Y-110295871D02*
X153044360Y-110438728D01*
X153044360Y-110438728D02*
X153044360Y-110617300D01*
X153044360Y-110617300D02*
X153008646Y-110760157D01*
X153008646Y-110760157D02*
X152972932Y-110831585D01*
X152972932Y-110831585D02*
X152937217Y-110867300D01*
X152937217Y-110867300D02*
X152865789Y-110903014D01*
X152865789Y-110903014D02*
X152794360Y-110903014D01*
X152794360Y-110903014D02*
X152722932Y-110867300D01*
X152722932Y-110867300D02*
X152687217Y-110831585D01*
X152687217Y-110831585D02*
X152651503Y-110760157D01*
X152651503Y-110760157D02*
X152615789Y-110617300D01*
X152615789Y-110617300D02*
X152615789Y-110438728D01*
X152615789Y-110438728D02*
X152651503Y-110295871D01*
X152651503Y-110295871D02*
X152687217Y-110224442D01*
X152687217Y-110224442D02*
X152722932Y-110188728D01*
X152722932Y-110188728D02*
X152794360Y-110153014D01*
X151490788Y-118122657D02*
X151597931Y-118158371D01*
X151597931Y-118158371D02*
X151633645Y-118194085D01*
X151633645Y-118194085D02*
X151669359Y-118265514D01*
X151669359Y-118265514D02*
X151669359Y-118372657D01*
X151669359Y-118372657D02*
X151633645Y-118444085D01*
X151633645Y-118444085D02*
X151597931Y-118479800D01*
X151597931Y-118479800D02*
X151526502Y-118515514D01*
X151526502Y-118515514D02*
X151240788Y-118515514D01*
X151240788Y-118515514D02*
X151240788Y-117765514D01*
X151240788Y-117765514D02*
X151490788Y-117765514D01*
X151490788Y-117765514D02*
X151562217Y-117801228D01*
X151562217Y-117801228D02*
X151597931Y-117836942D01*
X151597931Y-117836942D02*
X151633645Y-117908371D01*
X151633645Y-117908371D02*
X151633645Y-117979800D01*
X151633645Y-117979800D02*
X151597931Y-118051228D01*
X151597931Y-118051228D02*
X151562217Y-118086942D01*
X151562217Y-118086942D02*
X151490788Y-118122657D01*
X151490788Y-118122657D02*
X151240788Y-118122657D01*
X152383645Y-118515514D02*
X151955074Y-118515514D01*
X152169359Y-118515514D02*
X152169359Y-117765514D01*
X152169359Y-117765514D02*
X152097931Y-117872657D01*
X152097931Y-117872657D02*
X152026502Y-117944085D01*
X152026502Y-117944085D02*
X151955074Y-117979800D01*
X153062217Y-117765514D02*
X152705074Y-117765514D01*
X152705074Y-117765514D02*
X152669360Y-118122657D01*
X152669360Y-118122657D02*
X152705074Y-118086942D01*
X152705074Y-118086942D02*
X152776503Y-118051228D01*
X152776503Y-118051228D02*
X152955074Y-118051228D01*
X152955074Y-118051228D02*
X153026503Y-118086942D01*
X153026503Y-118086942D02*
X153062217Y-118122657D01*
X153062217Y-118122657D02*
X153097931Y-118194085D01*
X153097931Y-118194085D02*
X153097931Y-118372657D01*
X153097931Y-118372657D02*
X153062217Y-118444085D01*
X153062217Y-118444085D02*
X153026503Y-118479800D01*
X153026503Y-118479800D02*
X152955074Y-118515514D01*
X152955074Y-118515514D02*
X152776503Y-118515514D01*
X152776503Y-118515514D02*
X152705074Y-118479800D01*
X152705074Y-118479800D02*
X152669360Y-118444085D01*
X151544360Y-125710157D02*
X151651503Y-125745871D01*
X151651503Y-125745871D02*
X151687217Y-125781585D01*
X151687217Y-125781585D02*
X151722931Y-125853014D01*
X151722931Y-125853014D02*
X151722931Y-125960157D01*
X151722931Y-125960157D02*
X151687217Y-126031585D01*
X151687217Y-126031585D02*
X151651503Y-126067300D01*
X151651503Y-126067300D02*
X151580074Y-126103014D01*
X151580074Y-126103014D02*
X151294360Y-126103014D01*
X151294360Y-126103014D02*
X151294360Y-125353014D01*
X151294360Y-125353014D02*
X151544360Y-125353014D01*
X151544360Y-125353014D02*
X151615789Y-125388728D01*
X151615789Y-125388728D02*
X151651503Y-125424442D01*
X151651503Y-125424442D02*
X151687217Y-125495871D01*
X151687217Y-125495871D02*
X151687217Y-125567300D01*
X151687217Y-125567300D02*
X151651503Y-125638728D01*
X151651503Y-125638728D02*
X151615789Y-125674442D01*
X151615789Y-125674442D02*
X151544360Y-125710157D01*
X151544360Y-125710157D02*
X151294360Y-125710157D01*
X152437217Y-126103014D02*
X152008646Y-126103014D01*
X152222931Y-126103014D02*
X152222931Y-125353014D01*
X152222931Y-125353014D02*
X152151503Y-125460157D01*
X152151503Y-125460157D02*
X152080074Y-125531585D01*
X152080074Y-125531585D02*
X152008646Y-125567300D01*
X152687217Y-125353014D02*
X153151503Y-125353014D01*
X153151503Y-125353014D02*
X152901503Y-125638728D01*
X152901503Y-125638728D02*
X153008646Y-125638728D01*
X153008646Y-125638728D02*
X153080075Y-125674442D01*
X153080075Y-125674442D02*
X153115789Y-125710157D01*
X153115789Y-125710157D02*
X153151503Y-125781585D01*
X153151503Y-125781585D02*
X153151503Y-125960157D01*
X153151503Y-125960157D02*
X153115789Y-126031585D01*
X153115789Y-126031585D02*
X153080075Y-126067300D01*
X153080075Y-126067300D02*
X153008646Y-126103014D01*
X153008646Y-126103014D02*
X152794360Y-126103014D01*
X152794360Y-126103014D02*
X152722932Y-126067300D01*
X152722932Y-126067300D02*
X152687217Y-126031585D01*
X151544360Y-128247657D02*
X151651503Y-128283371D01*
X151651503Y-128283371D02*
X151687217Y-128319085D01*
X151687217Y-128319085D02*
X151722931Y-128390514D01*
X151722931Y-128390514D02*
X151722931Y-128497657D01*
X151722931Y-128497657D02*
X151687217Y-128569085D01*
X151687217Y-128569085D02*
X151651503Y-128604800D01*
X151651503Y-128604800D02*
X151580074Y-128640514D01*
X151580074Y-128640514D02*
X151294360Y-128640514D01*
X151294360Y-128640514D02*
X151294360Y-127890514D01*
X151294360Y-127890514D02*
X151544360Y-127890514D01*
X151544360Y-127890514D02*
X151615789Y-127926228D01*
X151615789Y-127926228D02*
X151651503Y-127961942D01*
X151651503Y-127961942D02*
X151687217Y-128033371D01*
X151687217Y-128033371D02*
X151687217Y-128104800D01*
X151687217Y-128104800D02*
X151651503Y-128176228D01*
X151651503Y-128176228D02*
X151615789Y-128211942D01*
X151615789Y-128211942D02*
X151544360Y-128247657D01*
X151544360Y-128247657D02*
X151294360Y-128247657D01*
X152437217Y-128640514D02*
X152008646Y-128640514D01*
X152222931Y-128640514D02*
X152222931Y-127890514D01*
X152222931Y-127890514D02*
X152151503Y-127997657D01*
X152151503Y-127997657D02*
X152080074Y-128069085D01*
X152080074Y-128069085D02*
X152008646Y-128104800D01*
X152722932Y-127961942D02*
X152758646Y-127926228D01*
X152758646Y-127926228D02*
X152830075Y-127890514D01*
X152830075Y-127890514D02*
X153008646Y-127890514D01*
X153008646Y-127890514D02*
X153080075Y-127926228D01*
X153080075Y-127926228D02*
X153115789Y-127961942D01*
X153115789Y-127961942D02*
X153151503Y-128033371D01*
X153151503Y-128033371D02*
X153151503Y-128104800D01*
X153151503Y-128104800D02*
X153115789Y-128211942D01*
X153115789Y-128211942D02*
X152687217Y-128640514D01*
X152687217Y-128640514D02*
X153151503Y-128640514D01*
X151544360Y-130785157D02*
X151651503Y-130820871D01*
X151651503Y-130820871D02*
X151687217Y-130856585D01*
X151687217Y-130856585D02*
X151722931Y-130928014D01*
X151722931Y-130928014D02*
X151722931Y-131035157D01*
X151722931Y-131035157D02*
X151687217Y-131106585D01*
X151687217Y-131106585D02*
X151651503Y-131142300D01*
X151651503Y-131142300D02*
X151580074Y-131178014D01*
X151580074Y-131178014D02*
X151294360Y-131178014D01*
X151294360Y-131178014D02*
X151294360Y-130428014D01*
X151294360Y-130428014D02*
X151544360Y-130428014D01*
X151544360Y-130428014D02*
X151615789Y-130463728D01*
X151615789Y-130463728D02*
X151651503Y-130499442D01*
X151651503Y-130499442D02*
X151687217Y-130570871D01*
X151687217Y-130570871D02*
X151687217Y-130642300D01*
X151687217Y-130642300D02*
X151651503Y-130713728D01*
X151651503Y-130713728D02*
X151615789Y-130749442D01*
X151615789Y-130749442D02*
X151544360Y-130785157D01*
X151544360Y-130785157D02*
X151294360Y-130785157D01*
X152437217Y-131178014D02*
X152008646Y-131178014D01*
X152222931Y-131178014D02*
X152222931Y-130428014D01*
X152222931Y-130428014D02*
X152151503Y-130535157D01*
X152151503Y-130535157D02*
X152080074Y-130606585D01*
X152080074Y-130606585D02*
X152008646Y-130642300D01*
X153151503Y-131178014D02*
X152722932Y-131178014D01*
X152937217Y-131178014D02*
X152937217Y-130428014D01*
X152937217Y-130428014D02*
X152865789Y-130535157D01*
X152865789Y-130535157D02*
X152794360Y-130606585D01*
X152794360Y-130606585D02*
X152722932Y-130642300D01*
X151901503Y-135860157D02*
X152008646Y-135895871D01*
X152008646Y-135895871D02*
X152044360Y-135931585D01*
X152044360Y-135931585D02*
X152080074Y-136003014D01*
X152080074Y-136003014D02*
X152080074Y-136110157D01*
X152080074Y-136110157D02*
X152044360Y-136181585D01*
X152044360Y-136181585D02*
X152008646Y-136217300D01*
X152008646Y-136217300D02*
X151937217Y-136253014D01*
X151937217Y-136253014D02*
X151651503Y-136253014D01*
X151651503Y-136253014D02*
X151651503Y-135503014D01*
X151651503Y-135503014D02*
X151901503Y-135503014D01*
X151901503Y-135503014D02*
X151972932Y-135538728D01*
X151972932Y-135538728D02*
X152008646Y-135574442D01*
X152008646Y-135574442D02*
X152044360Y-135645871D01*
X152044360Y-135645871D02*
X152044360Y-135717300D01*
X152044360Y-135717300D02*
X152008646Y-135788728D01*
X152008646Y-135788728D02*
X151972932Y-135824442D01*
X151972932Y-135824442D02*
X151901503Y-135860157D01*
X151901503Y-135860157D02*
X151651503Y-135860157D01*
X152365789Y-135574442D02*
X152401503Y-135538728D01*
X152401503Y-135538728D02*
X152472932Y-135503014D01*
X152472932Y-135503014D02*
X152651503Y-135503014D01*
X152651503Y-135503014D02*
X152722932Y-135538728D01*
X152722932Y-135538728D02*
X152758646Y-135574442D01*
X152758646Y-135574442D02*
X152794360Y-135645871D01*
X152794360Y-135645871D02*
X152794360Y-135717300D01*
X152794360Y-135717300D02*
X152758646Y-135824442D01*
X152758646Y-135824442D02*
X152330074Y-136253014D01*
X152330074Y-136253014D02*
X152794360Y-136253014D01*
D12*
X157577961Y-85090000D02*
G75*
G03*
X156442039Y-85090000I-567961J0D01*
G01*
X156442039Y-85090000D02*
G75*
G03*
X157577961Y-85090000I567961J0D01*
G01*
X156756000Y-90932000D02*
X157518000Y-90170000D01*
X140246000Y-77978000D02*
X139484000Y-77216000D01*
X122212000Y-105410000D02*
X122212000Y-104648000D01*
X122750000Y-135890000D02*
X122212000Y-135890000D01*
X139484000Y-142450000D02*
X139484000Y-143002000D01*
X156200000Y-90170000D02*
X156756000Y-90170000D01*
X122212000Y-104648000D02*
X121450000Y-105410000D01*
X121450000Y-105410000D02*
X122212000Y-106172000D01*
X138722000Y-77978000D02*
X139484000Y-77978000D01*
X149898000Y-77724000D02*
G75*
G03*
X149390000Y-77724000I-254000J0D01*
G01*
X149390000Y-77724000D02*
G75*
G03*
X149898000Y-77724000I254000J0D01*
G01*
X139484000Y-77216000D02*
X138722000Y-77978000D01*
X139484000Y-77978000D02*
X140246000Y-77978000D01*
X138722000Y-143002000D02*
X139484000Y-143764000D01*
X157264000Y-85090000D02*
G75*
G03*
X156756000Y-85090000I-254000J0D01*
G01*
X156756000Y-85090000D02*
G75*
G03*
X157264000Y-85090000I254000J0D01*
G01*
X157518000Y-90170000D02*
X156756000Y-89408000D01*
X140246000Y-143002000D02*
X139484000Y-143002000D01*
X122212000Y-113030000D02*
G75*
G03*
X121704000Y-113030000I-254000J0D01*
G01*
X121704000Y-113030000D02*
G75*
G03*
X122212000Y-113030000I254000J0D01*
G01*
X157264000Y-87630000D02*
G75*
G03*
X156756000Y-87630000I-254000J0D01*
G01*
X156756000Y-87630000D02*
G75*
G03*
X157264000Y-87630000I254000J0D01*
G01*
X139484000Y-143002000D02*
X138722000Y-143002000D01*
X122525961Y-100270039D02*
G75*
G03*
X121390039Y-100270039I-567961J0D01*
G01*
X121390039Y-100270039D02*
G75*
G03*
X122525961Y-100270039I567961J0D01*
G01*
X139484000Y-78740000D02*
X139484000Y-77978000D01*
X156756000Y-89408000D02*
X156756000Y-90170000D01*
X122212000Y-136652000D02*
X122212000Y-135890000D01*
X156756000Y-90170000D02*
X156756000Y-90932000D01*
X122212000Y-106172000D02*
X122212000Y-105410000D01*
X122212000Y-100270039D02*
G75*
G03*
X121704000Y-100270039I-254000J0D01*
G01*
X121704000Y-100270039D02*
G75*
G03*
X122212000Y-100270039I254000J0D01*
G01*
X122212000Y-135128000D02*
X121450000Y-135890000D01*
X122212000Y-102810039D02*
G75*
G03*
X121704000Y-102810039I-254000J0D01*
G01*
X121704000Y-102810039D02*
G75*
G03*
X122212000Y-102810039I254000J0D01*
G01*
X122212000Y-135890000D02*
X122212000Y-135128000D01*
X121450000Y-135890000D02*
X122212000Y-136652000D01*
X122750000Y-105410000D02*
X122212000Y-105410000D01*
X139484000Y-143764000D02*
X140246000Y-143002000D01*
X137487160Y-130632200D02*
X137582398Y-130679819D01*
X137582398Y-130679819D02*
X137772874Y-130679819D01*
X137772874Y-130679819D02*
X137868112Y-130632200D01*
X137868112Y-130632200D02*
X137915731Y-130536961D01*
X137915731Y-130536961D02*
X137915731Y-130489342D01*
X137915731Y-130489342D02*
X137868112Y-130394104D01*
X137868112Y-130394104D02*
X137772874Y-130346485D01*
X137772874Y-130346485D02*
X137630017Y-130346485D01*
X137630017Y-130346485D02*
X137534779Y-130298866D01*
X137534779Y-130298866D02*
X137487160Y-130203628D01*
X137487160Y-130203628D02*
X137487160Y-130156009D01*
X137487160Y-130156009D02*
X137534779Y-130060771D01*
X137534779Y-130060771D02*
X137630017Y-130013152D01*
X137630017Y-130013152D02*
X137772874Y-130013152D01*
X137772874Y-130013152D02*
X137868112Y-130060771D01*
X138201446Y-130013152D02*
X138582398Y-130013152D01*
X138344303Y-129679819D02*
X138344303Y-130536961D01*
X138344303Y-130536961D02*
X138391922Y-130632200D01*
X138391922Y-130632200D02*
X138487160Y-130679819D01*
X138487160Y-130679819D02*
X138582398Y-130679819D01*
X139344303Y-130679819D02*
X139344303Y-130156009D01*
X139344303Y-130156009D02*
X139296684Y-130060771D01*
X139296684Y-130060771D02*
X139201446Y-130013152D01*
X139201446Y-130013152D02*
X139010970Y-130013152D01*
X139010970Y-130013152D02*
X138915732Y-130060771D01*
X139344303Y-130632200D02*
X139249065Y-130679819D01*
X139249065Y-130679819D02*
X139010970Y-130679819D01*
X139010970Y-130679819D02*
X138915732Y-130632200D01*
X138915732Y-130632200D02*
X138868113Y-130536961D01*
X138868113Y-130536961D02*
X138868113Y-130441723D01*
X138868113Y-130441723D02*
X138915732Y-130346485D01*
X138915732Y-130346485D02*
X139010970Y-130298866D01*
X139010970Y-130298866D02*
X139249065Y-130298866D01*
X139249065Y-130298866D02*
X139344303Y-130251247D01*
X139677637Y-130013152D02*
X140058589Y-130013152D01*
X139820494Y-129679819D02*
X139820494Y-130536961D01*
X139820494Y-130536961D02*
X139868113Y-130632200D01*
X139868113Y-130632200D02*
X139963351Y-130679819D01*
X139963351Y-130679819D02*
X140058589Y-130679819D01*
X140820494Y-130013152D02*
X140820494Y-130679819D01*
X140391923Y-130013152D02*
X140391923Y-130536961D01*
X140391923Y-130536961D02*
X140439542Y-130632200D01*
X140439542Y-130632200D02*
X140534780Y-130679819D01*
X140534780Y-130679819D02*
X140677637Y-130679819D01*
X140677637Y-130679819D02*
X140772875Y-130632200D01*
X140772875Y-130632200D02*
X140820494Y-130584580D01*
X141249066Y-130632200D02*
X141344304Y-130679819D01*
X141344304Y-130679819D02*
X141534780Y-130679819D01*
X141534780Y-130679819D02*
X141630018Y-130632200D01*
X141630018Y-130632200D02*
X141677637Y-130536961D01*
X141677637Y-130536961D02*
X141677637Y-130489342D01*
X141677637Y-130489342D02*
X141630018Y-130394104D01*
X141630018Y-130394104D02*
X141534780Y-130346485D01*
X141534780Y-130346485D02*
X141391923Y-130346485D01*
X141391923Y-130346485D02*
X141296685Y-130298866D01*
X141296685Y-130298866D02*
X141249066Y-130203628D01*
X141249066Y-130203628D02*
X141249066Y-130156009D01*
X141249066Y-130156009D02*
X141296685Y-130060771D01*
X141296685Y-130060771D02*
X141391923Y-130013152D01*
X141391923Y-130013152D02*
X141534780Y-130013152D01*
X141534780Y-130013152D02*
X141630018Y-130060771D01*
X141598779Y-138807819D02*
X141598779Y-138141152D01*
X141598779Y-138331628D02*
X141646398Y-138236390D01*
X141646398Y-138236390D02*
X141694017Y-138188771D01*
X141694017Y-138188771D02*
X141789255Y-138141152D01*
X141789255Y-138141152D02*
X141884493Y-138141152D01*
X142122589Y-138807819D02*
X142646398Y-138141152D01*
X142122589Y-138141152D02*
X142646398Y-138807819D01*
X130168779Y-139823819D02*
X130168779Y-139157152D01*
X130168779Y-139347628D02*
X130216398Y-139252390D01*
X130216398Y-139252390D02*
X130264017Y-139204771D01*
X130264017Y-139204771D02*
X130359255Y-139157152D01*
X130359255Y-139157152D02*
X130454493Y-139157152D01*
X131168779Y-139776200D02*
X131073541Y-139823819D01*
X131073541Y-139823819D02*
X130883065Y-139823819D01*
X130883065Y-139823819D02*
X130787827Y-139776200D01*
X130787827Y-139776200D02*
X130740208Y-139680961D01*
X130740208Y-139680961D02*
X130740208Y-139300009D01*
X130740208Y-139300009D02*
X130787827Y-139204771D01*
X130787827Y-139204771D02*
X130883065Y-139157152D01*
X130883065Y-139157152D02*
X131073541Y-139157152D01*
X131073541Y-139157152D02*
X131168779Y-139204771D01*
X131168779Y-139204771D02*
X131216398Y-139300009D01*
X131216398Y-139300009D02*
X131216398Y-139395247D01*
X131216398Y-139395247D02*
X130740208Y-139490485D01*
X131597351Y-139776200D02*
X131692589Y-139823819D01*
X131692589Y-139823819D02*
X131883065Y-139823819D01*
X131883065Y-139823819D02*
X131978303Y-139776200D01*
X131978303Y-139776200D02*
X132025922Y-139680961D01*
X132025922Y-139680961D02*
X132025922Y-139633342D01*
X132025922Y-139633342D02*
X131978303Y-139538104D01*
X131978303Y-139538104D02*
X131883065Y-139490485D01*
X131883065Y-139490485D02*
X131740208Y-139490485D01*
X131740208Y-139490485D02*
X131644970Y-139442866D01*
X131644970Y-139442866D02*
X131597351Y-139347628D01*
X131597351Y-139347628D02*
X131597351Y-139300009D01*
X131597351Y-139300009D02*
X131644970Y-139204771D01*
X131644970Y-139204771D02*
X131740208Y-139157152D01*
X131740208Y-139157152D02*
X131883065Y-139157152D01*
X131883065Y-139157152D02*
X131978303Y-139204771D01*
X132835446Y-139776200D02*
X132740208Y-139823819D01*
X132740208Y-139823819D02*
X132549732Y-139823819D01*
X132549732Y-139823819D02*
X132454494Y-139776200D01*
X132454494Y-139776200D02*
X132406875Y-139680961D01*
X132406875Y-139680961D02*
X132406875Y-139300009D01*
X132406875Y-139300009D02*
X132454494Y-139204771D01*
X132454494Y-139204771D02*
X132549732Y-139157152D01*
X132549732Y-139157152D02*
X132740208Y-139157152D01*
X132740208Y-139157152D02*
X132835446Y-139204771D01*
X132835446Y-139204771D02*
X132883065Y-139300009D01*
X132883065Y-139300009D02*
X132883065Y-139395247D01*
X132883065Y-139395247D02*
X132406875Y-139490485D01*
X133168780Y-139157152D02*
X133549732Y-139157152D01*
X133311637Y-138823819D02*
X133311637Y-139680961D01*
X133311637Y-139680961D02*
X133359256Y-139776200D01*
X133359256Y-139776200D02*
X133454494Y-139823819D01*
X133454494Y-139823819D02*
X133549732Y-139823819D01*
X145865779Y-94199152D02*
X145865779Y-95199152D01*
X145865779Y-94246771D02*
X145961017Y-94199152D01*
X145961017Y-94199152D02*
X146151493Y-94199152D01*
X146151493Y-94199152D02*
X146246731Y-94246771D01*
X146246731Y-94246771D02*
X146294350Y-94294390D01*
X146294350Y-94294390D02*
X146341969Y-94389628D01*
X146341969Y-94389628D02*
X146341969Y-94675342D01*
X146341969Y-94675342D02*
X146294350Y-94770580D01*
X146294350Y-94770580D02*
X146246731Y-94818200D01*
X146246731Y-94818200D02*
X146151493Y-94865819D01*
X146151493Y-94865819D02*
X145961017Y-94865819D01*
X145961017Y-94865819D02*
X145865779Y-94818200D01*
X146913398Y-94865819D02*
X146818160Y-94818200D01*
X146818160Y-94818200D02*
X146770541Y-94770580D01*
X146770541Y-94770580D02*
X146722922Y-94675342D01*
X146722922Y-94675342D02*
X146722922Y-94389628D01*
X146722922Y-94389628D02*
X146770541Y-94294390D01*
X146770541Y-94294390D02*
X146818160Y-94246771D01*
X146818160Y-94246771D02*
X146913398Y-94199152D01*
X146913398Y-94199152D02*
X147056255Y-94199152D01*
X147056255Y-94199152D02*
X147151493Y-94246771D01*
X147151493Y-94246771D02*
X147199112Y-94294390D01*
X147199112Y-94294390D02*
X147246731Y-94389628D01*
X147246731Y-94389628D02*
X147246731Y-94675342D01*
X147246731Y-94675342D02*
X147199112Y-94770580D01*
X147199112Y-94770580D02*
X147151493Y-94818200D01*
X147151493Y-94818200D02*
X147056255Y-94865819D01*
X147056255Y-94865819D02*
X146913398Y-94865819D01*
X147580065Y-94199152D02*
X147770541Y-94865819D01*
X147770541Y-94865819D02*
X147961017Y-94389628D01*
X147961017Y-94389628D02*
X148151493Y-94865819D01*
X148151493Y-94865819D02*
X148341969Y-94199152D01*
X149103874Y-94818200D02*
X149008636Y-94865819D01*
X149008636Y-94865819D02*
X148818160Y-94865819D01*
X148818160Y-94865819D02*
X148722922Y-94818200D01*
X148722922Y-94818200D02*
X148675303Y-94722961D01*
X148675303Y-94722961D02*
X148675303Y-94342009D01*
X148675303Y-94342009D02*
X148722922Y-94246771D01*
X148722922Y-94246771D02*
X148818160Y-94199152D01*
X148818160Y-94199152D02*
X149008636Y-94199152D01*
X149008636Y-94199152D02*
X149103874Y-94246771D01*
X149103874Y-94246771D02*
X149151493Y-94342009D01*
X149151493Y-94342009D02*
X149151493Y-94437247D01*
X149151493Y-94437247D02*
X148675303Y-94532485D01*
X149580065Y-94865819D02*
X149580065Y-94199152D01*
X149580065Y-94389628D02*
X149627684Y-94294390D01*
X149627684Y-94294390D02*
X149675303Y-94246771D01*
X149675303Y-94246771D02*
X149770541Y-94199152D01*
X149770541Y-94199152D02*
X149865779Y-94199152D01*
X146345350Y-139157152D02*
X146345350Y-139823819D01*
X145916779Y-139157152D02*
X145916779Y-139680961D01*
X145916779Y-139680961D02*
X145964398Y-139776200D01*
X145964398Y-139776200D02*
X146059636Y-139823819D01*
X146059636Y-139823819D02*
X146202493Y-139823819D01*
X146202493Y-139823819D02*
X146297731Y-139776200D01*
X146297731Y-139776200D02*
X146345350Y-139728580D01*
X146773922Y-139776200D02*
X146869160Y-139823819D01*
X146869160Y-139823819D02*
X147059636Y-139823819D01*
X147059636Y-139823819D02*
X147154874Y-139776200D01*
X147154874Y-139776200D02*
X147202493Y-139680961D01*
X147202493Y-139680961D02*
X147202493Y-139633342D01*
X147202493Y-139633342D02*
X147154874Y-139538104D01*
X147154874Y-139538104D02*
X147059636Y-139490485D01*
X147059636Y-139490485D02*
X146916779Y-139490485D01*
X146916779Y-139490485D02*
X146821541Y-139442866D01*
X146821541Y-139442866D02*
X146773922Y-139347628D01*
X146773922Y-139347628D02*
X146773922Y-139300009D01*
X146773922Y-139300009D02*
X146821541Y-139204771D01*
X146821541Y-139204771D02*
X146916779Y-139157152D01*
X146916779Y-139157152D02*
X147059636Y-139157152D01*
X147059636Y-139157152D02*
X147154874Y-139204771D01*
X148012017Y-139776200D02*
X147916779Y-139823819D01*
X147916779Y-139823819D02*
X147726303Y-139823819D01*
X147726303Y-139823819D02*
X147631065Y-139776200D01*
X147631065Y-139776200D02*
X147583446Y-139680961D01*
X147583446Y-139680961D02*
X147583446Y-139300009D01*
X147583446Y-139300009D02*
X147631065Y-139204771D01*
X147631065Y-139204771D02*
X147726303Y-139157152D01*
X147726303Y-139157152D02*
X147916779Y-139157152D01*
X147916779Y-139157152D02*
X148012017Y-139204771D01*
X148012017Y-139204771D02*
X148059636Y-139300009D01*
X148059636Y-139300009D02*
X148059636Y-139395247D01*
X148059636Y-139395247D02*
X147583446Y-139490485D01*
X148488208Y-139823819D02*
X148488208Y-139157152D01*
X148488208Y-139347628D02*
X148535827Y-139252390D01*
X148535827Y-139252390D02*
X148583446Y-139204771D01*
X148583446Y-139204771D02*
X148678684Y-139157152D01*
X148678684Y-139157152D02*
X148773922Y-139157152D01*
D11*
X151544360Y-133322657D02*
X151651503Y-133358371D01*
X151651503Y-133358371D02*
X151687217Y-133394085D01*
X151687217Y-133394085D02*
X151722931Y-133465514D01*
X151722931Y-133465514D02*
X151722931Y-133572657D01*
X151722931Y-133572657D02*
X151687217Y-133644085D01*
X151687217Y-133644085D02*
X151651503Y-133679800D01*
X151651503Y-133679800D02*
X151580074Y-133715514D01*
X151580074Y-133715514D02*
X151294360Y-133715514D01*
X151294360Y-133715514D02*
X151294360Y-132965514D01*
X151294360Y-132965514D02*
X151544360Y-132965514D01*
X151544360Y-132965514D02*
X151615789Y-133001228D01*
X151615789Y-133001228D02*
X151651503Y-133036942D01*
X151651503Y-133036942D02*
X151687217Y-133108371D01*
X151687217Y-133108371D02*
X151687217Y-133179800D01*
X151687217Y-133179800D02*
X151651503Y-133251228D01*
X151651503Y-133251228D02*
X151615789Y-133286942D01*
X151615789Y-133286942D02*
X151544360Y-133322657D01*
X151544360Y-133322657D02*
X151294360Y-133322657D01*
X152437217Y-133715514D02*
X152008646Y-133715514D01*
X152222931Y-133715514D02*
X152222931Y-132965514D01*
X152222931Y-132965514D02*
X152151503Y-133072657D01*
X152151503Y-133072657D02*
X152080074Y-133144085D01*
X152080074Y-133144085D02*
X152008646Y-133179800D01*
X152901503Y-132965514D02*
X152972932Y-132965514D01*
X152972932Y-132965514D02*
X153044360Y-133001228D01*
X153044360Y-133001228D02*
X153080075Y-133036942D01*
X153080075Y-133036942D02*
X153115789Y-133108371D01*
X153115789Y-133108371D02*
X153151503Y-133251228D01*
X153151503Y-133251228D02*
X153151503Y-133429800D01*
X153151503Y-133429800D02*
X153115789Y-133572657D01*
X153115789Y-133572657D02*
X153080075Y-133644085D01*
X153080075Y-133644085D02*
X153044360Y-133679800D01*
X153044360Y-133679800D02*
X152972932Y-133715514D01*
X152972932Y-133715514D02*
X152901503Y-133715514D01*
X152901503Y-133715514D02*
X152830075Y-133679800D01*
X152830075Y-133679800D02*
X152794360Y-133644085D01*
X152794360Y-133644085D02*
X152758646Y-133572657D01*
X152758646Y-133572657D02*
X152722932Y-133429800D01*
X152722932Y-133429800D02*
X152722932Y-133251228D01*
X152722932Y-133251228D02*
X152758646Y-133108371D01*
X152758646Y-133108371D02*
X152794360Y-133036942D01*
X152794360Y-133036942D02*
X152830075Y-133001228D01*
X152830075Y-133001228D02*
X152901503Y-132965514D01*
D12*
X132708779Y-85975819D02*
X132708779Y-84975819D01*
X132708779Y-85356771D02*
X132804017Y-85309152D01*
X132804017Y-85309152D02*
X132994493Y-85309152D01*
X132994493Y-85309152D02*
X133089731Y-85356771D01*
X133089731Y-85356771D02*
X133137350Y-85404390D01*
X133137350Y-85404390D02*
X133184969Y-85499628D01*
X133184969Y-85499628D02*
X133184969Y-85785342D01*
X133184969Y-85785342D02*
X133137350Y-85880580D01*
X133137350Y-85880580D02*
X133089731Y-85928200D01*
X133089731Y-85928200D02*
X132994493Y-85975819D01*
X132994493Y-85975819D02*
X132804017Y-85975819D01*
X132804017Y-85975819D02*
X132708779Y-85928200D01*
X133756398Y-85975819D02*
X133661160Y-85928200D01*
X133661160Y-85928200D02*
X133613541Y-85880580D01*
X133613541Y-85880580D02*
X133565922Y-85785342D01*
X133565922Y-85785342D02*
X133565922Y-85499628D01*
X133565922Y-85499628D02*
X133613541Y-85404390D01*
X133613541Y-85404390D02*
X133661160Y-85356771D01*
X133661160Y-85356771D02*
X133756398Y-85309152D01*
X133756398Y-85309152D02*
X133899255Y-85309152D01*
X133899255Y-85309152D02*
X133994493Y-85356771D01*
X133994493Y-85356771D02*
X134042112Y-85404390D01*
X134042112Y-85404390D02*
X134089731Y-85499628D01*
X134089731Y-85499628D02*
X134089731Y-85785342D01*
X134089731Y-85785342D02*
X134042112Y-85880580D01*
X134042112Y-85880580D02*
X133994493Y-85928200D01*
X133994493Y-85928200D02*
X133899255Y-85975819D01*
X133899255Y-85975819D02*
X133756398Y-85975819D01*
X134661160Y-85975819D02*
X134565922Y-85928200D01*
X134565922Y-85928200D02*
X134518303Y-85880580D01*
X134518303Y-85880580D02*
X134470684Y-85785342D01*
X134470684Y-85785342D02*
X134470684Y-85499628D01*
X134470684Y-85499628D02*
X134518303Y-85404390D01*
X134518303Y-85404390D02*
X134565922Y-85356771D01*
X134565922Y-85356771D02*
X134661160Y-85309152D01*
X134661160Y-85309152D02*
X134804017Y-85309152D01*
X134804017Y-85309152D02*
X134899255Y-85356771D01*
X134899255Y-85356771D02*
X134946874Y-85404390D01*
X134946874Y-85404390D02*
X134994493Y-85499628D01*
X134994493Y-85499628D02*
X134994493Y-85785342D01*
X134994493Y-85785342D02*
X134946874Y-85880580D01*
X134946874Y-85880580D02*
X134899255Y-85928200D01*
X134899255Y-85928200D02*
X134804017Y-85975819D01*
X134804017Y-85975819D02*
X134661160Y-85975819D01*
X135280208Y-85309152D02*
X135661160Y-85309152D01*
X135423065Y-84975819D02*
X135423065Y-85832961D01*
X135423065Y-85832961D02*
X135470684Y-85928200D01*
X135470684Y-85928200D02*
X135565922Y-85975819D01*
X135565922Y-85975819D02*
X135661160Y-85975819D01*
X136375922Y-138141152D02*
X136756874Y-138141152D01*
X136518779Y-137807819D02*
X136518779Y-138664961D01*
X136518779Y-138664961D02*
X136566398Y-138760200D01*
X136566398Y-138760200D02*
X136661636Y-138807819D01*
X136661636Y-138807819D02*
X136756874Y-138807819D01*
X136994970Y-138807819D02*
X137518779Y-138141152D01*
X136994970Y-138141152D02*
X137518779Y-138807819D01*
D13*
%TO.C,C15*%
X134798580Y-103888000D02*
X134517420Y-103888000D01*
X134798580Y-102868000D02*
X134517420Y-102868000D01*
%TO.C,R4*%
X148453742Y-127239500D02*
X148928258Y-127239500D01*
X148453742Y-128284500D02*
X148928258Y-128284500D01*
%TO.C,J8*%
X122914000Y-99000000D02*
X124244000Y-99000000D01*
X122914000Y-100330000D02*
X122914000Y-99000000D01*
X122914000Y-101600000D02*
X122914000Y-106740000D01*
X122914000Y-101600000D02*
X125574000Y-101600000D01*
X122914000Y-106740000D02*
X125574000Y-106740000D01*
X125574000Y-101600000D02*
X125574000Y-106740000D01*
%TO.C,J2*%
X135614000Y-142300000D02*
X135614000Y-140970000D01*
X136944000Y-142300000D02*
X135614000Y-142300000D01*
X138214000Y-142300000D02*
X143354000Y-142300000D01*
X138214000Y-142300000D02*
X138214000Y-139640000D01*
X143354000Y-142300000D02*
X143354000Y-139640000D01*
X138214000Y-139640000D02*
X143354000Y-139640000D01*
%TO.C,C3*%
X152284000Y-85778748D02*
X152284000Y-86301252D01*
X150814000Y-85778748D02*
X150814000Y-86301252D01*
%TO.C,C12*%
X128791580Y-110619000D02*
X128510420Y-110619000D01*
X128791580Y-109599000D02*
X128510420Y-109599000D01*
%TO.C,J3*%
X122914000Y-111700000D02*
X124244000Y-111700000D01*
X122914000Y-113030000D02*
X122914000Y-111700000D01*
X122914000Y-114300000D02*
X122914000Y-137220000D01*
X122914000Y-114300000D02*
X125574000Y-114300000D01*
X122914000Y-137220000D02*
X125574000Y-137220000D01*
X125574000Y-114300000D02*
X125574000Y-137220000D01*
%TO.C,C11*%
X128370420Y-103376000D02*
X128651580Y-103376000D01*
X128370420Y-104396000D02*
X128651580Y-104396000D01*
%TO.C,C17*%
X144690420Y-104392000D02*
X144971580Y-104392000D01*
X144690420Y-105412000D02*
X144971580Y-105412000D01*
%TO.C,R1*%
X130039742Y-127239500D02*
X130514258Y-127239500D01*
X130039742Y-128284500D02*
X130514258Y-128284500D01*
%TO.C,C7*%
X136904000Y-94501580D02*
X136904000Y-94220420D01*
X137924000Y-94501580D02*
X137924000Y-94220420D01*
%TO.C,J4*%
X153394000Y-109160000D02*
X154724000Y-109160000D01*
X153394000Y-110490000D02*
X153394000Y-109160000D01*
X153394000Y-111760000D02*
X153394000Y-121980000D01*
X153394000Y-111760000D02*
X156054000Y-111760000D01*
X153394000Y-121980000D02*
X156054000Y-121980000D01*
X156054000Y-111760000D02*
X156054000Y-121980000D01*
%TO.C,U2*%
X145754000Y-91040000D02*
X141994000Y-91040000D01*
X145754000Y-84220000D02*
X141994000Y-84220000D01*
X141994000Y-91040000D02*
X141994000Y-89780000D01*
X141994000Y-84220000D02*
X141994000Y-85480000D01*
X147274000Y-91270000D02*
X146794000Y-91270000D01*
X147034000Y-90940000D01*
X147274000Y-91270000D01*
G36*
X147274000Y-91270000D02*
G01*
X146794000Y-91270000D01*
X147034000Y-90940000D01*
X147274000Y-91270000D01*
G37*
%TO.C,C8*%
X130950580Y-112270000D02*
X130669420Y-112270000D01*
X130950580Y-111250000D02*
X130669420Y-111250000D01*
%TO.C,J9*%
X153394000Y-83760000D02*
X154724000Y-83760000D01*
X153394000Y-85090000D02*
X153394000Y-83760000D01*
X153394000Y-86360000D02*
X153394000Y-91500000D01*
X153394000Y-86360000D02*
X156054000Y-86360000D01*
X153394000Y-91500000D02*
X156054000Y-91500000D01*
X156054000Y-86360000D02*
X156054000Y-91500000D01*
%TO.C,D5*%
X135355500Y-84301000D02*
X135355500Y-82831000D01*
X135355500Y-82831000D02*
X133070500Y-82831000D01*
X133070500Y-84301000D02*
X135355500Y-84301000D01*
%TO.C,D4*%
X133550000Y-89590000D02*
X134750000Y-89590000D01*
X133550000Y-87630000D02*
X133550000Y-89590000D01*
X134750000Y-87630000D02*
X134750000Y-89590000D01*
%TO.C,C18*%
X140219000Y-124960748D02*
X140219000Y-125483252D01*
X138749000Y-124960748D02*
X138749000Y-125483252D01*
%TO.C,D2*%
X138749000Y-134073000D02*
X140219000Y-134073000D01*
X140219000Y-134073000D02*
X140219000Y-131788000D01*
X138749000Y-131788000D02*
X138749000Y-134073000D01*
%TO.C,C13*%
X145582000Y-114159420D02*
X145582000Y-114440580D01*
X144562000Y-114159420D02*
X144562000Y-114440580D01*
%TO.C,R5*%
X141463500Y-94598258D02*
X141463500Y-94123742D01*
X142508500Y-94598258D02*
X142508500Y-94123742D01*
%TO.C,SW1*%
X131114000Y-136850000D02*
X132614000Y-136850000D01*
X135114000Y-135600000D02*
X135114000Y-131100000D01*
X128614000Y-131100000D02*
X128614000Y-135600000D01*
X132614000Y-129850000D02*
X131114000Y-129850000D01*
%TO.C,J1*%
X138154000Y-81340000D02*
X138154000Y-80010000D01*
X139484000Y-81340000D02*
X138154000Y-81340000D01*
X140754000Y-81340000D02*
X150974000Y-81340000D01*
X140754000Y-81340000D02*
X140754000Y-78680000D01*
X150974000Y-81340000D02*
X150974000Y-78680000D01*
X140754000Y-78680000D02*
X150974000Y-78680000D01*
%TO.C,C2*%
X145733580Y-128272000D02*
X145452420Y-128272000D01*
X145733580Y-127252000D02*
X145452420Y-127252000D01*
%TO.C,L1*%
X130634721Y-112774000D02*
X130960279Y-112774000D01*
X130634721Y-113794000D02*
X130960279Y-113794000D01*
%TO.C,SW3*%
X136464000Y-81855000D02*
X136464000Y-77655000D01*
X136464000Y-77655000D02*
X135264000Y-77655000D01*
X136114000Y-81855000D02*
X136464000Y-81855000D01*
X128464000Y-81855000D02*
X127264000Y-81855000D01*
X127264000Y-81855000D02*
X127264000Y-77655000D01*
X127264000Y-77655000D02*
X128464000Y-77655000D01*
X135364000Y-82335000D02*
X135364000Y-81855000D01*
X135844000Y-81855000D01*
X135364000Y-82335000D01*
G36*
X135364000Y-82335000D02*
G01*
X135364000Y-81855000D01*
X135844000Y-81855000D01*
X135364000Y-82335000D01*
G37*
%TO.C,C14*%
X133115580Y-105410000D02*
X132834420Y-105410000D01*
X133115580Y-104390000D02*
X132834420Y-104390000D01*
%TO.C,R6*%
X139939500Y-94598258D02*
X139939500Y-94123742D01*
X140984500Y-94598258D02*
X140984500Y-94123742D01*
%TO.C,R10*%
X132126258Y-108980500D02*
X131651742Y-108980500D01*
X132126258Y-107935500D02*
X131651742Y-107935500D01*
%TO.C,R2*%
X149444242Y-92441500D02*
X149918758Y-92441500D01*
X149444242Y-93486500D02*
X149918758Y-93486500D01*
%TO.C,J7*%
X122914000Y-83760000D02*
X124244000Y-83760000D01*
X122914000Y-85090000D02*
X122914000Y-83760000D01*
X122914000Y-86360000D02*
X122914000Y-96580000D01*
X122914000Y-86360000D02*
X125574000Y-86360000D01*
X122914000Y-96580000D02*
X125574000Y-96580000D01*
X125574000Y-86360000D02*
X125574000Y-96580000D01*
%TO.C,U1*%
X135284000Y-105707500D02*
X134944000Y-105237500D01*
X135624000Y-105237500D01*
X135284000Y-105707500D01*
G36*
X135284000Y-105707500D02*
G01*
X134944000Y-105237500D01*
X135624000Y-105237500D01*
X135284000Y-105707500D01*
G37*
X143094000Y-112477500D02*
X143094000Y-112027500D01*
X143094000Y-105257500D02*
X143094000Y-105707500D01*
X142644000Y-112477500D02*
X143094000Y-112477500D01*
X142644000Y-105257500D02*
X143094000Y-105257500D01*
X136324000Y-112477500D02*
X135874000Y-112477500D01*
X136324000Y-105257500D02*
X135874000Y-105257500D01*
X135874000Y-112477500D02*
X135874000Y-112027500D01*
X135874000Y-105257500D02*
X135874000Y-105707500D01*
%TO.C,R8*%
X137435258Y-84088500D02*
X136960742Y-84088500D01*
X137435258Y-83043500D02*
X136960742Y-83043500D01*
%TO.C,R7*%
X138415500Y-94598258D02*
X138415500Y-94123742D01*
X139460500Y-94598258D02*
X139460500Y-94123742D01*
%TO.C,SW2*%
X146354000Y-136850000D02*
X147854000Y-136850000D01*
X150354000Y-135600000D02*
X150354000Y-131100000D01*
X143854000Y-131100000D02*
X143854000Y-135600000D01*
X147854000Y-129850000D02*
X146354000Y-129850000D01*
%TO.C,C5*%
X137044000Y-88318748D02*
X137044000Y-88841252D01*
X135574000Y-88318748D02*
X135574000Y-88841252D01*
%TO.C,Y1*%
X130262000Y-105104000D02*
X126962000Y-105104000D01*
X126962000Y-105104000D02*
X126962000Y-109104000D01*
%TO.C,D1*%
X147801500Y-93699000D02*
X147801500Y-92229000D01*
X147801500Y-92229000D02*
X145516500Y-92229000D01*
X145516500Y-93699000D02*
X147801500Y-93699000D01*
%TO.C,J5*%
X153394000Y-93920000D02*
X154724000Y-93920000D01*
X153394000Y-95250000D02*
X153394000Y-93920000D01*
X153394000Y-96520000D02*
X153394000Y-106740000D01*
X153394000Y-96520000D02*
X156054000Y-96520000D01*
X153394000Y-106740000D02*
X156054000Y-106740000D01*
X156054000Y-96520000D02*
X156054000Y-106740000D01*
%TO.C,R3*%
X140006500Y-135652742D02*
X140006500Y-136127258D01*
X138961500Y-135652742D02*
X138961500Y-136127258D01*
%TO.C,C6*%
X138724000Y-88264420D02*
X138724000Y-88545580D01*
X137704000Y-88264420D02*
X137704000Y-88545580D01*
%TO.C,C9*%
X132525580Y-110746000D02*
X132244420Y-110746000D01*
X132525580Y-109726000D02*
X132244420Y-109726000D01*
%TO.C,C1*%
X133362420Y-127252000D02*
X133643580Y-127252000D01*
X133362420Y-128272000D02*
X133643580Y-128272000D01*
%TO.C,C16*%
X144058000Y-114159420D02*
X144058000Y-114440580D01*
X143038000Y-114159420D02*
X143038000Y-114440580D01*
%TO.C,C4*%
X150154000Y-85724420D02*
X150154000Y-86005580D01*
X149134000Y-85724420D02*
X149134000Y-86005580D01*
%TO.C,R9*%
X130833500Y-84565258D02*
X130833500Y-84090742D01*
X131878500Y-84565258D02*
X131878500Y-84090742D01*
%TO.C,J6*%
X153394000Y-124400000D02*
X154724000Y-124400000D01*
X153394000Y-125730000D02*
X153394000Y-124400000D01*
X153394000Y-127000000D02*
X153394000Y-137220000D01*
X153394000Y-127000000D02*
X156054000Y-127000000D01*
X153394000Y-137220000D02*
X156054000Y-137220000D01*
X156054000Y-127000000D02*
X156054000Y-137220000D01*
%TO.C,C10*%
X131866000Y-87235420D02*
X131866000Y-87516580D01*
X130846000Y-87235420D02*
X130846000Y-87516580D01*
%TO.C,D3*%
X149400000Y-82458000D02*
X149400000Y-83658000D01*
X151360000Y-82458000D02*
X149400000Y-82458000D01*
X151360000Y-83658000D02*
X149400000Y-83658000D01*
%TD*%
M02*
